<svg preserveAspectRatio="xMidYMid meet" data-bbox="0 0 288.66 60.74" viewBox="0 0 288.66 60.74" xmlns="http://www.w3.org/2000/svg" data-type="color" role="presentation" aria-hidden="true" aria-label="">
    <g>
        <path d="M87.56 14.69c7.81 0 14.07 3.69 17.76 9.78l-6.35 4.98c-3-4.29-6.78-6.43-11.32-6.43-7.55 0-13.21 6.01-13.21 13.64 0 7.72 5.66 13.73 13.21 13.73 4.46 0 8.24-2.14 11.32-6.35l6.35 4.89c-3.77 6.09-10.12 9.78-17.76 9.78-12.44 0-22.31-9.78-22.31-22.05-.26-12.1 10.21-22.13 22.31-21.96Z" fill="#231815" data-color="1"></path>
        <path d="M139.38 23.61h-2.75c-7.12 0-12.35 4.2-12.35 11.67v22.48h-9.01V15.63h8.41v5.49c3-3.77 7.46-5.92 12.27-5.92 1.29 0 2.4.17 3.43.43v7.98Z" fill="#231815" data-color="1"></path>
        <path d="M180.05 57.75h-8.41v-4.72c-3.09 3.69-7.72 5.66-13.47 5.66-8.84 0-14.67-4.89-14.67-12.18s6.01-12.01 15.53-12.01h11.92v-2.75c0-5.83-3.26-9.01-9.01-9.01-4.72 0-8.15 2.06-11.67 6.26l-5.23-5.32c4.2-6.09 10.47-9.01 17.76-9.01 10.38 0 17.24 6.26 17.24 17.59v25.48Zm-9.09-16.73h-10.81c-4.8 0-7.46 1.72-7.46 5.15 0 3.52 3 5.58 7.38 5.58 6.09 0 10.9-4.2 10.9-9.95v-.77Z" fill="#231815" data-color="1"></path>
        <path d="M229.81 15.63 209.48 58.7h-3.09l-20.42-43.07h9.61l12.35 27.88 12.27-27.88h9.61Z" fill="#231815" data-color="1"></path>
        <path fill="#231815" d="M246.97 15.63v42.12h-9.01V15.63h9.01z" data-color="1"></path>
        <path d="M261.21 44.88c3.69 3.86 7.38 6.01 11.84 6.01 3.86 0 6.78-1.63 6.78-4.72 0-2.49-1.8-3.52-5.92-5.23l-4.29-1.8c-7.46-3.09-10.98-6.35-10.98-12.27 0-7.55 6.26-12.18 14.84-12.18 6.09 0 10.9 2.14 14.58 6.52l-4.89 5.58c-2.66-2.75-6.18-4.29-9.87-4.29-3.52 0-5.75 1.37-5.75 4.03 0 2.14 1.46 3.26 5.58 4.98l4.03 1.63c7.98 3.35 11.5 6.78 11.5 12.7 0 4.03-1.46 7.21-4.46 9.52-3 2.23-6.69 3.35-11.15 3.35-7.21 0-13.21-3.26-16.99-8.15l5.15-5.66Z" fill="#231815" data-color="1"></path>
        <path fill="#231815" d="M248.09 5.62a5.62 5.62 0 1 1-11.24 0 5.62 5.62 0 0 1 11.24 0z" data-color="1"></path>
        <path d="m48.94 36.48.11-.26-.11-.27-.19-.45-6.77-16.36-.11-.27-.27-.11-16.81-6.96-.26-.11-.26.11-16.81 6.95-.26.11-.11.26L.11 35.95l-.11.27.11.26 6.96 16.81.11.27.27.11 16.57 6.86.24.1.27.11 1.78-.74 15.29-6.33.27-.12.11-.27 6.55-15.84.4-.97Zm-46.65-.27.29-.14 17.18-8.6v17.49L6.19 38.17l-3.9-1.95Zm19.75 9.67 9.72-6.28 3.6-2.32 4.89 14.67-10.67-3.56-7.54-2.51Zm18.21-25.4-4.89 14.67-3.13-2.02-10.19-6.57 11.1-3.7 7.12-2.37Zm-18.77 4.79.8-2.73 2.68-9.16 14.37 5.95-17.85 5.95Zm-1.45.04v.02L9.32 19.49l14.12-5.85-3.42 11.67Zm1.11 2.31 13.31 8.59-2.19 1.41-11.12 7.18V27.61ZM20.02 47.1l3.42 11.7-14.13-5.85 10.7-5.84Zm2.24 2.72-.78-2.66 9.24 3.08 8.61 2.87-14.37 5.95-2.7-9.23ZM41.4 21.4l5.85 14.12H36.69L41.4 21.4Zm-22.46 4.92L2.1 34.76l5.96-14.39 10.89 5.95Zm0 19.79-3.79 2.07-7.1 3.88-5.96-14.39 12.89 6.45 3.97 1.99Zm17.74-9.2h10.56l-5.85 14.12-4.71-14.12Z" fill="#231815" data-color="1"></path>
    </g>
</svg>