<svg aria-labelledby="culture-amp-logo" fill="none" height="36" viewBox="0 0 248 36" width="248" xmlns="http://www.w3.org/2000/svg">
    <g fill="#B233B7"><path d="m25.7678 20.2359c.0963.1604.1295.3509.0931.5343-.34 1.5449-1.1673 2.9397-2.3598 3.979-.0654.0495-.1204.1114-.1619.1821-.0149.0324-.0226.0676-.0226.1032 0 .0357.0077.0709.0226.1032.0238.0277.0538.0495.0875.0635.0338.0141.0703.0201.1068.0175.1727-.046.3396-.1112.4978-.1943.6995-.3973 1.3175-.9233 1.8215-1.5503.3036-.3683.6031-.7367.8905-1.1172.5412-.7515.9417-1.5949 1.182-2.4893.2185-.7245.4047-1.4572.6314-2.1817.0926-.2657.2049-.5241.336-.7731.0527-.0767.1138-.1473.1821-.2105h.0567c.0566.1902.1255.3724.1659.5667.1059.611.1209 1.2343.0446 1.8498-.084.801-.2481 1.5915-.4898 2.3598-.1693.4722-.3978.921-.68 1.3357-.7093 1.1691-1.547 2.2552-2.4975 3.2382-.7002.6762-1.4572 1.291-2.2627 1.8377-.0587.0301-.1121.0698-.1578.1174-.0471.0567-.0716.1287-.0688.2024.0169.0329.0416.0611.0719.0823s.0654.0346.1021.0391c.1693-.0011.3379-.0228.5019-.0648.7479-.2155 1.4474-.5728 2.0603-1.0524 1.7144-1.2639 3.1067-2.9141 4.0639-4.8168.61-1.2414 1.0055-2.5771 1.1698-3.9506.0985-.867.108-1.7418.0284-2.6107-.0695-.4453-.0558-.8996.0404-1.3398.0255-.1009.0622-.1987.1093-.2915.1093-.2105.2672-.2226.3724 0 .1107.2107.1924.4354.2429.6679.2222 1.1134.2917 2.2518.2064 3.3839-.1571 1.8393-.6195 3.6395-1.3681 5.3268-.7582 1.7373-1.8966 3.2824-3.3313 4.5213-.4655.4048-.9107.8096-1.3924 1.1901-.5785.4206-1.1983.7814-1.8498 1.0766-1.4375.7142-2.9674 1.2251-4.5456 1.5179-.9673.1679-1.9496.2331-2.9306.1943-.4816 0-.9674-.0323-1.449-.0566-1.089-.0603-2.1634-.2785-3.1897-.6477-1.4861-.5171-2.9145-1.1873-4.2622-1.9995-1.57169-.9637-2.91214-2.2613-3.9263-3.8009-.50066-.724-.93679-1.4906-1.30336-2.291-.01869-.0475-.04876-.0897-.08758-.1229-.03882-.0331-.0852-.0563-.13505-.0673-.26618-.0662-.51381-.1921-.72419-.3681-.21037-.176-.37797-.3976-.49013-.6479-.300143-.733-.533165-1.4916-.696204-2.2667-.296643-1.2513-.4554524-2.5312-.473586-3.817.0121573-.8141.0865841-1.626.222626-2.4287.153645-1.0906.425079-2.1614.809544-3.1936.34003-.90334.81793-1.74854 1.4167-2.50556.34811-.43715.6355-.92693.9755-1.37218 2.15791-2.85201 5.2474-4.85724 8.73093-5.666816.6719-.161909 1.3439-.331915 2.0239-.457395.6071-.113336 1.2143-.186194 1.8376-.242863.7205-.0647632 1.441-.12143121 2.1656-.12952666 2.9067-.04047474 5.7542.82380266 8.1481 2.47316066.2728.165.5186.37117.7285.61121.1551.18889.2583.41487.2996.65573.016.05667.0484.10735.0931.14572.5707.55049 1.1779 1.07264 1.7041 1.66361.8362.91359 1.4414 2.01427 1.7648 3.20985.1482.48288.1998.99023.1519 1.49306-.048.5028-.1945.9913-.4312 1.4375-.3959.6665-.9526 1.2232-1.6191 1.6191-.7415.5045-1.631.7454-2.5258.684-.8365-.0382-1.6305-.3791-2.2343-.9593-.6344-.6592-1.3104-1.2771-2.0239-1.8498-.4695-.3562-.9553-.6921-1.445-1.0119-.5921-.35579-1.248-.59231-1.9308-.69621-.7767-.14207-1.5677-.18964-2.3558-.14167-1.7229.03283-3.3899.61734-4.7561 1.66768-1.0238.7735-1.86646 1.7612-2.46906 2.8941-.34127.6874-.55651 1.4305-.6355 2.1939-.0659.4709-.10374.9453-.11333 1.4207.03818 1.3552.39157 2.6829 1.03217 3.8777.47332.9269 1.10322 1.7649 1.86192 2.4773.7057.6341 1.4875 1.178 2.3275 1.619.956.5183 2.0118.826 3.0965.9027 1.4244.1487 2.8632-.0672 4.1813-.6274.6317-.297 1.2134-.6902 1.7243-1.1658.8824-.7589 1.6226-1.6691 2.1858-2.6877.2105-.3683.3562-.7731.5343-1.1616.0526-.1174.1133-.2348.174-.3481.0371-.055.0806-.1052.1296-.1498"></path><path d="m237.751 14.0672c2.915 0 4.857 2.1696 4.857 5.3754s-1.942 5.343-4.857 5.343c-2.914 0-4.889-2.1372-4.889-5.3754s1.942-5.343 4.889-5.343zm-85.326-.3238c2.267 0 3.756 1.2629 4.113 3.2705h-8.193c.356-2.0238 1.846-3.2705 4.08-3.2705zm-73.4418 7.9011c0 1.9753-1.1657 3.1411-3.2382 3.1411-2.0724 0-3.3029-1.1658-3.3029-3.1411v-11.0745c0-.1074-.0426-.2103-.1186-.2863-.0759-.0759-.1788-.1185-.2862-.1185h-4.2096c-.1074 0-.2103.0426-.2862.1185-.0759.076-.1186.1789-.1186.2863v11.2688c0 4.9221 2.882 7.3831 6.5087 7.3831 2.5906 0 4.3392-1.5867 5.084-3.983v3.0763c.0058.1055.0503.2051.125.2797.0747.0747.1743.1192.2798.1251h4.242c.1073 0 .2103-.0427.2862-.1186s.1186-.1789.1186-.2862v-17.7452c0-.1074-.0427-.2103-.1186-.2863-.0759-.0759-.1789-.1185-.2862-.1185h-4.2582c-.1074 0-.2103.0426-.2862.1185-.076.076-.1186.1789-.1186.2863zm43.5858 0c0 1.9753-1.166 3.1411-3.238 3.1411-2.073 0-3.303-1.1658-3.303-3.1411v-11.0745c0-.1074-.043-.2103-.119-.2863-.075-.0759-.178-.1185-.286-.1185h-4.209c-.108 0-.211.0426-.287.1185-.076.076-.118.1789-.118.2863v11.2688c0 4.9221 2.882 7.3831 6.509 7.3831 2.59 0 4.339-1.5867 5.083-3.983v3.0763c.006.1055.051.2051.126.2797.074.0747.174.1192.279.1251h4.242c.108 0 .211-.0427.287-.1186.075-.0759.118-.1789.118-.2862v-17.7452c0-.1074-.043-.2103-.118-.2863-.076-.0759-.179-.1185-.287-.1185h-4.258c-.107 0-.21.0426-.286.1185-.076.076-.119.1789-.119.2863zm9.229 6.6707c0 .1073.043.2103.118.2862.076.0759.179.1186.287.1186h4.177c.107 0 .21-.0427.286-.1186s.119-.1789.119-.2862v-10.1679c0-2.5582 1.619-3.0439 3.886-3.0439h1.683c.108 0 .211-.0426.287-.1185s.118-.1789.118-.2863v-4.1286c0-.1074-.042-.2103-.118-.2863-.076-.0759-.179-.1185-.287-.1185h-.404c-2.72 0-4.404 1.2629-5.181 4.3392v-3.9182c0-.1074-.043-.2104-.119-.2863s-.179-.1185-.286-.1185h-4.177c-.108 0-.211.0426-.287.1185s-.118.1789-.118.2863zm65.055 0c0 .1073.043.2103.119.2862.075.0759.178.1186.286.1186h4.209c.108 0 .211-.0427.287-.1186.075-.0759.118-.1789.118-.2862v-11.3013c0-1.8133 1.004-2.9467 2.914-2.9467 1.911 0 2.98 1.1334 2.98 2.9467v11.3013c0 .1073.042.2103.118.2862s.179.1186.286.1186h4.242c.108 0 .211-.0427.287-.1186s.118-.1789.118-.2862v-11.3013c0-1.8133 1.036-2.9467 2.915-2.9467 1.878 0 2.979 1.1334 2.979 2.9467v11.3013c.005.1055.05.2051.125.2797.074.0747.174.1192.279.1251h4.21c.107 0 .21-.0427.286-.1186s.119-.1789.119-.2862v-11.4632c0-4.7925-2.834-7.22111-6.444-7.22111-3.044 0-4.598 1.97531-5.408 4.45251-.228-1.2357-.877-2.3544-1.836-3.166s-2.17-1.26622-3.426-1.28651c-2.655 0-3.853 1.61911-4.76 4.01531v-3.0762c0-.1074-.043-.2103-.119-.2863-.076-.0759-.178-.1185-.286-.1185h-4.209c-.108 0-.211.0426-.287.1185-.076.076-.118.1789-.118.2863zm51.131-8.8726c0-5.4402-3.206-9.81171-8.355-9.81171-3.367 0-5.958 1.78101-6.767 4.30681v-3.3677c0-.1074-.043-.2103-.119-.2863-.076-.0759-.179-.1185-.286-.1185h-4.226c-.107 0-.21.0426-.286.1185-.076.076-.119.1789-.119.2863v24.934c0 .1073.043.2103.119.2862s.179.1185.286.1185h4.242c.107 0 .21-.0426.286-.1185s.119-.1789.119-.2862v-10.5241c.809 2.5258 3.4 4.2744 6.767 4.2744 5.149 0 8.355-4.3392 8.355-9.8117zm-70.139-1.0929 3.266-8.81595 3.275 8.81595zm-16.191 1.101c0-5.5373-3.303-10.03839-9.261-10.03839-5.602 0-9.261 4.50109-9.261 10.03839 0 5.7316 4.08 10.006 10.297 10.006 3.368 0 6.25-1.4896 7.61-3.4649.035-.0462.061-.0992.075-.1556.015-.0565.018-.1153.008-.1729-.009-.0576-.029-.1127-.06-.162-.032-.0493-.072-.0918-.12-.1248l-2.834-2.5257c-.039-.0346-.085-.0605-.135-.0761s-.103-.0205-.155-.0144c-.051.0061-.102.0231-.146.0499-.045.0267-.084.0626-.114.1053-.484.6982-1.134 1.265-1.892 1.6494-.757.3844-1.598.5743-2.448.5526-2.396 0-4.598-1.1334-4.922-4.242h12.953c.055.005.109-.0021.161-.0207.051-.0186.098-.0482.136-.0868.039-.0387.069-.0853.087-.1367.019-.0514.026-.1062.021-.1606zm-65.978-5.343c0 .1073.0427.2103.1186.2862s.1788.1185.2862.1185h2.7201v8.6946c0 3.4972 1.7811 5.5373 5.5051 5.5373h3.465c.107 0 .21-.0427.286-.1186s.118-.1789.118-.2862v-3.643c.005-.0544-.002-.1092-.02-.1606-.019-.0513-.048-.098-.087-.1366-.039-.0387-.085-.0683-.137-.0869-.051-.0186-.106-.0256-.16-.0206h-2.352c-1.166 0-1.554-.4048-1.554-1.3925v-8.3788h3.853c.107 0 .21-.0426.286-.1185s.119-.1789.119-.2862v-3.5296c0-.1074-.043-.2104-.119-.2863s-.179-.1185-.286-.1185h-3.853v-5.34301c0-.10736-.043-.21031-.119-.28622s-.179-.11856-.286-.11856h-4.3029c-.0544-.00497-.1093.00208-.1606.02066-.0514.01858-.0981.04824-.1367.08686-.0386.03863-.0683.08529-.0868.13666-.0186.05137-.0257.1062-.0207.1606v5.31061h-2.7201c-.1073 0-.2103.0426-.2862.1186-.0759.0759-.1185.1788-.1185.2862zm72.73 14.248c-.018.0436-.025.0908-.02.1375.004.0468.02.0919.045.1314.025.0396.06.0726.1.0962.041.0236.087.0372.134.0396h4.954c.124.0037.245-.0341.345-.1075.1-.0733.172-.178.205-.2972l1.976-5.3754h9.973l2.024 5.3754c.034.1192.106.2239.206.2972.1.0734.221.1112.345.1075h5.051c.047-.0024.093-.016.134-.0396.04-.0236.075-.0566.1-.0962.025-.0395.041-.0846.045-.1314.005-.0467-.002-.0939-.02-.1375l-9.067-23.5416c-.036-.10723-.106-.19982-.2-.26399-.093-.06418-.204-.09652-.318-.09221h-6.444c-.118-.01169-.237.01718-.337.08188s-.175.16141-.213.27432zm-112.851-4.1449c-4.3068 0-7.1888-3.2058-7.1888-7.6421s2.882-7.64211 7.1888-7.64211c1.1837.01222 2.3484.29942 3.4021.83891 1.0537.5395 1.9675 1.3165 2.6695 2.2697.0298.0526.0718.0973.1224.1305.0506.0331.1084.0536.1686.06.0601.0063.1209-.0018.1773-.0236.0564-.0219.1067-.0569.1469-.1021l3.4325-2.94674c.0796-.07283.13-.17206.1419-.27927.0119-.1072-.0155-.21509-.0771-.3036-2.1049-3.07628-5.6669-4.6306-10.1679-4.6306-7.6907 0-12.7585 5.73158-12.7585 12.62891 0 6.9621 5.084 12.6937 12.7585 12.6937 4.501 0 8.2897-1.9106 10.1679-4.6954.0625-.0882.0904-.1963.0784-.3038-.0119-.1074-.0629-.2067-.1432-.2791l-3.4649-2.8334c-.0372-.0445-.0849-.079-.1388-.1006s-.1123-.0296-.1699-.0232c-.0577.0064-.1129.027-.1608.0599-.0478.0329-.0867.0771-.1133.1287-.7144.9305-1.6339 1.6835-2.6871 2.2003-1.0532.5167-2.2114.7833-3.3845.7788zm37.3362-21.06436h-4.2906c-.0544-.00498-.1092.00207-.1606.02065s-.098.04824-.1366.08687c-.0387.03862-.0683.08528-.0869.13665s-.0256.1062-.0207.1606v24.77209c0 .1073.0427.2103.1186.2862s.1789.1186.2862.1186h4.2704c.1073 0 .2103-.0427.2862-.1186s.1185-.1789.1185-.2862v-24.78019c.005-.0544-.002-.10923-.0206-.1606s-.0483-.09802-.0869-.13665c-.0386-.03862-.0853-.06828-.1366-.08686-.0514-.01859-.1062-.02564-.1606-.02066"></path></g>
</svg>
