<svg width="180" height="29" xmlns="http://www.w3.org/2000/svg"><g fill="#FFF"><path d="M15.23 3.908V1.77L0 3.026l1.018 2.001z"/><path d="M15.23 1.77v4.342l-5.7-.678m6.988 20.283h-.983v3.087h-.882v-3.087h-.984v-.712h2.85zm7.055 3.121h-1.017l-.78-1.459h-.306v1.459h-.882v-3.8h1.357c.36-.03.72.065 1.018.272a1.17 1.17 0 01.135 1.628 1.13 1.13 0 01-.475.34l.95 1.56zm-1.323-3.02a1.045 1.045 0 00-.44-.1h-.34v.983h.34a.617.617 0 00.474-.102.39.39 0 00.17-.407.424.424 0 00-.204-.373zm6.207 3.02h-.882v-3.8h.882zm6.886-.272a1.7 1.7 0 01-.984.238h-1.526v-3.765h1.289a1.89 1.89 0 01.95.17.807.807 0 01.474.78.895.895 0 01-.542.847.916.916 0 01.78.916c-.008.327-.172.63-.441.814zm-.882-2.815a.583.583 0 00-.407-.068h-.373v.882h.339c.14.03.285.006.407-.068a.39.39 0 00.203-.373.43.43 0 00-.17-.373zm.203 1.526a.59.59 0 00-.474-.101h-.475v.95h.475c.163.002.326-.033.474-.102a.444.444 0 00.102-.645l-.102-.102zm8.412-.034c.034.43-.1.855-.373 1.188-.7.61-1.743.61-2.442 0a1.716 1.716 0 01-.373-1.188V25.04h.882v2.204c-.025.224.023.45.135.645a.746.746 0 001.052.034l.034-.034a.868.868 0 00.135-.645V25.04h.882v2.204h.068zm7.801 1.595h-.916L48.3 26.26v2.578h-.847v-3.8h.95l1.627 2.545v-2.544h.882zm6.886 0h-2.51v-3.8h2.476v.713h-1.56v.78h1.492v.712h-1.493v.882h1.629zM56.1 19.137v2.137l15.196-1.255-1.018-2.001zm11.024-7.292l2.07-4.41-7.429.61v8.514l7.462-.61zm-62.918-.611l-2.103 4.41 7.428-.611V6.485l-7.462.611z"/><path d="M56.1 21.274v-4.376l5.665.713m-47.248-.204a4.07 4.07 0 01-1.357-.882 76.21 76.21 0 001.493-2c.387.481.976.757 1.594.745.407-.034.678-.237.678-.475a.397.397 0 00-.271-.373 2.157 2.157 0 00-.61-.203c-.238-.068-.476-.102-.68-.17a2.585 2.585 0 01-1.424-.78c-.341-.4-.544-.9-.576-1.424a2.49 2.49 0 01.135-1.12c.127-.334.311-.644.543-.916a3.47 3.47 0 01.916-.644c.387-.169.8-.272 1.221-.305a3.43 3.43 0 012.815.882c-.339.474-.983 1.56-1.22 1.967-.577-.746-1.018-.814-1.392-.78-.373.034-.576.271-.542.44.034.306.102.408.78.577a6.845 6.845 0 011.967.713c.581.451.94 1.13.984 1.865a2.907 2.907 0 01-.61 2.035 2.802 2.802 0 01-.95.712 3.585 3.585 0 01-1.323.306 4.318 4.318 0 01-2.171-.17zm15.161-.983l-1.017-3.426-.882 3.595-2.374.204-1.527-3.494-.474 3.663-2.476.204.915-8.615 2.375-.204 2.035 4.68 1.22-4.951 2.375-.204 2.306 8.344zm9.972-.814l-.576-1.391-2.34.203-.34 1.459-2.544.203 2.035-8.717 2.883-.237 3.46 8.276-2.578.203zm-2.34-3.765l.712-.068-.44-1.086-.272 1.154zm10.65 3.052l-1.763-2.544h-.102l.237 2.68-2.51.203-.712-8.48 3.087-.27a2.89 2.89 0 013.12 2.645 3.08 3.08 0 01-.203 1.357 2.839 2.839 0 01-.679.983l-.034.034 2.137 3.12-2.578.272zM45.891 9.81l.577-.033a.37.37 0 00.237-.34.34.34 0 00-.271-.305l-.577.034.034.644zm7.327 4.646l-.51-6.003-1.865.17-.203-2.477 6.207-.508.203 2.476-1.9.17.476 6.003zM9.531 7.435V5.434L61.765.889v2.035z"/><path d="M9.531 22.156V20.12l52.234-4.545v2.035zm0-5.19l-8.412.712L0 19.918l9.531-.781zM61.765 3.908v2.137l8.412-.713 1.119-2.204z"/></g></svg>