<?xml version="1.0" encoding="UTF-8"?>
<svg xmlns="http://www.w3.org/2000/svg" xmlns:xlink="http://www.w3.org/1999/xlink" width="102px" height="40px" viewBox="0 0 102 40" version="1.1"><!-- Generator: Sketch 45.2 (43514) - http://www.bohemiancoding.com/sketch --><title>smart-tribune-logo-white</title><desc>Created with Sketch.</desc><defs/><g id="Page-1" stroke="none" stroke-width="1" fill="none" fill-rule="evenodd"><g id="03_SmartTribune_Page_Interne" transform="translate(-218.000000, -41.000000)" fill-rule="nonzero" fill="#FFFFFF"><g id="00_HERO_BANNER" transform="translate(-181.000000, 13.000000)"><g id="NAVBAR" transform="translate(399.000000, 0.000000)"><g id="Logo" transform="translate(0.000000, 28.000000)"><g id="smart-tribune-logo-white"><polygon id="Shape" points="21.6385542 4.28915663 21.6385542 1.25301205 0 3.03614458 1.44578313 5.87951807"/><polyline id="Shape" points="21.6385542 1.25301205 21.6385542 7.42168675 13.5421687 6.45783133"/><polygon id="Shape" points="23.4698795 35.2771084 22.0722892 35.2771084 22.0722892 39.6626506 20.8192771 39.6626506 20.8192771 35.2771084 19.4216867 35.2771084 19.4216867 34.2650602 23.4698795 34.2650602"/><path d="M33.4939759,39.7108434 L32.0481928,39.7108434 L30.939759,37.6385542 L30.5060241,37.6385542 L30.5060241,39.7108434 L29.253012,39.7108434 L29.253012,34.313253 L31.1807229,34.313253 C31.6929482,34.2682768 32.2046889,34.404741 32.626506,34.6987952 C33.3074663,35.2900049 33.3929894,36.3162824 32.8192771,37.0120482 C32.6406311,37.2291853 32.4079175,37.3954093 32.1445783,37.4939759 L33.4939759,39.7108434 Z M31.6144578,35.4216867 C31.418694,35.3282989 31.2048421,35.2789484 30.9879518,35.2771084 L30.5060241,35.2771084 L30.5060241,36.6746988 L30.9879518,36.6746988 C31.2231588,36.7207088 31.4669488,36.6684681 31.6626506,36.5301205 C31.8546764,36.4055949 31.9504074,36.1758406 31.9036145,35.9518072 C31.9091466,35.7360618 31.798844,35.5338403 31.6144578,35.4216867 L31.6144578,35.4216867 Z" id="Shape"/><polygon id="Shape" points="40.4337349 39.7108434 39.1807229 39.7108434 39.1807229 34.313253 40.4337349 34.313253"/><path d="M50.2168675,39.3253012 C49.7961867,39.5773496 49.3086151,39.6950393 48.8192771,39.6626506 L46.6506024,39.6626506 L46.6506024,34.313253 L48.4819277,34.313253 C48.9450006,34.2754417 49.4099592,34.35847 49.8313253,34.5542169 C50.263699,34.7487381 50.5318293,35.1892378 50.5060241,35.6626506 C50.5204662,36.1844045 50.2147721,36.6620516 49.7349398,36.8674699 L49.7349398,36.8674699 C50.3774421,36.9636771 50.8505365,37.5190488 50.8433735,38.1686747 C50.8321725,38.632396 50.5991537,39.0625844 50.2168675,39.3253012 Z M48.9638554,35.3253012 C48.7892625,35.2237959 48.5836183,35.1895218 48.3855422,35.2289157 L47.8554217,35.2289157 L47.8554217,36.4819277 L48.3373494,36.4819277 C48.5353485,36.5251304 48.7423779,36.4906255 48.9156627,36.3855422 C49.1083043,36.2814688 49.2216145,36.0737333 49.2048193,35.8554217 C49.2190888,35.6493766 49.1284776,35.4500319 48.9638554,35.3253012 L48.9638554,35.3253012 Z M49.253012,37.4939759 C49.059279,37.3511981 48.8135397,37.2985397 48.5783133,37.3493976 L47.9036145,37.3493976 L47.9036145,38.6987952 L48.5783133,38.6987952 C48.8112626,38.7023483 49.0419727,38.6529104 49.253012,38.5542169 C49.3992812,38.4563358 49.4980523,38.3018406 49.5255015,38.1279961 C49.5529506,37.9541516 49.5065858,37.7767402 49.3975904,37.6385542 L49.253012,37.4939759 L49.253012,37.4939759 Z" id="Shape"/><path d="M61.2048193,37.4457831 C61.2526999,38.0554091 61.0627167,38.6599008 60.6746988,39.1325301 C59.681118,40.001053 58.1984001,40.001053 57.2048193,39.1325301 C56.8233261,38.6563956 56.6341752,38.0545515 56.6746988,37.4457831 L56.6746988,34.313253 L57.9277108,34.313253 L57.9277108,37.4457831 C57.8932802,37.7637216 57.9607864,38.084376 58.1204819,38.3614458 C58.5205291,38.785521 59.1879112,38.8070494 59.6144578,38.4096386 L59.6626506,38.3614458 C59.8446538,38.0933802 59.9138968,37.7644757 59.8554217,37.4457831 L59.8554217,34.313253 L61.1084337,34.313253 L61.1084337,37.4457831 L61.2048193,37.4457831 Z" id="Shape"/><polygon id="Shape" points="72.2891566 39.7108434 70.9879518 39.7108434 68.626506 36.0481928 68.626506 39.7108434 67.4216867 39.7108434 67.4216867 34.313253 68.7710843 34.313253 71.0843373 37.9277108 71.0843373 34.313253 72.3373494 34.313253"/><polygon id="Shape" points="82.0722892 39.7108434 78.5060241 39.7108434 78.5060241 34.313253 82.0240964 34.313253 82.0240964 35.3253012 79.8072289 35.3253012 79.8072289 36.4337349 81.9277108 36.4337349 81.9277108 37.4457831 79.8072289 37.4457831 79.8072289 38.6987952 82.1204819 38.6987952"/><polygon id="Shape" points="79.7108434 25.9277108 79.7108434 28.9638554 101.301205 27.1807229 99.8554217 24.3373494"/><polygon id="Shape" points="95.373494 15.5662651 98.313253 9.30120482 87.7590361 10.1686747 87.7590361 12.8192771 87.7590361 14.0722892 87.7590361 22.2650602 98.3614458 21.3975904"/><polygon id="Shape" points="5.97590361 14.6987952 2.98795181 20.9638554 13.5421687 20.0963855 13.5421687 17.3975904 13.5421687 16.1445783 13.5421687 7.95180723 2.93975904 8.81927711"/><polyline id="Shape" points="79.7108434 28.9638554 79.7108434 22.746988 87.7590361 23.7590361"/><path d="M20.626506,23.4698795 C19.9065502,23.1854365 19.2510275,22.7593467 18.6987952,22.2168675 C19.1807229,21.5903614 20.3855422,20 20.8192771,19.373494 C21.3695347,20.0583935 22.2059242,20.4498949 23.0843373,20.4337349 C23.6626506,20.3855422 24.0481928,20.0963855 24.0481928,19.7590361 C24.0461398,19.5181061 23.8912272,19.3051012 23.6626506,19.2289157 C23.3895787,19.0896979 23.0971689,18.992228 22.7951807,18.939759 C22.4578313,18.8433735 22.1204819,18.7951807 21.8313253,18.6987952 L21.8313253,18.6987952 C21.0550467,18.5564201 20.3452894,18.1677435 19.8072289,17.5903614 C19.3216216,17.0225068 19.0340432,16.312019 18.9879518,15.5662651 C18.9297427,15.0283783 18.9956908,14.4843066 19.1807229,13.9759036 C19.3612395,13.5011638 19.6220703,13.0610117 19.9518072,12.6746988 C20.3326628,12.3005096 20.7722112,11.9911978 21.253012,11.7590361 C21.8032137,11.5190789 22.3895587,11.3724927 22.9879518,11.3253012 C24.4419869,11.1187764 25.9116056,11.5791389 26.9879518,12.5783133 C26.5060241,13.253012 25.5903614,14.7951807 25.253012,15.373494 C24.4337349,14.313253 23.8072289,14.2168675 23.2771084,14.2650602 C22.746988,14.313253 22.4578313,14.6506024 22.5060241,14.8915663 C22.5542169,15.3253012 22.6506024,15.4698795 23.6144578,15.7108434 C24.5925431,15.9029564 25.535281,16.2442925 26.4096386,16.7228916 C27.2350687,17.3642731 27.744304,18.3300642 27.8072289,19.373494 C27.8933149,20.4122812 27.5834384,21.4452026 26.939759,22.2650602 C26.5674168,22.6949271 26.1072895,23.0400226 25.5903614,23.2771084 C24.9971962,23.5400681 24.3592551,23.6872853 23.7108434,23.7108434 C22.6790277,23.8953265 21.6171521,23.8123674 20.626506,23.4698795 L20.626506,23.4698795 Z" id="Shape"/><polygon id="Shape" points="42.1686747 22.0722892 40.7228916 17.2048193 39.4698795 22.313253 36.0963855 22.6024096 33.9277108 17.6385542 33.253012 22.8433735 29.7349398 23.1325301 31.0361446 10.8915663 34.4096386 10.6024096 37.3012048 17.253012 39.0361446 10.2168675 42.4096386 9.92771084 45.686747 21.7831325"/><path d="M56.3373494,20.9156627 L55.5180723,18.939759 L52.1927711,19.2289157 L51.7108434,21.3012048 L48.0963855,21.5903614 L50.9879518,9.20481928 L55.0843373,8.86746988 L60,20.626506 L56.3373494,20.9156627 Z M53.0120482,15.5662651 L54.0240964,15.4698795 L53.3975904,13.9277108 L53.0120482,15.5662651 Z" id="Shape"/><path d="M68.1445783,19.9036145 L65.6385542,16.2891566 L65.4939759,16.2891566 L65.8313253,20.0963855 L62.2650602,20.3855422 L61.253012,8.3373494 L65.6385542,7.95180723 C66.7252339,7.86118851 67.8033288,8.20655139 68.6350783,8.9117303 C69.4668278,9.61690921 69.9839101,10.6239792 70.0722892,11.7108434 C70.1220687,12.3669814 70.0232312,13.025898 69.7831325,13.6385542 C69.5646324,14.1675196 69.2360711,14.6439335 68.8192771,15.0361446 L68.7710843,15.0843373 L71.8072289,19.5180723 L68.1445783,19.9036145 Z M65.2048193,12.6746988 L66.0240964,12.626506 C66.2243855,12.5497956 66.3579242,12.359026 66.3614458,12.1445783 C66.344139,11.9301562 66.1868179,11.7531699 65.9759036,11.7108434 L65.1566265,11.7590361 L65.2048193,12.6746988 Z" id="Shape"/><polygon id="Shape" points="75.6144578 19.2771084 74.8915663 10.746988 72.2409639 10.9879518 71.9518072 7.46987952 80.7710843 6.74698795 81.060241 10.2650602 78.3614458 10.5060241 79.0361446 19.0361446"/><polygon id="Shape" points="13.5421687 9.30120482 13.5421687 6.45783133 87.7590361 0 87.7590361 2.89156627"/><polygon id="Shape" points="13.5421687 30.2168675 13.5421687 27.3253012 87.7590361 20.8674699 87.7590361 23.7590361"/><polygon id="Shape" points="13.5421687 22.8433735 1.59036145 23.8554217 0 27.0361446 13.5421687 25.9277108"/><polygon id="Shape" points="87.7590361 4.28915663 87.7590361 7.3253012 99.7108434 6.31325301 101.301205 3.18072289"/></g></g></g></g></g></g></svg>