<svg id="my-svg" width="100%" xmlns="http://www.w3.org/2000/svg" xmlns:xlink="http://www.w3.org/1999/xlink" class="flowchart" style="max-width: 1300.72px; background-color: transparent;" viewBox="0 0 1300.71875 197.9375" role="graphics-document document" aria-roledescription="flowchart-v2"><style>#my-svg{font-family:monospace;font-size:16px;fill:#000;}@keyframes edge-animation-frame{from{stroke-dashoffset:0;}}@keyframes dash{to{stroke-dashoffset:0;}}#my-svg .edge-animation-slow{stroke-dasharray:9,5!important;stroke-dashoffset:900;animation:dash 50s linear infinite;stroke-linecap:round;}#my-svg .edge-animation-fast{stroke-dasharray:9,5!important;stroke-dashoffset:900;animation:dash 20s linear infinite;stroke-linecap:round;}#my-svg .error-icon{fill:#FFF;}#my-svg .error-text{fill:#000000;stroke:#000000;}#my-svg .edge-thickness-normal{stroke-width:1px;}#my-svg .edge-thickness-thick{stroke-width:3.5px;}#my-svg .edge-pattern-solid{stroke-dasharray:0;}#my-svg .edge-thickness-invisible{stroke-width:0;fill:none;}#my-svg .edge-pattern-dashed{stroke-dasharray:3;}#my-svg .edge-pattern-dotted{stroke-dasharray:2;}#my-svg .marker{fill:rgb(0, 113, 206);stroke:rgb(0, 113, 206);}#my-svg .marker.cross{stroke:rgb(0, 113, 206);}#my-svg svg{font-family:monospace;font-size:16px;}#my-svg p{margin:0;}#my-svg .label{font-family:monospace;color:#000;}#my-svg .cluster-label text{fill:#000000;}#my-svg .cluster-label span{color:#000000;}#my-svg .cluster-label span p{background-color:transparent;}#my-svg .label text,#my-svg span{fill:#000;color:#000;}#my-svg .node rect,#my-svg .node circle,#my-svg .node ellipse,#my-svg .node polygon,#my-svg .node path{fill:#ddf1fb;stroke:#ACE;stroke-width:1px;}#my-svg .rough-node .label text,#my-svg .node .label text,#my-svg .image-shape .label,#my-svg .icon-shape .label{text-anchor:middle;}#my-svg .node .katex path{fill:#000;stroke:#000;stroke-width:1px;}#my-svg .rough-node .label,#my-svg .node .label,#my-svg .image-shape .label,#my-svg .icon-shape .label{text-align:center;}#my-svg .node.clickable{cursor:pointer;}#my-svg .root .anchor path{fill:rgb(0, 113, 206)!important;stroke-width:0;stroke:rgb(0, 113, 206);}#my-svg .arrowheadPath{fill:#000000;}#my-svg .edgePath .path{stroke:rgb(0, 113, 206);stroke-width:2.0px;}#my-svg .flowchart-link{stroke:rgb(0, 113, 206);fill:none;}#my-svg .edgeLabel{background-color:#F1F1F1;text-align:center;}#my-svg .edgeLabel p{background-color:#F1F1F1;}#my-svg .edgeLabel rect{opacity:0.5;background-color:#F1F1F1;fill:#F1F1F1;}#my-svg .labelBkg{background-color:rgba(241, 241, 241, 0.5);}#my-svg .cluster rect{fill:#FFF;stroke:#CCC;stroke-width:1px;}#my-svg .cluster text{fill:#000000;}#my-svg .cluster span{color:#000000;}#my-svg div.mermaidTooltip{position:absolute;text-align:center;max-width:200px;padding:2px;font-family:monospace;font-size:12px;background:#FFF;border:1px solid #CCC;border-radius:2px;pointer-events:none;z-index:100;}#my-svg .flowchartTitleText{text-anchor:middle;font-size:18px;fill:#000;}#my-svg rect.text{fill:none;stroke-width:0;}#my-svg .icon-shape,#my-svg .image-shape{background-color:#F1F1F1;text-align:center;}#my-svg .icon-shape p,#my-svg .image-shape p{background-color:#F1F1F1;padding:2px;}#my-svg .icon-shape rect,#my-svg .image-shape rect{opacity:0.5;background-color:#F1F1F1;fill:#F1F1F1;}#my-svg .label-icon{display:inline-block;height:1em;overflow:visible;vertical-align:-0.125em;}#my-svg .node .label-icon path{fill:currentColor;stroke:revert;stroke-width:revert;}#my-svg :root{--mermaid-font-family:"trebuchet ms",verdana,arial,sans-serif;}#my-svg .red&gt;*{fill:#f00!important;stroke:#f00!important;color:white!important;}#my-svg .red span{fill:#f00!important;stroke:#f00!important;color:white!important;}#my-svg .red tspan{fill:white!important;}#my-svg .green&gt;*{fill:#0f0!important;stroke:#0f0!important;color:white!important;}#my-svg .green span{fill:#0f0!important;stroke:#0f0!important;color:white!important;}#my-svg .green tspan{fill:white!important;}#my-svg .blue&gt;*{fill:#00f!important;stroke:#00f!important;color:white!important;}#my-svg .blue span{fill:#00f!important;stroke:#00f!important;color:white!important;}#my-svg .blue tspan{fill:white!important;}#my-svg .orange&gt;*{fill:#f70!important;stroke:#f70!important;color:white!important;}#my-svg .orange span{fill:#f70!important;stroke:#f70!important;color:white!important;}#my-svg .orange tspan{fill:white!important;}#my-svg .pink&gt;*{fill:#E900B7!important;stroke:#E900B7!important;color:white!important;}#my-svg .pink span{fill:#E900B7!important;stroke:#E900B7!important;color:white!important;}#my-svg .pink tspan{fill:white!important;}#my-svg .purple&gt;*{fill:#6F00F0!important;stroke:#6F00F0!important;color:white!important;}#my-svg .purple span{fill:#6F00F0!important;stroke:#6F00F0!important;color:white!important;}#my-svg .purple tspan{fill:white!important;}#my-svg .gray&gt;*{fill:#DDD!important;stroke:#DDD!important;color:#333!important;}#my-svg .gray span{fill:#DDD!important;stroke:#DDD!important;color:#333!important;}#my-svg .gray tspan{fill:#333!important;}</style><g><marker id="my-svg_flowchart-v2-pointEnd" class="marker flowchart-v2" viewBox="0 0 10 10" refX="5" refY="5" markerUnits="userSpaceOnUse" markerWidth="8" markerHeight="8" orient="auto"><path d="M 0 0 L 10 5 L 0 10 z" class="arrowMarkerPath" style="stroke-width: 1; stroke-dasharray: 1, 0;"/></marker><marker id="my-svg_flowchart-v2-pointStart" class="marker flowchart-v2" viewBox="0 0 10 10" refX="4.5" refY="5" markerUnits="userSpaceOnUse" markerWidth="8" markerHeight="8" orient="auto"><path d="M 0 5 L 10 10 L 10 0 z" class="arrowMarkerPath" style="stroke-width: 1; stroke-dasharray: 1, 0;"/></marker><marker id="my-svg_flowchart-v2-circleEnd" class="marker flowchart-v2" viewBox="0 0 10 10" refX="11" refY="5" markerUnits="userSpaceOnUse" markerWidth="11" markerHeight="11" orient="auto"><circle cx="5" cy="5" r="5" class="arrowMarkerPath" style="stroke-width: 1; stroke-dasharray: 1, 0;"/></marker><marker id="my-svg_flowchart-v2-circleStart" class="marker flowchart-v2" viewBox="0 0 10 10" refX="-1" refY="5" markerUnits="userSpaceOnUse" markerWidth="11" markerHeight="11" orient="auto"><circle cx="5" cy="5" r="5" class="arrowMarkerPath" style="stroke-width: 1; stroke-dasharray: 1, 0;"/></marker><marker id="my-svg_flowchart-v2-crossEnd" class="marker cross flowchart-v2" viewBox="0 0 11 11" refX="12" refY="5.2" markerUnits="userSpaceOnUse" markerWidth="11" markerHeight="11" orient="auto"><path d="M 1,1 l 9,9 M 10,1 l -9,9" class="arrowMarkerPath" style="stroke-width: 2; stroke-dasharray: 1, 0;"/></marker><marker id="my-svg_flowchart-v2-crossStart" class="marker cross flowchart-v2" viewBox="0 0 11 11" refX="-1" refY="5.2" markerUnits="userSpaceOnUse" markerWidth="11" markerHeight="11" orient="auto"><path d="M 1,1 l 9,9 M 10,1 l -9,9" class="arrowMarkerPath" style="stroke-width: 2; stroke-dasharray: 1, 0;"/></marker><g class="root"><g class="clusters"/><g class="edgePaths"><path d="M709.797,44.586L716.372,44.586C722.948,44.586,736.099,44.586,750.283,49.205C764.467,53.825,779.684,63.064,787.292,67.683L794.9,72.303" id="L_Async_Proxy_0" class="edge-thickness-normal edge-pattern-solid edge-thickness-normal edge-pattern-solid flowchart-link" style=";" data-edge="true" data-et="edge" data-id="L_Async_Proxy_0" data-points="W3sieCI6NzA5Ljc5Njg3NSwieSI6NDQuNTg1OTM3NX0seyJ4Ijo3NDkuMjUsInkiOjQ0LjU4NTkzNzV9LHsieCI6Nzk4LjMxOTU2NjY2MTIyMTUsInkiOjc0LjM3ODkwNjI1fV0=" marker-end="url(#my-svg_flowchart-v2-pointEnd)"/><path d="M297.125,158.172L303.701,158.172C310.276,158.172,323.427,158.172,335.911,158.172C348.396,158.172,360.214,158.172,366.122,158.172L372.031,158.172" id="L_HTTP_Router_0" class="edge-thickness-normal edge-pattern-solid edge-thickness-normal edge-pattern-solid flowchart-link" style=";" data-edge="true" data-et="edge" data-id="L_HTTP_Router_0" data-points="W3sieCI6Mjk3LjEyNSwieSI6MTU4LjE3MTg3NX0seyJ4IjozMzYuNTc4MTI1LCJ5IjoxNTguMTcxODc1fSx7IngiOjM3Ni4wMzEyNSwieSI6MTU4LjE3MTg3NX1d" marker-end="url(#my-svg_flowchart-v2-pointEnd)"/><path d="M493.828,158.172L497.995,158.172C502.161,158.172,510.495,158.172,520.57,158.172C530.646,158.172,542.464,158.172,548.372,158.172L554.281,158.172" id="L_Router_Endpoint_0" class="edge-thickness-normal edge-pattern-solid edge-thickness-normal edge-pattern-solid flowchart-link" style=";" data-edge="true" data-et="edge" data-id="L_Router_Endpoint_0" data-points="W3sieCI6NDkzLjgyODEyNSwieSI6MTU4LjE3MTg3NX0seyJ4Ijo1MTguODI4MTI1LCJ5IjoxNTguMTcxODc1fSx7IngiOjU1OC4yODEyNSwieSI6MTU4LjE3MTg3NX1d" marker-end="url(#my-svg_flowchart-v2-pointEnd)"/><path d="M695.344,158.172L704.328,158.172C713.313,158.172,731.281,158.172,747.874,153.552C764.467,148.933,779.684,139.694,787.292,135.074L794.9,130.455" id="L_Endpoint_Proxy_0" class="edge-thickness-normal edge-pattern-solid edge-thickness-normal edge-pattern-solid flowchart-link" style=";" data-edge="true" data-et="edge" data-id="L_Endpoint_Proxy_0" data-points="W3sieCI6Njk1LjM0Mzc1LCJ5IjoxNTguMTcxODc1fSx7IngiOjc0OS4yNSwieSI6MTU4LjE3MTg3NX0seyJ4Ijo3OTguMzE5NTY2NjYxMjIxNSwieSI6MTI4LjM3ODkwNjI1fV0=" marker-end="url(#my-svg_flowchart-v2-pointEnd)"/><path d="M896.875,101.379L903.451,101.379C910.026,101.379,923.177,101.379,935.745,101.454C948.313,101.529,960.297,101.679,966.289,101.754L972.282,101.829" id="L_Proxy_Backend_0" class="edge-thickness-normal edge-pattern-solid edge-thickness-normal edge-pattern-solid flowchart-link" style=";" data-edge="true" data-et="edge" data-id="L_Proxy_Backend_0" data-points="W3sieCI6ODk2Ljg3NSwieSI6MTAxLjM3ODkwNjI1fSx7IngiOjkzNi4zMjgxMjUsInkiOjEwMS4zNzg5MDYyNX0seyJ4Ijo5NzYuMjgxMjUsInkiOjEwMS44Nzg5MDYyNX1d" marker-end="url(#my-svg_flowchart-v2-pointEnd)"/><path d="M471.516,44.586L479.401,44.586C487.286,44.586,503.057,44.586,514.443,44.586C525.828,44.586,532.828,44.586,536.328,44.586L539.828,44.586" id="L_Q_Async_0" class="edge-thickness-normal edge-pattern-solid edge-thickness-normal edge-pattern-solid flowchart-link" style=";" data-edge="true" data-et="edge" data-id="L_Q_Async_0" data-points="W3sieCI6NDcxLjUxNTYyNSwieSI6NDQuNTg1OTM3NX0seyJ4Ijo1MTguODI4MTI1LCJ5Ijo0NC41ODU5Mzc1fSx7IngiOjU0My44MjgxMjUsInkiOjQ0LjU4NTkzNzV9XQ==" marker-end="url(#my-svg_flowchart-v2-pointEnd)"/><path d="M71.531,158.172L75.698,158.172C79.865,158.172,88.198,158.172,95.865,158.172C103.531,158.172,110.531,158.172,114.031,158.172L117.531,158.172" id="L_U_HTTP_0" class="edge-thickness-normal edge-pattern-solid edge-thickness-normal edge-pattern-solid flowchart-link" style=";" data-edge="true" data-et="edge" data-id="L_U_HTTP_0" data-points="W3sieCI6NzEuNTMxMjUsInkiOjE1OC4xNzE4NzV9LHsieCI6OTYuNTMxMjUsInkiOjE1OC4xNzE4NzV9LHsieCI6MTIxLjUzMTI1LCJ5IjoxNTguMTcxODc1fV0=" marker-end="url(#my-svg_flowchart-v2-pointEnd)"/><path d="M1073.719,101.879L1077.802,101.796C1081.885,101.712,1090.052,101.546,1097.635,101.462C1105.219,101.379,1112.219,101.379,1115.719,101.379L1119.219,101.379" id="L_Backend_B_0" class="edge-thickness-normal edge-pattern-solid edge-thickness-normal edge-pattern-solid flowchart-link" style=";" data-edge="true" data-et="edge" data-id="L_Backend_B_0" data-points="W3sieCI6MTA3My43MTg3NSwieSI6MTAxLjg3ODkwNjI1fSx7IngiOjEwOTguMjE4NzUsInkiOjEwMS4zNzg5MDYyNX0seyJ4IjoxMTIzLjIxODc1LCJ5IjoxMDEuMzc4OTA2MjV9XQ==" marker-end="url(#my-svg_flowchart-v2-pointEnd)"/></g><g class="edgeLabels"><g class="edgeLabel" transform="translate(749.25, 44.5859375)"><g class="label" data-id="L_Async_Proxy_0" transform="translate(-14.453125, -12)"><foreignObject width="28.90625" height="24"><div xmlns="http://www.w3.org/1999/xhtml" class="labelBkg" style="display: table-cell; white-space: nowrap; line-height: 1.5; max-width: 200px; text-align: center;"><span class="edgeLabel"><p>(2)</p></span></div></foreignObject></g></g><g class="edgeLabel" transform="translate(336.578125, 158.171875)"><g class="label" data-id="L_HTTP_Router_0" transform="translate(-14.453125, -12)"><foreignObject width="28.90625" height="24"><div xmlns="http://www.w3.org/1999/xhtml" class="labelBkg" style="display: table-cell; white-space: nowrap; line-height: 1.5; max-width: 200px; text-align: center;"><span class="edgeLabel"><p>(1)</p></span></div></foreignObject></g></g><g class="edgeLabel"><g class="label" data-id="L_Router_Endpoint_0" transform="translate(0, 0)"><foreignObject width="0" height="0"><div xmlns="http://www.w3.org/1999/xhtml" class="labelBkg" style="display: table-cell; white-space: nowrap; line-height: 1.5; max-width: 200px; text-align: center;"><span class="edgeLabel"></span></div></foreignObject></g></g><g class="edgeLabel" transform="translate(749.25, 158.171875)"><g class="label" data-id="L_Endpoint_Proxy_0" transform="translate(-14.453125, -12)"><foreignObject width="28.90625" height="24"><div xmlns="http://www.w3.org/1999/xhtml" class="labelBkg" style="display: table-cell; white-space: nowrap; line-height: 1.5; max-width: 200px; text-align: center;"><span class="edgeLabel"><p>(2)</p></span></div></foreignObject></g></g><g class="edgeLabel" transform="translate(936.328125, 101.37890625)"><g class="label" data-id="L_Proxy_Backend_0" transform="translate(-14.453125, -12)"><foreignObject width="28.90625" height="24"><div xmlns="http://www.w3.org/1999/xhtml" class="labelBkg" style="display: table-cell; white-space: nowrap; line-height: 1.5; max-width: 200px; text-align: center;"><span class="edgeLabel"><p>(3)</p></span></div></foreignObject></g></g><g class="edgeLabel"><g class="label" data-id="L_Q_Async_0" transform="translate(0, 0)"><foreignObject width="0" height="0"><div xmlns="http://www.w3.org/1999/xhtml" class="labelBkg" style="display: table-cell; white-space: nowrap; line-height: 1.5; max-width: 200px; text-align: center;"><span class="edgeLabel"></span></div></foreignObject></g></g><g class="edgeLabel"><g class="label" data-id="L_U_HTTP_0" transform="translate(0, 0)"><foreignObject width="0" height="0"><div xmlns="http://www.w3.org/1999/xhtml" class="labelBkg" style="display: table-cell; white-space: nowrap; line-height: 1.5; max-width: 200px; text-align: center;"><span class="edgeLabel"></span></div></foreignObject></g></g><g class="edgeLabel"><g class="label" data-id="L_Backend_B_0" transform="translate(0, 0)"><foreignObject width="0" height="0"><div xmlns="http://www.w3.org/1999/xhtml" class="labelBkg" style="display: table-cell; white-space: nowrap; line-height: 1.5; max-width: 200px; text-align: center;"><span class="edgeLabel"></span></div></foreignObject></g></g></g><g class="nodes"><g class="node default" id="flowchart-Async-0" transform="translate(626.8125, 44.5859375)"><rect class="basic label-container" style="" x="-82.984375" y="-27" width="165.96875" height="54"/><g class="label" style="" transform="translate(-52.984375, -12)"><rect/><foreignObject width="105.96875" height="24"><div xmlns="http://www.w3.org/1999/xhtml" style="display: table-cell; white-space: nowrap; line-height: 1.5; max-width: 200px; text-align: center;"><span class="nodeLabel"><p>Async agent</p></span></div></foreignObject></g></g><g class="node default" id="flowchart-Proxy-1" transform="translate(842.7890625, 101.37890625)"><rect class="basic label-container" style="" x="-54.0859375" y="-27" width="108.171875" height="54"/><g class="label" style="" transform="translate(-24.0859375, -12)"><rect/><foreignObject width="48.171875" height="24"><div xmlns="http://www.w3.org/1999/xhtml" style="display: table-cell; white-space: nowrap; line-height: 1.5; max-width: 200px; text-align: center;"><span class="nodeLabel"><p>Proxy</p></span></div></foreignObject></g></g><g class="node default" id="flowchart-HTTP-2" transform="translate(209.328125, 158.171875)"><rect class="basic label-container" style="" x="-87.796875" y="-27" width="175.59375" height="54"/><g class="label" style="" transform="translate(-57.796875, -12)"><rect/><foreignObject width="115.59375" height="24"><div xmlns="http://www.w3.org/1999/xhtml" style="display: table-cell; white-space: nowrap; line-height: 1.5; max-width: 200px; text-align: center;"><span class="nodeLabel"><p>HTTP Adapter</p></span></div></foreignObject></g></g><g class="node default" id="flowchart-Router-3" transform="translate(434.9296875, 158.171875)"><rect class="basic label-container" style="" x="-58.8984375" y="-27" width="117.796875" height="54"/><g class="label" style="" transform="translate(-28.8984375, -12)"><rect/><foreignObject width="57.796875" height="24"><div xmlns="http://www.w3.org/1999/xhtml" style="display: table-cell; white-space: nowrap; line-height: 1.5; max-width: 200px; text-align: center;"><span class="nodeLabel"><p>Router</p></span></div></foreignObject></g></g><g class="node default" id="flowchart-Endpoint-4" transform="translate(626.8125, 158.171875)"><rect class="basic label-container" style="" x="-68.53125" y="-27" width="137.0625" height="54"/><g class="label" style="" transform="translate(-38.53125, -12)"><rect/><foreignObject width="77.0625" height="24"><div xmlns="http://www.w3.org/1999/xhtml" style="display: table-cell; white-space: nowrap; line-height: 1.5; max-width: 200px; text-align: center;"><span class="nodeLabel"><p>Endpoint</p></span></div></foreignObject></g></g><g class="node default" id="flowchart-Backend-6" transform="translate(1024.5, 101.37890625)"><g class="basic label-container outer-path"><path d="M-43.71875 -27 C-19.962984363241894 -27, 3.792781273516212 -27, 43.71875 -27 C43.71875 -27, 43.71875 -27, 43.71875 -27 C43.87348388071426 -26.993600159353868, 44.02821776142852 -26.98720031870774, 44.13164672736166 -26.982922465033347 C44.27806480251997 -26.964671470998212, 44.42448287767828 -26.946420476963077, 44.54172295140367 -26.931806517013612 C44.66230456192062 -26.90652321205889, 44.78288617243758 -26.881239907104163, 44.946177435703994 -26.847001329696653 C45.0777078237407 -26.807843036572425, 45.20923821177741 -26.7686847434482, 45.34224734602342 -26.729086208503173 C45.448646783258425 -26.687569019261556, 45.55504622049342 -26.646051830019935, 45.727227123264846 -26.578866633275286 C45.83971010130575 -26.52387705607036, 45.95219307934666 -26.468887478865433, 46.098486965185366 -26.397368756032446 C46.22415172865278 -26.32248881014647, 46.3498164921202 -26.247608864260496, 46.453490790612136 -26.185832391312644 C46.54857620429057 -26.117942710836445, 46.643661617968995 -26.050053030360246, 46.78981356344834 -25.94570254698197 C46.895646092933475 -25.85606696684399, 47.00147862241862 -25.766431386706007, 47.105157858128706 -25.678619553365657 C47.19575457773321 -25.58802283376115, 47.28635129733772 -25.49742611415665, 47.39736955336566 -25.386407858128706 C47.46250116760783 -25.309507106506544, 47.52763278185 -25.23260635488438, 47.66445254698197 -25.07106356344834 C47.748764327946056 -24.952977566950747, 47.83307610891014 -24.834891570453152, 47.904582391312644 -24.734740790612136 C47.96538393320057 -24.632702637547293, 48.026185475088496 -24.530664484482454, 48.11611875603245 -24.37973696518537 C48.184290060768895 -24.240290332506, 48.25246136550533 -24.100843699826633, 48.29761663327529 -24.008477123264846 C48.33468281444287 -23.913484642108912, 48.37174899561046 -23.81849216095298, 48.447836208503176 -23.623497346023417 C48.47763064027824 -23.523419613823112, 48.5074250720533 -23.423341881622804, 48.56575132969665 -23.227427435703994 C48.58347219564382 -23.14291275063844, 48.601193061591 -23.058398065572888, 48.65055651701361 -22.82297295140367 C48.668482706841715 -22.6791606086622, 48.68640889666982 -22.53534826592073, 48.70167246503335 -22.412896727361662 C48.70562017513484 -22.317449897086572, 48.70956788523633 -22.22200306681148, 48.71875 -22 C48.71875 -22, 48.71875 -22, 48.71875 -22 C48.71875 -9.228771930023024, 48.71875 3.542456139953952, 48.71875 22 C48.71875 22, 48.71875 22, 48.71875 22 C48.7135468290572 22.125801074826143, 48.708343658114394 22.251602149652282, 48.70167246503335 22.412896727361662 C48.68480777939114 22.548193183276748, 48.667943093748946 22.683489639191833, 48.65055651701361 22.82297295140367 C48.632973987737365 22.906827878632825, 48.615391458461126 22.990682805861983, 48.56575132969665 23.227427435703994 C48.51889289756611 23.384822134736698, 48.47203446543557 23.542216833769405, 48.447836208503176 23.623497346023417 C48.41055436822983 23.719042514100266, 48.373272527956495 23.814587682177116, 48.29761663327529 24.008477123264846 C48.225655149706135 24.15567669066532, 48.15369366613698 24.302876258065794, 48.11611875603245 24.379736965185366 C48.067129196176445 24.461952054670764, 48.01813963632045 24.54416714415616, 47.904582391312644 24.734740790612133 C47.839653810405714 24.825678926302036, 47.77472522949879 24.916617061991936, 47.66445254698197 25.07106356344834 C47.57110187265138 25.18128249635803, 47.477751198320796 25.291501429267715, 47.39736955336566 25.386407858128706 C47.297197781111244 25.48657963038312, 47.19702600885683 25.58675140263753, 47.105157858128706 25.678619553365657 C47.012647392702604 25.75697192080546, 46.92013692727651 25.835324288245257, 46.78981356344834 25.94570254698197 C46.691086086213964 26.01619261085581, 46.59235860897958 26.086682674729655, 46.453490790612136 26.185832391312644 C46.356982018270315 26.243339137444792, 46.2604732459285 26.300845883576944, 46.098486965185366 26.397368756032446 C45.99196946539081 26.449441988628568, 45.885451965596246 26.501515221224693, 45.727227123264846 26.578866633275286 C45.64330854467147 26.611611764254256, 45.5593899660781 26.644356895233223, 45.34224734602342 26.729086208503173 C45.260902826794656 26.753303521137575, 45.1795583075659 26.777520833771977, 44.946177435703994 26.847001329696653 C44.78590809991097 26.880606275545144, 44.62563876411794 26.91421122139364, 44.54172295140367 26.931806517013612 C44.42690166466911 26.946118975479095, 44.31208037793454 26.960431433944578, 44.13164672736166 26.982922465033347 C44.04447450436761 26.986527934846137, 43.95730228137356 26.990133404658923, 43.71875 27 C43.71875 27, 43.71875 27, 43.71875 27 C15.67055897820169 27, -12.37763204359662 27, -43.71875 27 C-43.71875 27, -43.71875 27, -43.71875 27 C-43.804409864803745 26.99645708178466, -43.8900697296075 26.992914163569317, -44.13164672736166 26.982922465033347 C-44.29511346442453 26.962546357508018, -44.4585802014874 26.942170249982688, -44.54172295140367 26.931806517013612 C-44.63691367903776 26.91184712034179, -44.73210440667186 26.89188772366997, -44.946177435703994 26.847001329696653 C-45.087039818523245 26.805064781352602, -45.2279022013425 26.76312823300855, -45.34224734602342 26.729086208503173 C-45.42257685904114 26.6977415352576, -45.502906372058874 26.66639686201203, -45.727227123264846 26.578866633275286 C-45.81703157852106 26.534963910288504, -45.906836033777275 26.491061187301725, -46.098486965185366 26.397368756032446 C-46.20555339131356 26.333571013742002, -46.31261981744175 26.26977327145156, -46.453490790612136 26.185832391312644 C-46.54271121178229 26.122130235000025, -46.63193163295244 26.058428078687406, -46.78981356344834 25.94570254698197 C-46.87129674270795 25.876689814507806, -46.952779921967554 25.807677082033642, -47.105157858128706 25.67861955336566 C-47.200092933084285 25.58368447841008, -47.29502800803986 25.488749403454506, -47.39736955336566 25.386407858128706 C-47.460548335046205 25.311812811555136, -47.523727116726754 25.23721776498157, -47.66445254698197 25.07106356344834 C-47.729670670184305 24.979719898541877, -47.79488879338664 24.888376233635416, -47.904582391312644 24.734740790612133 C-47.94774550203742 24.66230374441011, -47.990908612762205 24.589866698208088, -48.11611875603244 24.37973696518537 C-48.183999361593585 24.240884967173404, -48.25187996715473 24.10203296916144, -48.29761663327528 24.00847712326485 C-48.34473218646357 23.887730308853236, -48.39184773965186 23.76698349444162, -48.447836208503176 23.623497346023417 C-48.47437922906446 23.534340911573707, -48.50092224962575 23.445184477124002, -48.56575132969665 23.227427435703994 C-48.58423863506358 23.13925743343356, -48.602725940430496 23.051087431163126, -48.65055651701361 22.82297295140367 C-48.66679829055569 22.692673789910902, -48.68304006409776 22.562374628418134, -48.70167246503335 22.412896727361662 C-48.70746056872116 22.27295328265519, -48.71324867240897 22.133009837948723, -48.71875 22 C-48.71875 22, -48.71875 22, -48.71875 22 C-48.71875 12.796884513251307, -48.71875 3.5937690265026134, -48.71875 -22 C-48.71875 -22, -48.71875 -22, -48.71875 -22 C-48.71222034430822 -22.157872519142753, -48.70569068861644 -22.315745038285506, -48.70167246503335 -22.41289672736166 C-48.68857516403769 -22.517969448215208, -48.675477863042026 -22.623042169068754, -48.65055651701361 -22.82297295140367 C-48.62453315979318 -22.94708403301728, -48.59850980257275 -23.07119511463089, -48.56575132969665 -23.227427435703994 C-48.534875639151245 -23.331137052092412, -48.50399994860584 -23.434846668480834, -48.447836208503176 -23.623497346023417 C-48.40293059691602 -23.73858056550055, -48.35802498532887 -23.85366378497768, -48.29761663327529 -24.008477123264846 C-48.24076319058169 -24.12477269910138, -48.18390974788808 -24.241068274937916, -48.11611875603245 -24.379736965185366 C-48.04472994276812 -24.499542852154647, -47.973341129503794 -24.61934873912393, -47.904582391312644 -24.734740790612133 C-47.82929756622872 -24.840183748755422, -47.7540127411448 -24.945626706898715, -47.66445254698197 -25.07106356344834 C-47.59988416102094 -25.147299312695562, -47.535315775059914 -25.223535061942783, -47.39736955336566 -25.386407858128706 C-47.31318102253271 -25.470596388961656, -47.228992491699756 -25.554784919794606, -47.105157858128706 -25.678619553365657 C-46.99400469246921 -25.772761482473204, -46.88285152680971 -25.86690341158075, -46.78981356344834 -25.945702546981966 C-46.66985807129294 -26.031349122189987, -46.549902579137544 -26.116995697398007, -46.453490790612136 -26.185832391312644 C-46.3367096140717 -26.255418868369244, -46.21992843753126 -26.325005345425847, -46.098486965185366 -26.397368756032446 C-45.97193001819731 -26.45923867740569, -45.84537307120926 -26.521108598778937, -45.727227123264846 -26.578866633275286 C-45.59693587339162 -26.62970643673746, -45.4666446235184 -26.680546240199636, -45.34224734602342 -26.729086208503173 C-45.190641518018396 -26.774221219058337, -45.03903569001337 -26.8193562296135, -44.946177435703994 -26.847001329696653 C-44.78981333880496 -26.87978743305785, -44.63344924190592 -26.912573536419046, -44.54172295140367 -26.931806517013612 C-44.429878444326 -26.945747920281825, -44.31803393724833 -26.959689323550034, -44.13164672736166 -26.982922465033347 C-44.0075518519578 -26.988055067046044, -43.883456976553944 -26.993187669058738, -43.71875 -27 C-43.71875 -27, -43.71875 -27, -43.71875 -27" stroke="none" stroke-width="0" fill="#ddf1fb" style=""/><path d="M-43.71875 -27 C-25.39155939701825 -27, -7.064368794036497 -27, 43.71875 -27 M-43.71875 -27 C-20.25061760847962 -27, 3.2175147830407624 -27, 43.71875 -27 M43.71875 -27 C43.71875 -27, 43.71875 -27, 43.71875 -27 M43.71875 -27 C43.71875 -27, 43.71875 -27, 43.71875 -27 M43.71875 -27 C43.87991157458829 -26.99333430796873, 44.04107314917658 -26.986668615937457, 44.13164672736166 -26.982922465033347 M43.71875 -27 C43.86761706370568 -26.993842812700258, 44.01648412741137 -26.987685625400513, 44.13164672736166 -26.982922465033347 M44.13164672736166 -26.982922465033347 C44.24294841970048 -26.969048723551772, 44.3542501120393 -26.955174982070194, 44.54172295140367 -26.931806517013612 M44.13164672736166 -26.982922465033347 C44.225227988410545 -26.971257573008526, 44.318809249459434 -26.959592680983707, 44.54172295140367 -26.931806517013612 M44.54172295140367 -26.931806517013612 C44.70019705951182 -26.89857799082667, 44.858671167619974 -26.865349464639728, 44.946177435703994 -26.847001329696653 M44.54172295140367 -26.931806517013612 C44.64399703560702 -26.910361896654067, 44.74627111981038 -26.88891727629452, 44.946177435703994 -26.847001329696653 M44.946177435703994 -26.847001329696653 C45.07193107674732 -26.809562848666406, 45.19768471779065 -26.77212436763616, 45.34224734602342 -26.729086208503173 M44.946177435703994 -26.847001329696653 C45.09499919570531 -26.80269517209778, 45.24382095570664 -26.758389014498913, 45.34224734602342 -26.729086208503173 M45.34224734602342 -26.729086208503173 C45.49496057176045 -26.669497322909553, 45.647673797497475 -26.609908437315934, 45.727227123264846 -26.578866633275286 M45.34224734602342 -26.729086208503173 C45.44511423893996 -26.68894742233196, 45.547981131856496 -26.648808636160748, 45.727227123264846 -26.578866633275286 M45.727227123264846 -26.578866633275286 C45.82595363226132 -26.530602183994258, 45.92468014125779 -26.48233773471323, 46.098486965185366 -26.397368756032446 M45.727227123264846 -26.578866633275286 C45.84524259956643 -26.521172382478493, 45.96325807586802 -26.4634781316817, 46.098486965185366 -26.397368756032446 M46.098486965185366 -26.397368756032446 C46.1941307494344 -26.340377430928374, 46.28977453368344 -26.283386105824302, 46.453490790612136 -26.185832391312644 M46.098486965185366 -26.397368756032446 C46.1866707601931 -26.344822619661358, 46.27485455520085 -26.292276483290266, 46.453490790612136 -26.185832391312644 M46.453490790612136 -26.185832391312644 C46.53338841801982 -26.128786581806484, 46.61328604542751 -26.071740772300323, 46.78981356344834 -25.94570254698197 M46.453490790612136 -26.185832391312644 C46.55236145708335 -26.11524009228874, 46.651232123554564 -26.044647793264833, 46.78981356344834 -25.94570254698197 M46.78981356344834 -25.94570254698197 C46.86763926695052 -25.879787538458583, 46.9454649704527 -25.813872529935196, 47.105157858128706 -25.678619553365657 M46.78981356344834 -25.94570254698197 C46.89099394343395 -25.860007136480938, 46.992174323419555 -25.77431172597991, 47.105157858128706 -25.678619553365657 M47.105157858128706 -25.678619553365657 C47.178248888300175 -25.605528523194184, 47.25133991847165 -25.532437493022716, 47.39736955336566 -25.386407858128706 M47.105157858128706 -25.678619553365657 C47.2108001961407 -25.572977215353664, 47.31644253415269 -25.467334877341667, 47.39736955336566 -25.386407858128706 M47.39736955336566 -25.386407858128706 C47.469903867326515 -25.30076675546467, 47.54243818128738 -25.215125652800637, 47.66445254698197 -25.07106356344834 M47.39736955336566 -25.386407858128706 C47.472370780035725 -25.29785407713278, 47.5473720067058 -25.20930029613685, 47.66445254698197 -25.07106356344834 M47.66445254698197 -25.07106356344834 C47.750102782591696 -24.95110294458137, 47.83575301820142 -24.8311423257144, 47.904582391312644 -24.734740790612136 M47.66445254698197 -25.07106356344834 C47.757859173792006 -24.940239442783156, 47.85126580060204 -24.809415322117975, 47.904582391312644 -24.734740790612136 M47.904582391312644 -24.734740790612136 C47.95261337257709 -24.654134403571, 48.00064435384154 -24.573528016529867, 48.11611875603245 -24.37973696518537 M47.904582391312644 -24.734740790612136 C47.97975054415646 -24.608592353462026, 48.054918697000275 -24.48244391631192, 48.11611875603245 -24.37973696518537 M48.11611875603245 -24.37973696518537 C48.18710694963787 -24.234528294227136, 48.258095143243295 -24.089319623268906, 48.29761663327529 -24.008477123264846 M48.11611875603245 -24.37973696518537 C48.1781144343479 -24.252922778260455, 48.240110112663345 -24.12610859133554, 48.29761663327529 -24.008477123264846 M48.29761663327529 -24.008477123264846 C48.35095665849456 -23.871778354174225, 48.40429668371384 -23.735079585083604, 48.447836208503176 -23.623497346023417 M48.29761663327529 -24.008477123264846 C48.33793177523583 -23.905158269194853, 48.37824691719638 -23.80183941512486, 48.447836208503176 -23.623497346023417 M48.447836208503176 -23.623497346023417 C48.4874467306373 -23.49044794751899, 48.52705725277143 -23.357398549014565, 48.56575132969665 -23.227427435703994 M48.447836208503176 -23.623497346023417 C48.47838677330511 -23.520879807756593, 48.50893733810704 -23.41826226948977, 48.56575132969665 -23.227427435703994 M48.56575132969665 -23.227427435703994 C48.59546908107273 -23.085696980437692, 48.62518683244881 -22.943966525171387, 48.65055651701361 -22.82297295140367 M48.56575132969665 -23.227427435703994 C48.586307598965846 -23.129390092123398, 48.60686386823504 -23.0313527485428, 48.65055651701361 -22.82297295140367 M48.65055651701361 -22.82297295140367 C48.67096441794012 -22.659251152693525, 48.69137231886663 -22.495529353983375, 48.70167246503335 -22.412896727361662 M48.65055651701361 -22.82297295140367 C48.665014452060575 -22.706984582974798, 48.679472387107545 -22.590996214545925, 48.70167246503335 -22.412896727361662 M48.70167246503335 -22.412896727361662 C48.70614841291626 -22.304678285045277, 48.710624360799166 -22.196459842728892, 48.71875 -22 M48.70167246503335 -22.412896727361662 C48.705495099217025 -22.320473953968285, 48.709317733400695 -22.22805118057491, 48.71875 -22 M48.71875 -22 C48.71875 -22, 48.71875 -22, 48.71875 -22 M48.71875 -22 C48.71875 -22, 48.71875 -22, 48.71875 -22 M48.71875 -22 C48.71875 -9.246013488242, 48.71875 3.5079730235160014, 48.71875 22 M48.71875 -22 C48.71875 -13.066491365055338, 48.71875 -4.132982730110676, 48.71875 22 M48.71875 22 C48.71875 22, 48.71875 22, 48.71875 22 M48.71875 22 C48.71875 22, 48.71875 22, 48.71875 22 M48.71875 22 C48.71514540693933 22.087151025082285, 48.711540813878656 22.174302050164574, 48.70167246503335 22.412896727361662 M48.71875 22 C48.714961741445165 22.09159164731598, 48.711173482890324 22.18318329463196, 48.70167246503335 22.412896727361662 M48.70167246503335 22.412896727361662 C48.68883894030085 22.51585331072427, 48.67600541556835 22.61880989408688, 48.65055651701361 22.82297295140367 M48.70167246503335 22.412896727361662 C48.69096807473444 22.498772390916827, 48.680263684435545 22.584648054471987, 48.65055651701361 22.82297295140367 M48.65055651701361 22.82297295140367 C48.621886855967055 22.959704834682356, 48.5932171949205 23.09643671796104, 48.56575132969665 23.227427435703994 M48.65055651701361 22.82297295140367 C48.629999622700076 22.921013275957446, 48.60944272838653 23.01905360051122, 48.56575132969665 23.227427435703994 M48.56575132969665 23.227427435703994 C48.52313068569815 23.370587655321167, 48.480510041699645 23.513747874938343, 48.447836208503176 23.623497346023417 M48.56575132969665 23.227427435703994 C48.52703606815051 23.357469706901885, 48.488320806604364 23.48751197809977, 48.447836208503176 23.623497346023417 M48.447836208503176 23.623497346023417 C48.40427550934825 23.735133850331888, 48.36071481019332 23.84677035464036, 48.29761663327529 24.008477123264846 M48.447836208503176 23.623497346023417 C48.41427097697021 23.709517662210676, 48.38070574543724 23.795537978397935, 48.29761663327529 24.008477123264846 M48.29761663327529 24.008477123264846 C48.251578900757764 24.102648810319714, 48.20554116824024 24.19682049737458, 48.11611875603245 24.379736965185366 M48.29761663327529 24.008477123264846 C48.229859755424684 24.14707603219966, 48.162102877574085 24.285674941134474, 48.11611875603245 24.379736965185366 M48.11611875603245 24.379736965185366 C48.070024187005934 24.45709363318657, 48.02392961797941 24.53445030118778, 47.904582391312644 24.734740790612133 M48.11611875603245 24.379736965185366 C48.0659810630004 24.46387887075336, 48.01584336996835 24.548020776321355, 47.904582391312644 24.734740790612133 M47.904582391312644 24.734740790612133 C47.825951667674175 24.84486997125571, 47.74732094403571 24.954999151899294, 47.66445254698197 25.07106356344834 M47.904582391312644 24.734740790612133 C47.840947548566184 24.823866933266913, 47.777312705819725 24.91299307592169, 47.66445254698197 25.07106356344834 M47.66445254698197 25.07106356344834 C47.55915402625066 25.195389291946817, 47.45385550551934 25.31971502044529, 47.39736955336566 25.386407858128706 M47.66445254698197 25.07106356344834 C47.571224054378014 25.18113823666599, 47.477995561774065 25.29121290988364, 47.39736955336566 25.386407858128706 M47.39736955336566 25.386407858128706 C47.32463108992726 25.459146321567104, 47.25189262648886 25.5318847850055, 47.105157858128706 25.678619553365657 M47.39736955336566 25.386407858128706 C47.31451611032751 25.469261301166853, 47.23166266728936 25.552114744205, 47.105157858128706 25.678619553365657 M47.105157858128706 25.678619553365657 C47.00222442755327 25.765799721978343, 46.89929099697784 25.852979890591033, 46.78981356344834 25.94570254698197 M47.105157858128706 25.678619553365657 C47.004572031200055 25.763811403114218, 46.90398620427141 25.84900325286278, 46.78981356344834 25.94570254698197 M46.78981356344834 25.94570254698197 C46.691060149820366 26.01621112908491, 46.592306736192384 26.086719711187843, 46.453490790612136 26.185832391312644 M46.78981356344834 25.94570254698197 C46.690693736598654 26.01647274309679, 46.59157390974897 26.08724293921161, 46.453490790612136 26.185832391312644 M46.453490790612136 26.185832391312644 C46.31547267027319 26.26807334014429, 46.17745454993424 26.350314288975937, 46.098486965185366 26.397368756032446 M46.453490790612136 26.185832391312644 C46.344528677635715 26.250759717781623, 46.2355665646593 26.3156870442506, 46.098486965185366 26.397368756032446 M46.098486965185366 26.397368756032446 C45.99492290909363 26.44799813798249, 45.891358853001904 26.49862751993254, 45.727227123264846 26.578866633275286 M46.098486965185366 26.397368756032446 C45.95080119767295 26.469567928352895, 45.803115430160545 26.541767100673344, 45.727227123264846 26.578866633275286 M45.727227123264846 26.578866633275286 C45.644493393431326 26.6111494348335, 45.561759663597805 26.643432236391714, 45.34224734602342 26.729086208503173 M45.727227123264846 26.578866633275286 C45.582975731528315 26.635153700996, 45.43872433979178 26.691440768716713, 45.34224734602342 26.729086208503173 M45.34224734602342 26.729086208503173 C45.19016077233396 26.774364343249715, 45.0380741986445 26.819642477996258, 44.946177435703994 26.847001329696653 M45.34224734602342 26.729086208503173 C45.19865729167445 26.771834819845754, 45.05506723732549 26.81458343118834, 44.946177435703994 26.847001329696653 M44.946177435703994 26.847001329696653 C44.849065372479465 26.867363588077197, 44.75195330925494 26.88772584645774, 44.54172295140367 26.931806517013612 M44.946177435703994 26.847001329696653 C44.82001836090083 26.873454105931597, 44.69385928609768 26.89990688216654, 44.54172295140367 26.931806517013612 M44.54172295140367 26.931806517013612 C44.40681126280141 26.94862324146029, 44.271899574199146 26.965439965906963, 44.13164672736166 26.982922465033347 M44.54172295140367 26.931806517013612 C44.39492176658685 26.950105265617882, 44.24812058177002 26.96840401422215, 44.13164672736166 26.982922465033347 M44.13164672736166 26.982922465033347 C43.98465040997383 26.989002277693043, 43.83765409258599 26.995082090352735, 43.71875 27 M44.13164672736166 26.982922465033347 C43.98299505379725 26.98907074373095, 43.83434338023283 26.995219022428554, 43.71875 27 M43.71875 27 C43.71875 27, 43.71875 27, 43.71875 27 M43.71875 27 C43.71875 27, 43.71875 27, 43.71875 27 M43.71875 27 C23.15574901595641 27, 2.5927480319128193 27, -43.71875 27 M43.71875 27 C22.286569210078337 27, 0.854388420156674 27, -43.71875 27 M-43.71875 27 C-43.71875 27, -43.71875 27, -43.71875 27 M-43.71875 27 C-43.71875 27, -43.71875 27, -43.71875 27 M-43.71875 27 C-43.86991894864284 26.99374760603501, -44.02108789728569 26.98749521207002, -44.13164672736166 26.982922465033347 M-43.71875 27 C-43.86596048509141 26.993911329298562, -44.01317097018282 26.987822658597125, -44.13164672736166 26.982922465033347 M-44.13164672736166 26.982922465033347 C-44.23642270100401 26.969862153538987, -44.34119867464635 26.95680184204463, -44.54172295140367 26.931806517013612 M-44.13164672736166 26.982922465033347 C-44.251236114426675 26.968015663481495, -44.370825501491694 26.953108861929643, -44.54172295140367 26.931806517013612 M-44.54172295140367 26.931806517013612 C-44.70297695230226 26.897995108603908, -44.86423095320085 26.864183700194207, -44.946177435703994 26.847001329696653 M-44.54172295140367 26.931806517013612 C-44.67918442503998 26.902983876956206, -44.816645898676285 26.8741612368988, -44.946177435703994 26.847001329696653 M-44.946177435703994 26.847001329696653 C-45.087937668214614 26.80479747991815, -45.22969790072524 26.762593630139648, -45.34224734602342 26.729086208503173 M-44.946177435703994 26.847001329696653 C-45.10084218982042 26.800955637381147, -45.255506943936844 26.75490994506564, -45.34224734602342 26.729086208503173 M-45.34224734602342 26.729086208503173 C-45.473480887884854 26.677878721566234, -45.60471442974629 26.6266712346293, -45.727227123264846 26.578866633275286 M-45.34224734602342 26.729086208503173 C-45.48813736299324 26.672159747232318, -45.63402737996307 26.615233285961462, -45.727227123264846 26.578866633275286 M-45.727227123264846 26.578866633275286 C-45.811866795469285 26.53748881886862, -45.89650646767372 26.496111004461955, -46.098486965185366 26.397368756032446 M-45.727227123264846 26.578866633275286 C-45.84006920847481 26.523701499272864, -45.95291129368477 26.46853636527044, -46.098486965185366 26.397368756032446 M-46.098486965185366 26.397368756032446 C-46.231271597252096 26.318246289325828, -46.36405622931883 26.239123822619206, -46.453490790612136 26.185832391312644 M-46.098486965185366 26.397368756032446 C-46.18880718553281 26.343549586478368, -46.27912740588025 26.28973041692429, -46.453490790612136 26.185832391312644 M-46.453490790612136 26.185832391312644 C-46.54189390096318 26.122713783708626, -46.63029701131423 26.059595176104608, -46.78981356344834 25.94570254698197 M-46.453490790612136 26.185832391312644 C-46.537978515493535 26.125509315201757, -46.62246624037493 26.06518623909087, -46.78981356344834 25.94570254698197 M-46.78981356344834 25.94570254698197 C-46.87391034105922 25.874476209620877, -46.9580071186701 25.803249872259787, -47.105157858128706 25.67861955336566 M-46.78981356344834 25.94570254698197 C-46.88668461791635 25.86365694901639, -46.98355567238436 25.78161135105081, -47.105157858128706 25.67861955336566 M-47.105157858128706 25.67861955336566 C-47.17672854267952 25.607048868814847, -47.24829922723033 25.535478184264033, -47.39736955336566 25.386407858128706 M-47.105157858128706 25.67861955336566 C-47.193674560195326 25.59010285129904, -47.28219126226195 25.50158614923242, -47.39736955336566 25.386407858128706 M-47.39736955336566 25.386407858128706 C-47.492014233722415 25.27466109519094, -47.58665891407918 25.162914332253173, -47.66445254698197 25.07106356344834 M-47.39736955336566 25.386407858128706 C-47.475797936860864 25.293807640715585, -47.55422632035607 25.201207423302463, -47.66445254698197 25.07106356344834 M-47.66445254698197 25.07106356344834 C-47.72715864776113 24.983238204852967, -47.78986474854029 24.89541284625759, -47.904582391312644 24.734740790612133 M-47.66445254698197 25.07106356344834 C-47.71831499796064 24.995624507068676, -47.77217744893932 24.920185450689015, -47.904582391312644 24.734740790612133 M-47.904582391312644 24.734740790612133 C-47.98222178602238 24.604445074495978, -48.05986118073211 24.474149358379822, -48.11611875603244 24.37973696518537 M-47.904582391312644 24.734740790612133 C-47.97093433521204 24.623387861105236, -48.03728627911144 24.512034931598336, -48.11611875603244 24.37973696518537 M-48.11611875603244 24.37973696518537 C-48.17473322497909 24.25983915257198, -48.23334769392575 24.139941339958597, -48.29761663327528 24.00847712326485 M-48.11611875603244 24.37973696518537 C-48.174640451125796 24.260028924522114, -48.23316214621916 24.14032088385886, -48.29761663327528 24.00847712326485 M-48.29761663327528 24.00847712326485 C-48.35344865000617 23.865391927268334, -48.409280666737054 23.722306731271818, -48.447836208503176 23.623497346023417 M-48.29761663327528 24.00847712326485 C-48.33293512780405 23.917963579104182, -48.36825362233281 23.827450034943517, -48.447836208503176 23.623497346023417 M-48.447836208503176 23.623497346023417 C-48.47339798072695 23.53763686663957, -48.498959752950725 23.451776387255727, -48.56575132969665 23.227427435703994 M-48.447836208503176 23.623497346023417 C-48.487087216228055 23.49165553513276, -48.52633822395293 23.359813724242105, -48.56575132969665 23.227427435703994 M-48.56575132969665 23.227427435703994 C-48.58398544127242 23.140464969994362, -48.60221955284818 23.053502504284726, -48.65055651701361 22.82297295140367 M-48.56575132969665 23.227427435703994 C-48.59521513447341 23.08690810730522, -48.62467893925018 22.946388778906442, -48.65055651701361 22.82297295140367 M-48.65055651701361 22.82297295140367 C-48.666909509548965 22.691781538733483, -48.68326250208432 22.560590126063296, -48.70167246503335 22.412896727361662 M-48.65055651701361 22.82297295140367 C-48.66779460946334 22.684680850105995, -48.68503270191307 22.546388748808322, -48.70167246503335 22.412896727361662 M-48.70167246503335 22.412896727361662 C-48.70713483245489 22.280828859463504, -48.712597199876434 22.148760991565343, -48.71875 22 M-48.70167246503335 22.412896727361662 C-48.70600816408806 22.308069189077525, -48.71034386314277 22.203241650793387, -48.71875 22 M-48.71875 22 C-48.71875 22, -48.71875 22, -48.71875 22 M-48.71875 22 C-48.71875 22, -48.71875 22, -48.71875 22 M-48.71875 22 C-48.71875 12.475174904156791, -48.71875 2.9503498083135824, -48.71875 -22 M-48.71875 22 C-48.71875 5.309929752997068, -48.71875 -11.380140494005865, -48.71875 -22 M-48.71875 -22 C-48.71875 -22, -48.71875 -22, -48.71875 -22 M-48.71875 -22 C-48.71875 -22, -48.71875 -22, -48.71875 -22 M-48.71875 -22 C-48.712350609192 -22.1547230046309, -48.70595121838401 -22.309446009261798, -48.70167246503335 -22.41289672736166 M-48.71875 -22 C-48.713149910003686 -22.13539769275398, -48.707549820007365 -22.27079538550796, -48.70167246503335 -22.41289672736166 M-48.70167246503335 -22.41289672736166 C-48.68959150673308 -22.509815868148582, -48.677510548432814 -22.60673500893551, -48.65055651701361 -22.82297295140367 M-48.70167246503335 -22.41289672736166 C-48.683709689806925 -22.557002575409754, -48.6657469145805 -22.701108423457853, -48.65055651701361 -22.82297295140367 M-48.65055651701361 -22.82297295140367 C-48.63126265569244 -22.91498959540509, -48.61196879437126 -23.00700623940651, -48.56575132969665 -23.227427435703994 M-48.65055651701361 -22.82297295140367 C-48.626581650183184 -22.937314334364444, -48.60260678335276 -23.051655717325218, -48.56575132969665 -23.227427435703994 M-48.56575132969665 -23.227427435703994 C-48.522610216539995 -23.372335880406368, -48.47946910338333 -23.51724432510874, -48.447836208503176 -23.623497346023417 M-48.56575132969665 -23.227427435703994 C-48.52025157903635 -23.380258404125875, -48.47475182837604 -23.53308937254776, -48.447836208503176 -23.623497346023417 M-48.447836208503176 -23.623497346023417 C-48.412013458614936 -23.715303185916312, -48.376190708726696 -23.807109025809208, -48.29761663327529 -24.008477123264846 M-48.447836208503176 -23.623497346023417 C-48.39436073308209 -23.760543244231147, -48.340885257661 -23.897589142438882, -48.29761663327529 -24.008477123264846 M-48.29761663327529 -24.008477123264846 C-48.247522565038764 -24.11094617765364, -48.197428496802246 -24.213415232042436, -48.11611875603245 -24.379736965185366 M-48.29761663327529 -24.008477123264846 C-48.23116994321554 -24.144396000237258, -48.1647232531558 -24.28031487720967, -48.11611875603245 -24.379736965185366 M-48.11611875603245 -24.379736965185366 C-48.0449569948103 -24.49916180966273, -47.97379523358814 -24.6185866541401, -47.904582391312644 -24.734740790612133 M-48.11611875603245 -24.379736965185366 C-48.037449842314125 -24.511760437126778, -47.9587809285958 -24.64378390906819, -47.904582391312644 -24.734740790612133 M-47.904582391312644 -24.734740790612133 C-47.85270172586751 -24.807404183651556, -47.80082106042237 -24.880067576690983, -47.66445254698197 -25.07106356344834 M-47.904582391312644 -24.734740790612133 C-47.811018120865974 -24.865785704928108, -47.7174538504193 -24.996830619244083, -47.66445254698197 -25.07106356344834 M-47.66445254698197 -25.07106356344834 C-47.58576239710103 -25.163972847849074, -47.507072247220094 -25.256882132249803, -47.39736955336566 -25.386407858128706 M-47.66445254698197 -25.07106356344834 C-47.56708071571656 -25.186030267379476, -47.46970888445114 -25.30099697131061, -47.39736955336566 -25.386407858128706 M-47.39736955336566 -25.386407858128706 C-47.297813046015364 -25.485964365478996, -47.19825653866508 -25.58552087282929, -47.105157858128706 -25.678619553365657 M-47.39736955336566 -25.386407858128706 C-47.284964454415565 -25.4988129570788, -47.17255935546547 -25.611218056028893, -47.105157858128706 -25.678619553365657 M-47.105157858128706 -25.678619553365657 C-47.03712033214132 -25.736244398417565, -46.96908280615393 -25.79386924346947, -46.78981356344834 -25.945702546981966 M-47.105157858128706 -25.678619553365657 C-47.01774468498544 -25.752654734462777, -46.930331511842176 -25.826689915559896, -46.78981356344834 -25.945702546981966 M-46.78981356344834 -25.945702546981966 C-46.69874258449969 -26.010725976152585, -46.60767160555104 -26.075749405323208, -46.453490790612136 -26.185832391312644 M-46.78981356344834 -25.945702546981966 C-46.693040461351096 -26.014797213828466, -46.596267359253844 -26.083891880674965, -46.453490790612136 -26.185832391312644 M-46.453490790612136 -26.185832391312644 C-46.320137048355384 -26.265293974085345, -46.18678330609863 -26.344755556858047, -46.098486965185366 -26.397368756032446 M-46.453490790612136 -26.185832391312644 C-46.348355864365374 -26.248479209488725, -46.24322093811861 -26.311126027664805, -46.098486965185366 -26.397368756032446 M-46.098486965185366 -26.397368756032446 C-45.99637354890128 -26.447288963393692, -45.8942601326172 -26.49720917075494, -45.727227123264846 -26.578866633275286 M-46.098486965185366 -26.397368756032446 C-46.00885134075678 -26.441188942656908, -45.91921571632819 -26.48500912928137, -45.727227123264846 -26.578866633275286 M-45.727227123264846 -26.578866633275286 C-45.606328709131354 -26.62604134085861, -45.48543029499787 -26.673216048441937, -45.34224734602342 -26.729086208503173 M-45.727227123264846 -26.578866633275286 C-45.61654687646324 -26.622054199593162, -45.50586662966163 -26.665241765911038, -45.34224734602342 -26.729086208503173 M-45.34224734602342 -26.729086208503173 C-45.23044230173934 -26.762372012355748, -45.11863725745526 -26.795657816208323, -44.946177435703994 -26.847001329696653 M-45.34224734602342 -26.729086208503173 C-45.240402853226854 -26.75940662769712, -45.138558360430295 -26.789727046891073, -44.946177435703994 -26.847001329696653 M-44.946177435703994 -26.847001329696653 C-44.80400093014876 -26.87681260798311, -44.661824424593526 -26.906623886269568, -44.54172295140367 -26.931806517013612 M-44.946177435703994 -26.847001329696653 C-44.8095169732819 -26.875656015364378, -44.672856510859816 -26.904310701032102, -44.54172295140367 -26.931806517013612 M-44.54172295140367 -26.931806517013612 C-44.414513919008066 -26.94766310636542, -44.28730488661245 -26.96351969571723, -44.13164672736166 -26.982922465033347 M-44.54172295140367 -26.931806517013612 C-44.4549502149407 -26.94262272733386, -44.368177478477726 -26.95343893765411, -44.13164672736166 -26.982922465033347 M-44.13164672736166 -26.982922465033347 C-44.00484790034131 -26.988166903312155, -43.87804907332095 -26.993411341590967, -43.71875 -27 M-44.13164672736166 -26.982922465033347 C-43.990388479518444 -26.988764949381153, -43.84913023167522 -26.99460743372896, -43.71875 -27 M-43.71875 -27 C-43.71875 -27, -43.71875 -27, -43.71875 -27 M-43.71875 -27 C-43.71875 -27, -43.71875 -27, -43.71875 -27" stroke="#ACE" stroke-width="1.3" fill="none" stroke-dasharray="0 0" style=""/></g><g class="label" style="" transform="translate(-33.71875, -12)"><rect/><foreignObject width="67.4375" height="24"><div xmlns="http://www.w3.org/1999/xhtml" style="display: table-cell; white-space: nowrap; line-height: 1.5; max-width: 200px; text-align: center;"><span class="nodeLabel"><p>Backend</p></span></div></foreignObject></g></g><g class="node default" id="flowchart-Q-7" transform="translate(434.9296875, 44.5859375)"><g class="basic label-container" style=""><circle class="outer-circle" style="" r="36.5859375" cx="0" cy="0"/><circle class="inner-circle" style="" r="31.5859375" cx="0" cy="0"/></g><g class="label" style="" transform="translate(-24.0859375, -12)"><rect/><foreignObject width="48.171875" height="24"><div xmlns="http://www.w3.org/1999/xhtml" style="display: table-cell; white-space: nowrap; line-height: 1.5; max-width: 200px; text-align: center;"><span class="nodeLabel"><p>Queue</p></span></div></foreignObject></g></g><g class="node default" id="flowchart-U-9" transform="translate(39.765625, 158.171875)"><g class="basic label-container" style=""><circle class="outer-circle" style="" r="31.765625" cx="0" cy="0"/><circle class="inner-circle" style="" r="26.765625" cx="0" cy="0"/></g><g class="label" style="" transform="translate(-19.265625, -12)"><rect/><foreignObject width="38.53125" height="24"><div xmlns="http://www.w3.org/1999/xhtml" style="display: table-cell; white-space: nowrap; line-height: 1.5; max-width: 200px; text-align: center;"><span class="nodeLabel"><p>User</p></span></div></foreignObject></g></g><g class="node default" id="flowchart-B-11" transform="translate(1207.96875, 101.37890625)"><g class="basic label-container" style=""><circle class="outer-circle" style="" r="84.75" cx="0" cy="0"/><circle class="inner-circle" style="" r="79.75" cx="0" cy="0"/></g><g class="label" style="" transform="translate(-72.25, -12)"><rect/><foreignObject width="144.5" height="24"><div xmlns="http://www.w3.org/1999/xhtml" style="display: table-cell; white-space: nowrap; line-height: 1.5; max-width: 200px; text-align: center;"><span class="nodeLabel"><p>APIs &amp; services</p></span></div></foreignObject></g></g></g></g></g></svg>