<svg id="Calque_1" data-name="Calque 1" xmlns="http://www.w3.org/2000/svg" viewBox="0 0 186.41 71.14"><defs><style>.cls-1{fill:#73b730;}.cls-2{fill:#0a86b2;}.cls-3{fill:#31bdef;}.cls-4{fill:#079cbd;}.cls-5{fill:#087eae;}.cls-6{fill:#1ba0bf;}.cls-7{fill:#179fbf;}.cls-8{fill:#23a1c0;}.cls-9{fill:#26a2c0;}.cls-10{fill:none;}.cls-11{fill:#009741;}.cls-12{fill:#0d85a0;}.cls-13{fill:none;}.cls-14{fill:none;}</style></defs><path class="cls-1" d="M143.69,84.75a26.08,26.08,0,0,1,12.83-8.64c11-3.16,20.88-1.15,29.12,7a25.17,25.17,0,0,1,7.53,19.49,26.79,26.79,0,0,1-22.86,25.71,28.61,28.61,0,0,1-20-3.81c-.17-.1-.35-.35-.56-.22s-.11.44-.11.67c0,4.26,0,8.52,0,12.78,0,1.24-.07,2.48-.06,3.72,0,.46-.14.59-.6.59-3.51,0-7,0-10.53,0-.68,0-.58-.37-.58-.77V124.91c0-.32,0-.65,0-1l.06-.07a27.56,27.56,0,0,0,6-5.51,25.7,25.7,0,0,0,5.65-14,26.42,26.42,0,0,0-1.74-12.58,24.11,24.11,0,0,0-4.1-6.9A.57.57,0,0,0,143.69,84.75Zm6,18.1a14.8,14.8,0,0,0,1.79,7.08c4.62,8.94,16.68,10.25,23.73,5,6.56-4.9,7.92-14.5,4.29-21.32-2.77-5.24-7.32-7.85-13.17-8.16a15.14,15.14,0,0,0-12.57,5C150.81,93.62,149.59,97.51,149.67,102.85Z" transform="translate(-6.77 -74.69)"/><path class="cls-2" d="M56.22,118.57a10.14,10.14,0,0,1-2.39,2.7,27.7,27.7,0,0,1-17.38,7.34,27.72,27.72,0,0,1-20.9-7,25.39,25.39,0,0,1-8.46-15.85,26.32,26.32,0,0,1,5.24-20.55,26.65,26.65,0,0,1,16.86-10A27.88,27.88,0,0,1,46.4,77.3c.93.43.92.44.46,1.36-1.34,2.68-2.7,5.34-4,8-.3.62-.54.65-1.13.35A16.24,16.24,0,0,0,23,90.19a15.38,15.38,0,0,0-4.15,8.68A17.46,17.46,0,0,0,20.6,110c2.67,4.92,6.94,7.45,12.47,7.91a15.6,15.6,0,0,0,12.87-4.62,15.16,15.16,0,0,0,4.47-9.61,3.35,3.35,0,0,1,.11-.55c.11.87.22,1.75.34,2.62a26.5,26.5,0,0,0,3.56,10A14.66,14.66,0,0,1,56.22,118.57Z" transform="translate(-6.77 -74.69)"/><path class="cls-3" d="M56.26,85.05a26.25,26.25,0,0,1,15.08-9.53,28.42,28.42,0,0,1,24.07,4.85,21.46,21.46,0,0,1,3.75,3.44c.3.34.64.64,1,1l-.15.27a25.48,25.48,0,0,0-5.63,14.11,26.56,26.56,0,0,0,2.28,13.77,20.6,20.6,0,0,0,3.49,5.5l0,.22-2,2A27,27,0,0,1,82,128.44a28,28,0,0,1-21.59-5.85,18.59,18.59,0,0,1-3.95-4,6.1,6.1,0,0,1,.34-.54,25.3,25.3,0,0,0,5.39-15.44.74.74,0,0,1,.12-.54c.08.78,0,1.56.17,2.34a15.11,15.11,0,0,0,6.82,11.12,16.06,16.06,0,0,0,10.09,2.42,15,15,0,0,0,11.65-6.21A16.79,16.79,0,0,0,94,99.07a15,15,0,0,0-7-11.2,15.89,15.89,0,0,0-10.51-2.35A15,15,0,0,0,65,92.25a16.32,16.32,0,0,0-2.71,9.15,24.75,24.75,0,0,1-.24-3.11,26.19,26.19,0,0,0-4.68-12.06C57.1,85.8,56.9,85.2,56.26,85.05Z" transform="translate(-6.77 -74.69)"/><path class="cls-4" d="M100,85.05l.15-.27a27.08,27.08,0,0,1,19-9.93,28,28,0,0,1,21.18,6.52,33.5,33.5,0,0,1,3.36,3.38.57.57,0,0,1,0,.13c-.16.18-.33.35-.47.54a25.68,25.68,0,0,0-5.37,15,5.07,5.07,0,0,1-.09-.54A15.51,15.51,0,0,0,120.2,85.53c-6.46.67-10.86,4.09-13.2,10.13a22.27,22.27,0,0,0-1,4.63c-.06-.77-.1-1.55-.21-2.31a27.14,27.14,0,0,0-4.44-11.42C101,86,100.7,85.3,100,85.05Z" transform="translate(-6.77 -74.69)"/><path class="cls-4" d="M100.14,118.65l0-.22a12.25,12.25,0,0,0,.94-1.09A27,27,0,0,0,106,103.16a1.29,1.29,0,0,1,.13.7,15.3,15.3,0,0,0,5.79,10.87A16.12,16.12,0,0,0,123,118a15.33,15.33,0,0,0,14-10.46,25.42,25.42,0,0,0,.92-4.56c0,1.92,0,3.83,0,5.74l0,15.2-.06.07a27.62,27.62,0,0,1-12.8,4.6C115.12,129.42,106.7,126.33,100.14,118.65Z" transform="translate(-6.77 -74.69)"/><path class="cls-5" d="M62.34,102.05a.74.74,0,0,0-.12.54A25.3,25.3,0,0,1,56.83,118a6.1,6.1,0,0,0-.34.54h-.27a14.66,14.66,0,0,0-1.8-2.82,26.5,26.5,0,0,1-3.56-10c-.12-.87-.23-1.75-.34-2.62a27.11,27.11,0,0,1,5.74-18.09c.64.15.84.75,1.15,1.18a26.19,26.19,0,0,1,4.68,12.06,24.75,24.75,0,0,0,.24,3.11C62.33,101.62,62.33,101.84,62.34,102.05Z" transform="translate(-6.77 -74.69)"/><path class="cls-6" d="M114.41,142.35a4.59,4.59,0,0,1-4.68-4.56,4.71,4.71,0,0,1,4.67-4.63,4.57,4.57,0,0,1,4.7,4.7A4.47,4.47,0,0,1,114.41,142.35Zm-3.09-4.58a3.14,3.14,0,0,0,3.11,3.24,3.2,3.2,0,0,0,3.16-3.21,3.14,3.14,0,1,0-6.27,0Z" transform="translate(-6.77 -74.69)"/><path class="cls-7" d="M88.78,136.4c0,1.84,0,3.45,0,5.07,0,.55-.13.75-.71.74s-.82-.08-.8-.74c0-2.45,0-4.91,0-7.36,0-.31-.23-.78.23-.91s.58.32.8.57c1.36,1.53,2.71,3.08,4.06,4.62a1.84,1.84,0,0,0,.74.64v-4.85c0-.8.46-1.11,1.22-.85.3.1.26.31.26.51v8c0,.17.08.4-.18.48s-.5-.1-.69-.31l-4.16-4.74Z" transform="translate(-6.77 -74.69)"/><path class="cls-8" d="M122.32,136.47c0,.81,0,1.62,0,2.43a2,2,0,0,0,2.1,2.06,1.9,1.9,0,0,0,2.14-1.91c.06-1.64.07-3.29,0-4.93,0-.64.18-.82.82-.83s.72.31.71.84c0,1.51,0,3,0,4.53a3.44,3.44,0,0,1-3.2,3.68c-2.4.14-3.89-1-4.07-3.23-.14-1.77-.07-3.56-.06-5.34,0-.68.56-.4.9-.45s.64,0,.63.48C122.31,134.69,122.32,135.58,122.32,136.47Z" transform="translate(-6.77 -74.69)"/><path class="cls-9" d="M130.15,137.77c0-1.24,0-2.48,0-3.72,0-.54.11-.76.71-.75,1.53,0,3.07,0,4.61,0,.61,0,.62.29.63.75s-.1.69-.63.67c-1.05,0-2.1,0-3.15,0-.48,0-.67.14-.66.64,0,1.88-.19,1.46,1.47,1.51.35,0,.7,0,1,0s.82,0,.82.63-.29.71-.78.67c-.22,0-.44,0-.65,0-2,0-2.25.32-1.91,2.36.07.4.3.39.57.39,1.13,0,2.27,0,3.4,0,.51,0,.64.17.63.65s-.08.68-.61.67q-2.43,0-4.86,0c-.48,0-.66-.13-.64-.64C130.17,140.3,130.15,139,130.15,137.77Z" transform="translate(-6.77 -74.69)"/><path class="cls-6" d="M85.49,142.13c-1.38.16-1.39.17-1.94-1a.62.62,0,0,0-.67-.42,17,17,0,0,1-2,0c-.9-.07-1.55,0-1.87,1.1-.24.78-1.07.21-1.74.39l2.83-6.54.9-2.07c.08-.19.15-.41.42-.43s.37.16.46.37q1.81,4.22,3.65,8.43S85.5,142.07,85.49,142.13ZM81.43,136l-1.36,3.45h2.74Z" transform="translate(-6.77 -74.69)"/><path class="cls-6" d="M60.52,142.12c-1.38.18-1.39.19-1.94-1a.62.62,0,0,0-.66-.44q-1.45,0-2.91,0a.63.63,0,0,0-.67.42c-.55,1.15-.57,1.14-2,1,.67-1.54,1.32-3.07,2-4.59L56,133.61c.09-.22.17-.47.49-.44s.33.23.42.43c1.2,2.79,2.41,5.58,3.61,8.36A.29.29,0,0,1,60.52,142.12ZM56.46,136l-1.36,3.46h2.74Z" transform="translate(-6.77 -74.69)"/><path class="cls-8" d="M63.67,138.46c0-1,0-2,0-3,0-.58-.11-.85-.75-.78s-1.08,0-1.61,0-.67-.25-.67-.73.09-.69.63-.68q3.15,0,6.31,0c.55,0,.6.26.59.69s0,.75-.57.72-1.25,0-1.86,0-.64.17-.63.65c0,2,0,4,0,6.06,0,.54,0,.8-.72.81s-.79-.27-.77-.85C63.69,140.4,63.67,139.43,63.67,138.46Z" transform="translate(-6.77 -74.69)"/><path class="cls-8" d="M99.64,138.47c0-1,0-2,0-3,0-.67-.22-.83-.83-.78s-1.08,0-1.61,0-.62-.29-.63-.75.1-.67.63-.66q3.15,0,6.3,0c.57,0,.59.29.59.71s0,.73-.6.7-1.19,0-1.78,0-.64.16-.63.64c0,2,0,4.1,0,6.14,0,.56-.15.73-.72.73s-.81-.12-.77-.75C99.68,140.46,99.64,139.47,99.64,138.47Z" transform="translate(-6.77 -74.69)"/><path class="cls-7" d="M70.44,137.71v-3.4c0-.54-.12-1,.76-1s.72.49.72,1c0,2,0,3.93,0,5.9,0,.55.12.76.71.73.91-.05,1.83,0,2.75,0,.56,0,.59.26.59.69s-.08.64-.57.63c-1.46,0-2.92,0-4.37,0-.48,0-.6-.17-.59-.61C70.45,140.29,70.44,139,70.44,137.71Z" transform="translate(-6.77 -74.69)"/><path class="cls-7" d="M106.25,137.73c0-1.26,0-2.52,0-3.79,0-.6.28-.64.74-.63s.78,0,.77.6c0,2.56,0,5.11,0,7.67,0,.62-.3.6-.74.62s-.8,0-.77-.67C106.29,140.26,106.25,139,106.25,137.73Z" transform="translate(-6.77 -74.69)"/><path class="cls-8" d="M113,143.51a4,4,0,0,1,1.94.58,2.16,2.16,0,0,0,2.43,0c.61-.4.71.26,1,.51s-.07.51-.28.63a3.25,3.25,0,0,1-3.37.2,2.76,2.76,0,0,0-3-.14c-.44.27-.56-.35-.82-.56s-.08-.42.14-.57A3.73,3.73,0,0,1,113,143.51Z" transform="translate(-6.77 -74.69)"/><path class="cls-10" d="M149.67,102.85c-.08-5.34,1.14-9.23,4.07-12.45a15.14,15.14,0,0,1,12.57-5c5.85.31,10.4,2.92,13.17,8.16,3.63,6.82,2.27,16.42-4.29,21.32-7.05,5.27-19.11,4-23.73-5A14.8,14.8,0,0,1,149.67,102.85Z" transform="translate(-6.77 -74.69)"/><path class="cls-11" d="M137.92,123.87l0-15.2c0-1.91,0-3.82,0-5.74l0-2.54a25.68,25.68,0,0,1,5.37-15c.14-.19.31-.36.47-.54a24.11,24.11,0,0,1,4.1,6.9,26.42,26.42,0,0,1,1.74,12.58,25.7,25.7,0,0,1-5.65,14A27.56,27.56,0,0,1,137.92,123.87Z" transform="translate(-6.77 -74.69)"/><path class="cls-10" d="M62.34,102.05c0-.21,0-.43,0-.65A16.32,16.32,0,0,1,65,92.25a15,15,0,0,1,11.44-6.73A15.89,15.89,0,0,1,87,87.87a15,15,0,0,1,7,11.2,16.79,16.79,0,0,1-2.91,12.65,15,15,0,0,1-11.65,6.21,16.06,16.06,0,0,1-10.09-2.42,15.11,15.11,0,0,1-6.82-11.12C62.39,103.61,62.42,102.83,62.34,102.05Z" transform="translate(-6.77 -74.69)"/><path class="cls-12" d="M106,103.16a27,27,0,0,1-4.93,14.18,12.25,12.25,0,0,1-.94,1.09,20.6,20.6,0,0,1-3.49-5.5,26.56,26.56,0,0,1-2.28-13.77A25.48,25.48,0,0,1,100,85.05c.73.25,1,1,1.36,1.51A27.14,27.14,0,0,1,105.77,98c.11.76.15,1.54.21,2.31Z" transform="translate(-6.77 -74.69)"/><path class="cls-10" d="M106,103.16v-2.87a22.27,22.27,0,0,1,1-4.63c2.34-6,6.74-9.46,13.2-10.13a15.51,15.51,0,0,1,17.55,14.32,5.07,5.07,0,0,0,.09.54c0,.85,0,1.69,0,2.54a25.42,25.42,0,0,1-.92,4.56A15.33,15.33,0,0,1,123,118a16.12,16.12,0,0,1-11.06-3.22,15.3,15.3,0,0,1-5.79-10.87A1.29,1.29,0,0,0,106,103.16Z" transform="translate(-6.77 -74.69)"/><path class="cls-13" d="M111.32,137.77a3.14,3.14,0,1,1,6.27,0,3.2,3.2,0,0,1-3.16,3.21A3.14,3.14,0,0,1,111.32,137.77Z" transform="translate(-6.77 -74.69)"/><path class="cls-14" d="M81.43,136l1.38,3.45H80.07Z" transform="translate(-6.77 -74.69)"/><path class="cls-14" d="M56.46,136l1.38,3.46H55.1Z" transform="translate(-6.77 -74.69)"/></svg>