<?xml version="1.0" encoding="UTF-8"?>
<svg width="24px" height="24px" viewBox="0 0 24 24" version="1.1" xmlns="http://www.w3.org/2000/svg" xmlns:xlink="http://www.w3.org/1999/xlink">
    <title>Icons/agnostic</title>
    <g id="Design" stroke="none" stroke-width="1" fill="none" fill-rule="evenodd">
        <g id="For-e-government-v2" transform="translate(-147, -1612)">
            <g id="The-API-Gataway-Copia-2" transform="translate(147, 1155)">
                <g id="Icons/agnostic" transform="translate(0, 457)">
                    <rect id="Rectangle" x="0" y="0" width="24" height="24"></rect>
                    <g id="Group" stroke-width="1" fill-rule="evenodd" transform="translate(1, 0)" fill="#4F79FD">
                        <path d="M19.7368938,11.69 C21.3768938,9.69 22.1168938,7.61 21.1868938,6 C20.2568938,4.39 18.1068938,4 15.5368938,4.41 C15.3059367,4.44901324 15.0796652,4.31911661 14.9968938,4.1 C14.0668938,1.67 12.6568938,0 10.7968938,0 C8.9368938,0 7.5268938,1.67 6.5968938,4.1 C6.5141224,4.31911661 6.28785086,4.44901324 6.0568938,4.41 C3.4868938,4 1.3368938,4.39 0.406893799,6 C-0.523106201,7.61 0.216893799,9.67 1.8568938,11.69 C2.00826761,11.8689481 2.00826761,12.1310519 1.8568938,12.31 C0.216893799,14.33 -0.523106201,16.39 0.406893799,18 C1.1068938,19.22 2.5168938,19.74 4.2868938,19.74 C4.87992894,19.7368143 5.47177999,19.6866574 6.0568938,19.59 C6.28785086,19.5509868 6.5141224,19.6808834 6.5968938,19.9 C7.5268938,22.33 8.9368938,24 10.7968938,24 C12.6568938,24 14.0668938,22.33 14.9968938,19.9 C15.0796652,19.6808834 15.3059367,19.5509868 15.5368938,19.59 C16.1220076,19.6866574 16.7138587,19.7368143 17.3068938,19.74 C19.0768938,19.74 20.4868938,19.22 21.1868938,18 C22.1168938,16.39 21.3768938,14.33 19.7368938,12.31 C19.58552,12.1310519 19.58552,11.8689481 19.7368938,11.69 L19.7368938,11.69 Z M2.1368938,7 C2.4068938,6.53 3.1368938,6.25 4.3268938,6.25 C4.66137393,6.25211286 4.99538123,6.27549337 5.3268938,6.32 C5.47140109,6.32629101 5.6061031,6.39485341 5.69622756,6.50798836 C5.78635201,6.62112331 5.82306662,6.76774348 5.7968938,6.91 C5.6768938,7.5 5.5768938,8.1 5.4968938,8.72 C5.48551501,8.85269663 5.41594057,8.97353645 5.3068938,9.05 C4.8168938,9.43 4.3068938,9.82 3.8868938,10.21 C3.78429194,10.3043761 3.64508864,10.348335 3.5068938,10.33 C3.36859034,10.3190706 3.24140219,10.2500256 3.1568938,10.14 C2.1268938,8.76 1.7968938,7.6 2.1368938,7 Z M5.7068938,17.48 C5.62837415,17.5933013 5.50407286,17.6664197 5.3668938,17.68 C3.6568938,17.89 2.4868938,17.61 2.1368938,17 C1.7868938,16.39 2.1368938,15.24 3.1368938,13.86 C3.22140219,13.7499744 3.34859034,13.6809294 3.4868938,13.67 C3.62508864,13.651665 3.76429194,13.6956239 3.8668938,13.79 C4.3168938,14.18 4.7968938,14.57 5.2868938,14.95 C5.39594057,15.0264636 5.46551501,15.1473034 5.4768938,15.28 C5.5568938,15.9 5.6568938,16.5 5.7768938,17.09 C5.81361491,17.2239022 5.78789002,17.3672266 5.7068938,17.48 Z M8.5868938,4.48 C9.2668938,2.87 10.0968938,2 10.7968938,2 C11.4968938,2 12.3268938,2.87 13.0068938,4.45 C13.0613893,4.5808931 13.0589359,4.72856417 13.0001222,4.85757472 C12.9413086,4.98658527 12.8314439,5.08528946 12.6968938,5.13 C12.1368938,5.31 11.5568938,5.53 10.9868938,5.77 C10.8651631,5.82000901 10.7286245,5.82000901 10.6068938,5.77 C10.0368938,5.53 9.4568938,5.31 8.8968938,5.12 C8.7646919,5.07953745 8.65573568,4.98510873 8.5968938,4.86 C8.53867566,4.73021282 8.5350722,4.58247108 8.5868938,4.45 L8.5868938,4.48 Z M13.0068938,19.58 C12.3268938,21.13 11.4968938,22 10.7968938,22 C10.0968938,22 9.2668938,21.13 8.5868938,19.55 C8.53239828,19.4191069 8.53485174,19.2714358 8.59366537,19.1424253 C8.652479,19.0134147 8.76234368,18.9147105 8.8968938,18.87 C9.4568938,18.69 10.0368938,18.47 10.6068938,18.23 C10.7286245,18.179991 10.8651631,18.179991 10.9868938,18.23 C11.5568938,18.47 12.1368938,18.69 12.6968938,18.87 C12.8303899,18.913848 12.9392746,19.0118443 12.9968938,19.14 C13.0551119,19.2697872 13.0587154,19.4175289 13.0068938,19.55 L13.0068938,19.58 Z M14.2368938,13.76 C14.2276019,13.9169632 14.1464265,14.060865 14.0168938,14.15 C13.5568938,14.45 13.0168938,14.76 12.5468938,15.06 C12.0768938,15.36 11.5468938,15.63 11.0168938,15.88 C10.878473,15.9495526 10.7153146,15.9495526 10.5768938,15.88 C10.0768938,15.63 9.5768938,15.36 9.0468938,15.06 C8.5168938,14.76 8.0468938,14.45 7.5768938,14.15 C7.44736108,14.060865 7.36618572,13.9169632 7.3568938,13.76 C7.3568938,13.21 7.2968938,12.63 7.2968938,12.03 C7.2968938,11.43 7.2968938,10.85 7.3568938,10.3 C7.36618572,10.1430368 7.44736108,9.99913504 7.5768938,9.91 C8.0368938,9.61 8.5768938,9.3 9.0468938,9 C9.5168938,8.7 10.0468938,8.43 10.5768938,8.18 C10.7153146,8.11044745 10.878473,8.11044745 11.0168938,8.18 C11.5168938,8.43 12.0168938,8.7 12.5468938,9 C13.0768938,9.3 13.5468938,9.61 14.0168938,9.91 C14.1464265,9.99913504 14.2276019,10.1430368 14.2368938,10.3 C14.2368938,10.85 14.2968938,11.43 14.2968938,12.03 C14.2968938,12.63 14.2768938,13.18 14.2368938,13.73 L14.2368938,13.76 Z M19.4568938,17 C19.1068938,17.6 17.9368938,17.89 16.2268938,17.68 C16.0895921,17.663086 15.9654342,17.5900423 15.8839542,17.4782441 C15.8024742,17.3664459 15.7709548,17.225886 15.7968938,17.09 C15.9168938,16.5 16.0168938,15.9 16.0968938,15.28 C16.1082726,15.1473034 16.177847,15.0264636 16.2868938,14.95 C16.7768938,14.57 17.2868938,14.18 17.7068938,13.79 C17.8094957,13.6956239 17.948699,13.651665 18.0868938,13.67 C18.2251973,13.6809294 18.3523854,13.7499744 18.4368938,13.86 C19.4668938,15.24 19.7968938,16.4 19.4568938,17 Z M18.4568938,10.14 C18.3723854,10.2500256 18.2451973,10.3190706 18.1068938,10.33 C17.968699,10.348335 17.8294957,10.3043761 17.7268938,10.21 C17.2768938,9.82 16.7968938,9.43 16.3068938,9.05 C16.197847,8.97353645 16.1282726,8.85269663 16.1168938,8.72 C16.0368938,8.1 15.9368938,7.5 15.8168938,6.91 C15.7909548,6.77411401 15.8224742,6.63355408 15.9039542,6.52175588 C15.9854342,6.40995768 16.1095921,6.33691397 16.2468938,6.32 C16.5784064,6.27549337 16.9124137,6.25211286 17.2468938,6.25 C18.3868938,6.25 19.1668938,6.53 19.4368938,7 C19.7068938,7.47 19.4668938,8.76 18.4368938,10.14 L18.4568938,10.14 Z" id="Shape" fill-rule="nonzero"></path>
                        <path d="M8.8368938,12 C8.8368938,13.0548639 9.71441569,13.91 10.7968938,13.91 C11.8793719,13.91 12.7568938,13.0548639 12.7568938,12 C12.7568938,10.9451361 11.8793719,10.09 10.7968938,10.09 C9.71441569,10.09 8.8368938,10.9451361 8.8368938,12" id="Path" fill-rule="nonzero"></path>
                    </g>
                </g>
            </g>
        </g>
    </g>
</svg>