<?xml version="1.0" encoding="UTF-8"?>
<svg width="22" height="22" viewBox="0 0 32 32" version="1.1" xmlns="http://www.w3.org/2000/svg" xmlns:xlink="http://www.w3.org/1999/xlink">
    <title>icons/Docs/AI Gateway2</title>
    <g id="icons/Docs/AI-Gateway2" stroke="none" fill="none" fill-rule="evenodd" stroke-linecap="round" stroke-linejoin="round" stroke-width="1">
        <g id="Deepfake-Side--Streamline-Ultimate" stroke="currentColor" transform="translate(1, 1.2667)">
            <path d="M3.83202667,6.666664 C4.9366,6.666664 5.83202667,5.77123733 5.83202667,4.666664 C5.83202667,3.562104 4.9366,2.666664 3.83202667,2.666664 C2.72746667,2.666664 1.83202667,3.562104 1.83202667,4.666664 C1.83202667,5.77123733 2.72746667,6.666664 3.83202667,6.666664 Z" id="Path" stroke-width="2"></path>
            <line x1="5.83202667" y1="4.666664" x2="12.9973333" y2="4.666664" id="Path" stroke-width="2"></line>
            <path d="M2,16.6666507 C3.10457333,16.6666507 4,15.771184 4,14.6666507 C4,13.5621173 3.10457333,12.6666507 2,12.6666507 C0.895426667,12.6666507 0,13.5621173 0,14.6666507 C0,15.771184 0.895426667,16.6666507 2,16.6666507 Z" id="Path" stroke-width="2"></path>
            <line x1="4" y1="14.6666507" x2="12.9973333" y2="14.6666507" id="Path" stroke-width="2"></line>
            <path d="M3.83202667,26.6666507 C4.9366,26.6666507 5.83202667,25.771184 5.83202667,24.6666507 C5.83202667,23.5621173 4.9366,22.6666507 3.83202667,22.6666507 C2.72746667,22.6666507 1.83202667,23.5621173 1.83202667,24.6666507 C1.83202667,25.771184 2.72746667,26.6666507 3.83202667,26.6666507 Z" id="Path" stroke-width="2"></path>
            <line x1="5.83333333" y1="24.6666507" x2="12.9973333" y2="24.6666507" id="Path" stroke-width="2"></line>
            <polyline id="Path" stroke-width="2" points="6.49869333 19.999984 9.16536 19.999984 9.16536 24.659184"></polyline>
            <line x1="8.41472" y1="9.99999733" x2="12.9973333" y2="9.99999733" id="Path" stroke-width="2"></line>
            <path d="M12.9973333,0 C23.7973333,0 26.064,8.79999733 29.9306667,18.799984 C30.1973333,19.599984 29.664,20.399984 28.864,20.399984 L26.064,20.399984 L26.064,24.9333173 C26.064,27.4666507 24.064,29.4666507 21.5306667,29.4666507 L12.9973333,29.4666507 L12.9973333,0 Z" id="Path" stroke-width="2"></path>
            <path d="M22.0624,21.999984 C22.7290667,23.3333173 24.7290667,23.3333173 26.0624,23.3333173" id="Path" stroke-width="2"></path>
            <path d="M21.3973333,13.5998507 C21.2501333,13.5998507 21.1306667,13.4805173 21.1306667,13.333184 C21.1306667,13.185984 21.2501333,13.0665173 21.3973333,13.0665173" id="Path" stroke-width="2"></path>
            <path d="M21.3973333,13.5998507 C21.5445333,13.5998507 21.664,13.4805173 21.664,13.333184 C21.664,13.185984 21.5445333,13.0665173 21.3973333,13.0665173" id="Path" stroke-width="2"></path>
        </g>
    </g>
</svg>