<?xml version="1.0" encoding="UTF-8"?>
<svg width="25px" height="24px" viewBox="0 0 25 24" version="1.1" xmlns="http://www.w3.org/2000/svg" xmlns:xlink="http://www.w3.org/1999/xlink">
    <title>icons/ai</title>
    <g id="icons/ai" stroke="none" fill="none">
        <rect id="Rectangle" x="4" y="4" width="16" height="16"></rect>
        <g id="Gráfico" transform="translate(0, -4)" stroke="#4F79FD" stroke-width="1.5">
            <path d="M4.23913043,11.0526316 C5.13959782,11.0526316 5.86956522,10.2278965 5.86956522,9.21052632 C5.86956522,8.19316842 5.13959782,7.36842105 4.23913043,7.36842105 C3.33867391,7.36842105 2.60869565,8.19316842 2.60869565,9.21052632 C2.60869565,10.2278965 3.33867391,11.0526316 4.23913043,11.0526316 Z" id="Path"></path>
            <line x1="5.86956522" y1="9.21052632" x2="11.7391304" y2="9.21052632" id="Path"></line>
            <path d="M3.58695652,17.6842105 C4.48742391,17.6842105 5.2173913,16.8594386 5.2173913,15.8421053 C5.2173913,14.8247719 4.48742391,14 3.58695652,14 C2.68648913,14 1.95652174,14.8247719 1.95652174,15.8421053 C1.95652174,16.8594386 2.68648913,17.6842105 3.58695652,17.6842105 Z" id="Path"></path>
            <line x1="4.56521739" y1="15.8421053" x2="11.7391304" y2="15.8421053" id="Path"></line>
            <path d="M4.23913043,25.0526316 C5.13959782,25.0526316 5.86956522,24.2278596 5.86956522,23.2105263 C5.86956522,22.1931929 5.13959782,21.3684211 4.23913043,21.3684211 C3.33867391,21.3684211 2.60869565,22.1931929 2.60869565,23.2105263 C2.60869565,24.2278596 3.33867391,25.0526316 4.23913043,25.0526316 Z" id="Path"></path>
            <line x1="5.2173913" y1="22.4736842" x2="11.0869565" y2="22.4736842" id="Path"></line>
            <polyline id="Path" points="6.52173913 19.1578947 7.82608696 19.1578947 7.82608696 22.8421053"></polyline>
            <line x1="7.17391304" y1="12.1578947" x2="11.7391304" y2="12.1578947" id="Path"></line>
            <path d="M11.7391304,5.15789474 C19.6100025,5.15789474 21.261914,11.7594681 24.0798806,19.2612483 C24.274223,19.8613915 23.885538,20.4615348 23.3025105,20.4615348 L21.261914,20.4615348 L21.261914,23.8623463 C21.261914,25.7627999 19.8043451,27.2631579 17.9580912,27.2631579 L11.7391304,27.2631579 L11.7391304,5.15789474 Z" id="Path"></path>
            <path d="M18.2608696,21.3684211 C18.6956522,22.8421053 20,22.8421053 20.8695652,22.8421053" id="Path"></path>
            <path d="M17.3695652,16.0385965 C17.2735652,16.0385965 17.1956522,15.9506666 17.1956522,15.8421053 C17.1956522,15.7336421 17.2735652,15.645614 17.3695652,15.645614" id="Path"></path>
            <path d="M17.1956522,16.0385965 C17.2916522,16.0385965 17.3695652,15.9506666 17.3695652,15.8421053 C17.3695652,15.7336421 17.2916522,15.645614 17.1956522,15.645614" id="Path"></path>
        </g>
    </g>
</svg>