<svg width="41" height="40" viewBox="0 0 41 40" xmlns="http://www.w3.org/2000/svg">
  <g transform="translate(.024)" fill="none" fill-rule="evenodd">
      <rect fill="#FFF" width="40" height="40" rx="8"/>
      <path d="M12.582 18.264c0 .411.045.745.124.99.09.244.203.511.362.8.056.09.079.178.079.256 0 .112-.068.223-.215.334l-.712.467a.548.548 0 0 1-.294.1c-.113 0-.226-.055-.34-.155a3.448 3.448 0 0 1-.407-.523c-.113-.19-.226-.4-.35-.656-.882 1.023-1.99 1.535-3.325 1.535-.95 0-1.707-.267-2.261-.801s-.837-1.246-.837-2.136c0-.946.34-1.713 1.029-2.291.69-.579 1.606-.868 2.77-.868.385 0 .78.033 1.199.089.418.056.848.144 1.3.245v-.812c0-.846-.18-1.435-.531-1.78-.362-.345-.973-.512-1.843-.512-.396 0-.803.045-1.222.145a9.12 9.12 0 0 0-1.22.378 3.28 3.28 0 0 1-.397.145.704.704 0 0 1-.18.033c-.159 0-.238-.111-.238-.345v-.545c0-.178.023-.311.08-.39.056-.077.157-.155.316-.233.396-.2.87-.367 1.425-.5a6.964 6.964 0 0 1 1.764-.212c1.345 0 2.33.3 2.962.901.622.6.939 1.513.939 2.737v3.604h.023zm-4.592 1.69a3.72 3.72 0 0 0 1.165-.2 2.523 2.523 0 0 0 1.074-.712c.181-.211.317-.445.385-.712.068-.267.113-.59.113-.967v-.468a9.585 9.585 0 0 0-1.04-.189 8.66 8.66 0 0 0-1.063-.066c-.758 0-1.312.144-1.685.445-.373.3-.554.723-.554 1.279 0 .523.135.912.418 1.179.272.278.667.411 1.187.411zm9.08 1.202c-.203 0-.338-.034-.429-.112-.09-.066-.17-.222-.237-.433l-2.658-8.599c-.068-.222-.102-.367-.102-.445 0-.178.091-.278.272-.278h1.108c.215 0 .362.034.441.111.09.067.158.223.226.434l1.9 7.364 1.764-7.364c.057-.222.124-.367.215-.434.09-.066.249-.11.452-.11h.905c.215 0 .362.033.452.11.09.067.17.223.215.434l1.787 7.453 1.956-7.453c.068-.222.147-.367.226-.434.09-.066.238-.11.441-.11h1.052c.18 0 .283.088.283.277 0 .056-.012.112-.023.178a1.562 1.562 0 0 1-.08.278l-2.724 8.599c-.068.222-.147.367-.238.434-.09.066-.237.11-.43.11h-.972c-.215 0-.362-.033-.452-.11-.09-.078-.17-.223-.215-.445l-1.753-7.175L18.71 20.6c-.056.222-.124.367-.214.444-.09.078-.25.112-.453.112h-.972zm14.532.3a7.601 7.601 0 0 1-1.742-.2c-.565-.134-1.006-.278-1.3-.445-.181-.1-.306-.211-.35-.312a.774.774 0 0 1-.069-.311v-.567c0-.234.09-.345.26-.345a.65.65 0 0 1 .204.033c.068.022.17.067.283.111.384.167.803.3 1.244.39a6.9 6.9 0 0 0 1.345.133c.713 0 1.267-.122 1.651-.367.385-.245.588-.6.588-1.057 0-.311-.102-.567-.305-.778-.204-.212-.588-.4-1.142-.579l-1.64-.5c-.825-.256-1.436-.634-1.81-1.135-.372-.49-.565-1.034-.565-1.613 0-.467.102-.878.306-1.234.203-.356.475-.668.814-.912.34-.256.724-.445 1.176-.579.452-.133.927-.189 1.425-.189.249 0 .509.011.757.044.26.034.498.078.735.123.227.055.442.111.645.178.204.067.362.133.475.2.158.089.271.178.34.278a.592.592 0 0 1 .101.367v.523c0 .234-.09.356-.26.356-.09 0-.238-.045-.43-.134-.644-.289-1.368-.433-2.17-.433-.645 0-1.154.1-1.505.311-.35.211-.531.534-.531.99 0 .312.113.579.339.79.226.211.644.423 1.244.612l1.605.5c.815.256 1.403.612 1.753 1.068.35.456.52.979.52 1.557 0 .479-.101.912-.294 1.29a3.003 3.003 0 0 1-.825.98c-.35.278-.769.478-1.255.622a5.46 5.46 0 0 1-1.617.234z" fill="#252F3E" fill-rule="nonzero"/>
      <g fill="#F90">
          <path d="M33.739 26.862C30.019 29.565 24.613 31 19.966 31c-6.514 0-12.383-2.37-16.815-6.307-.35-.312-.034-.734.384-.49 4.795 2.737 10.709 4.394 16.826 4.394 4.128 0 8.662-.845 12.835-2.58.622-.278 1.154.4.543.845z"/>
          <path d="M35.288 25.127c-.475-.6-3.144-.29-4.354-.145-.361.045-.418-.267-.09-.5 2.126-1.469 5.62-1.046 6.027-.557.407.501-.113 3.938-2.103 5.584-.305.256-.6.123-.464-.21.453-1.102 1.459-3.583.984-4.172z"/>
      </g>
  </g>
</svg>