<svg width="41" height="40" viewBox="0 0 41 40" xmlns="http://www.w3.org/2000/svg">
  <g transform="translate(.024)" fill="none" fill-rule="evenodd">
      <rect fill="#FFF" width="40" height="40" rx="8"/>
      <path d="m18.731 30.61 8.016-1.4.075-.016-4.124-4.843a691.13 691.13 0 0 1-4.125-4.864c0-.024 4.26-11.603 4.283-11.643 2.357 3.982 4.699 7.974 7.026 11.974l7.063 12.09L37 32l-26.214-.002 7.943-1.388h.002zM3 29.135c0-.007 1.942-3.337 4.317-7.4l4.32-7.391 5.032-4.17C19.437 7.884 21.71 6 21.717 6a.868.868 0 0 1-.08.2L16.17 17.774l-5.363 11.365-3.903.004c-2.148.003-3.903 0-3.903-.007z" fill="#0089D6" fill-rule="nonzero"/>
  </g>
</svg>