<svg width="22" height="22" viewBox="0 0 22 22" xmlns="http://www.w3.org/2000/svg">
  <g stroke="currentColor" stroke-width="1.375" fill="none" fill-rule="evenodd" stroke-linecap="round"
    stroke-linejoin="round">
    <path
      d="M6.933 5.57 3.747 8.787M12.835 6.532l-3.71-.995M17.666 3.78l-2.844 2.247M6.83 5.072c0 .43.226.827.595 1.042.369.215.823.215 1.192 0 .368-.215.595-.612.595-1.042 0-.665-.533-1.204-1.191-1.204s-1.192.539-1.192 1.204M17.554 3.266c0 .665.534 1.204 1.192 1.204.658 0 1.192-.539 1.192-1.204 0-.665-.534-1.204-1.192-1.204-.658 0-1.192.54-1.192 1.204M12.787 6.877c0 .43.228.828.596 1.043.369.215.823.215 1.192 0s.596-.613.596-1.043c0-.664-.534-1.203-1.192-1.203-.658 0-1.191.539-1.191 1.203M2.063 9.887c0 .664.533 1.203 1.191 1.203s1.192-.539 1.192-1.203c0-.665-.534-1.204-1.192-1.204-.658 0-1.192.539-1.192 1.204M2.063 20.119h17.875M6.233 15.705H3.85a.607.607 0 0 0-.596.601v3.812H6.83v-3.812a.599.599 0 0 0-.596-.601zM12.192 10.087H9.808a.607.607 0 0 0-.595.602v9.43h3.575v-9.43a.599.599 0 0 0-.596-.602zM18.15 13.297h-2.383a.607.607 0 0 0-.596.602v6.22h3.575v-6.22a.599.599 0 0 0-.596-.602z" />
  </g>
</svg>