<?xml version="1.0" encoding="UTF-8"?>
<svg width="24px" height="24px" viewBox="0 0 24 24" version="1.1" xmlns="http://www.w3.org/2000/svg" xmlns:xlink="http://www.w3.org/1999/xlink">
    <title>icons/cart</title>
    <g id="icons/cart" stroke="none" fill="none">
        <rect id="Rectangle" x="4" y="4" width="16" height="16"></rect>
        <g id="cart-2-svgrepo-com" fill="#4F79FD" fill-rule="evenodd" stroke-width="1">
            <g id="cart-2">
                <path d="M7.5,19.5 C8.328,19.5 9,20.172 9,21 C9,21.828 8.328,22.5 7.5,22.5 C6.672,22.5 6,21.828 6,21 C6,20.172 6.672,19.5 7.5,19.5 L7.5,19.5 Z M4.5,21 C4.5,22.65675 5.84325,24 7.5,24 C9.15675,24 10.5,22.65675 10.5,21 C10.5,19.34325 9.15675,18 7.5,18 C5.84325,18 4.5,19.34325 4.5,21 L4.5,21 Z M6,16.5 C5.172,16.5 4.5,15.828 4.5,15 C4.5,15 21.75,13.5 21.729,13.57275 C22.1115,12.15 23.98425,3.91725 24,3.75 C24.0405,3.3375 23.66475,3 23.25,3 L4.5,3 L4.5,1.5 L5.25,1.5 C5.66475,1.5 6,1.16475 6,0.75 C6,0.336 5.66475,0 5.25,0 L0.75,0 C0.33525,0 0,0.336 0,0.75 C0,1.16475 0.33525,1.5 0.75,1.5 L3,1.5 L3,15 C3,16.65675 4.34325,18 6,18 L23.25,18 C23.27325,18 23.25,17.25675 23.25,16.5 L6,16.5 L6,16.5 Z M16.5,19.5 C17.328,19.5 18,20.172 18,21 C18,21.828 17.328,22.5 16.5,22.5 C15.672,22.5 15,21.828 15,21 C15,20.172 15.672,19.5 16.5,19.5 L16.5,19.5 Z M13.5,21 C13.5,22.65675 14.84325,24 16.5,24 C18.15675,24 19.5,22.65675 19.5,21 C19.5,19.34325 18.15675,18 16.5,18 C14.84325,18 13.5,19.34325 13.5,21 L13.5,21 Z"></path>
            </g>
        </g>
    </g>
</svg>