<?xml version="1.0" encoding="UTF-8"?>
<svg width="24px" height="24px" viewBox="0 0 24 24" version="1.1" xmlns="http://www.w3.org/2000/svg" xmlns:xlink="http://www.w3.org/1999/xlink">
    <title>Icons/Performance</title>
    <g id="Design" stroke="none" stroke-width="1" fill="none" fill-rule="evenodd">
        <g id="For-e-commerce-v2" transform="translate(-548, -1652)">
            <g id="The-API-Gataway-Copia-2" transform="translate(140, 1155)">
                <g id="Group-24" transform="translate(0, 497)">
                    <g id="Icons/Performance" transform="translate(408, 0)">
                        <rect id="Rectangle" x="0" y="0" width="24" height="24"></rect>
                        <g id="Group" stroke-width="1" fill-rule="evenodd" fill="#4F79FD">
                            <g fill-rule="nonzero" id="Path">
                                <path d="M23.1263868,0.366386813 C22.8935874,0.13188549 22.5768205,0 22.2463868,0 C21.9159531,0 21.5991862,0.13188549 21.3663868,0.366386813 L17.5963868,4.12638681 C17.5510201,4.17472543 17.4876798,4.20214614 17.4213868,4.20214614 C17.3550939,4.20214614 17.2917535,4.17472543 17.2463868,4.12638681 L15.9163868,2.79638681 C15.7722349,2.65508283 15.5572558,2.61431772 15.3713815,2.69304095 C15.1855072,2.77176417 15.0652011,2.95453244 15.0663781,3.15638681 L15.0663781,7.92638681 C15.0663781,8.20252919 15.2902444,8.4264054 15.5663781,8.4264054 L20.3363868,8.4264054 C20.5390801,8.42814558 20.7219329,8.3049187 20.7963868,8.11638681 C20.8769951,7.93117214 20.8330234,7.71531085 20.6863868,7.57638681 L19.3663868,6.24638681 C19.3188763,6.19883684 19.2934839,6.13354201 19.2963868,6.06638681 C19.2937895,6.00221943 19.3193596,5.94012058 19.3663868,5.89638681 L23.1263868,2.12638681 C23.3608881,1.89358744 23.4927736,1.5768205 23.4927736,1.24638681 C23.4927736,0.91595313 23.3608881,0.599186187 23.1263868,0.366386813 L23.1263868,0.366386813 Z"></path>
                                <path d="M0.366386813,23.1263868 C0.596616662,23.3651096 0.914742113,23.4988669 1.24638681,23.4964207 C1.57803151,23.4988669 1.89615696,23.3651096 2.12638681,23.1263868 L5.89638681,19.3663868 C5.94175348,19.3180482 6.00509386,19.2906275 6.07138681,19.2906275 C6.13767977,19.2906275 6.20102015,19.3180482 6.24638681,19.3663868 L7.57638681,20.6863868 C7.66666715,20.7835252 7.79378295,20.8380034 7.92638681,20.8363868 C7.98884647,20.851264 8.05392716,20.851264 8.11638681,20.8363868 C8.30309957,20.759685 8.42537924,20.5782378 8.42638681,20.3763868 L8.42638681,15.5663868 C8.42638681,15.2902444 8.20252919,15.0663682 7.92638681,15.0663682 L3.15638681,15.0663682 C2.95369353,15.064628 2.77084074,15.1878549 2.69638681,15.3763868 C2.61577848,15.5616015 2.65975022,15.7774628 2.80638681,15.9163868 L4.12638681,17.2463868 C4.17472543,17.2917535 4.20214614,17.3550939 4.20214614,17.4213868 C4.20214614,17.4876798 4.17472543,17.5510201 4.12638681,17.5963868 L0.366386813,21.3663868 C0.13188549,21.5991862 0,21.9159531 0,22.2463868 C0,22.5768205 0.13188549,22.8935874 0.366386813,23.1263868 L0.366386813,23.1263868 Z"></path>
                                <path d="M15.3763868,20.7963868 C15.4388465,20.811264 15.5039272,20.811264 15.5663868,20.7963868 C15.6989907,20.7980034 15.8261065,20.7435252 15.9163868,20.6463868 L17.2463868,19.3263868 C17.2917535,19.2780482 17.3550939,19.2506275 17.4213868,19.2506275 C17.4876798,19.2506275 17.5510201,19.2780482 17.5963868,19.3263868 L21.3663868,23.0863868 C21.5978389,23.3233978 21.9151101,23.4570266 22.2463868,23.4570266 C22.5776635,23.4570266 22.8949347,23.3233978 23.1263868,23.0863868 C23.3608881,22.8535874 23.4927736,22.5368205 23.4927736,22.2063868 C23.4927736,21.8759531 23.3608881,21.5591862 23.1263868,21.3263868 L19.3663868,17.5563868 C19.3180482,17.5110201 19.2906275,17.4476798 19.2906275,17.3813868 C19.2906275,17.3150939 19.3180482,17.2517535 19.3663868,17.2063868 L20.6863868,15.8763868 C20.8330234,15.7374628 20.8769951,15.5216015 20.7963868,15.3363868 C20.7219329,15.1478549 20.5390801,15.024628 20.3363868,15.0263682 L15.5663868,15.0263682 C15.2902444,15.0263682 15.0663868,15.2502444 15.0663868,15.5263868 L15.0663868,20.2963868 C15.0503628,20.5126428 15.175562,20.7145771 15.3763868,20.7963868 L15.3763868,20.7963868 Z"></path>
                                <path d="M8.4263955,3.15638681 C8.42757254,2.95453244 8.3072664,2.77176417 8.12139212,2.69304095 C7.93551784,2.61431772 7.72053874,2.65508283 7.57638681,2.79638681 L6.24638681,4.12638681 C6.20265304,4.173414 6.14055419,4.19898411 6.07638681,4.19638681 C6.00923161,4.19928975 5.94393679,4.17389732 5.89638681,4.12638681 L2.12638681,0.366386813 C1.64037623,-0.119623767 0.852397393,-0.119623767 0.366386813,0.366386813 C-0.119623767,0.852397393 -0.119623767,1.64037623 0.366386813,2.12638681 L4.12638681,5.89638681 C4.17472543,5.94175348 4.20214614,6.00509386 4.20214614,6.07138681 C4.20214614,6.13767977 4.17472543,6.20102015 4.12638681,6.24638681 L2.80638681,7.57638681 C2.67663493,7.72665658 2.65278566,7.94130004 2.74638681,8.11638681 C2.82084074,8.3049187 3.00369353,8.42814558 3.20638681,8.4264054 L7.92638681,8.4264054 C8.20252919,8.4264054 8.4263955,8.20252919 8.4263955,7.92638681 L8.4263955,3.15638681 Z"></path>
                                <path d="M8.83638681,11.7463868 C8.83638681,13.3535354 10.1392382,14.6563868 11.7463868,14.6563868 C13.3535354,14.6563868 14.6563868,13.3535354 14.6563868,11.7463868 C14.6563868,10.1392382 13.3535354,8.83638681 11.7463868,8.83638681 C10.1392382,8.83638681 8.83638681,10.1392382 8.83638681,11.7463868"></path>
                            </g>
                        </g>
                    </g>
                </g>
            </g>
        </g>
    </g>
</svg>