<?xml version="1.0" encoding="UTF-8"?>
<svg width="24px" height="24px" viewBox="0 0 24 24" version="1.1" xmlns="http://www.w3.org/2000/svg" xmlns:xlink="http://www.w3.org/1999/xlink">
    <title>icons/compliant</title>
    <g id="icons/compliant" stroke="none" fill="none">
        <rect id="Rectangle" x="0" y="0" width="24" height="24"></rect>
        <g id="Group" stroke-width="1" fill-rule="evenodd" transform="translate(0, 1)" fill="#4F79FD">
            <g fill-rule="nonzero" id="Shape">
                <path d="M22.2218716,9.83271386 L20.3818716,8.35271386 C20.0816647,8.11313608 19.9297064,7.73324047 19.9818716,7.35271386 L20.2318716,5.01271386 C20.3021928,4.38291434 20.0829645,3.7552228 19.6358347,3.30614888 C19.1887048,2.85707495 18.5619702,2.63512557 17.9318716,2.70271386 L15.5818716,2.95271386 C15.201345,3.00487901 14.8214494,2.85292077 14.5818716,2.55271386 L13.1318716,0.742713861 C12.7216345,0.270906267 12.127089,0 11.5018716,0 C10.8766541,0 10.2821086,0.270906267 9.87187157,0.742713861 L8.39187157,2.58271386 C8.15229378,2.88292077 7.77239817,3.03487901 7.39187157,2.98271386 L5.07187157,2.73271386 C4.44177289,2.66512557 3.81503835,2.88707495 3.36790847,3.33614888 C2.92077859,3.7852228 2.7015503,4.41291434 2.77187157,5.04271386 L3.02187157,7.38271386 C3.07403671,7.76324047 2.92207847,8.14313608 2.62187157,8.38271386 L0.781871566,9.83271386 C0.287585603,10.2293946 0,10.8289362 0,11.4627139 C0,12.0964916 0.287585603,12.6960332 0.781871566,13.0927139 L2.62187157,14.5727139 C2.9204335,14.8135102 3.07200511,15.1924393 3.02187157,15.5727139 L2.77187157,17.9227139 C2.70165365,18.5512865 2.92265943,19.1774695 3.37187157,19.6227139 C3.8111563,20.0812481 4.4420869,20.3039295 5.07187157,20.2227139 L7.42187157,19.9727139 C7.80239817,19.9205487 8.18229378,20.072507 8.42187157,20.3727139 L9.90187157,22.2127139 C10.2985523,22.7069998 10.8980939,22.9945854 11.5318716,22.9945854 C12.1656493,22.9945854 12.7651909,22.7069998 13.1618716,22.2127139 L14.6418716,20.3727139 C14.8814494,20.072507 15.261345,19.9205487 15.6418716,19.9727139 L17.9918716,20.2227139 C18.6216562,20.3039295 19.2525868,20.0812481 19.6918716,19.6227139 C20.1410837,19.1774695 20.3620895,18.5512865 20.2918716,17.9227139 L20.0418716,15.5727139 C19.991738,15.1924393 20.1433096,14.8135102 20.4418716,14.5727139 L22.2818716,13.0927139 C22.7761575,12.6960332 23.0637431,12.0964916 23.0637431,11.4627139 C23.0637431,10.8289362 22.7761575,10.2293946 22.2818716,9.83271386 L22.2218716,9.83271386 Z M11.9018716,14.5327139 C11.5901807,14.9383535 11.1198282,15.1912519 10.6095575,15.2275633 C10.0992868,15.2638747 9.59786221,15.080129 9.23187157,14.7227139 L6.79187157,12.2827139 C6.53821298,12.0290553 6.43914803,11.6593399 6.53199351,11.3128358 C6.62483898,10.9663318 6.89548946,10.6956813 7.24199352,10.6028358 C7.58849757,10.5099903 7.958213,10.6090553 8.21187157,10.8627139 L10.5018716,13.1127139 L14.4118716,7.90271386 C14.6262309,7.61690139 14.9767863,7.46715913 15.3314868,7.50989354 C15.6861873,7.55262795 15.9911456,7.78134666 16.1314868,8.10989354 C16.271828,8.43844042 16.2262309,8.81690139 16.0118716,9.10271386 L11.9018716,14.5327139 Z"></path>
            </g>
        </g>
    </g>
</svg>