<svg width="22" height="22" viewBox="0 0 22 22" xmlns="http://www.w3.org/2000/svg">
	<g stroke="currentColor" stroke-width="1.375" fill="none" fill-rule="evenodd" stroke-linecap="round"
		stroke-linejoin="round">
		<path
			d="M8.446 20.625H3.978A1.92 1.92 0 0 1 2.062 18.7M17.383 8.433V5.454L13.71 1.778a1.375 1.375 0 0 0-.973-.403H4.616h0a2.56 2.56 0 0 0-2.553 2.567V18.7M14.807 16.135a1.284 1.284 0 1 0 0-2.567 1.284 1.284 0 0 0 0 2.567z" />
		<path
			d="M16.275 11.132a.85.85 0 0 0 1.005.582l1.26-.291a1.146 1.146 0 0 1 1.09 1.897l-.881.951a.856.856 0 0 0 0 1.165l.882.951a1.146 1.146 0 0 1-1.091 1.898l-1.26-.292a.85.85 0 0 0-1.005.583l-.378 1.238a1.138 1.138 0 0 1-2.18 0l-.378-1.243a.85.85 0 0 0-1.005-.583l-1.26.292a1.146 1.146 0 0 1-1.09-1.898l.882-.95a.856.856 0 0 0 0-1.166l-.883-.95a1.146 1.146 0 0 1 1.091-1.899l1.26.292a.85.85 0 0 0 1.005-.582l.378-1.244a1.138 1.138 0 0 1 2.18.005l.378 1.244z" />
	</g>
</svg>