<?xml version="1.0" encoding="UTF-8"?>
<svg width="24px" height="25px" viewBox="0 0 24 25" version="1.1" xmlns="http://www.w3.org/2000/svg" xmlns:xlink="http://www.w3.org/1999/xlink">
    <title>icons/data-manipulation</title>
    <g id="icons/data-manipulation" stroke="none" fill="none">
        <rect id="Rectangle" x="0" y="0" width="24" height="24"></rect>
        <g id="Group" stroke-width="1" fill-rule="evenodd" transform="translate(0, 1)" fill="#4F79FD">
            <path d="M21.633,1.29482166 C21.3473241,1.00760955 20.9165941,0.921119873 20.5421893,1.07578915 C20.1677845,1.23045842 19.9236792,1.59572731 19.924,2.00082166 L19.924,3.00082166 L19.629,3.00082166 C16.561,3.00082166 13.709,4.31682166 11.828,6.31582166 C11.5712228,6.57377957 11.4748807,6.95088265 11.5764618,7.30039383 C11.6780429,7.64990501 11.9615038,7.916623 12.3165451,7.9967634 C12.6715863,8.0769038 13.0421333,7.95780934 13.284,7.68582166 C14.791,6.08482166 17.12,5.00082166 19.63,5.00082166 L19.925,5.00082166 L19.925,6.00082166 C19.9246792,6.40591602 20.1687845,6.77118491 20.5431893,6.92585418 C20.9175941,7.08052346 21.3483241,6.99403378 21.634,6.70682166 L23.626,4.70682166 C24.0150509,4.31655191 24.0150509,3.68509141 23.626,3.29482166 L21.634,1.29482166 L21.633,1.29482166 Z M-1.63424829e-13,4.00082166 C-1.63424829e-13,3.44853691 0.44771525,3.00082166 1,3.00082166 C6.64,3.00082166 11.364,7.15982166 11.364,12.5008217 C11.364,16.5598217 15.008,20.0008217 19.729,20.0008217 L19.924,20.0008217 L19.924,19.0008217 C19.9236792,18.5957273 20.1677845,18.2304584 20.5421893,18.0757891 C20.9165941,17.9211199 21.3473241,18.0076096 21.633,18.2948217 L23.621,20.2908217 C23.8103547,20.4775011 23.9172926,20.7320863 23.9180477,20.9979882 C23.9187948,21.2638902 23.813297,21.5190754 23.625,21.7068217 L21.633,23.7068217 C21.3473241,23.9940338 20.9165941,24.0805235 20.5421893,23.9258542 C20.1677845,23.7711849 19.9236792,23.405916 19.924,23.0008217 L19.924,22.0008217 L19.729,22.0008217 C14.089,22.0008217 9.364,17.8418217 9.364,12.5008217 C9.364,8.44182166 5.721,5.00082166 1,5.00082166 C0.44771525,5.00082166 -1.63424829e-13,4.55310641 -1.63424829e-13,4.00082166 L-1.63424829e-13,4.00082166 Z M8.707,18.9078217 C8.96695658,18.6567472 9.0712126,18.2849438 8.97969716,17.9353143 C8.88818172,17.5856849 8.61513676,17.3126399 8.26550732,17.2211245 C7.91587789,17.1296091 7.54407447,17.2338651 7.293,17.4938217 C5.783,19.0038217 3.539,20.0008217 1,20.0008217 C0.44771525,20.0008217 -1.63424829e-13,20.4485369 -1.63424829e-13,21.0008217 C-1.63424829e-13,21.5531064 0.44771525,22.0008217 1,22.0008217 C4.06,22.0008217 6.816,20.7988217 8.707,18.9078217 L8.707,18.9078217 Z M15.2,9.50082166 C14.786,9.50082166 14.403,9.64082166 14.121,9.92182166 C13.841,10.2038217 13.7,10.5868217 13.7,11.0008217 L13.7,14.0008217 C13.7,14.4148217 13.84,14.7978217 14.121,15.0798217 C14.403,15.3598217 14.786,15.5008217 15.2,15.5008217 L16.2,15.5008217 C16.614,15.5008217 16.997,15.3608217 17.279,15.0798217 C17.559,14.7978217 17.7,14.4148217 17.7,14.0008217 L17.7,11.0008217 C17.7,10.5868217 17.56,10.2038217 17.279,9.92182166 C16.9898344,9.64326451 16.6014072,9.4917095 16.2,9.50082166 L15.2,9.50082166 Z M21.2,9.50082166 C20.786,9.50082166 20.403,9.64082166 20.121,9.92182166 C19.841,10.2038217 19.7,10.5868217 19.7,11.0008217 L19.7,14.0008217 C19.7,14.4148217 19.84,14.7978217 20.121,15.0798217 C20.403,15.3598217 20.786,15.5008217 21.2,15.5008217 L22.2,15.5008217 C22.614,15.5008217 22.997,15.3608217 23.279,15.0798217 C23.559,14.7978217 23.7,14.4148217 23.7,14.0008217 L23.7,11.0008217 C23.7,10.5868217 23.56,10.2038217 23.279,9.92182166 C22.9898344,9.64326451 22.6014072,9.4917095 22.2,9.50082166 L21.2,9.50082166 L21.2,9.50082166 Z M2.2,7.30082166 C1.0954305,7.30082166 0.2,8.19625216 0.2,9.30082166 C0.2,10.4053912 1.0954305,11.3008217 2.2,11.3008217 C3.3045695,11.3008217 4.2,10.4053912 4.2,9.30082166 C4.2,8.19625216 3.3045695,7.30082166 2.2,7.30082166 L2.2,7.30082166 Z M2.2,13.8008217 C1.0954305,13.8008217 0.2,14.6962522 0.2,15.8008217 C0.2,16.9053912 1.0954305,17.8008217 2.2,17.8008217 C3.3045695,17.8008217 4.2,16.9053912 4.2,15.8008217 C4.2,14.6962522 3.3045695,13.8008217 2.2,13.8008217 Z M6.5,11.6008217 C5.3954305,11.6008217 4.5,12.4962522 4.5,13.6008217 C4.5,14.7053912 5.3954305,15.6008217 6.5,15.6008217 C7.6045695,15.6008217 8.5,14.7053912 8.5,13.6008217 C8.5,12.4962522 7.6045695,11.6008217 6.5,11.6008217 Z" id="Shape"></path>
        </g>
    </g>
</svg>