<svg width="22" height="22" viewBox="0 0 22 22" xmlns="http://www.w3.org/2000/svg">
  <g stroke="currentColor" stroke-width="1.375" fill="none" fill-rule="evenodd" stroke-linecap="round"
    stroke-linejoin="round">
    <path d="M9.718 7.027a1.698 1.698 0 0 1 2.549.118M8.032 3.942h5.935M11 16.133v4.492" />
    <path d="M14.192 20.625H7.808L7.17 7.15c0-2.126 1.715-5.775 3.83-5.775s3.83 3.649 3.83 5.775l-.638 13.475z" />
    <path
      d="m14.714 9.614 4.352 3.828c.554.487.871 1.19.872 1.93v2.686a1.28 1.28 0 0 1-1.277 1.284h-4.409M7.286 9.614l-4.352 3.828a2.572 2.572 0 0 0-.872 1.93v2.686a1.28 1.28 0 0 0 1.277 1.284h4.409" />
  </g>
</svg>