<svg width="22" height="22" viewBox="0 0 22 22" xmlns="http://www.w3.org/2000/svg">
  <g stroke="currentColor" stroke-width="1.375" fill="none" fill-rule="evenodd" stroke-linecap="round"
    stroke-linejoin="round">
    <path
      d="M13.383 6.83H9.808V3.85c0-.987.8-1.788 1.788-1.788h0c.987 0 1.787.8 1.787 1.788v2.98zM5.24 15.965v1.59l-1.589 2.383-1.588-2.384v-9.93c0-.878.71-1.59 1.588-1.59h0c.878 0 1.59.712 1.59 1.59v4.766M18.785 17.229l1.152 1.517" />
    <path
      d="M2.063 15.965h4.17l7.15-9.136 5.736 8.342c.46.664.313 1.573-.333 2.057h0a1.502 1.502 0 0 1-2.122-.325l-5.283-7.404M9.808 6.83 5.24 12.39H2.062" />
  </g>
</svg>