<?xml version="1.0" encoding="UTF-8"?>
<svg width="32px" height="32px" viewBox="0 0 32 32" version="1.1" xmlns="http://www.w3.org/2000/svg" xmlns:xlink="http://www.w3.org/1999/xlink">
    <title>icons/design</title>
    <g id="icons/design" stroke="none" fill="none" fill-rule="evenodd" stroke-linecap="round" stroke-linejoin="round" stroke-width="1">
        <g id="Group" transform="translate(3, 3)" stroke="#4F79FD">
            <path d="M16.4666667,6.93333333 L11.2666667,6.93333333 L11.2666667,2.6 C11.2666667,1.16405965 12.4307263,0 13.8666667,0 L13.8666667,0 C15.302607,0 16.4666667,1.16405965 16.4666667,2.6 L16.4666667,6.93333333 Z" id="Path" stroke-width="2"></path>
            <path d="M4.62222222,20.2222222 L4.62222222,22.5333333 L2.31111111,26 L0,22.5333333 L0,8.08888889 C0,6.81249747 1.03471969,5.77777778 2.31111111,5.77777778 L2.31111111,5.77777778 C3.58750253,5.77777778 4.62222222,6.81249747 4.62222222,8.08888889 L4.62222222,15.0222222" id="Path" stroke-width="2"></path>
            <line x1="24.3244444" y1="22.0595556" x2="26" y2="24.2666667" id="Path" stroke-width="2"></line>
            <path d="M0,20.2222222 L6.06666667,20.2222222 L16.4666667,6.93333333 L24.8097778,19.0666667 C25.4796473,20.0323746 25.2651636,21.3550241 24.3244444,22.0595556 L24.3244444,22.0595556 C23.8546586,22.4120594 23.2626943,22.5604908 22.6821678,22.4713463 C22.1016413,22.3822018 21.5814865,22.0629955 21.2391111,21.5857778 L13.5546667,10.816" id="Path" stroke-width="2"></path>
            <polyline id="Path" stroke-width="2" points="11.2666667 6.93333333 4.62222222 15.0222222 0 15.0222222"></polyline>
        </g>
    </g>
</svg>