<svg width="40" height="40" viewBox="0 0 40 40" xmlns="http://www.w3.org/2000/svg">
    <g fill="none" fill-rule="evenodd">
        <rect fill="#FFF" width="40" height="40" rx="8"/>
        <g fill-rule="nonzero">
            <path d="M22.552 16.947h3.496v3.551h1.768c.816 0 1.656-.144 2.43-.404.38-.129.805-.307 1.18-.53-.493-.64-.745-1.45-.82-2.246-.1-1.084.12-2.494.858-3.343l.368-.422.438.35c1.102.88 2.03 2.11 2.193 3.512 1.328-.388 2.887-.297 4.057.374l.48.276-.253.49c-.99 1.919-3.059 2.513-5.082 2.408C30.638 28.453 24.048 32 16.057 32c-4.128 0-7.916-1.533-10.073-5.172l-.035-.06-.314-.635c-.73-1.601-.972-3.356-.807-5.11l.05-.525h2.989v-3.55h3.496v-3.474h6.993V10h4.196v6.947" fill="#364548"/>
            <path d="M33.88 18.261c.234-1.81-1.13-3.232-1.975-3.907-.975 1.12-1.126 4.053.403 5.288-.853.753-2.651 1.435-4.492 1.435H5.408c-.179 1.91.159 3.667.93 5.172l.254.463c.161.272.338.535.528.788.922.059 1.771.079 2.548.062 1.528-.034 2.774-.213 3.718-.538a.267.267 0 0 1 .176.505 7.377 7.377 0 0 1-.392.122c-.744.212-1.541.353-2.57.416.061.001-.063.01-.064.01l-.114.009a23.54 23.54 0 0 1-1.289.027c-.488 0-.97-.01-1.508-.036l-.013.009c1.867 2.085 4.786 3.335 8.445 3.335 7.745 0 14.314-3.41 17.222-11.068 2.064.21 4.047-.312 4.95-2.062-1.437-.824-3.285-.561-4.35-.03" fill="#22A0C8"/>
            <path d="M33.88 18.261c.234-1.81-1.13-3.232-1.975-3.907-.975 1.12-1.126 4.053.403 5.288-.853.753-2.651 1.435-4.492 1.435H6.736c-.092 2.924 1 5.143 2.932 6.485 1.528-.034 2.774-.213 3.718-.538a.267.267 0 0 1 .176.505 7.377 7.377 0 0 1-.392.122c-.744.212-1.61.372-2.638.435l-.025-.024c2.635 1.343 6.457 1.338 10.838-.334 4.913-1.875 9.485-5.447 12.675-9.533a3.87 3.87 0 0 0-.14.066" fill="#37B1D9"/>
            <path d="M5.45 23.397c.14 1.022.44 1.98.887 2.852l.255.463c.161.272.338.535.528.788.922.059 1.771.079 2.548.062 1.528-.034 2.774-.213 3.718-.538a.267.267 0 0 1 .176.505 7.377 7.377 0 0 1-.392.122c-.744.212-1.605.363-2.634.426l-.132.004a23.23 23.23 0 0 1-1.284.037c-.489 0-.989-.01-1.526-.037 1.867 2.085 4.804 3.34 8.463 3.34 6.63 0 12.399-2.5 15.746-8.024H5.45" fill="#1B81A5"/>
            <path d="M6.937 23.397c.396 1.795 1.349 3.205 2.731 4.165 1.528-.034 2.774-.213 3.718-.538a.267.267 0 0 1 .176.505 7.377 7.377 0 0 1-.392.122c-.744.212-1.623.363-2.652.426 2.635 1.343 6.446 1.323 10.827-.349 2.65-1.011 5.202-2.517 7.49-4.331H6.937" fill="#1D91B4"/>
            <path d="M8.45 17.526h3.03v3.01H8.45v-3.01zm.252.251h.24v2.509h-.24v-2.509zm.45 0H9.4v2.509h-.248v-2.509zm.459 0h.248v2.509h-.248v-2.509zm.459 0h.249v2.509h-.249v-2.509zm.46 0h.248v2.509h-.249v-2.509zm.458 0h.24v2.509h-.24v-2.509zm.958-3.724h3.03v3.01h-3.03v-3.01zm.253.25h.239v2.51h-.24v-2.51zm.45 0h.248v2.51h-.249v-2.51zm.458 0h.249v2.51h-.249v-2.51zm.46 0h.248v2.51h-.249v-2.51zm.458 0h.25v2.51h-.25v-2.51zm.46 0h.239v2.51h-.24v-2.51z" fill="#23A3C2"/>
            <path d="M11.946 17.526h3.03v3.01h-3.03v-3.01zm.253.251h.239v2.509h-.24v-2.509zm.45 0h.248v2.509h-.249v-2.509zm.458 0h.249v2.509h-.249v-2.509zm.46 0h.248v2.509h-.249v-2.509zm.458 0h.25v2.509h-.25v-2.509zm.46 0h.239v2.509h-.24v-2.509z" fill="#34BBDE"/>
            <path d="M15.442 17.526h3.03v3.01h-3.03v-3.01zm.253.251h.239v2.509h-.24v-2.509zm.45 0h.248v2.509h-.249v-2.509zm.459 0h.248v2.509h-.248v-2.509zm.459 0h.248v2.509h-.248v-2.509zm.459 0h.249v2.509h-.25v-2.509zm.459 0h.24v2.509h-.24v-2.509z" fill="#23A3C2"/>
            <path d="M15.442 14.053h3.03v3.01h-3.03v-3.01zm.253.25h.239v2.51h-.24v-2.51zm.45 0h.248v2.51h-.249v-2.51zm.459 0h.248v2.51h-.248v-2.51zm.459 0h.248v2.51h-.248v-2.51zm.459 0h.249v2.51h-.25v-2.51zm.459 0h.24v2.51h-.24v-2.51zm.958 3.223h3.03v3.01h-3.03v-3.01zm.252.251h.24v2.509h-.24v-2.509zm.45 0h.249v2.509h-.249v-2.509zm.459 0h.249v2.509H20.1v-2.509zm.46 0h.248v2.509h-.249v-2.509zm.458 0h.25v2.509h-.25v-2.509zm.46 0h.239v2.509h-.24v-2.509z" fill="#34BBDE"/>
            <path d="M18.939 14.053h3.03v3.01h-3.03v-3.01zm.252.25h.24v2.51h-.24v-2.51zm.45 0h.249v2.51h-.249v-2.51zm.459 0h.249v2.51H20.1v-2.51zm.46 0h.248v2.51h-.249v-2.51zm.458 0h.25v2.51h-.25v-2.51zm.46 0h.239v2.51h-.24v-2.51z" fill="#23A3C2"/>
            <path d="M18.939 10.579h3.03v3.01h-3.03v-3.01zm.252.25h.24v2.51h-.24v-2.51zm.45 0h.249v2.51h-.249v-2.51zm.459 0h.249v2.51H20.1v-2.51zm.46 0h.248v2.51h-.249v-2.51zm.458 0h.25v2.51h-.25v-2.51zm.46 0h.239v2.51h-.24v-2.51z" fill="#34BBDE"/>
            <path d="M22.435 17.526h3.03v3.01h-3.03v-3.01zm.252.251h.24v2.509h-.24v-2.509zm.45 0h.249v2.509h-.249v-2.509zm.46 0h.248v2.509h-.249v-2.509zm.458 0h.25v2.509h-.25v-2.509zm.46 0h.248v2.509h-.248v-2.509zm.459 0h.239v2.509h-.24v-2.509z" fill="#23A3C2"/>
            <path d="M14.787 25.418a.837.837 0 0 1 .733.412.826.826 0 0 1 0 .837.837.837 0 0 1-1.558-.419c0-.454.367-.824.825-.83" fill="#D3ECEC"/>
            <path d="M14.787 25.654a.6.6 0 0 1 .216.04.242.242 0 0 0 .122.452c.093 0 .173-.05.215-.126a.592.592 0 0 1-.173.688.602.602 0 0 1-.712.035.593.593 0 0 1 .332-1.09M0 23.698h38.888c-.846-.214-2.679-.502-2.377-1.604-1.54 1.77-5.252 1.241-6.19.369-1.043 1.503-7.118.932-7.542-.24-1.308 1.526-5.362 1.526-6.67 0-.424 1.172-6.499 1.743-7.542.24-.937.872-4.65 1.4-6.19-.37C2.68 23.196.847 23.484 0 23.698" fill="#364548"/>
            <path d="M17.009 31.403c-2.07-.976-3.207-2.303-3.839-3.751-.77.218-1.693.357-2.768.417-.404.022-.83.034-1.276.034-.515 0-1.058-.015-1.628-.045 1.899 1.885 4.235 3.336 8.56 3.363.319 0 .635-.006.95-.018" fill="#BDD9D7"/>
            <path d="M13.939 28.988a7.198 7.198 0 0 1-.769-1.337c-.769.219-1.693.358-2.768.418.738.398 1.794.767 3.537.92" fill="#D3ECEC"/>
        </g>
    </g>
</svg>