<?xml version="1.0" encoding="UTF-8"?>
<svg width="24px" height="24px" viewBox="0 0 24 24" version="1.1" xmlns="http://www.w3.org/2000/svg" xmlns:xlink="http://www.w3.org/1999/xlink">
    <title>icons/flat-price</title>
    <g id="icons/flat-price" stroke="none" fill="none">
        <rect id="Rectangle" x="0" y="0" width="24" height="24"></rect>
        <g id="Group" stroke-width="1" fill-rule="evenodd" transform="translate(3, 0)" fill="#4F79FD">
            <g fill-rule="nonzero">
                <path d="M9.26615365,24.0038294 C9.8184384,24.0038294 10.2661537,23.5561142 10.2661537,23.0038294 L10.2661537,22.2438294 C10.2661537,22.1057582 10.3780825,21.9938294 10.5161537,21.9938294 L11.2661537,21.9938294 C11.8184384,21.9938294 12.2661537,21.5461142 12.2661537,20.9938294 C12.2661537,20.4415447 11.8184384,19.9938294 11.2661537,19.9938294 L7.26615365,19.9938294 C6.7138689,19.9938294 6.26615365,20.4415447 6.26615365,20.9938294 C6.26615365,21.5461142 6.7138689,21.9938294 7.26615365,21.9938294 L7.98615365,21.9938294 C8.05329403,21.9909684 8.11855838,22.0163877 8.16607688,22.0639062 C8.21359537,22.1114247 8.23901464,22.176689 8.23615365,22.2438294 L8.23615365,23.0038294 C8.2360319,23.2743265 8.34549687,23.5333347 8.53957269,23.7217578 C8.7336485,23.9101809 8.99577828,24.0119444 9.26615365,24.0038294 Z" id="Path"></path>
                <path d="M5.61615365,17.0538294 C5.71697068,17.0910133 5.78452644,17.1863861 5.78615365,17.2938294 L5.78615365,18.5238294 C5.79639037,18.7845682 6.00541483,18.9935927 6.26615365,19.0038294 L12.2661537,19.0038294 C12.542296,19.0038294 12.7661537,18.7799718 12.7661537,18.5038294 L12.7661537,17.2938294 C12.7690391,17.1891187 12.8368978,17.0973098 12.9361537,17.0638294 C16.4219556,15.8481923 18.6898579,12.4809478 18.5061537,8.79382942 C18.451182,6.40133508 17.4456134,4.12924782 15.7117234,2.4798005 C13.9778334,0.83035318 11.6584115,-0.0606187216 9.26615365,0.00382941627 C6.870484,-0.0660372075 4.54589434,0.822519267 2.80764073,2.47254618 C1.06938712,4.12257309 0.06105781,6.39777016 0.00615365352,8.79382942 C-0.134233255,12.4785343 2.13923125,15.825917 5.61615365,17.0538294 L5.61615365,17.0538294 Z M9.79615365,10.4038294 L7.84615365,9.40382942 C6.82990618,8.90000311 6.20916865,7.84150866 6.2655956,6.70862921 C6.32202254,5.57574975 7.04487069,4.58417719 8.10615365,4.18382942 C8.18677675,4.15516468 8.24713896,4.08725718 8.26615365,4.00382942 L8.26615365,3.52382942 C8.26615365,2.97154467 8.7138689,2.52382942 9.26615365,2.52382942 C9.8184384,2.52382942 10.2661537,2.97154467 10.2661537,3.52382942 L10.2661537,3.77382942 C10.2661537,3.9119006 10.3780825,4.02382942 10.5161537,4.02382942 L11.2661537,4.02382942 C11.8184384,4.02382942 12.2661537,4.47154467 12.2661537,5.02382942 C12.2661537,5.57611417 11.8184384,6.02382942 11.2661537,6.02382942 L9.12615365,6.02382942 C8.72391811,6.01411099 8.36996945,6.2877469 8.27808437,6.67946749 C8.1861993,7.07118807 8.38155184,7.47367242 8.74615365,7.64382942 L10.6961537,8.64382942 C11.7045376,9.15379819 12.3181123,10.2096881 12.2618983,11.3382918 C12.2056843,12.4668955 11.4902223,13.4565882 10.4361537,13.8638294 C10.3353366,13.9010133 10.2677809,13.9963861 10.2661537,14.1038294 L10.2661537,14.5538294 C10.2661537,15.1061142 9.8184384,15.5538294 9.26615365,15.5538294 C8.7138689,15.5538294 8.26615365,15.1061142 8.26615365,14.5538294 L8.26615365,14.3038294 C8.26615365,14.1657582 8.15422484,14.0538294 8.01615365,14.0538294 L7.26615365,14.0538294 C6.7138689,14.0538294 6.26615365,13.6061142 6.26615365,13.0538294 C6.26615365,12.5015447 6.7138689,12.0538294 7.26615365,12.0538294 L9.41615365,12.0538294 C9.88559569,12.0538294 10.2661537,11.6732715 10.2661537,11.2038294 C10.2791131,10.8682718 10.0955735,10.5558642 9.79615365,10.4038294 Z" id="Shape"></path>
            </g>
        </g>
    </g>
</svg>