<svg width="22" height="22" viewBox="0 0 22 22" xmlns="http://www.w3.org/2000/svg">
  <g stroke="currentColor" stroke-width="1.375" fill="none" fill-rule="evenodd" stroke-linecap="round"
    stroke-linejoin="round">
    <path
      d="M5.313 12.613V8.045c0-.63.53-1.142 1.185-1.142h1.184M5.313 10.329H7.09M9.576 12.613V8.045a1.134 1.134 0 0 1 .583-1.014c.371-.21.832-.21 1.203 0 .371.21.594.599.583 1.014v4.568M9.575 10.329h2.37M16.684 11.47c.011.415-.212.804-.583 1.014-.371.21-.832.21-1.203 0a1.134 1.134 0 0 1-.583-1.014V8.045a1.134 1.134 0 0 1 .583-1.014c.371-.21.832-.21 1.203 0 .37.21.594.599.583 1.014v3.425zM15.498 12.613l1.187 1.141" />
    <path
      d="M19.1 4.125H2.897c-.462.002-.834.362-.834.807v10.403c0 .445.372.806.834.807h1.94a5.855 5.855 0 0 1-1.1 2.42c2.422.033 3.955-.87 4.875-2.42H19.1c.463 0 .837-.361.837-.807V4.932c0-.446-.374-.807-.837-.807z" />
  </g>
</svg>