<svg width="22" height="22" viewBox="0 0 22 22" xmlns="http://www.w3.org/2000/svg">
  <g stroke="currentColor" stroke-width="1.375" fill="none" fill-rule="evenodd" stroke-linecap="round"
    stroke-linejoin="round">
    <path
      d="M8.446 20.625H3.978A1.92 1.92 0 0 1 2.062 18.7M17.383 8.433V2.017a.64.64 0 0 0-.639-.642H4.616a2.56 2.56 0 0 0-2.553 2.567V18.7a1.92 1.92 0 0 1 1.915-1.925h4.468" />
    <path
      d="m15.425 10.726 1.309 2.84h2.553a.631.631 0 0 1 .44 1.098l-2.212 2.193 1.23 2.837a.675.675 0 0 1-.177.763.666.666 0 0 1-.776.077l-2.971-1.677-2.97 1.677a.666.666 0 0 1-.776-.077.675.675 0 0 1-.177-.763l1.228-2.834-2.213-2.193a.63.63 0 0 1 .438-1.1h2.553l1.314-2.843a.68.68 0 0 1 1.207.002z" />
  </g>
</svg>