<?xml version="1.0" encoding="UTF-8"?>
<svg width="24px" height="24px" viewBox="0 0 24 24" version="1.1" xmlns="http://www.w3.org/2000/svg" xmlns:xlink="http://www.w3.org/1999/xlink">
    <title>Icons/GitOps</title>
    <defs>
        <rect id="path-1" x="0" y="0" width="24" height="24"></rect>
        <filter x="-58.3%" y="-41.7%" width="216.7%" height="216.7%" filterUnits="objectBoundingBox" id="filter-2">
            <feOffset dx="0" dy="4" in="SourceAlpha" result="shadowOffsetOuter1"></feOffset>
            <feGaussianBlur stdDeviation="4" in="shadowOffsetOuter1" result="shadowBlurOuter1"></feGaussianBlur>
            <feColorMatrix values="0 0 0 0 0   0 0 0 0 0   0 0 0 0 0  0 0 0 0.25 0" type="matrix" in="shadowBlurOuter1"></feColorMatrix>
        </filter>
    </defs>
    <g id="Icons/GitOps" stroke="none" fill="none">
        <g id="Rectangle" fill="black" fill-opacity="1">
            <use filter="url(#filter-2)" xlink:href="#path-1"></use>
        </g>
        <g id="Group" stroke-width="1" fill-rule="evenodd" fill="#4F79FD">
            <g fill-rule="nonzero" id="Path">
                <path d="M23.5480018,10.9080018 L13.0880018,0.448001815 C12.4840909,-0.149333938 11.5119127,-0.149333938 10.9080018,0.448001815 L8.45800181,2.89800181 L10.9980018,5.47800181 C11.3065994,5.31821493 11.6506044,5.23909376 11.9980018,5.24800181 C13.2406425,5.24800181 14.2480018,6.25536113 14.2480018,7.49800181 C14.2550995,7.84407397 14.1796862,8.18686171 14.0280018,8.49800181 L16.2180018,10.6980018 C17.0993266,10.3240811 18.1220341,10.6271649 18.657318,11.4209036 C19.1926019,12.2146424 19.0903201,13.2763998 18.4133599,13.9533599 C17.7363998,14.6303201 16.6746424,14.7326019 15.8809036,14.197318 C15.0871649,13.6620341 14.7840811,12.6393266 15.1580018,11.7580018 L12.9980018,9.51800181 C12.93167,9.55592612 12.8612103,9.58612316 12.7880018,9.60800181 L12.7880018,15.1480018 C13.6754162,15.5069786 14.1840305,16.444441 14.0011752,17.384086 C13.8183198,18.3237309 12.9952733,19.0020514 12.0380018,19.0020514 C11.0807303,19.0020514 10.2576838,18.3237309 10.0748285,17.384086 C9.89197308,16.444441 10.4005874,15.5069786 11.2880018,15.1480018 L11.2880018,9.60800181 C10.3752499,9.30776224 9.75565405,8.45883551 9.74800181,7.49800181 C9.74090412,7.15192966 9.81631743,6.80914192 9.96800181,6.49800181 L7.39800181,3.99800181 L0.448001815,10.9980018 C-0.149333938,11.6019127 -0.149333938,12.5740909 0.448001815,13.1780018 L10.9080018,23.5480018 C11.5119127,24.1453376 12.4840909,24.1453376 13.0880018,23.5480018 L23.5480018,13.0880018 C24.1453376,12.4840909 24.1453376,11.5119127 23.5480018,10.9080018 Z"></path>
            </g>
        </g>
    </g>
</svg>