<?xml version="1.0" encoding="UTF-8"?>
<svg width="24px" height="24px" viewBox="0 0 24 24" version="1.1" xmlns="http://www.w3.org/2000/svg" xmlns:xlink="http://www.w3.org/1999/xlink">
    <title>Icons/Governance</title>
    <g id="Gráfico" stroke="none" fill="none">
        <polygon id="Trazado" points="0 0 24 0 24 24 0 24"></polygon>
        <path d="M3.84,10.56 L3.84,18.24 L6.72,18.24 L6.72,10.56 L3.84,10.56 Z M10.56,10.56 L10.56,18.24 L13.44,18.24 L13.44,10.56 L10.56,10.56 Z M1.92,24 L22.08,24 L22.08,21.12 L1.92,21.12 L1.92,24 Z M17.28,10.56 L17.28,18.24 L20.16,18.24 L20.16,10.56 L17.28,10.56 Z M12,0 L1.92,5.48571429 L1.92,7.68 L22.08,7.68 L22.08,5.48571429 L12,0 Z" id="Forma" fill="#4F79FD" fill-rule="nonzero"></path>
    </g>
</svg>