<svg xmlns="http://www.w3.org/2000/svg" width="22" height="22" viewBox="0 0 22 22" fill="none">
  <path
    d="M9.4858 5.75029C8.66897 5.81956 7.23064 6.63783 6.87621 7.29733C5.70949 9.46797 6.61099 10.6983 6.69054 10.8431C7.67329 12.6315 10.4876 12.8135 12.2248 13.4655C12.8375 13.6955 12.645 14.3561 12.4183 14.456C10.2197 15.4254 7.64502 13.5173 7.64502 13.5173C7.64502 13.5173 6.57348 15.1137 6 16.0143C7.2234 16.8923 9.47486 17.3707 9.47486 17.3707V19H12.7631L12.7531 17.3421C12.7531 17.3421 14.7892 16.9144 15.5077 15.6121C16.5531 13.7169 15.6269 12.1208 15.5077 11.8879C14.6869 10.285 9.82915 9.73357 9.72687 9.12063C9.70016 8.96019 9.77247 8.56394 9.92561 8.49993C10.1113 8.42234 11.9126 7.8863 14.2399 9.40507C14.7783 8.56976 15.8125 6.94555 15.8125 6.94555C15.8125 6.94555 14.6118 5.94661 12.7631 5.68101C12.7631 4.98827 12.7631 4 12.7631 4H9.475C9.475 4 9.47472 4.95363 9.4858 5.75029Z"
    stroke="currentColor" />
</svg>