<svg width="26" height="23" viewBox="0 0 26 23" xmlns="http://www.w3.org/2000/svg">
    <g stroke="#A2A9BE" stroke-width="1.2" fill="none" fill-rule="evenodd" stroke-linecap="round" stroke-linejoin="round">
        <path d="M23.442 13.042a8.536 8.536 0 0 0 1.047-6.41C23.396 1.67 17.346-.357 13.578 2.967c-.299.261-.564.563-.858.864-.293-.3-.56-.603-.857-.864C8.094-.356 2.044 1.67.95 6.631A8.542 8.542 0 0 0 2 13.042c2.057 3.314 5.374 5.893 8.61 8.232a3.613 3.613 0 0 0 4.223 0c3.235-2.338 6.553-4.918 8.61-8.232h0z"/>
        <path d="M21.285 8.21c-.4-1.87-1.824-3.112-3.426-3.436"/>
    </g>
</svg>
