<svg width="40" height="47" viewBox="0 0 40 47" xmlns="http://www.w3.org/2000/svg" xmlns:xlink="http://www.w3.org/1999/xlink">
  <defs>
      <path id="4lcz2ksyta" d="M0 0h32.97v16.514H0z"/>
      <path id="5m98i330jc" d="M0 0h32.97v16.514H0z"/>
      <path id="1etrxzydse" d="M0 0h32.97v16.514H0z"/>
      <path id="yjthaq0uwg" d="M0 0h32.97v16.514H0z"/>
  </defs>
  <g fill="none" fill-rule="evenodd">
      <rect fill="#FFF" y="3" width="40" height="40" rx="8"/>
      <path d="M4 19.523h2.082v2.767h2.516v-2.767h2.082v7.773H8.598v-2.964H6.082v2.964H4v-7.773zm9.069 7.773v-7.773h4.925v1.69H15.15v1.264h2.515v1.72h-2.515v1.43h2.843v1.67h-4.925zm7.208 0v-7.773h2.082v5.721h2.854v2.052h-4.936zm8.16-7.773 3.234 2.881 3.223-2.88h.941v7.772h-2.093v-3.99l-2.071 1.855-2.083-1.845v3.98h-2.092v-7.773h.94z" fill="#0F1689" fill-rule="nonzero"/>
      <g transform="matrix(1 0 0 -1 4.03 47)">
          <mask id="ay630vs1nb" fill="#fff">
              <use xlink:href="#4lcz2ksyta"/>
          </mask>
          <g mask="url(#ay630vs1nb)" fill="#0F1689" fill-rule="nonzero">
              <path d="M23.536 14.81c.598.411 1.977-.509 3.08-2.054 1.102-1.546 1.511-3.132.913-3.543-.598-.411-1.976.509-3.079 2.054-1.103 1.546-1.512 3.132-.914 3.543zM9.29 14.81c-.598.411-1.977-.509-3.08-2.054C5.109 11.21 4.7 9.624 5.298 9.213c.598-.411 1.976.509 3.08 2.054 1.102 1.546 1.51 3.132.913 3.543zM16.406 12.39c-.73 0-1.322-1.53-1.322-3.417 0-1.887.592-3.417 1.322-3.417.73 0 1.322 1.53 1.322 3.417 0 1.887-.592 3.417-1.322 3.417z"/>
          </g>
      </g>
      <g transform="matrix(1 0 0 -1 4.03 47)">
          <mask id="2px283knwd" fill="#fff">
              <use xlink:href="#5m98i330jc"/>
          </mask>
          <path d="M26.463 17.88a12.167 12.167 0 0 0-10.392-5.791 12.169 12.169 0 0 0-10.214 5.51m.23 13.342a12.17 12.17 0 0 0 9.984 5.168 12.17 12.17 0 0 0 9.994-5.185" stroke="#0F1689" stroke-width="2.061" mask="url(#2px283knwd)"/>
      </g>
      <g>
          <g transform="translate(4.03)">
              <mask id="4xbu92y4zf" fill="#fff">
                  <use xlink:href="#1etrxzydse"/>
              </mask>
              <g mask="url(#4xbu92y4zf)" fill="#0F1689" fill-rule="nonzero">
                  <path d="M23.536 14.556c.598.411 1.977-.509 3.08-2.055 1.102-1.545 1.511-3.132.913-3.542-.598-.411-1.976.508-3.079 2.054-1.103 1.546-1.512 3.132-.914 3.543zM9.29 14.556c-.598.411-1.977-.509-3.08-2.055C5.109 10.956 4.7 9.37 5.298 8.958c.598-.41 1.976.51 3.08 2.055 1.102 1.546 1.51 3.132.913 3.543zM16.406 12.136c-.73 0-1.322-1.53-1.322-3.417 0-1.887.592-3.417 1.322-3.417.73 0 1.322 1.53 1.322 3.417 0 1.887-.592 3.417-1.322 3.417z"/>
              </g>
          </g>
          <g transform="translate(4.03)">
              <mask id="pwfbu87w0h" fill="#fff">
                  <use xlink:href="#yjthaq0uwg"/>
              </mask>
              <path d="M26.463 17.627a12.167 12.167 0 0 0-10.392-5.792 12.169 12.169 0 0 0-10.214 5.51m.23 13.342a12.17 12.17 0 0 0 9.984 5.168 12.17 12.17 0 0 0 9.994-5.185" stroke="#0F1689" stroke-width="2.061" mask="url(#pwfbu87w0h)"/>
          </g>
      </g>
  </g>
</svg>