<svg width="40" height="40" viewBox="0 0 40 40" xmlns="http://www.w3.org/2000/svg">
  <g fill="none" fill-rule="evenodd">
      <rect fill="#FFF" width="40" height="40" rx="8"/>
      <path d="M19.882 3.003c.378-.02.755.056 1.096.22L32.8 8.868c.62.296 1.07.856 1.223 1.521l2.92 12.69a2.229 2.229 0 0 1-.437 1.898l-8.178 10.177c-.43.532-1.08.842-1.767.842L13.44 36c-.688 0-1.339-.31-1.768-.844l-8.18-10.175a2.228 2.228 0 0 1-.435-1.898l2.915-12.69a2.246 2.246 0 0 1 1.222-1.521l11.821-5.65c.271-.13.565-.204.866-.22zm.117 4.313c-.397.006-.713.357-.713.792l.001.02c0 .059-.003.13-.001.181.009.252.063.443.097.674.045.377.057.677.06.98l.009-.044a10.873 10.873 0 0 0-.032-.636c.037.326.064.628.05.901-.004-.086-.016-.18-.018-.26l-.01.043c.001.092.026.21.019.298-.016.077-.077.132-.124.197l-.002.004c-.038.053-.06.12-.102.161l-.019.3a9.105 9.105 0 0 0-5.896 2.835 10.928 10.928 0 0 1-.251-.179c-.131.016-.257.054-.421-.041-.316-.213-.604-.507-.952-.861-.16-.17-.276-.331-.466-.495-.044-.037-.11-.087-.158-.125a.848.848 0 0 0-.496-.188.687.687 0 0 0-.569.252c-.245.308-.167.78.175 1.052l.01.007c.047.038.104.087.147.119.203.149.387.225.587.343.424.262.773.478 1.051.739.107.113.126.316.14.405l.226.202a9.168 9.168 0 0 0-1.443 6.379l-.293.086c-.08.103-.19.26-.303.306-.362.115-.772.156-1.267.208-.231.02-.431.009-.678.055-.055.01-.13.03-.19.044l-.017.004c-.42.102-.69.488-.603.87.087.381.498.613.92.521l.01-.001.015-.005c.058-.013.131-.027.183-.04.243-.066.418-.161.636-.244.467-.168.854-.309 1.231-.363.155-.012.32.096.403.143l.308-.052a9.216 9.216 0 0 0 4.077 5.092l-.128.306c.047.122.098.283.064.399-.137.355-.372.73-.64 1.15-.13.193-.263.344-.38.566-.028.053-.063.134-.09.19-.184.392-.05.844.303 1.014.355.171.794-.01.985-.402.028-.06.066-.132.09-.184.1-.23.133-.427.204-.648.186-.471.29-.964.546-1.27.069-.082.183-.115.302-.147l.162-.289a9.144 9.144 0 0 0 6.522.017c.046.08.127.23.15.268.125.042.255.062.362.22.191.328.323.718.484 1.189.07.22.105.418.205.648.024.053.062.126.088.182.19.394.631.575.986.404.353-.17.487-.622.304-1.014-.027-.056-.065-.137-.092-.19-.118-.223-.25-.372-.38-.565-.269-.42-.49-.767-.627-1.122-.057-.182.01-.294.055-.413-.011-.02-.02-.036-.025-.051a1.656 1.656 0 0 1-.032-.077c-.022-.056-.043-.118-.06-.159a9.213 9.213 0 0 0 4.075-5.127c.092.015.247.042.297.052.112-.071.207-.162.397-.147.377.055.764.195 1.232.363.217.083.393.18.636.245.051.014.125.027.183.04l.014.004.01.001c.423.09.834-.14.92-.521.088-.382-.183-.768-.603-.87-.06-.013-.146-.037-.206-.048-.247-.047-.447-.035-.679-.054-.494-.052-.904-.094-1.267-.208-.145-.057-.25-.232-.302-.306l-.285-.083c.151-1.1.1-2.22-.149-3.302a9.167 9.167 0 0 0-1.323-3.062l.05-.045.115-.103.082-.074c.014-.132.004-.262.134-.401.277-.26.628-.478 1.05-.739.201-.118.387-.194.589-.343.046-.034.108-.088.156-.126.342-.273.42-.744.175-1.052-.246-.308-.722-.337-1.064-.064-.048.038-.114.088-.157.125-.19.165-.308.326-.468.495-.349.355-.637.65-.952.863-.135.078-.335.051-.426.046l-.269.19a9.276 9.276 0 0 0-5.868-2.835 16.888 16.888 0 0 1-.017-.312c-.094-.092-.203-.166-.23-.354-.031-.38.02-.789.079-1.282.033-.23.088-.423.097-.674.003-.057-.001-.14-.001-.201 0-.437-.32-.792-.714-.792zm-.022 16.15c.015-.001.03.003.045.003a.616.616 0 0 1 .2.043c.015.005.03.008.044.014a.618.618 0 0 1 .277.264l.016.003 1.794 3.245c-.073.025-.148.046-.222.068a7.45 7.45 0 0 1-.264.074c-.075.02-.15.04-.226.057-.033.008-.066.012-.1.02a7.314 7.314 0 0 1-1.11.148c-.075.004-.148.01-.223.012-.383.01-.767-.01-1.147-.06a7.314 7.314 0 0 1-1.3-.294l-.102-.03 1.79-3.238c.012-.016.023-.026.03-.038a.625.625 0 0 1 .456-.285c.014-.001.027-.006.042-.007zm3.102-1.514a.603.603 0 0 1 .142.01l.01-.007 3.673.621c-.017.048-.04.094-.057.141a7.299 7.299 0 0 1-2.756 3.464c-.043.029-.083.06-.126.088l-1.425-3.446-.008-.045a.625.625 0 0 1-.036-.236c.001-.021.002-.043.005-.064a.625.625 0 0 1 .088-.237c.012-.019.027-.036.04-.054a.625.625 0 0 1 .181-.154c.011-.006.021-.014.033-.02a.611.611 0 0 1 .236-.061zm-6.191.015.027.003c.118.008.23.049.326.118l.052.042c.088.079.151.18.183.294l.008.024c.03.127.017.26-.034.38l.009.016-1.41 3.411-.12-.083a7.326 7.326 0 0 1-2.751-3.44c-.019-.049-.041-.095-.059-.144l3.641-.618.006.008a.59.59 0 0 1 .122-.011zm3.677-3.043.704.88-.252 1.099-1.018.489-1.019-.491-.253-1.098.706-.88h1.132zm-6.818-2.674 2.77 2.478-.003.015c.253.22.287.595.08.853-.007.01-.017.016-.025.024a.624.624 0 0 1-.262.173l-.032.015-.007.013-3.55 1.025-.01-.147a7.291 7.291 0 0 1 .969-4.323c.024-.042.045-.085.07-.126zm12.485.002c.026.042.047.086.072.128a7.38 7.38 0 0 1 .798 1.951c.012.047.027.092.038.14.183.797.228 1.593.153 2.363l-3.568-1.028-.003-.015-.037-.014a.624.624 0 0 1-.21-.121.624.624 0 0 1-.176-.261c-.007-.021-.011-.043-.016-.064a.625.625 0 0 1-.008-.237c.002-.013.002-.026.005-.039.003-.012.01-.022.013-.034.03-.1.085-.191.16-.265.008-.008.014-.02.023-.028l.001-.01 2.755-2.466zm-7.125-3.434-.21 3.701-.014.008-.006.041a.624.624 0 0 1-.07.228.624.624 0 0 1-.215.23c-.019.013-.04.022-.06.032a.624.624 0 0 1-.231.06c-.012.001-.024.004-.036.004-.013 0-.025-.006-.038-.007a.62.62 0 0 1-.25-.08l-.037-.019c-.012-.007-.027-.004-.038-.012l-3.043-2.15c.025-.025.051-.047.076-.07.268-.256.555-.49.858-.7a7.288 7.288 0 0 1 1.204-.682c.064-.03.13-.055.194-.082.348-.144.707-.26 1.074-.349.032-.008.063-.018.095-.025.153-.034.31-.055.464-.08.095-.014.188-.037.283-.048zm1.786 0c.053.007.104.019.156.026A7.347 7.347 0 0 1 25 14.75c.038.036.08.068.117.105l-3.014 2.137-.01-.004c-.015.01-.028.014-.04.022a.624.624 0 0 1-.235.089c-.02.003-.04.008-.061.009a.624.624 0 0 1-.333-.08.624.624 0 0 1-.199-.174c-.013-.018-.023-.038-.034-.058a.625.625 0 0 1-.077-.236c-.001-.014-.006-.027-.008-.042l-.212-3.7z" fill="#326DE6" fill-rule="nonzero"/>
  </g>
</svg>