<?xml version="1.0" encoding="UTF-8"?>
<svg width="24px" height="24px" viewBox="0 0 24 24" version="1.1" xmlns="http://www.w3.org/2000/svg" xmlns:xlink="http://www.w3.org/1999/xlink">
    <title>Icons/lock</title>
    <g id="Design" stroke="none" stroke-width="1" fill="none" fill-rule="evenodd" stroke-linecap="round" stroke-linejoin="round">
        <g id="For-e-government-v2" transform="translate(-963, -1612)" stroke="#4F79FD">
            <g id="The-API-Gataway-Copia-2" transform="translate(147, 1155)">
                <g id="Group-24" transform="translate(0, 457)">
                    <g id="Stable,-flat-pricing" transform="translate(816, 0)">
                        <g id="Group" transform="translate(5, 3)">
                            <path d="M1.27272727,7.6 L12.7272727,7.6 C12.7272727,7.6 14,7.6 14,8.86666667 L14,17.7333333 C14,17.7333333 14,19 12.7272727,19 L1.27272727,19 C1.27272727,19 0,19 0,17.7333333 L0,8.86666667 C0,8.86666667 0,7.6 1.27272727,7.6" id="Path" stroke-width="2"></path>
                            <path d="M2.54545455,7.6 L2.54545455,4.43333333 C2.54545455,1.98487094 4.53982248,0 7,0 C9.46017752,0 11.4545455,1.98487094 11.4545455,4.43333333 L11.4545455,7.6" id="Path" stroke-width="2"></path>
                            <path d="M5.09090909,13.3 C5.09090909,14.349341 5.9456382,15.2 7,15.2 C8.0543618,15.2 8.90909091,14.349341 8.90909091,13.3 C8.90909091,12.250659 8.0543618,11.4 7,11.4 C5.9456382,11.4 5.09090909,12.250659 5.09090909,13.3" id="Path" stroke-width="2"></path>
                        </g>
                    </g>
                </g>
            </g>
        </g>
    </g>
</svg>