<svg width="41" height="40" viewBox="0 0 41 40" xmlns="http://www.w3.org/2000/svg">
  <g transform="translate(.024)" fill="none" fill-rule="evenodd">
      <rect fill="#FFF" width="40" height="40" rx="8"/>
      <g fill="#000" fill-rule="nonzero">
          <path d="M25.609 3h.244c.196 2.398-.728 4.19-1.852 5.487-1.102 1.288-2.612 2.538-5.054 2.348-.163-2.363.763-4.022 1.885-5.316C21.873 4.312 23.781 3.239 25.61 3zM33 27.957v.067c-.686 2.057-1.665 3.82-2.86 5.457-1.09 1.486-2.426 3.485-4.812 3.485-2.061 0-3.43-1.313-5.544-1.349-2.235-.035-3.464 1.098-5.507 1.383h-.697c-1.5-.215-2.712-1.391-3.594-2.451C7.384 31.416 5.374 27.37 5 22.192v-1.52c.158-3.707 1.977-6.72 4.395-8.18 1.276-.776 3.03-1.437 4.983-1.142.837.129 1.692.412 2.441.693.71.27 1.599.75 2.44.724.57-.016 1.138-.31 1.712-.518 1.683-.602 3.333-1.291 5.508-.967 2.613.39 4.468 1.54 5.615 3.314-2.211 1.393-3.96 3.492-3.66 7.077.082 1.017-.117.975.694 2.672.812 1.698 2.23 2.84 3.872 3.612z"/>
      </g>
  </g>
</svg>