<?xml version="1.0" encoding="UTF-8"?>
<svg width="24px" height="25px" viewBox="0 0 24 25" version="1.1" xmlns="http://www.w3.org/2000/svg" xmlns:xlink="http://www.w3.org/1999/xlink">
    <title>Icons/Medal</title>
    <g id="Icons/Medal" stroke="none" fill="none" transform="translate(0, 1)">
        <g id="Gráfico" transform="translate(-1, -0.3333)" fill-rule="nonzero" stroke="#4F79FD" stroke-width="1.33333333">
            <path d="M18.3157895,0.333333333 L13.8421053,0.333333333 L13.8421053,4.88834909 C15.4429262,5.06490178 16.9776183,5.62657283 18.3157895,6.52564103 L18.3157895,0.333333333 Z M11.1578947,0.333333333 L6.68421053,0.333333333 L6.68421053,6.52564103 C8.02238175,5.62657283 9.55707378,5.06490178 11.1578947,4.88834909 L11.1578947,0.333333333 Z M12.5,23.3333333 C17.1944204,23.3333333 21,19.7688311 21,15.3717949 C21,10.9747586 17.1944204,7.41025641 12.5,7.41025641 C7.80557963,7.41025641 4,10.9747586 4,15.3717949 C4,19.7688311 7.80557963,23.3333333 12.5,23.3333333 Z M10.9780442,13.8606601 L12.499379,10.9487179 L14.0207139,13.8606601 L17.4210526,14.3266177 L14.9608368,16.5942002 L15.5420488,19.7948718 L12.499379,18.2843238 L9.45795119,19.7948718 L10.0391632,16.5942002 L7.57894737,14.3266177 L10.9780442,13.8606601 L10.9780442,13.8606601 Z" id="Forma"></path>
        </g>
        <rect id="Rectangle" x="0" y="0" width="24" height="24"></rect>
    </g>
</svg>