<svg width="22" height="22" viewBox="0 0 22 22" xmlns="http://www.w3.org/2000/svg">
  <g stroke="currentColor" stroke-width="1.375" fill="none" fill-rule="evenodd" stroke-linecap="round"
    stroke-linejoin="round">
    <path
      d="M9.213 12.192a2.98 2.98 0 1 1 5.958 0 2.98 2.98 0 0 1-5.958 0h0zM16.363 18.15a1.787 1.787 0 1 1 3.574 0 1.787 1.787 0 0 1-3.575 0h0zM16.363 8.02a1.787 1.787 0 1 1 3.574 0 1.787 1.787 0 0 1-3.575 0h0zM10.404 3.85a1.788 1.788 0 1 1 3.575 0 1.788 1.788 0 0 1-3.575 0zM2.063 3.85a1.787 1.787 0 1 1 3.574 0 1.787 1.787 0 0 1-3.574 0zM2.658 16.363a1.787 1.787 0 1 1 3.575 0 1.787 1.787 0 0 1-3.575 0zM14.297 14.296l2.59 2.59M14.809 10.767l1.815-1.816M12.191 9.213V5.638M10.088 10.088 5.114 5.114M9.412 13.264l-3.489 2.093" />
  </g>
</svg>