<?xml version="1.0" encoding="UTF-8"?>
<svg width="24px" height="24px" viewBox="0 0 24 24" version="1.1" xmlns="http://www.w3.org/2000/svg" xmlns:xlink="http://www.w3.org/1999/xlink">
    <title>Icons/performance</title>
    <g id="Icons/performance" stroke="none" fill="none">
        <rect id="Rectangle" x="0" y="0" width="24" height="24"></rect>
        <g id="Group" stroke-width="1" fill-rule="evenodd" fill="#4f79FD">
            <g fill-rule="nonzero" id="Path">
                <path d="M1.25,20.5013759 L4.75,20.5013759 C4.88807119,20.5013759 5,20.3894471 5,20.2513759 L5,18.0013759 C5,17.7252335 4.77614237,17.5013759 4.5,17.5013759 L1.5,17.5013759 C1.22385763,17.5013759 1,17.7252335 1,18.0013759 L1,20.2513759 C1,20.3894471 1.11192881,20.5013759 1.25,20.5013759 Z"></path>
                <path d="M7.5,12.5013759 C7.22385763,12.5013759 7,12.7252335 7,13.0013759 L7,20.2513759 C7,20.3894471 7.11192881,20.5013759 7.25,20.5013759 L10.75,20.5013759 C10.8880712,20.5013759 11,20.3894471 11,20.2513759 L11,13.0013759 C11,12.7252335 10.7761424,12.5013759 10.5,12.5013759 L7.5,12.5013759 Z"></path>
                <path d="M13.5,14.5013759 C13.2238576,14.5013759 13,14.7252335 13,15.0013759 L13,20.2513759 C13,20.3894471 13.1119288,20.5013759 13.25,20.5013759 L16.75,20.5013759 C16.8880712,20.5013759 17,20.3894471 17,20.2513759 L17,15.0013759 C17,14.7252335 16.7761424,14.5013759 16.5,14.5013759 L13.5,14.5013759 Z"></path>
                <path d="M19.5,7.50137586 C19.2238576,7.50137586 19,7.72523349 19,8.00137586 L19,20.2513759 C19,20.3894471 19.1119288,20.5013759 19.25,20.5013759 L22.75,20.5013759 C22.8880712,20.5013759 23,20.3894471 23,20.2513759 L23,8.00137586 C23,7.72523349 22.7761424,7.50137586 22.5,7.50137586 L19.5,7.50137586 Z"></path>
                <path d="M1,23.5013759 L23,23.5013759 C23.5522847,23.5013759 24,23.0536606 24,22.5013759 C24,21.9490911 23.5522847,21.5013759 23,21.5013759 L1,21.5013759 C0.44771525,21.5013759 0,21.9490911 0,22.5013759 C0,23.0536606 0.44771525,23.5013759 1,23.5013759 Z"></path>
                <path d="M20.11,3.92137586 C20.1784198,3.92228552 20.2434765,3.95119959 20.29,4.00137586 L21.15,4.85137586 C21.2402803,4.94851421 21.3673961,5.00299241 21.5,5.00137586 C21.562541,5.01554315 21.627459,5.01554315 21.69,5.00137586 C21.8908248,4.91956614 22.0160241,4.7176319 22,4.50137586 L22,0.501375863 C22,0.225233488 21.7761424,0.00137586307 21.5,0.00137586307 L17.5,0.00137586307 C17.283744,-0.0146482002 17.0818097,0.110551034 17,0.311375863 C16.9162226,0.49624527 16.960582,0.714009222 17.11,0.851375863 L18.11,1.85137586 C18.2052857,1.94858674 18.2052857,2.10416499 18.11,2.20137586 L15,5.75137586 C14.7964158,5.96334711 14.4899224,6.04094037 14.21,5.95137586 L10.45,4.67137586 C9.38298535,4.31105846 8.20540916,4.53067074 7.34,5.25137586 L2.2,9.54137586 C1.93951015,9.74784807 1.77198289,10.049568 1.7344524,10.3798364 C1.6969219,10.7101047 1.79247918,11.0417206 2,11.3013759 C2.24529215,11.5986246 2.61484876,11.7649251 3,11.7513759 C3.29282903,11.753855 3.57678036,11.6509226 3.8,11.4613759 L9,7.17137586 C9.19888226,7.00951915 9.46667142,6.96048733 9.71,7.04137586 L13.43,8.28137586 C14.6407761,8.68532654 15.975896,8.34077948 16.84,7.40137586 L19.98,4.00137586 C20.0173019,3.96596332 20.0615772,3.93871693 20.11,3.92137586 Z"></path>
            </g>
        </g>
    </g>
</svg>