<svg xmlns="http://www.w3.org/2000/svg" width="24" height="24">
    <g fill="none" fill-rule="evenodd">
        <path d="M0 0h24v24H0z"></path>
        <path d="M12.266 24.004a1 1 0 0 0 1-1v-.76a.25.25 0 0 1 .25-.25h.75a1 1 0 1 0 0-2h-4a1 1 0 0 0 0 2h.72a.24.24 0 0 1 .25.25v.76a1 1 0 0 0 1.03 1zm-3.65-6.95a.26.26 0 0 1 .17.24v1.23a.5.5 0 0 0 .48.48h6a.5.5 0 0 0 .5-.5v-1.21a.25.25 0 0 1 .17-.23 8.32 8.32 0 0 0 5.57-8.27 9 9 0 0 0-9.24-8.79 9 9 0 0 0-9.26 8.79 8.42 8.42 0 0 0 5.61 8.26zm4.18-6.65-1.95-1a2.85 2.85 0 0 1 .26-5.22.25.25 0 0 0 .16-.18v-.48a1 1 0 1 1 2 0v.25c0 .138.112.25.25.25h.75a1 1 0 0 1 0 2h-2.14a.85.85 0 0 0-.38 1.62l1.95 1a2.86 2.86 0 0 1-.26 5.22.26.26 0 0 0-.17.24v.45a1 1 0 0 1-2 0v-.25a.25.25 0 0 0-.25-.25h-.75a1 1 0 1 1 0-2h2.15c.47 0 .85-.38.85-.85a.86.86 0 0 0-.47-.8z" fill="#4F79FD" fill-rule="nonzero"></path>
    </g>
</svg>