<svg width="41" height="40" viewBox="0 0 41 40" xmlns="http://www.w3.org/2000/svg">
  <g transform="translate(.024)" fill="none" fill-rule="evenodd">
      <rect fill="#FFF" width="40" height="40" rx="8"/>
      <g fill-rule="nonzero">
          <path d="M25.68 21.986c2.232 0 5.465-.47 5.465-3.154a2.554 2.554 0 0 0-.054-.618l-1.33-5.84c-.308-1.286-.577-1.87-2.81-2.998C25.22 8.481 21.442 7 20.326 7c-1.036 0-1.34 1.354-2.58 1.354-1.192 0-2.078-1.01-3.197-1.01-1.071 0-1.768.74-2.307 2.256 0 0-1.5 4.283-1.697 4.904-.03.114-.042.232-.036.35 0 1.665 6.484 7.123 15.17 7.123m5.81-2.055c.31 1.48.31 1.634.31 1.83 0 2.527-2.812 3.93-6.507 3.93-8.353.006-15.669-4.942-15.669-8.21-.001-.455.09-.906.268-1.325C6.894 16.299 3 16.84 3 20.31 3 25.994 16.325 33 26.872 33 34.96 33 37 29.302 37 26.383c0-2.297-1.965-4.904-5.507-6.46" fill="#E00"/>
          <path d="M31.49 19.922c.309 1.48.309 1.634.309 1.83 0 2.527-2.812 3.93-6.507 3.93-8.353.006-15.669-4.942-15.669-8.21-.001-.455.09-.906.268-1.325l.656-1.636c-.03.112-.044.227-.04.343 0 1.665 6.484 7.123 15.172 7.123 2.233 0 5.466-.466 5.466-3.152a2.554 2.554 0 0 0-.054-.62l.399 1.717z" fill="#000"/>
      </g>
  </g>
</svg>