<svg width="22" height="22" viewBox="0 0 22 22" xmlns="http://www.w3.org/2000/svg">
  <path
    d="M18.726 2.299a.802.802 0 0 0-1.37.566v.802h-.237c-2.46 0-4.748 1.056-6.257 2.66a.802.802 0 1 0 1.168 1.098c1.209-1.284 3.077-2.154 5.09-2.154h.237v.803a.802.802 0 0 0 1.37.566l1.598-1.604a.802.802 0 0 0 0-1.133L18.727 2.3zM1.375 4.469c0-.443.36-.802.802-.802 4.524 0 8.313 3.336 8.313 7.62 0 3.256 2.923 6.016 6.71 6.016h.156V16.5a.802.802 0 0 1 1.37-.567l1.595 1.601a.8.8 0 0 1 .003 1.136l-1.598 1.604a.802.802 0 0 1-1.37-.566v-.802h-.157c-4.523 0-8.313-3.336-8.313-7.62 0-3.256-2.922-6.016-6.709-6.016a.802.802 0 0 1-.802-.802zm6.984 11.957a.802.802 0 1 0-1.134-1.134c-1.212 1.211-3.011 2.01-5.048 2.01a.802.802 0 1 0 0 1.605c2.454 0 4.665-.964 6.182-2.48zm5.208-7.545c-.332 0-.64.112-.866.338a1.208 1.208 0 0 0-.337.865v2.406c0 .332.112.64.337.866.226.224.534.337.866.337h.802c.332 0 .639-.112.865-.337.225-.226.338-.534.338-.866v-2.406c0-.332-.112-.64-.338-.865a1.208 1.208 0 0 0-.865-.338h-.802zm4.812 0c-.332 0-.64.112-.865.338a1.208 1.208 0 0 0-.338.865v2.406c0 .332.112.64.338.866.226.224.533.337.865.337h.802c.332 0 .64-.112.866-.337.224-.226.337-.534.337-.866v-2.406c0-.332-.112-.64-.337-.865a1.208 1.208 0 0 0-.866-.338h-.802zM3.14 7.116a1.604 1.604 0 1 0 0 3.209 1.604 1.604 0 0 0 0-3.209zm0 5.214a1.604 1.604 0 1 0 0 3.208 1.604 1.604 0 0 0 0-3.208zm3.45-2.567a1.604 1.604 0 1 0 0 3.208 1.604 1.604 0 0 0 0-3.208z"
    fill="currentColor" fill-rule="evenodd" />
</svg>