<?xml version="1.0" encoding="UTF-8"?>
<svg width="25px" height="24px" viewBox="0 0 25 24" version="1.1" xmlns="http://www.w3.org/2000/svg" xmlns:xlink="http://www.w3.org/1999/xlink">
    <title>Icons/Rocket</title>
    <g id="Icons/Rocket" stroke="none" fill="none" fill-rule="nonzero">
        <g id="Gráfico" transform="translate(1, 0)" fill="#4F79FD">
            <path d="M23.8737451,0.325661188 C23.8537748,0.228845985 23.7796371,0.152341846 23.6835638,0.129409293 C20.545839,-0.638439652 13.2959109,2.09782652 9.367996,6.02769029 C8.66741981,6.72323353 8.02874376,7.47856931 7.45921791,8.28512329 C6.24795009,8.17788182 5.03668227,8.26742845 4.00434565,8.71784264 C1.09162422,10.0009869 0.243576032,13.3490656 0.00732255606,14.7893186 C-0.0198446128,14.9491318 0.0294676146,15.112445 0.14052081,15.2304471 C0.251574005,15.3484492 0.411503442,15.4074706 0.572509443,15.3898709 L5.24989969,14.8735032 C5.2532398,15.2264669 5.27451761,15.579032 5.31365063,15.9298317 C5.33718803,16.1734403 5.44522991,16.4011029 5.61901227,16.5732805 L7.43028891,18.381908 C7.60246974,18.5556232 7.82984071,18.6637223 8.07315552,18.6875461 C8.42167874,18.7265677 8.77195561,18.7478646 9.12263524,18.7513548 L8.60941341,23.427083 C8.59205912,23.5881779 8.65109845,23.7481081 8.76893459,23.8592061 C8.88677073,23.9703041 9.04979671,24.0197409 9.20942223,23.9927818 C10.6456934,23.7622126 13.9966355,22.9133964 15.2711186,19.9980369 C15.7211252,18.9647654 15.8132694,17.7582988 15.7093393,16.5518322 C16.5171163,15.9817533 17.2737379,15.3423216 17.9706226,14.6407892 C21.9108591,10.7168237 24.6291134,3.62226406 23.8737451,0.325661188 Z M14.7328643,9.26742497 C14.0175505,8.55271323 13.803367,7.47752222 14.1902121,6.54333674 C14.5770572,5.60915126 15.4887249,5 16.5,5 C17.5112751,5 18.4229428,5.60915126 18.8097879,6.54333674 C19.196633,7.47752222 18.9824495,8.55271323 18.2671357,9.26742497 C17.7986946,9.73644877 17.1629498,10 16.5,10 C15.8370502,10 15.2013054,9.73644877 14.7328643,9.26742497 Z" id="Forma"></path>
            <path d="M8.39368871,18.2303797 C8.13680993,18.4879603 7.72477262,18.5883652 7.22882783,18.6742254 C6.11459268,18.8642439 5.13067195,17.9005452 5.33083115,16.7731022 C5.40723852,16.3456779 5.63317935,15.7465332 5.77380642,15.6057787 C5.8368483,15.5438985 5.85318063,15.4485493 5.81433252,15.3691848 C5.7754844,15.2898202 5.69019895,15.244302 5.60271015,15.2562386 C4.97961966,15.3325458 4.39994331,15.6152969 3.95596717,16.0594772 C2.85391971,17.1634611 2.74985568,21.2598843 2.74985568,21.2598843 C2.74985568,21.2598843 6.84491593,21.155726 7.94696339,20.0517421 C8.39212277,19.6077259 8.67497415,19.0266365 8.74994396,18.4021001 C8.76728796,18.2059823 8.5286907,18.0891561 8.39368871,18.2303797 Z" id="Trazado"></path>
        </g>
    </g>
</svg>