<?xml version="1.0" encoding="UTF-8"?>
<svg width="24px" height="25px" viewBox="0 0 24 25" version="1.1" xmlns="http://www.w3.org/2000/svg" xmlns:xlink="http://www.w3.org/1999/xlink">
    <title>icons/security</title>
    <g id="icons/security" stroke="none" fill="none">
        <rect id="Rectangle" x="0" y="0" width="24" height="24"></rect>
        <g id="Group" stroke-width="1" fill-rule="evenodd" transform="translate(1, 0)" fill="#4F79FD">
            <g fill-rule="nonzero" id="Path">
                <path d="M21.88,10.6329995 C22.0125483,10.6329995 22.12,10.5255479 22.12,10.3929995 L22.12,3.39299954 C22.1133085,2.74386589 21.7197587,2.16141211 21.12,1.91299954 C18.3080605,0.751883622 15.310526,0.104958096 12.27,0.00299953562 C12.1897601,-0.00929002359 12.1083849,0.0166020906 12.05,0.0729995356 C12.030951,0.128065329 12.030951,0.187933742 12.05,0.242999536 L12.05,10.3929995 C12.05,10.5255479 12.1574517,10.6329995 12.29,10.6329995 L21.88,10.6329995 Z"></path>
                <path d="M9.84,10.6329995 C9.97254834,10.6329995 10.08,10.5255479 10.08,10.3929995 L10.08,0.242999536 C10.0896527,0.184569965 10.0790691,0.124595853 10.05,0.0729995356 C9.99161509,0.0166020906 9.91023987,-0.00929002359 9.83,0.00299953562 C9.32,0.00299953562 8.83,0.0529995356 8.36,0.102999536 C8.23748541,0.117740772 8.14405227,0.219667837 8.14,0.342999536 L8.14,10.3929995 C8.14,10.5255479 8.24745166,10.6329995 8.38,10.6329995 L9.84,10.6329995 Z"></path>
                <path d="M16.14,12.5729995 C16.0074517,12.5729995 15.9,12.6804512 15.9,12.8129995 L15.9,21.9229995 C15.9012259,22.0116359 15.9512098,22.0923791 16.03,22.1329995 C16.1036584,22.1780473 16.1963416,22.1780473 16.27,22.1329995 C16.7915046,21.7902567 17.2893007,21.4127334 17.76,21.0029995 C17.8101763,20.956476 17.8390903,20.8914193 17.84,20.8229995 L17.84,12.8229995 C17.84,12.6904512 17.7325483,12.5829995 17.6,12.5829995 L16.14,12.5729995 Z"></path>
                <path d="M19.7799996,17.9429995 C19.7798083,18.0487459 19.8488512,18.142157 19.95,18.1729995 C20.0551674,18.2048182 20.1687828,18.1642413 20.23,18.0729995 C21.2136858,16.4846209 21.8350997,14.6989096 22.05,12.8429995 C22.0560238,12.7742115 22.0344368,12.7058527 21.99,12.6529995 C21.9434765,12.6028233 21.8784198,12.5739092 21.81,12.5729995 L20.05,12.5729995 C19.9174517,12.5729995 19.81,12.6804512 19.81,12.8129995 L19.7799996,17.9429995 Z"></path>
                <path d="M0.3,12.5729995 C0.231580196,12.5739092 0.166523532,12.6028233 0.12,12.6529995 C0.0755632315,12.7058527 0.0539762232,12.7742115 0.06,12.8429995 C0.651011217,17.7571651 3.98129842,21.9093625 8.65,23.5529995 L9.83,23.9929995 C9.89556371,24.0376019 9.98066026,24.0414699 10.05,24.0029995 C10.0991847,23.9642586 10.1285181,23.9055919 10.13,23.8429995 L10.13,12.8429995 C10.13,12.7104512 10.0225483,12.6029995 9.89,12.6029995 L0.3,12.5729995 Z"></path>
                <path d="M12.26,12.5729995 C12.1274517,12.5729995 12.02,12.6804512 12.02,12.8129995 L12.02,23.8129995 C12.0214819,23.8755919 12.0508153,23.9342586 12.1,23.9729995 C12.1541336,23.9969613 12.2158664,23.9969613 12.27,23.9729995 L13.45,23.5329995 C13.5722726,23.4924016 13.6924246,23.4456759 13.81,23.3929995 C13.9013972,23.3531113 13.9603473,23.2627211 13.9600015,23.1629995 L13.9600015,12.8129995 C13.9600015,12.6804512 13.8525483,12.5729995 13.72,12.5729995 L12.26,12.5729995 Z"></path>
                <path d="M5.96,10.6329995 C6.02365196,10.6329995 6.0846969,10.6077139 6.12970563,10.5627052 C6.17471436,10.5176964 6.2,10.4566515 6.2,10.3929995 L6.2,0.682999536 C6.19938241,0.609516906 6.16646636,0.540027484 6.11,0.492999536 C6.04560664,0.468378118 5.97439336,0.468378118 5.91,0.492999536 C5.39,0.559666202 4.9,0.652999536 4.44,0.772999536 C4.33679915,0.80300536 4.26432432,0.895612082 4.26,1.00299954 L4.26,10.3929995 C4.26,10.5255479 4.36745166,10.6329995 4.5,10.6329995 L5.96,10.6329995 Z"></path>
                <path d="M2.32,1.75299954 C2.32,1.67431021 2.28295146,1.60021313 2.22,1.55299954 C2.15193176,1.51370032 2.06806824,1.51370032 2,1.55299954 L1,1.96299954 C0.400241332,2.21141211 0.00669148275,2.79386589 0,3.44299954 L0,10.4429995 C0,10.5755479 0.10745166,10.6829995 0.24,10.6829995 L2.05,10.6829995 C2.18254834,10.6829995 2.29,10.5755479 2.29,10.4429995 L2.32,1.75299954 Z"></path>
            </g>
        </g>
    </g>
</svg>