<svg width="22" height="22" viewBox="0 0 22 22" xmlns="http://www.w3.org/2000/svg">
  <g stroke="currentColor" fill="none" fill-rule="evenodd">
    <path
      d="M15.906 10.358h-10.5c-1.087 0-1.968.862-1.968 1.925V18.7c0 1.063.88 1.925 1.968 1.925h10.5c1.088 0 1.969-.862 1.969-1.925v-6.417c0-1.063-.881-1.925-1.969-1.925z"
      stroke-width="1.375" stroke-linecap="round" stroke-linejoin="round" />
    <path d="M6.063 10.358V5.867c0-2.481 2.056-4.492 4.593-4.492s4.594 2.011 4.594 4.492v4.491M3.438 15.492h14.438"
      stroke-width="1.375" stroke-linecap="round" stroke-linejoin="round" />
    <path
      d="M6.719 13.246a.325.325 0 0 1-.328-.321c0-.177.147-.32.328-.32M6.719 13.246a.325.325 0 0 0 .328-.321.325.325 0 0 0-.328-.32"
      stroke-width="1.375" />
    <path
      d="M6.719 18.38a.325.325 0 0 1-.328-.322c0-.177.147-.32.328-.32M6.719 18.38a.325.325 0 0 0 .328-.322.325.325 0 0 0-.328-.32"
      stroke-width="1.369" />
  </g>
</svg>