<?xml version="1.0" encoding="UTF-8"?>
<svg width="24px" height="24px" viewBox="0 0 24 24" version="1.1" xmlns="http://www.w3.org/2000/svg" xmlns:xlink="http://www.w3.org/1999/xlink">
    <title>icons/self-hosted</title>
    <g id="icons/self-hosted" stroke="none" fill="none">
        <rect id="Rectangle" x="0" y="0" width="24" height="24"></rect>
        <g id="Group" stroke-width="1" fill-rule="evenodd" transform="translate(3, 1)" fill="#4F79FD">
            <path d="M0,2.0625 L0,19.9375 C0,21.0761719 0.951822917,22 2.125,22 L6.375,22 L6.375,18.5625 C6.375,17.4238281 7.32682292,16.5 8.5,16.5 C9.67317708,16.5 10.625,17.4238281 10.625,18.5625 L10.625,22 L14.875,22 C16.0481771,22 17,21.0761719 17,19.9375 L17,2.0625 C17,0.923828125 16.0481771,0 14.875,0 L2.125,0 C0.951822917,0 0,0.923828125 0,2.0625 Z M3,9.75 C3,9.3375 3.3375,9 3.75,9 L5.25,9 C5.6625,9 6,9.3375 6,9.75 L6,11.25 C6,11.6625 5.6625,12 5.25,12 L3.75,12 C3.3375,12 3,11.6625 3,11.25 L3,9.75 Z M7.75,9 L9.25,9 C9.6625,9 10,9.3375 10,9.75 L10,11.25 C10,11.6625 9.6625,12 9.25,12 L7.75,12 C7.3375,12 7,11.6625 7,11.25 L7,9.75 C7,9.3375 7.3375,9 7.75,9 Z M11,9.75 C11,9.3375 11.3375,9 11.75,9 L13.25,9 C13.6625,9 14,9.3375 14,9.75 L14,11.25 C14,11.6625 13.6625,12 13.25,12 L11.75,12 C11.3375,12 11,11.6625 11,11.25 L11,9.75 L11,9.75 Z M3.75,4 L5.25,4 C5.6625,4 6,4.3375 6,4.75 L6,6.25 C6,6.6625 5.6625,7 5.25,7 L3.75,7 C3.3375,7 3,6.6625 3,6.25 L3,4.75 C3,4.3375 3.3375,4 3.75,4 Z M7,4.75 C7,4.3375 7.3375,4 7.75,4 L9.25,4 C9.6625,4 10,4.3375 10,4.75 L10,6.25 C10,6.6625 9.6625,7 9.25,7 L7.75,7 C7.3375,7 7,6.6625 7,6.25 L7,4.75 L7,4.75 Z M11.75,4 L13.25,4 C13.6625,4 14,4.3375 14,4.75 L14,6.25 C14,6.6625 13.6625,7 13.25,7 L11.75,7 C11.3375,7 11,6.6625 11,6.25 L11,4.75 C11,4.3375 11.3375,4 11.75,4 Z" id="Shape" fill-rule="nonzero"></path>
        </g>
    </g>
</svg>