<?xml version="1.0" encoding="UTF-8"?>
<svg width="24px" height="24px" viewBox="0 0 24 24" version="1.1" xmlns="http://www.w3.org/2000/svg" xmlns:xlink="http://www.w3.org/1999/xlink">
    <title>Icons/send</title>
    <g id="Icons/send" stroke="none" fill="none" fill-rule="evenodd" stroke-width="1">
        <g id="Group" transform="translate(2, 2)" fill="#4F79FD">
            <path d="M19.647911,0.190812187 C19.3773875,-0.0249566879 19.0051587,-0.0608912191 18.698391,0.0991466505 L0.674167919,9.70736154 C0.234166598,9.9446069 -0.0280140529,10.4159646 0.00238522157,10.9151163 C0.0327844961,11.4142681 0.350226313,11.8502909 0.815763017,12.0323329 L3.53105725,13.1823187 C3.51837819,13.251183 3.51837819,13.3217852 3.53105725,13.3906495 L5.6133381,19.0072469 C5.78737391,19.4802679 6.18492514,19.8358764 6.67417242,19.9561603 C7.1634197,20.0764442 7.680429,19.9456849 8.05377126,19.6072395 L10.8856732,16.4739448 C10.9479078,16.4085484 11.0441555,16.3886253 11.1272178,16.4239454 L13.7508917,17.5405983 C14.096203,17.6908287 14.4883663,17.6908287 14.8336777,17.5405983 C15.1764381,17.3794052 15.4297756,17.0740288 15.524995,16.7072753 L19.9727469,1.08246786 C20.0607276,0.746566343 19.9312977,0.391288722 19.647911,0.190812187 Z M4.84705875,13.373983 L12.9179793,6.66573237 C12.95428,6.62587832 13.0056808,6.60316592 13.0595744,6.60316592 C13.113468,6.60316592 13.1648688,6.62587832 13.2011695,6.66573237 C13.2406122,6.70053467 13.2632079,6.75061455 13.2632079,6.80323068 C13.2632079,6.8558468 13.2406122,6.90592669 13.2011695,6.94072898 L7.18754242,14.3239713 C7.11852161,14.407941 7.07258745,14.5084716 7.05427645,14.6156344 L6.52954167,17.9072605 L4.84705875,13.373983 Z" id="Shape" fill-rule="nonzero"></path>
        </g>
    </g>
</svg>