<svg width="22" height="22" viewBox="0 0 22 22" xmlns="http://www.w3.org/2000/svg">
  <g stroke="currentColor" stroke-width="1.369" fill="none" fill-rule="evenodd" stroke-linecap="round"
    stroke-linejoin="round">
    <path
      d="M2.064 12.925v7.7M2.064 19.342h12.918a2.575 2.575 0 0 0-2.583-2.567h-3.23a2.575 2.575 0 0 0-2.584-2.567H2.064M6.585 16.775h2.584M11.023 9.075c0 1.063.867 1.925 1.938 1.925 1.07 0 1.937-.862 1.937-1.925a1.931 1.931 0 0 0-1.937-1.925c-1.07 0-1.938.862-1.938 1.925" />
    <path
      d="m14.529 14.85.137-.953a5.13 5.13 0 0 0 1.65-.944l1.676.668a1.296 1.296 0 0 0 1.6-.549l.172-.295a1.278 1.278 0 0 0-.32-1.651l-1.407-1.097a4.77 4.77 0 0 0 0-1.909l1.406-1.097c.505-.395.64-1.099.318-1.65l-.172-.296a1.296 1.296 0 0 0-1.6-.55l-1.673.669a5.13 5.13 0 0 0-1.646-.941l-.258-1.775a1.29 1.29 0 0 0-1.283-1.105h-.344a1.29 1.29 0 0 0-1.275 1.101l-.258 1.775a5.125 5.125 0 0 0-1.645.94l-1.673-.663a1.296 1.296 0 0 0-1.6.549l-.172.295a1.278 1.278 0 0 0 .32 1.651L7.891 8.12c-.13.63-.13 1.28 0 1.909l-1.408 1.097" />
  </g>
</svg>