<?xml version="1.0" encoding="UTF-8"?>
<svg width="24px" height="24px" viewBox="0 0 24 24" version="1.1" xmlns="http://www.w3.org/2000/svg" xmlns:xlink="http://www.w3.org/1999/xlink">
    <title>icons/simple-config</title>
    <g id="icons/simple-config" stroke="none" fill="none">
        <rect id="Rectangle" x="0" y="0" width="24" height="24"></rect>
        <g id="Group" stroke-width="1" fill-rule="evenodd" fill="#4F79FD">
            <path d="M14.6817303,12.2 C14.9319123,11.9136099 14.9319123,11.4863901 14.6817303,11.2 L12.6917303,9 C12.6014488,8.90079924 12.6014488,8.74920076 12.6917303,8.65 L14.6917303,6.48 C14.9787947,6.18497275 14.9787947,5.71502725 14.6917303,5.42 C14.4088232,5.16070302 13.9746375,5.16070302 13.6917303,5.42 L11.0017303,8.28 C10.7515484,8.56639007 10.7515484,8.99360993 11.0017303,9.28 L13.6717303,12.13 C13.9394907,12.4113217 14.3777213,12.4416941 14.6817303,12.2 L14.6817303,12.2 Z" id="Path" fill-rule="nonzero"></path>
            <path d="M16.2917303,11.14 C16.1127702,11.4428281 16.1683139,11.8293435 16.4253065,12.0695235 C16.6822991,12.3097035 17.0716838,12.3390091 17.3617303,12.14 L20.0317303,9.29 C20.2819123,9.00360993 20.2819123,8.57639007 20.0317303,8.29 L17.3817303,5.43 C17.0889128,5.13754662 16.6145479,5.13754662 16.3217303,5.43 C16.1761763,5.56786325 16.0937263,5.75951998 16.0937263,5.96 C16.0937263,6.16048002 16.1761763,6.35213675 16.3217303,6.49 L18.3217303,8.67 C18.402048,8.76910336 18.402048,8.91089664 18.3217303,9.01 L16.2917303,11.14 Z" id="Path" fill-rule="nonzero"></path>
            <path d="M23.4217303,3 L21.0017228,0.59 C20.62838,0.214412213 20.1213072,0.0022327895 19.5917303,0 L8.00172284,0 C6.89716083,0 6.00172284,0.8954305 6.00172284,2 L6.00172284,8.36 C6.00077652,8.48166501 6.09101539,8.58479514 6.21173033,8.6 C6.70305292,8.66654445 7.18803648,8.7735753 7.66173033,8.92 C7.73808756,8.94947195 7.82403556,8.93970078 7.89182854,8.89384083 C7.95962151,8.84798088 8.00067285,8.77184073 8.00172284,8.69 L8.00172284,2.5 C8.00172284,2.22385763 8.22558795,2 8.50172284,2 L19.3817303,2 C19.5143342,1.99838345 19.64145,2.05286165 19.7317303,2.15 L21.8517303,4.27 C21.9488687,4.36028033 22.0033469,4.48739614 22.0017228,4.62 L22.0017228,18 C22.0017228,18.2761424 21.7778727,18.5 21.5017228,18.5 L14.1317303,18.5 C14.053041,18.5 13.9789439,18.5370485 13.9317303,18.6 C13.8845167,18.6629515 13.8696973,18.7444582 13.8917303,18.82 C13.9866349,19.275105 13.9866349,19.744895 13.8917303,20.2 C13.8727927,20.2731863 13.8894444,20.3510177 13.9366693,20.4100488 C13.9838942,20.46908 14.056172,20.5024104 14.1317303,20.5001223 L22.0017228,20.5001223 C23.1062998,20.5001223 24.0017638,19.6045695 24.0017638,18.5 L24.0017638,4.42 C24.0048038,3.88839403 23.7961034,3.37743766 23.4217303,3 Z" id="Path" fill-rule="nonzero"></path>
            <path d="M4.75173033,17.03 C4.75173033,17.5658984 5.0376287,18.0610889 5.50173032,18.3290381 C5.96583194,18.5969873 6.53762872,18.5969873 7.00173034,18.3290381 C7.46583196,18.0610889 7.75173033,17.5658984 7.75173033,17.03 C7.75173033,16.2015729 7.08015745,15.53 6.25173033,15.53 C5.4233032,15.53 4.75173033,16.2015729 4.75173033,17.03" id="Path" fill-rule="nonzero"></path>
            <path d="M12.0017303,15.65 C12.5868871,15.0861683 12.7159136,14.1976257 12.3152928,13.4906479 C11.9146721,12.7836701 11.0861199,12.4377555 10.3017303,12.65 L8.91173033,13 C8.67928028,13.0478171 8.44765194,12.9148453 8.37173033,12.69 L8.00173033,11.33 C7.78239088,10.5734251 7.08945828,10.0528489 6.30173033,10.0528489 C5.51400237,10.0528489 4.82106978,10.5734251 4.60173033,11.33 L4.18173033,12.72 C4.10580871,12.9448453 3.87418038,13.0778171 3.64173033,13.03 L2.18173033,12.7 C1.42277617,12.5150189 0.633567052,12.8585089 0.251730328,13.54 C-0.155548078,14.2148673 -0.0613829665,15.0787299 0.481730328,15.65 L1.48173033,16.72 C1.64330441,16.8989212 1.64330441,17.1710788 1.48173033,17.35 L0.481730328,18.41 C-0.0613829665,18.9812701 -0.155548078,19.8451327 0.251730328,20.52 C0.633567052,21.2014911 1.42277617,21.5449811 2.18173033,21.36 L3.59173033,21 C3.82570631,20.9420236 4.06381233,21.0787141 4.13173033,21.31 L4.55173033,22.7 C4.78288804,23.4447709 5.4719114,23.9523638 6.25173033,23.9523638 C7.03154926,23.9523638 7.72057262,23.4447709 7.95173033,22.7 L8.37173033,21.31 C8.43964833,21.0787141 8.67775435,20.9420236 8.91173033,21 L10.3217303,21.32 C11.0649566,21.4605489 11.8158391,21.1160325 12.1940235,20.4609631 C12.5722079,19.8058937 12.4950888,18.9833557 12.0017303,18.41 L11.0017303,17.35 C10.8401562,17.1710788 10.8401562,16.8989212 11.0017303,16.72 L12.0017303,15.65 Z M6.25173033,20 C4.59487608,20 3.25173033,18.6568542 3.25173033,17 C3.25173033,15.3431458 4.59487608,14 6.25173033,14 C7.90858458,14 9.25173033,15.3431458 9.25173033,17 C9.25173033,18.6568542 7.90858458,20 6.25173033,20 Z" id="Shape" fill-rule="nonzero"></path>
        </g>
    </g>
</svg>