<svg xmlns="http://www.w3.org/2000/svg" width="24" height="24">
    <g fill="none" fill-rule="evenodd">
        <path d="M0 0h24v24H0z" />
        <path
            d="m22.222 10.833-1.84-1.48a1.09 1.09 0 0 1-.4-1l.25-2.34a2.09 2.09 0 0 0-2.3-2.31l-2.35.25c-.38.052-.76-.1-1-.4l-1.45-1.81a2.16 2.16 0 0 0-3.26 0l-1.48 1.84c-.24.3-.62.452-1 .4l-2.32-.25a2.09 2.09 0 0 0-2.3 2.31l.25 2.34c.052.38-.1.76-.4 1l-1.84 1.45a2.09 2.09 0 0 0 0 3.26l1.84 1.48c.298.24.45.62.4 1l-.25 2.35a2.07 2.07 0 0 0 .6 1.7 2 2 0 0 0 1.7.6l2.35-.25c.38-.052.76.1 1 .4l1.48 1.84a2.09 2.09 0 0 0 3.26 0l1.48-1.84c.24-.3.62-.452 1-.4l2.35.25a2 2 0 0 0 1.7-.6 2.07 2.07 0 0 0 .6-1.7l-.25-2.35a1.1 1.1 0 0 1 .4-1l1.84-1.48a2.09 2.09 0 0 0 0-3.26h-.06zm-10.32 4.7a1.79 1.79 0 0 1-2.67.19l-2.44-2.44a1.004 1.004 0 1 1 1.42-1.42l2.29 2.25 3.91-5.21a1 1 0 1 1 1.6 1.2l-4.11 5.43z"
            fill="#4F79FD" fill-rule="nonzero" />
    </g>
</svg>