<?xml version="1.0" encoding="UTF-8"?>
<svg width="24px" height="24px" viewBox="0 0 24 24" version="1.1" xmlns="http://www.w3.org/2000/svg" xmlns:xlink="http://www.w3.org/1999/xlink">
    <title>icons/support</title>
    <g id="icons/support" stroke="none" fill="none">
        <rect id="Rectangle" x="0" y="0" width="24" height="24"></rect>
        <g id="Group" stroke-width="1" fill-rule="evenodd" transform="translate(1, 1)" fill="#4F79FD">
            <path d="M11,22 C9.478315,22 8.048315,21.71125 6.71,21.13375 C5.371685,20.55625 4.2075,19.7725 3.2175,18.7825 C2.2275,17.7925 1.44375,16.628315 0.86625,15.29 C0.28875,13.951685 0,12.521685 0,11 C0,9.478315 0.28875,8.048315 0.86625,6.71 C1.44375,5.371685 2.2275,4.2075 3.2175,3.2175 C4.2075,2.2275 5.371685,1.44375 6.71,0.86625 C8.048315,0.28875 9.478315,0 11,0 C12.521685,0 13.951685,0.28875 15.29,0.86625 C16.628315,1.44375 17.7925,2.2275 18.7825,3.2175 C19.7725,4.2075 20.55625,5.371685 21.13375,6.71 C21.71125,8.048315 22,9.478315 22,11 C22,12.521685 21.71125,13.951685 21.13375,15.29 C20.55625,16.628315 19.7725,17.7925 18.7825,18.7825 C17.7925,19.7725 16.628315,20.55625 15.29,21.13375 C13.951685,21.71125 12.521685,22 11,22 Z M7.6725,19.8 L9.405,15.675 C8.708315,15.436685 8.089565,15.05625 7.54875,14.53375 C7.007935,14.01125 6.6,13.374185 6.325,12.6225 L2.2,14.2725 C2.7683315,15.574185 3.52,16.701685 4.455,17.655 C5.39,18.608315 6.4625,19.323315 7.6725,19.8 Z M6.2975,9.405 C6.590815,8.653315 7.003315,8.011685 7.535,7.48 C8.066685,6.948315 8.680815,6.563315 9.3775,6.325 L7.7275,2.2 C6.3525,2.7683315 5.188315,3.53375 4.235,4.49625 C3.2816685,5.45875 2.6033315,6.545 2.2,7.755 L6.2975,9.405 Z M11,14.3 C11.916685,14.3 12.695815,13.979185 13.3375,13.3375 C13.979185,12.695815 14.3,11.916685 14.3,11 C14.3,10.083315 13.979185,9.304185 13.3375,8.6625 C12.695815,8.020815 11.916685,7.7 11,7.7 C10.083315,7.7 9.304185,8.020815 8.6625,8.6625 C8.020815,9.304185 7.7,10.083315 7.7,11 C7.7,11.916685 8.020815,12.695815 8.6625,13.3375 C9.304185,13.979185 10.083315,14.3 11,14.3 Z M14.3275,19.8 C15.5925,19.286685 16.6925,18.557935 17.6275,17.61375 C18.5625,16.669565 19.286685,15.574185 19.8,14.3275 L15.675,12.6225 C15.4,13.3925 14.992065,14.03875 14.45125,14.56125 C13.910435,15.08375 13.291685,15.455 12.595,15.675 L14.3275,19.8 Z M15.675,9.3775 L19.8,7.6725 C19.286685,6.425815 18.557935,5.330435 17.61375,4.38625 C16.669565,3.442065 15.574185,2.7133315 14.3275,2.2 L12.65,6.325 C13.346685,6.563315 13.951685,6.94375 14.465,7.46625 C14.978315,7.98875 15.381685,8.625815 15.675,9.3775 Z" id="Shape" fill-rule="nonzero"></path>
        </g>
    </g>
</svg>