<svg width="22" height="22" viewBox="0 0 22 22" xmlns="http://www.w3.org/2000/svg">
  <g stroke="currentColor" stroke-width="1.375" fill="none" fill-rule="evenodd" stroke-linecap="round"
    stroke-linejoin="round">
    <path
      d="M9.625 11a1.375 1.375 0 1 0 2.75 0 1.375 1.375 0 0 0-2.75 0M9.625 6.188a1.375 1.375 0 1 0 2.75 0 1.375 1.375 0 0 0-2.75 0M9.625 15.813a1.375 1.375 0 1 0 2.75 0 1.375 1.375 0 0 0-2.75 0" />
    <path
      d="M8.25 1.375h5.5s1.692 0 1.692 1.711v15.828s0 1.711-1.692 1.711h-5.5s-1.692 0-1.692-1.711V3.086s0-1.711 1.692-1.711M6.558 3.942H3.577a.828.828 0 0 0-.791.593.84.84 0 0 0 .332.938l3.44 2.319M6.558 9.075H3.577a.828.828 0 0 0-.791.594.84.84 0 0 0 .332.937l3.44 2.319M6.558 14.208H3.577a.828.828 0 0 0-.791.594.84.84 0 0 0 .332.938l3.44 2.318M15.442 3.942h2.981c.364 0 .686.24.791.593a.84.84 0 0 1-.332.938l-3.44 2.319M15.442 9.075h2.981c.364 0 .686.241.791.594a.84.84 0 0 1-.332.937l-3.44 2.319M15.442 14.208h2.981c.364 0 .686.241.791.594a.84.84 0 0 1-.332.938l-3.44 2.318" />
  </g>
</svg>