<svg width="41" height="40" viewBox="0 0 41 40" xmlns="http://www.w3.org/2000/svg">
  <g transform="translate(.024)" fill="none" fill-rule="evenodd">
      <rect fill="#FFF" width="40" height="40" rx="8"/>
      <g fill-rule="nonzero">
          <path d="M36 20c0 8.836-7.163 16-16 16S4 28.836 4 20c0-8.837 7.163-16 16-16s16 7.163 16 16z" fill="#DD4814"/>
          <path d="M9.12 17.864a2.136 2.136 0 1 0 0 4.272 2.136 2.136 0 0 0 0-4.272zm15.253 9.709a2.135 2.135 0 1 0 2.134 3.698 2.135 2.135 0 0 0-2.134-3.698zM13.76 20a6.231 6.231 0 0 1 2.653-5.105l-1.562-2.616a9.3 9.3 0 0 0-3.838 5.394A2.996 2.996 0 0 1 12.12 20c0 .939-.431 1.776-1.106 2.326a9.294 9.294 0 0 0 3.838 5.396l1.562-2.617A6.23 6.23 0 0 1 13.76 20zM20 13.76a6.24 6.24 0 0 1 6.214 5.687l3.044-.045a9.251 9.251 0 0 0-2.757-6.02c-.813.308-1.751.26-2.562-.207a2.99 2.99 0 0 1-1.46-2.118A9.306 9.306 0 0 0 20 10.72a9.246 9.246 0 0 0-4.113.96l1.485 2.66A6.215 6.215 0 0 1 20 13.76zm0 12.48a6.215 6.215 0 0 1-2.63-.58l-1.483 2.66a9.278 9.278 0 0 0 6.592.623 2.993 2.993 0 0 1 1.46-2.119 2.993 2.993 0 0 1 2.562-.207 9.252 9.252 0 0 0 2.757-6.02l-3.045-.044A6.238 6.238 0 0 1 20 26.24zm4.37-13.813a2.135 2.135 0 1 0 2.137-3.7 2.136 2.136 0 0 0-2.136 3.7z" fill="#FFF"/>
      </g>
  </g>
</svg>