<?xml version="1.0" encoding="UTF-8"?>
<svg width="24px" height="24px" viewBox="0 0 24 24" version="1.1" xmlns="http://www.w3.org/2000/svg" xmlns:xlink="http://www.w3.org/1999/xlink">
    <title>Icons/Velocity</title>
    <g id="Icons/Velocity" stroke="none" fill="none">
        <rect id="Rectangle" x="0" y="0" width="24" height="24"></rect>
        <g id="Gráfico" transform="translate(-2, -2)" fill="#4F79FD" fill-rule="evenodd" stroke-width="1">
            <g id="Layer_1">
                <path d="M12.4123125,13.9470625 C12.4123125,14.9051875 13.18975,15.6821875 14.1474375,15.6821875 C14.8203125,15.6821875 15.3969375,15.2954375 15.6848125,14.735875 L15.689625,14.74025 L18.857125,9.025625 L13.2965,12.4355 L13.30175,12.44075 C12.7736875,12.7386875 12.4123125,13.2978125 12.4123125,13.9470625 Z" id="Trazado" fill-rule="nonzero"></path>
                <path d="M21.1378125,5.6791875 C19.3598125,4.1251875 17.0625,3.1329375 14.4375,2.984625 L14.4375,5.6214375 C16.625,5.7605625 17.913875,6.4553125 19.208,7.5394375 L21.1378125,5.6791875 L21.1378125,5.6791875 Z" id="Trazado" fill-rule="nonzero"></path>
                <path d="M22.376375,13.125 L25.010125,13.125 C24.833375,10.5 23.8065625,8.343125 22.2123125,6.575625 L20.349,8.4275625 C21.471625,9.7138125 22.210125,11.375 22.376375,13.125 Z" id="Trazado" fill-rule="nonzero"></path>
                <path d="M22.388625,14.4375 C22.1099375,18.8125 18.48525,22.2823125 14.05775,22.2823125 C9.4486875,22.2823125 5.5610625,18.5443125 5.5610625,13.9356875 C5.5610625,9.5484375 9.1875,5.95875 13.125,5.621875 L13.125,2.9850625 C7.4375,3.325875 2.9360625,8.11125 2.9360625,13.9470625 C2.9360625,20.003375 7.9323125,24.9073125 13.988625,24.9073125 C19.865125,24.9073125 24.74675,20.125 25.0271875,14.4375 L22.388625,14.4375 Z" id="Trazado" fill-rule="nonzero"></path>
            </g>
        </g>
    </g>
</svg>