<?xml version="1.0" encoding="UTF-8"?>
<svg width="24px" height="24px" viewBox="0 0 24 24" version="1.1" xmlns="http://www.w3.org/2000/svg" xmlns:xlink="http://www.w3.org/1999/xlink">
    <title>Icons/Modular</title>
    <g id="Icons/Modular" stroke="none" fill="none">
        <rect id="Rectangle" x="0" y="0" width="24" height="24"></rect>
        <g id="Toys-Lego--Streamline-Ultimate" stroke-width="1" fill-rule="evenodd" transform="translate(1, 1)" stroke="#C9D3EE" stroke-linecap="round" stroke-linejoin="round">
            <path d="M7.5625,21.5 L1.375,21.5 C0.995304234,21.5 0.6875,21.1921958 0.6875,20.8125 L0.6875,15" id="Path" stroke-width="2"></path>
            <polyline id="Path" stroke-width="2" points="7.5625 15.5 0.6875 15.5 0.6875 9"></polyline>
            <path d="M11.6875,9.3125 L0.6875,9.3125 L0.6875,4.5 C0.6875,4.12030423 0.995304234,3.8125 1.375,3.8125 L11,3.8125 C11.3796958,3.8125 11.6875,4.12030423 11.6875,4.5 L11.6875,9.3125" id="Path" stroke-width="2"></path>
            <path d="M1.375,3.8125 L1.375,1.75 C1.375,1.37030423 1.68280423,1.0625 2.0625,1.0625 L4.125,1.0625 C4.50469577,1.0625 4.8125,1.37030423 4.8125,1.75 L4.8125,3.8125" id="Path" stroke-width="2"></path>
            <path d="M7.5625,3.8125 L7.5625,1.75 C7.5625,1.37030423 7.87030423,1.0625 8.25,1.0625 L10.3125,1.0625 C10.6921958,1.0625 11,1.37030423 11,1.75 L11,3.8125" id="Path" stroke-width="2"></path>
            <path d="M11,14.8125 L11,12.75 C11,12.3703042 11.3078042,12.0625 11.6875,12.0625 L13.75,12.0625 C14.1296958,12.0625 14.4375,12.3703042 14.4375,12.75 L14.4375,14.8125" id="Path" stroke-width="2"></path>
            <path d="M17.1875,14.8125 L17.1875,12.75 C17.1875,12.3703042 17.4953042,12.0625 17.875,12.0625 L19.9375,12.0625 C20.3171958,12.0625 20.625,12.3703042 20.625,12.75 L20.625,14.8125" id="Path" stroke-width="2"></path>
            <path d="M20.625,14.8125 C20.625,14.8125 21.3125,14.8125 21.3125,15.5 L21.3125,20.625 C21.3125,20.625 21.3125,21.3125 20.625,21.3125 L11,21.3125 C11,21.3125 10.3125,21.3125 10.3125,20.625 L10.3125,15.5 C10.3125,15.5 10.3125,14.8125 11,14.8125 L20.625,14.8125 Z" id="Path" stroke-width="2"></path>
        </g>
    </g>
</svg>