<?xml version="1.0" encoding="UTF-8"?>
<svg width="24px" height="24px" viewBox="0 0 24 24" version="1.1" xmlns="http://www.w3.org/2000/svg" xmlns:xlink="http://www.w3.org/1999/xlink">
    <title>Icons/No BS</title>
    <g id="Icons/No-BS" stroke="none" fill="none">
        <rect id="Rectangle" x="0" y="0" width="24" height="24"></rect>
        <g id="Tools-Wrench-Screwdriver--Streamline-Ultimate" stroke-width="1" fill-rule="evenodd" transform="translate(1, 1)" stroke="#C9D3EE">
            <path d="M4.2078025,20.7076833 C3.8210425,21.094425 3.29647083,21.3117667 2.749505,21.3117667 C2.20253917,21.3117667 1.67797667,21.094425 1.2912075,20.7076833 C0.904446583,20.3209417 0.6871645,19.7963333 0.6871645,19.2493583 C0.6871645,18.7023833 0.904446583,18.1778667 1.2912075,17.791125 L7.1243975,11.9615833 L10.0409833,14.8781417 L4.2078025,20.7076833 L4.2078025,20.7076833 Z" id="Path" stroke-width="2" stroke-linecap="round" stroke-linejoin="round"></path>
            <line x1="16.8444833" y1="5.10554917" x2="8.58138417" y2="13.368575" id="Path" stroke-width="2" stroke-linecap="round" stroke-linejoin="round"></line>
            <path d="M18.88205,5.06147583 C18.6241917,5.31927917 18.2743917,5.4640575 17.9097417,5.46397504 C17.545,5.46388333 17.1952917,5.31894 16.937525,5.0610175 C16.6797583,4.80308583 16.534925,4.4533225 16.5350166,4.088645 C16.5351083,3.7239675 16.6800333,3.37426833 16.9379833,3.116465 L19.3688,0.6875 L21.3128667,2.6306775 L18.88205,5.06147583 Z" id="Path" stroke-width="2" stroke-linecap="round" stroke-linejoin="round"></path>
            <g id="Group" stroke-width="2">
                <path d="M9.38565833,7.44462583 L7.286675,5.34105 C7.53100333,4.71895417 7.58855167,4.03909917 7.45228917,3.3847825 C7.3160175,2.73046583 6.9918475,2.13010417 6.51948917,1.65726917 C5.96651,1.108195 5.24164667,0.76582825 4.46633,0.68751375 C4.79543167,1.213465 4.93653417,1.83545083 4.86660167,2.4519275 C4.79666917,3.06841333 4.51983583,3.64298 4.08128417,4.0818525 C3.64272333,4.520725 3.06835833,4.79798 2.4519275,4.86836167 C1.83549667,4.93874333 1.21341,4.79809 0.687220417,4.46937333 C0.741948167,4.99304667 0.91718,5.4969475 1.1991925,5.941595 C1.48119583,6.38623333 1.8623275,6.75954583 2.31271333,7.03228167 C2.76310833,7.3050175 3.27052,7.46977917 3.79522917,7.51364167 C4.31992917,7.55751333 4.84766333,7.47930333 5.33709,7.285135 L6.7816375,8.7296825" id="Path" stroke-linecap="round" stroke-linejoin="round"></path>
                <path d="M13.0427917,14.9936417 L14.6697833,16.6197167 C14.3813083,17.3547917 14.354725,18.1668667 14.5946167,18.919175 C14.8344167,19.671575 15.326025,20.3184667 15.9866667,20.7510417 C16.6474,21.183525 17.4368333,21.3753833 18.2224167,21.29435 C19.0079083,21.213225 19.7415167,20.8641583 20.29995,20.305725 C20.8582917,19.7473833 21.2073583,19.0136833 21.2884833,18.2281917 C21.3696083,17.4427 21.17775,16.6532667 20.745175,15.9925333 C20.3126,15.3318917 19.6657083,14.8402833 18.9134,14.6003917 C18.161,14.3605917 17.348925,14.387175 16.61385,14.6755583 L14.3122833,12.3739917" id="Path" stroke-linecap="round" stroke-linejoin="round"></path>
                <path d="M17.8671167,18.2163667 C17.677275,18.2163667 17.5234583,18.06255 17.5234583,17.8727083 C17.5234583,17.6828667 17.677275,17.5289583 17.8671167,17.5289583" id="Path"></path>
                <path d="M17.8671167,18.2163667 C18.0569583,18.2163667 18.2108667,18.0624583 18.2108667,17.8727083 C18.2108667,17.6828667 18.0569583,17.5289583 17.8671167,17.5289583" id="Path"></path>
            </g>
        </g>
    </g>
</svg>