<?xml version="1.0" encoding="utf-8"?>
<svg style="fill:rgb(246, 14, 95)" data-testid="logo-brand" height="100%" id="brand" viewBox="0 0 120 23.23" width="100%" xmlns="http://www.w3.org/2000/svg"
     class="styles__LogoBrandBase-mylhac-0 cNRNg">
    <path d="M51.215 11.192c-.183-3.634 2.615-6.745 6.249-6.928.183-.013.366-.013.549 0a6.583 6.583 0 016.797 6.392v.55c.183 3.66-2.64 6.77-6.3 6.953a3.17 3.17 0 01-.497 0c-3.66.092-6.706-2.797-6.797-6.457v-.51zm10.615 0c0-2.327-1.346-4.392-3.817-4.392-2.444 0-3.817 2.052-3.817 4.392 0 2.353 1.373 4.418 3.817 4.418 2.47 0 3.817-2.065 3.817-4.418zm3.739 6.641V4.59h.954c1.059 0 1.922.863 1.922 1.922a5.77 5.77 0 014.3-2.249v2.85a3.314 3.314 0 00-.876-.078 4.525 4.525 0 00-3.424 1.777v9.02h-2.876zm12.849-2.249a2.133 2.133 0 01-.287.027c-.824 0-1.255-.68-1.255-1.595V.003A2.876 2.876 0 0074 2.878V14.67a3.45 3.45 0 003.399 3.477c.353 0 .693-.026 1.032-.091l-.013-2.47zm28.157.026c-.824 0-1.255-.68-1.255-1.594V8.499A3.802 3.802 0 00102 4.251a3.883 3.883 0 00-.954 0 6.336 6.336 0 00-4.693 2.118 1.78 1.78 0 00-1.778-1.778h-1.111v13.242h2.876V8.565a4.509 4.509 0 013.398-1.752c1.621 0 2.693.654 2.693 2.745v3.085h.013v2.105a3.071 3.071 0 002.654 3.425c.248.026.497.026.745 0 .418 0 .823-.04 1.229-.131v-2.484c-.17.026-.327.053-.497.053zm1.059 5.622l1.346-2.079a5.25 5.25 0 004.222 1.7 3.512 3.512 0 003.909-3.06c.026-.209.026-.43.013-.64V15.65a5.325 5.325 0 01-4.248 2.222c-3.373 0-5.87-2.444-5.87-6.797 0-4.301 2.445-6.798 5.87-6.798a5.169 5.169 0 014.248 2.17c0-1.006.824-1.83 1.83-1.83H120v12.55c0 4.77-3.569 6.051-6.798 6.051a7.709 7.709 0 01-5.568-1.986zm9.49-7.713V8.552a4.426 4.426 0 00-3.399-1.752c-2.3 0-3.751 1.7-3.751 4.249 0 2.549 1.451 4.222 3.751 4.222a4.386 4.386 0 003.399-1.752zM50.562 2.369a2.08 2.08 0 011.15.3L52.34.5a4.947 4.947 0 00-2.327-.496c-2.418 0-4.17 1.62-4.17 4.575V17.82h2.876V7.075h2.693V4.59h-2.693c0-1.49.693-2.222 1.843-2.222zM31.791 15.61c-.824 0-1.255-.68-1.255-1.594V4.59h-.078a2.79 2.79 0 00-2.536 1.62v-.039a5.192 5.192 0 00-4.04-1.921c-3.398 0-5.869 2.653-5.869 6.941 0 4.38 2.497 6.967 5.87 6.967a5.27 5.27 0 004.026-1.882 2.992 2.992 0 003.15 1.882c.405 0 .81-.039 1.203-.13v-2.484c-.157.04-.314.065-.471.065zm-7.072 0c-2.3 0-3.752-1.843-3.752-4.418 0-2.549 1.451-4.392 3.752-4.392a4.37 4.37 0 012.928 1.229v6.353a4.433 4.433 0 01-2.928 1.228zm-7.909-.038a1.74 1.74 0 01-.365.039c-.824 0-1.255-.68-1.255-1.595V7.075h2.693V4.59H15.19V.016a2.876 2.876 0 00-2.876 2.876v11.843a3.05 3.05 0 002.627 3.425c.262.04.523.04.772 0 .379 0 .745-.04 1.11-.105l-.012-2.483zm-13.634-7.4c0-.928.929-1.647 2.445-1.647a5.563 5.563 0 013.425 1.138l1.7-1.582A7.585 7.585 0 005.62 4.264c-3.346 0-5.203 1.83-5.203 4 0 5.098 8 3.229 8 5.843 0 1.046-.902 1.752-2.627 1.752a6.742 6.742 0 01-2.758-.667A2.385 2.385 0 000 16.081a7.96 7.96 0 005.673 2.078c3.569 0 5.517-1.777 5.517-4.143 0-5.268-8.014-3.504-8.014-5.844z"></path>
    <path d="M44.17 4.656A3.623 3.623 0 0041.294 8.2v5.242a4.39 4.39 0 01-3.372 1.725c-1.647 0-2.693-.654-2.693-2.719v-7.87a2.876 2.876 0 00-2.876 2.877v6.065c0 2.693 1.425 4.196 4.274 4.196a6.409 6.409 0 004.667-2.078v1.542a3.374 3.374 0 01-3.046 3.673 2.96 2.96 0 01-.68 0 4.965 4.965 0 01-4-1.699l-1.346 2.078a7.363 7.363 0 005.347 1.974c3.817 0 6.614-2.052 6.614-6.026L44.17 4.656zM89.996 5.86l-1.32 2.445a4.69 4.69 0 01.719 2.889 4.071 4.071 0 01-3.7 4.405c-.13.013-.248.013-.378.013a4.095 4.095 0 01-4.092-4.079c0-.117 0-.222.013-.34a4.52 4.52 0 011.569-3.555l-1.49-2.275a6.81 6.81 0 00-3.007 5.83 6.735 6.735 0 006.497 6.968h.522c3.713.157 6.85-2.732 7.007-6.445.013-.17.013-.352 0-.522a6.872 6.872 0 00-2.34-5.334z"></path>
    <path d="M89.342 10.435a18.088 18.088 0 002.027-2.941 7.241 7.241 0 01.967 3.778c0 .562-3.111 1.385-3.033.94a5.79 5.79 0 00.04-1.777z"></path>
    <path d="M89.748 4.252a4.298 4.298 0 01-.262 1.216c-2.418-1.503-4.3-.902-5.294.248a3.576 3.576 0 00-.013 4.693 3.524 3.524 0 002.549 1.177c.431 0 .863-.092 1.255-.249 2.667-1.11 4.287-5.464 4.287-7.085h-2.522zm-2.772 5.386a1.601 1.601 0 01-1.594-1.595c0-.876.719-1.595 1.594-1.595.876 0 1.595.72 1.595 1.595 0 .89-.706 1.595-1.595 1.595z"></path>
</svg>
