<svg width="180" height="28" xmlns="http://www.w3.org/2000/svg"><g fill="#FFF"><path d="M61.885 13.49c-.221-4.38 3.16-8.13 7.55-8.351.222-.016.443-.016.664 0a7.965 7.965 0 015.711 2.15 7.928 7.928 0 012.502 5.555v.663c.221 4.413-3.19 8.162-7.612 8.382-.2.016-.401.016-.601 0-4.422.111-8.103-3.372-8.213-7.784v-.615h-.001zm12.826 0c0-2.805-1.626-5.294-4.612-5.294-2.953 0-4.612 2.474-4.612 5.294 0 2.837 1.659 5.326 4.612 5.326 2.985 0 4.612-2.489 4.612-5.326zm4.518 8.006V5.532h1.153c1.28 0 2.322 1.04 2.322 2.317A6.977 6.977 0 0187.9 5.137v3.436a4.013 4.013 0 00-1.058-.094 5.472 5.472 0 00-4.138 2.142v10.874H79.23v.001zm15.526-2.71a2.68 2.68 0 01-.347.032c-.995 0-1.516-.82-1.516-1.923V.002a3.471 3.471 0 00-3.475 3.466v14.215a4.164 4.164 0 004.107 4.192c.426 0 .837-.032 1.247-.11l-.016-2.978v-.002zm34.023.03c-.996 0-1.516-.82-1.516-1.921v-6.651a4.576 4.576 0 00-.939-3.393 4.597 4.597 0 00-3.073-1.728 4.703 4.703 0 00-1.153 0 7.664 7.664 0 00-5.67 2.553 2.148 2.148 0 00-2.149-2.143h-1.342v15.963h3.475V10.324a5.452 5.452 0 014.106-2.112c1.958 0 3.254.788 3.254 3.309v3.719h.016v2.537a3.704 3.704 0 003.206 4.13c.3.03.601.03.9 0 .506 0 .995-.05 1.486-.159v-2.994c-.206.031-.395.064-.6.064v-.002zm1.28 6.778l1.626-2.506a6.351 6.351 0 005.102 2.049 4.242 4.242 0 004.723-3.689 4.22 4.22 0 00.016-.771v-1.812a6.439 6.439 0 01-5.133 2.678c-4.076 0-7.093-2.946-7.093-8.194 0-5.184 2.954-8.195 7.093-8.195a6.251 6.251 0 015.133 2.616c0-1.212.995-2.206 2.211-2.206H145v15.13c0 5.75-4.313 7.294-8.214 7.294a9.328 9.328 0 01-6.728-2.394zm11.467-9.298v-5.988a5.352 5.352 0 00-4.107-2.112c-2.78 0-4.533 2.05-4.533 5.122 0 3.073 1.754 5.09 4.533 5.09a5.304 5.304 0 004.107-2.112zM61.095 2.854c.49-.017.972.11 1.39.362L63.245.6a5.99 5.99 0 00-2.813-.598c-2.921 0-5.038 1.953-5.038 5.515V21.48h3.475V8.527h3.254V5.532h-3.254c0-1.797.837-2.679 2.227-2.679v.001zm-22.68 15.962c-.997 0-1.517-.82-1.517-1.921V5.532h-.095a3.372 3.372 0 00-3.064 1.953v-.047a6.28 6.28 0 00-4.882-2.316c-4.105 0-7.091 3.198-7.091 8.367 0 5.28 3.017 8.4 7.093 8.4a6.374 6.374 0 004.864-2.27 3.616 3.616 0 003.807 2.27c.489 0 .978-.048 1.453-.158v-2.994c-.19.048-.38.078-.569.078v.001zm-8.546 0c-2.78 0-4.534-2.221-4.534-5.326 0-3.072 1.753-5.294 4.534-5.294a5.287 5.287 0 013.538 1.481v7.66a5.363 5.363 0 01-3.538 1.48zm-9.557-.045a2.107 2.107 0 01-.441.047c-.996 0-1.516-.82-1.516-1.923V8.527h3.254V5.532h-3.254V.018a3.471 3.471 0 00-3.476 3.467v14.277a3.67 3.67 0 00.73 2.72 3.687 3.687 0 002.445 1.408c.316.049.632.049.933 0 .458 0 .9-.048 1.34-.126l-.014-2.993zM3.838 9.85c0-1.119 1.122-1.986 2.954-1.986a6.732 6.732 0 014.139 1.372l2.054-1.907A9.178 9.178 0 006.79 5.14C2.748 5.139.504 7.345.504 9.96c0 6.145 9.667 3.892 9.667 7.044 0 1.26-1.09 2.112-3.175 2.112a8.162 8.162 0 01-3.332-.804A2.886 2.886 0 000 19.384a9.632 9.632 0 006.855 2.505c4.312 0 6.666-2.142 6.666-4.994 0-6.35-9.683-4.224-9.683-7.045z"/><path d="M53.372 5.611a4.37 4.37 0 00-3.475 4.273v6.319a5.309 5.309 0 01-4.075 2.08c-1.99 0-3.254-.789-3.254-3.278V5.517a3.48 3.48 0 00-2.457 1.016 3.463 3.463 0 00-1.018 2.452v7.312c0 3.246 1.722 5.058 5.165 5.058a7.752 7.752 0 005.639-2.505v1.86a4.061 4.061 0 01-.921 2.974 4.08 4.08 0 01-2.76 1.453 3.585 3.585 0 01-.821 0 6.006 6.006 0 01-4.834-2.048l-1.626 2.505a8.91 8.91 0 006.46 2.38c4.613 0 7.993-2.474 7.993-7.265l-.016-15.098zm55.373 1.452l-1.595 2.947a5.644 5.644 0 01.869 3.483 4.911 4.911 0 01-4.47 5.31c-.158.016-.3.016-.458.016a4.942 4.942 0 01-4.944-4.917c0-.141 0-.268.016-.41a5.443 5.443 0 011.895-4.286l-1.8-2.742a8.204 8.204 0 00-3.633 7.028 8.108 8.108 0 002.18 5.822 8.146 8.146 0 005.67 2.578h.63c4.487.189 8.278-3.294 8.468-7.77a4.207 4.207 0 000-.63 8.276 8.276 0 00-2.828-6.43z"/><path d="M107.955 12.578a21.804 21.804 0 002.45-3.546 8.713 8.713 0 011.168 4.555c0 .677-3.76 1.67-3.665 1.133.126-.707.143-1.43.048-2.142h-.001z"/><path d="M108.445 5.124a5.17 5.17 0 01-.316 1.466c-2.922-1.812-5.196-1.087-6.397.3a4.303 4.303 0 00-.016 5.657 4.262 4.262 0 003.08 1.418c.521 0 1.043-.11 1.517-.3 3.222-1.338 5.18-6.587 5.18-8.54h-3.047zm-3.349 6.493a1.932 1.932 0 01-1.926-1.923c0-1.056.869-1.922 1.926-1.922 1.058 0 1.927.868 1.927 1.922a1.912 1.912 0 01-1.927 1.923z"/></g></svg>