<?xml version="1.0" encoding="UTF-8"?>
<svg version="1.1" viewBox="0 0 24 24" xmlns="http://www.w3.org/2000/svg" xmlns:xlink="http://www.w3.org/1999/xlink">
    <!--Generated by IJSVG (https://github.com/iconjar/IJSVG)-->
    <g stroke-linecap="round" stroke-width="1" stroke="#1063EE" fill="none" stroke-linejoin="round">
        <path d="M13.5,9.5h1v2l2.5,-2h2l-1.96701e-07,-3.55271e-15c2.48528,1.08635e-07 4.5,-2.01472 4.5,-4.5c1.08635e-07,-2.48528 -2.01472,-4.5 -4.5,-4.5h-6l-1.96701e-07,3.55271e-15c-2.48528,1.08635e-07 -4.5,2.01472 -4.5,4.5"></path>
        <path d="M0.5,23.5l-9.15562e-08,7.79856e-06c0.0134126,-1.1425 0.251253,-2.27123 0.699997,-3.322c0.49,-0.981 2.539,-1.661 5.111,-2.613c0.695,-0.258 0.581,-2.074 0.273,-2.413l-4.07482e-07,-4.4125e-07c-0.992443,-1.07469 -1.47856,-2.52213 -1.336,-3.978l6.17141e-08,6.41612e-07c-0.177353,-1.84385 1.17361,-3.48236 3.01747,-3.65972c0.0779882,-0.00750139 0.156215,-0.0122678 0.234537,-0.0142905l-1.3102e-07,-3.22774e-09c1.8518,0.0456198 3.316,1.58378 3.27038,3.43558c-0.0019614,0.0796173 -0.00675797,0.159139 -0.0143806,0.238415l1.07451e-07,1.09732e-06c0.142561,1.45587 -0.343558,2.90331 -1.336,3.978c-0.308,0.339 -0.422,2.155 0.273,2.413c2.572,0.952 4.621,1.632 5.111,2.613l2.80594e-07,6.57033e-07c0.448745,1.05077 0.686586,2.1795 0.7,3.322Z"></path>
        <path d="M19,4.75h-1.09278e-08c0.138071,-6.03528e-09 0.25,0.111929 0.25,0.25v0v0c0,0.138071 -0.111929,0.25 -0.25,0.25v0h-1.09278e-08c-0.138071,-6.03528e-09 -0.25,-0.111929 -0.25,-0.25v0l3.55271e-15,-2.68211e-08c2.08482e-08,-0.138071 0.111929,-0.25 0.25,-0.25"></path>
        <path d="M19,4.75v0"></path>
        <path d="M16,4.75h-1.09278e-08c0.138071,-6.03528e-09 0.25,0.111929 0.25,0.25v0v0c0,0.138071 -0.111929,0.25 -0.25,0.25v0h-1.09278e-08c-0.138071,-6.03528e-09 -0.25,-0.111929 -0.25,-0.25v0l3.55271e-15,-2.68211e-08c2.08482e-08,-0.138071 0.111929,-0.25 0.25,-0.25"></path>
        <path d="M16,4.75v0"></path>
        <path d="M13,4.75h-1.09278e-08c0.138071,-6.03528e-09 0.25,0.111929 0.25,0.25v0v0c0,0.138071 -0.111929,0.25 -0.25,0.25v0h-1.09278e-08c-0.138071,-6.03528e-09 -0.25,-0.111929 -0.25,-0.25v0l3.55271e-15,-2.68211e-08c2.08482e-08,-0.138071 0.111929,-0.25 0.25,-0.25"></path>
        <path d="M13,4.75v0"></path>
    </g>
</svg>