<?xml version="1.0" encoding="UTF-8"?>
<svg version="1.1" viewBox="0 0 576 512" xmlns="http://www.w3.org/2000/svg" xmlns:xlink="http://www.w3.org/1999/xlink">
    <!--Generated by IJSVG (https://github.com/iconjar/IJSVG)-->
    <path d="M432,256c-8.8,0 -16,7.2 -16,16c0,8.8 7.2,16 16,16c8.8,0 16,-7.2 16,-16c0,-8.8 -7.2,-16 -16,-16Zm128,-32h-29.5c-11.1,-25.3 -28.7,-46.9 -50.5,-63.4v-64.6h-16c-30.3,0 -57.8,10.1 -80.9,26.2c0.4,-3.4 0.9,-6.7 0.9,-10.2c0,-61.9 -50.1,-112 -112,-112c-61.9,0 -112,50.1 -112,112c0,9.7 1.6,18.9 4,27.9c-49,19.8 -86,63.1 -96.8,116.1h-11.2c-14.8,0 -26.5,-13.5 -23.5,-28.8c2.2,-11.4 12.9,-19.2 24.5,-19.2h1c3.3,0 6,-2.7 6,-6v-20c0,-3.3 -2.7,-6 -6,-6c-28.5,0 -53.9,20.4 -57.5,48.6c-4.4,34.2 22.2,63.4 55.5,63.4h8c0,52.2 25.4,98.1 64,127.3v80.7c0,8.8 7.2,16 16,16h112c8.8,0 16,-7.2 16,-16v-48h64v48c0,8.8 7.2,16 16,16h112c8.8,0 16,-7.2 16,-16v-80.9c11.7,-9 22.4,-19.3 31.3,-31.1h48.7c8.8,0 16,-7.2 16,-16v-128c0,-8.8 -7.2,-16 -16,-16Zm-288,-192c44.2,0 80,35.8 80,80c0,5.5 -0.6,10.8 -1.6,16h-126.4c-10.1,0 -19.9,1.2 -29.5,3c-1.6,-6.1 -2.5,-12.4 -2.5,-19c0,-44.2 35.8,-80 80,-80Zm272,320h-48.7c-17,22.4 -17,24.1 -47.3,47.3v80.7h-80v-64h-128v64h-80v-80.7c-64.9,-49 -64,-93.5 -64,-111.3c0,-70.6 57.4,-128 128,-128h161.7c16.9,-13.5 33.2,-26.5 62.3,-30.8v47.3c39.7,30.1 44,39.3 61.6,79.5h34.4v96Z" fill="#1063EE"></path>
</svg>