<?xml version="1.0" encoding="UTF-8"?>
<svg version="1.1" viewBox="0 0 384 512" xmlns="http://www.w3.org/2000/svg" xmlns:xlink="http://www.w3.org/1999/xlink">
    <!--Generated by IJSVG (https://github.com/iconjar/IJSVG)-->
    <path d="M256,144v-112c0,-17.673 14.327,-32 32,-32c17.673,0 32,14.327 32,32v112h-64Zm112,16h-352c-8.837,0 -16,7.163 -16,16v32c0,8.837 7.163,16 16,16h16v32c0,77.406 54.969,141.971 128,156.796v99.204h64v-99.204c73.031,-14.825 128,-79.39 128,-156.796v-32h16c8.837,0 16,-7.163 16,-16v-32c0,-8.837 -7.163,-16 -16,-16Zm-240,-16v-112c0,-17.673 -14.327,-32 -32,-32c-17.673,0 -32,14.327 -32,32v112h64Z" fill="#1063EE"></path>
</svg>