<?xml version="1.0" encoding="UTF-8"?>
<svg width="23" height="26" version="1.1" viewBox="0 -50.1429 23 26" xmlns="http://www.w3.org/2000/svg" xmlns:xlink="http://www.w3.org/1999/xlink">
    <!--Generated by IJSVG (https://github.com/iconjar/IJSVG)-->
    <path d="M22.5,-26.4844v1.40625c0,0.195313 -0.0683593,0.361328 -0.205078,0.498047c-0.136719,0.136719 -0.302734,0.205078 -0.498047,0.205078h-21.0938c-0.195313,0 -0.361328,-0.0683593 -0.498047,-0.205078c-0.136719,-0.136719 -0.205078,-0.302734 -0.205078,-0.498047v-1.40625c0,-0.195313 0.0683593,-0.361328 0.205078,-0.498047c0.136719,-0.136719 0.302734,-0.205078 0.498047,-0.205078h21.0938c0.195313,0 0.361328,0.0683593 0.498047,0.205078c0.136719,0.136719 0.205078,0.302734 0.205078,0.498047Zm-21.6797,-14.8828l8.4375,-8.4375c0.546875,-0.546875 1.21094,-0.820312 1.99219,-0.820312c0.781253,0 1.44532,0.273437 1.99219,0.820312l8.4375,8.4375c0.546875,0.585937 0.820312,1.25976 0.820312,2.02148c0,0.76172 -0.263672,1.41602 -0.791016,1.96289c-0.527344,0.546875 -1.20117,0.820312 -2.02148,0.820312h-3.04688v4.6875c0,0.781253 -0.273437,1.44532 -0.820312,1.99219c-0.546875,0.546875 -1.21094,0.820312 -1.99219,0.820312h-5.15625c-0.781253,0 -1.44532,-0.273437 -1.99219,-0.820312c-0.546875,-0.546875 -0.820312,-1.21094 -0.820312,-1.99219v-4.6875h-3.04688c-0.820313,0 -1.49414,-0.273437 -2.02148,-0.820312c-0.527344,-0.546875 -0.791016,-1.20117 -0.791016,-1.96289c0,-0.76172 0.273437,-1.43555 0.820312,-2.02148Zm1.99219,1.99219h5.85938v7.5h5.15625v-7.5h5.85938l-8.4375,-8.4375Z" transform="scale(0.990476)" fill="#1063EE"></path>
</svg>