<svg width="214" height="25" viewBox="0 0 214 25" fill="none" xmlns="http://www.w3.org/2000/svg">
<path d="M199.196 24.5472H203.899V15.4671C203.899 14.8561 203.875 14.2612 203.834 13.7427C203.795 13.2221 203.699 12.7073 203.549 12.2073C203.898 11.996 204.276 11.8362 204.67 11.733C205.015 11.6262 205.371 11.5627 205.732 11.5441C206.68 11.5441 207.35 11.8603 207.741 12.4927C208.143 13.1277 208.324 14.201 208.324 15.7083V24.5512H213.039V15.1496C213.048 14.1096 212.952 13.0714 212.754 12.0505C212.59 11.1792 212.235 10.3552 211.713 9.6388C211.182 8.94567 210.477 8.40492 209.671 8.07119C208.626 7.67099 207.513 7.48376 206.395 7.52052C204.697 7.56911 203.05 8.10797 201.652 9.07205C201.099 8.61063 200.474 8.24269 199.803 7.98276C198.865 7.64601 197.872 7.49051 196.877 7.52454C196.266 7.52454 195.643 7.54865 195.008 7.60091C194.372 7.65316 193.757 7.72953 193.159 7.82198C192.56 7.91443 191.989 8.02296 191.45 8.13952C190.912 8.25609 190.441 8.36863 190.043 8.47314V24.5512H194.774V11.6888C195.072 11.6486 195.377 11.6124 195.695 11.5802C195.999 11.5485 196.305 11.5324 196.611 11.532C197.56 11.532 198.23 11.8482 198.621 12.4806C199.023 13.1157 199.208 14.1889 199.208 15.6962L199.196 24.5472ZM181.992 19.6595C181.725 20.0716 181.354 20.4064 180.917 20.6307C180.479 20.8549 179.991 20.9608 179.5 20.9377C179.009 20.9566 178.521 20.849 178.083 20.6252C177.645 20.4014 177.272 20.0688 177 19.6595C176.362 18.6205 176.053 17.4124 176.116 16.1946C176.116 14.7396 176.413 13.598 177 12.762C177.277 12.3594 177.652 12.0337 178.089 11.8151C178.526 11.5965 179.012 11.4922 179.5 11.5119C179.987 11.4904 180.47 11.594 180.905 11.8129C181.34 12.0317 181.712 12.3585 181.984 12.762C182.563 13.598 182.852 14.7396 182.852 16.1946C182.852 17.6497 182.563 18.8033 181.984 19.6595H181.992ZM187.061 12.6213C186.694 11.6037 186.127 10.6701 185.393 9.87595C184.667 9.11134 183.79 8.50746 182.816 8.10335C181.765 7.66911 180.637 7.45172 179.5 7.46424C178.378 7.45204 177.265 7.66669 176.228 8.09531C175.251 8.50303 174.37 9.10941 173.64 9.87595C172.892 10.67 172.311 11.6064 171.931 12.6293C171.509 13.7727 171.301 14.9839 171.316 16.2027C171.303 17.4251 171.506 18.6403 171.915 19.7921C172.284 20.8224 172.854 21.7693 173.592 22.5776C174.316 23.3485 175.195 23.9568 176.172 24.3623C178.327 25.2091 180.722 25.2091 182.877 24.3623C183.854 23.9579 184.734 23.3495 185.457 22.5776C186.193 21.7737 186.753 20.825 187.101 19.7921C187.49 18.636 187.682 17.4225 187.668 16.2027C187.685 14.9852 187.482 13.7748 187.069 12.6293L187.061 12.6213ZM157.413 19.6916C157.719 20.7366 158.263 21.6968 159.001 22.4972C159.739 23.2976 160.653 23.9166 161.67 24.306C162.92 24.7887 164.253 25.0208 165.593 24.9893C166.505 24.9968 167.415 24.9119 168.31 24.7361C169.014 24.6026 169.703 24.4006 170.368 24.1332L169.705 20.2744C169.126 20.5159 168.52 20.686 167.9 20.7809C167.294 20.8813 166.681 20.9337 166.067 20.9377C164.459 20.9377 163.335 20.5263 162.695 19.7037C162.051 18.8998 161.73 17.7221 161.73 16.2268C161.673 15.0038 162.036 13.7981 162.759 12.8102C163.445 11.9473 164.483 11.5146 165.874 11.5119C166.47 11.5061 167.065 11.5695 167.647 11.7008C168.14 11.8192 168.626 11.9682 169.102 12.147L170.083 8.38069C169.389 8.08686 168.669 7.85942 167.932 7.70139C167.131 7.53779 166.314 7.45831 165.496 7.46424C164.255 7.44095 163.023 7.67782 161.879 8.15962C160.865 8.59118 159.952 9.22892 159.197 10.0323C158.443 10.8357 157.864 11.7872 157.497 12.8263C157.103 13.9162 156.904 15.0675 156.911 16.2268C156.901 17.3997 157.066 18.5674 157.401 19.6916H157.413ZM155.218 19.8805C154.647 19.4005 153.925 19.1374 153.178 19.1374C152.432 19.1374 151.71 19.4005 151.139 19.8805C150.853 20.1644 150.626 20.502 150.472 20.8738C150.317 21.2456 150.237 21.6444 150.237 22.0471C150.237 22.4497 150.317 22.8485 150.472 23.2203C150.626 23.5921 150.853 23.9297 151.139 24.2136C151.71 24.6936 152.432 24.9567 153.178 24.9567C153.925 24.9567 154.647 24.6936 155.218 24.2136C155.504 23.9297 155.731 23.5921 155.885 23.2203C156.04 22.8485 156.12 22.4497 156.12 22.0471C156.12 21.6444 156.04 21.2456 155.885 20.8738C155.731 20.502 155.504 20.1644 155.218 19.8805ZM138.039 14.5507C138.104 14.1472 138.205 13.7503 138.34 13.3649C138.468 12.9873 138.667 12.6379 138.927 12.3359C139.188 12.0324 139.512 11.7895 139.876 11.6244C140.303 11.4343 140.767 11.3422 141.234 11.3551C141.709 11.3383 142.181 11.4362 142.609 11.6405C142.962 11.8161 143.274 12.064 143.526 12.3681C143.772 12.6658 143.955 13.0104 144.064 13.381C144.181 13.7608 144.25 14.1537 144.269 14.5507H138.039ZM133.722 19.776C134.048 20.7966 134.597 21.7317 135.33 22.5133C136.103 23.3143 137.043 23.9347 138.083 24.3301C139.331 24.8008 140.657 25.0273 141.99 24.9974C142.582 24.9973 143.174 24.9651 143.763 24.9009C144.35 24.8366 144.904 24.7602 145.423 24.6638C145.898 24.5802 146.368 24.4688 146.83 24.3301C147.177 24.235 147.514 24.1085 147.839 23.9523L147.207 20.1257C146.552 20.3958 145.869 20.5913 145.17 20.7085C144.33 20.8684 143.476 20.9478 142.621 20.9457C141.487 21.0029 140.363 20.705 139.406 20.0936C139.022 19.8327 138.702 19.4901 138.467 19.0905C138.232 18.6908 138.088 18.2441 138.047 17.7823H148.739C148.759 17.5291 148.779 17.2397 148.803 16.9141C148.827 16.5885 148.835 16.2871 148.835 16.0138C148.835 13.2081 148.149 11.0831 146.777 9.6388C145.405 8.19446 143.536 7.4696 141.17 7.46424C140.157 7.46381 139.152 7.65756 138.212 8.03501C137.264 8.41322 136.404 8.98395 135.688 9.71115C134.912 10.5039 134.304 11.4443 133.899 12.4766C133.422 13.7117 133.192 15.0279 133.219 16.3514C133.209 17.511 133.385 18.6647 133.742 19.768L133.722 19.776ZM121.39 17.7582C121.381 18.7471 121.482 19.734 121.692 20.7005C121.86 21.5278 122.222 22.3033 122.749 22.9635C123.285 23.6102 123.977 24.1107 124.758 24.4186C125.78 24.7982 126.865 24.9757 127.954 24.9411C128.814 24.9569 129.674 24.8719 130.514 24.6879C131.16 24.5344 131.795 24.3343 132.412 24.089L131.748 20.4191C131.272 20.5988 130.779 20.7333 130.277 20.8211C129.761 20.9143 129.238 20.9613 128.714 20.9618C127.656 20.9618 126.957 20.6684 126.607 20.0775C126.228 19.3467 126.047 18.5287 126.085 17.706V11.8294H131.748V7.90639H126.081V3.00258L121.37 3.76227L121.39 17.7582ZM118.363 7.90639H113.653V20.7487C113.355 20.793 113.021 20.8291 112.64 20.8613C112.258 20.8934 111.9 20.9095 111.562 20.9095C110.464 20.9095 109.715 20.5719 109.315 19.8966C108.916 19.2213 108.717 18.124 108.717 16.6046V7.90639H104.002V17.1754C103.985 18.2355 104.097 19.2936 104.335 20.3267C104.542 21.2194 104.941 22.0562 105.505 22.7786C106.096 23.4998 106.865 24.054 107.736 24.3864C108.865 24.8 110.063 24.9937 111.265 24.9572C112.599 24.9615 113.93 24.8607 115.248 24.6557C116.293 24.503 117.328 24.2869 118.347 24.0086L118.363 7.90639ZM86.7941 24.5472H91.509V11.6847C91.8064 11.6445 92.1441 11.6084 92.5219 11.5762C92.8997 11.5441 93.2615 11.528 93.5951 11.528C94.6938 11.528 95.4428 11.8442 95.842 12.4766C96.244 13.1117 96.445 14.1849 96.445 15.6922V24.5351H101.156V15.1496C101.166 14.1064 101.05 13.0658 100.81 12.0505C100.603 11.1702 100.203 10.3466 99.6405 9.6388C99.0452 8.93182 98.2765 8.39164 97.4096 8.07119C96.2777 7.67611 95.0829 7.49219 93.8845 7.52856C92.5511 7.5248 91.2193 7.62424 89.9012 7.826C88.8546 7.98031 87.8184 8.19776 86.7981 8.47716L86.7941 24.5472ZM83.2368 1.05713C82.6894 0.577995 81.9867 0.313884 81.2592 0.313884C80.5317 0.313884 79.829 0.577995 79.2816 1.05713C79.0006 1.31504 78.78 1.63176 78.6355 1.98471C78.491 2.33766 78.4261 2.71815 78.4456 3.09905C78.4259 3.47938 78.4907 3.85934 78.6352 4.21168C78.7798 4.56402 79.0005 4.88 79.2816 5.13694C79.8279 5.61849 80.531 5.88418 81.2592 5.88418C81.9874 5.88418 82.6906 5.61849 83.2368 5.13694C83.5186 4.88037 83.7402 4.56456 83.8854 4.21221C84.0307 3.85985 84.0961 3.47969 84.0769 3.09905C84.0955 2.71787 84.0299 2.33728 83.8847 1.98435C83.7395 1.63142 83.5183 1.31484 83.2368 1.05713ZM83.6388 7.89031H78.9199V24.5311H83.6348L83.6388 7.89031ZM62.066 24.5311H66.7769V15.4671C66.7769 14.8561 66.7568 14.2813 66.7166 13.7427C66.675 13.2224 66.5794 12.7078 66.4312 12.2073C66.7799 11.9953 67.1577 11.8355 67.5527 11.733C67.8972 11.6262 68.2536 11.5627 68.6138 11.5441C69.5624 11.5441 70.2324 11.8603 70.6236 12.4927C71.0255 13.1277 71.2104 14.201 71.2104 15.7083V24.5512H75.9213V15.1496C75.9311 14.1097 75.8368 13.0716 75.6399 12.0505C75.4754 11.1789 75.1183 10.3549 74.5949 9.6388C74.0649 8.94485 73.3603 8.40392 72.5529 8.07119C71.51 7.671 70.3975 7.48376 69.2811 7.52052C67.5853 7.57238 65.9402 8.11097 64.5421 9.07205C63.9898 8.6098 63.3651 8.24177 62.6931 7.98276C61.7556 7.64573 60.7625 7.49022 59.7669 7.52454C59.1559 7.52454 58.5329 7.54865 57.9018 7.60091C57.2707 7.65316 56.6517 7.72953 56.0488 7.82198C55.4459 7.91443 54.8791 8.02296 54.3405 8.13952C53.8019 8.25609 53.3356 8.36863 52.9337 8.47314V24.5512H57.6486V11.6888C57.9407 11.6486 58.2462 11.6124 58.565 11.5802C58.8695 11.5488 59.1754 11.5327 59.4815 11.532C60.4301 11.532 61.1 11.8482 61.4912 12.4806C61.8932 13.1157 62.0781 14.1889 62.0781 15.6962L62.066 24.5311ZM39.6653 17.7421C39.656 18.7311 39.7571 19.7179 39.9667 20.6844C40.1371 21.5111 40.4992 22.2863 41.0239 22.9474C41.5604 23.5941 42.2518 24.0946 43.0336 24.4025C44.0549 24.7821 45.1402 24.9596 46.2291 24.925C47.0896 24.9408 47.9489 24.8558 48.7896 24.6718C49.4369 24.5183 50.0723 24.3182 50.6908 24.0729L50.0236 20.4031C49.5468 20.5827 49.0543 20.7173 48.5524 20.805C48.0365 20.8984 47.5132 20.9455 46.9888 20.9457C45.933 20.9457 45.2323 20.6509 44.8866 20.0614C44.5051 19.3313 44.3248 18.5128 44.3641 17.6899V11.8294H50.0236V7.90639H44.3802V3.00258L39.6653 3.76227V17.7421ZM28.3423 20.8935C27.5008 20.7129 26.6754 20.4642 25.8743 20.1498L25.0704 23.9764C26.8946 24.6872 28.8409 25.0314 30.7982 24.9893C33.0545 24.9893 34.7963 24.5686 36.0236 23.7272C37.2509 22.8858 37.8672 21.6438 37.8726 20.0011C37.8841 19.3831 37.8042 18.7668 37.6354 18.1722C37.4782 17.6386 37.2035 17.1469 36.8315 16.7332C36.3661 16.245 35.8228 15.8375 35.2237 15.5274C34.3994 15.0867 33.5436 14.7079 32.6633 14.3939C32.1568 14.205 31.7388 14.0281 31.4132 13.8673C31.1428 13.7402 30.8833 13.591 30.6374 13.4212C30.4745 13.3169 30.3437 13.1694 30.2596 12.9951C30.193 12.8347 30.1602 12.6623 30.1631 12.4886C30.1631 11.6847 30.9027 11.2546 32.3779 11.2546C33.106 11.2484 33.8326 11.3226 34.5444 11.4757C35.1489 11.6137 35.746 11.7827 36.3331 11.9822L37.137 8.31236C36.4179 8.05597 35.6783 7.86099 34.9263 7.72953C33.9658 7.5464 32.9899 7.45621 32.0121 7.46022C29.9889 7.46022 28.3972 7.91309 27.2369 8.81882C26.6724 9.25214 26.2198 9.81432 25.917 10.4584C25.6142 11.1024 25.47 11.8096 25.4965 12.5208C25.4787 13.223 25.5975 13.9219 25.8462 14.5788C26.0681 15.1304 26.402 15.63 26.8269 16.0459C27.2853 16.4835 27.8121 16.8433 28.3865 17.1111C29.0414 17.4305 29.7122 17.7162 30.3963 17.9672C31.1306 18.2259 31.8408 18.5487 32.5186 18.9319C32.7118 19.0213 32.8779 19.1602 33.0001 19.3346C33.1222 19.509 33.196 19.7126 33.2139 19.9247C33.2349 20.1236 33.1945 20.3242 33.0982 20.4995C33.0019 20.6748 32.8544 20.8164 32.6753 20.9055C32.0872 21.1105 31.4641 21.1965 30.8424 21.1587C30.002 21.1558 29.1641 21.0655 28.3423 20.8894V20.8935ZM14.1855 7.54463C13.6469 7.59689 13.1365 7.65718 12.6501 7.73355C12.1637 7.80992 11.7176 7.89031 11.3076 7.98678C10.8976 8.08325 10.5519 8.17168 10.2786 8.25609L10.8815 12.0505C11.5332 11.8199 12.2066 11.6556 12.8913 11.5601C13.6777 11.4439 14.4718 11.3861 15.2668 11.3873C16.4727 11.3873 17.3087 11.6285 17.7951 12.1148C18.0419 12.3696 18.2338 12.6722 18.3589 13.0041C18.484 13.3359 18.5398 13.6899 18.5226 14.0442V14.4863C18.1478 14.3926 17.7661 14.3295 17.3811 14.2974C16.847 14.2418 16.3102 14.215 15.7733 14.217C14.89 14.2138 14.0088 14.304 13.1445 14.4863C12.3466 14.6397 11.5811 14.9293 10.8815 15.3425C10.2306 15.7362 9.69096 16.2896 9.31389 16.9503C8.90443 17.7068 8.7033 18.5585 8.73107 19.4183C8.70483 20.2986 8.87653 21.1736 9.23351 21.9787C9.55641 22.6628 10.0559 23.2483 10.6805 23.675C11.365 24.131 12.1326 24.4479 12.9395 24.6075C13.9018 24.8076 14.8829 24.9032 15.8657 24.8929C17.3265 24.9108 18.7864 24.81 20.2309 24.5914C21.4368 24.3944 22.3733 24.2176 23.0446 24.0729V14.2653C23.056 13.3161 22.9397 12.3698 22.6989 11.4516C22.4815 10.6459 22.0671 9.9069 21.493 9.30116C20.8705 8.67418 20.1049 8.20793 19.2622 7.94256C18.1457 7.59904 16.9813 7.43753 15.8135 7.46424C15.2765 7.46349 14.7399 7.49032 14.2056 7.54463H14.1855ZM14.1735 20.8291C13.918 20.6687 13.7127 20.4397 13.5812 20.1682C13.4497 19.8967 13.3973 19.5936 13.4299 19.2937C13.4177 18.9593 13.5059 18.6289 13.6831 18.3451C13.8583 18.0869 14.0981 17.879 14.3785 17.7421C14.7033 17.5886 15.0508 17.4881 15.4075 17.4447C15.8219 17.3902 16.2395 17.3634 16.6576 17.3643C17.0069 17.3656 17.3558 17.3871 17.7026 17.4286C18.0805 17.4688 18.3658 17.513 18.5548 17.5532V21.1306C18.219 21.1793 17.8809 21.2101 17.5418 21.2231C17.1399 21.2231 16.6776 21.2552 16.2154 21.2552C15.5094 21.2914 14.8061 21.1446 14.1735 20.8291ZM7.34031 20.9698C6.87333 20.9517 6.41271 20.8552 5.9777 20.6844C5.67485 20.565 5.40773 20.3699 5.20193 20.1177C5.0161 19.8645 4.89221 19.5713 4.84017 19.2615C4.77252 18.8862 4.74022 18.5054 4.7437 18.124V0L0.000675573 0.759688V19.0726C-0.00874287 19.8763 0.0803502 20.6782 0.265964 21.4602C0.432584 22.143 0.782876 22.7671 1.27888 23.265C1.84823 23.8029 2.53697 24.1983 3.28864 24.4186C4.37374 24.7252 5.49732 24.8741 6.62484 24.8607L7.34031 20.9698Z" fill="white"/>
</svg>