<svg width="180" height="28" xmlns="http://www.w3.org/2000/svg"><g fill="none"><path d="M22.99 14.272H.38a.385.385 0 00-.377.436l.734 6.117a.383.383 0 00.376.341h21.203a.383.383 0 00.377-.345l.674-6.117a.385.385 0 00-.377-.432zm-18.137-.924h13.699l.848-3.96a.137.137 0 00-.051-.141l-7.497-5.572a.133.133 0 00-.037-.02.355.355 0 00-.226 0 .133.133 0 00-.036.02L4.056 9.247a.137.137 0 00-.052.141l.849 3.96z" fill="#EFEFEF"/><path d="M3.979 13.348L2.97 9.09a.156.156 0 01.058-.161l8.504-6.32a.149.149 0 01.041-.022.402.402 0 01.256 0 .151.151 0 01.042.023l8.503 6.32c.05.036.073.1.058.16l-1.008 4.258h1.6l1.16-4.897a.156.156 0 00-.059-.16L12.69 1.277a1.958 1.958 0 00-1.977 0L1.279 8.29a.156.156 0 00-.059.16l1.16 4.898h1.6zm13.387 8.701l-.21.889a.155.155 0 01-.092.108l-5.301 2.236a.156.156 0 01-.121 0L6.34 23.046a.156.156 0 01-.091-.108l-.21-.889H4.437l.477 2.017a.155.155 0 00.091.107l6.636 2.799a.156.156 0 00.12 0l6.636-2.799a.15.15 0 00.09-.107l.478-2.017h-1.6z" fill="#F15825"/><path d="M16.67 22.049l-.16.554a.137.137 0 01-.08.094l-4.675 1.91a.137.137 0 01-.106 0l-4.675-1.91a.137.137 0 01-.08-.094l-.16-.554h9.937z" fill="#EFEFEF"/><path d="M14.59 19.054l.037.554h-.27c-.372 0-.554-.207-.554-.621v-3.118l.461-.12h.088v3.067c0 .165.057.238.166.238h.073zm1.425.264c-.104.217-.208.264-.461.264h-.27c-.347 0-.517-.202-.517-.627v-.378c0-.388.17-.59.517-.59h.684v-.264c0-.166-.057-.233-.17-.233h-.27c-.114 0-.166.067-.166.233v.046h-.513v-.217c0-.404.171-.617.518-.617h.596c.373 0 .554.208.554.622v2.025h-.461l-.041-.264zm-.223-.29c.119 0 .176-.083.176-.275V18.5h-.564c-.078 0-.13.088-.13.238v.088c0 .166.052.202.13.202h.388zm1.668.332v.222h-.555V15.87l.461-.12h.093v1.373c.12-.14.264-.186.45-.186h.229c.378 0 .559.222.559.652v1.3c0 .461-.192.694-.6.694h-.187c-.249 0-.378-.062-.45-.223zm0-.596c.005.197.077.285.207.285h.269c.14 0 .212-.088.212-.306v-.958c0-.228-.067-.316-.212-.316h-.27c-.124 0-.196.083-.207.254v1.04zm2.216-1.316c-.083 0-.125.063-.125.197v.057c0 .135.047.166.171.207l.466.14c.415.12.513.207.513.642v.306c0 .45-.207.585-.642.585h-.414c-.529 0-.648-.166-.648-.668v-.15h.513v.098c0 .145.041.207.124.207h.43c.083 0 .124-.062.124-.196v-.057c0-.135-.057-.171-.165-.208l-.466-.14c-.492-.14-.518-.274-.518-.699v-.202c0-.445.108-.631.647-.631h.332c.538 0 .642.176.642.694v.16h-.513v-.134c0-.14-.041-.208-.124-.208h-.347zM5.725 11.773l6.452-5.979c.084-.078.153-.052.153.059v4.326a.54.54 0 01-.153.343l-1.35 1.251a.627.627 0 01-.37.142H5.79c-.12 0-.148-.064-.064-.142z" fill="#F15825"/><path d="M23.04 7.836L12.898.331 12.896.33l-.003-.002-.015-.01-.003-.002-.003-.002a2.343 2.343 0 00-2.33-.005.302.302 0 00-.03.02L.364 7.836a.28.28 0 00-.107.285l1.268 5.227h.576L.848 8.195c-.002-.009.003-.021.013-.029L10.823.793a1.783 1.783 0 011.756-.001l9.964 7.374c.01.008.015.02.012.032l-1.194 5.15h.576l1.208-5.224a.281.281 0 00-.106-.288zm-3.717 14.213l-.53 2.261a.03.03 0 01-.016.02l-7.061 3.076a.033.033 0 01-.014.003.03.03 0 01-.013-.003L4.67 24.33a.03.03 0 01-.017-.021l-.525-2.259H3.55l.588 2.528c.02.09.079.162.16.199l7.29 3.2a.277.277 0 00.23 0l7.332-3.2a.282.282 0 00.159-.196l.592-2.531h-.578z" fill="#EFEFEF"/><path d="M7.936 15.869v1.279c-.093-.16-.192-.212-.414-.212h-.228c-.404 0-.596.248-.596.735v1.259c0 .43.176.652.554.652h.228c.29 0 .425-.098.492-.3l.052.3h.46V15.75h-.087l-.461.119zm0 2.91c-.015.187-.088.27-.212.27H7.46c-.145 0-.213-.088-.213-.306v-.968c0-.218.068-.306.207-.306h.27c.134 0 .202.093.212.28v1.03zm-4.428-2.874l-.968 3.677h.627l.15-.652h.979l.15.652h.621l-.963-3.677h-.596zm-.051 2.429l.352-1.512.347 1.512h-.7zm2.967-1.455l-.435.155c-.114.042-.181.13-.233.244v-.311h-.083l-.43.119v2.496h.554V17.92c0-.197.057-.28.213-.332l.492-.165-.042-.544h-.036zm3.578.057h-.595c-.347 0-.518.212-.518.616v.217h.513v-.046c0-.166.051-.233.165-.233h.27c.114 0 .17.067.17.233v.264h-.683c-.347 0-.518.202-.518.59v.379c0 .424.171.626.518.626h.27c.253 0 .357-.046.46-.264l.042.264h.46v-2.025c0-.414-.18-.621-.554-.621zm.005 1.817c0 .192-.057.275-.176.275h-.388c-.078 0-.13-.036-.13-.202v-.088c0-.15.052-.238.13-.238h.564v.253zM12.13 16.936h-.222c-.233 0-.362.062-.456.243v-.212h-.083l-.43.119v2.496h.555v-1.88c.005-.155.083-.254.207-.254h.228c.145 0 .207.088.207.306v1.828h.554v-1.999c0-.43-.181-.647-.56-.647zm2.273-5.164a.631.631 0 00.372.143h2.005c.12 0 .148-.064.064-.143l-3.806-3.529c-.084-.078-.153-.052-.153.06v1.859c0 .111.069.266.153.345l1.365 1.265z" fill="#35495C"/></g></svg>