<svg width="180" height="28" xmlns="http://www.w3.org/2000/svg"><path d="M52.969 9.535c.49 0 .966.07 1.428.21.448.154.686.35.686.588a.604.604 0 01-.126.364.361.361 0 01-.308.196 4.368 4.368 0 01-.546-.21 2.546 2.546 0 00-1.12-.224 2.164 2.164 0 00-1.176.294c-.308.21-.476.573-.448.951-.014.35.126.686.392.91a3 3 0 00.994.546c.392.14.784.294 1.176.476.392.196.728.49.98.854.28.448.42.966.406 1.498 0 .825-.238 1.455-.728 1.875a2.72 2.72 0 01-1.918.63 3.53 3.53 0 01-1.806-.448c-.503-.336-.755-.63-.755-.924 0-.14.056-.266.14-.377a.414.414 0 01.293-.182c.112.014.21.07.28.154.112.097.224.21.35.335.168.154.364.266.574.336.28.112.588.154.882.154.448.028.882-.112 1.232-.378a1.4 1.4 0 00.448-1.12 1.465 1.465 0 00-.406-1.077c-.28-.28-.616-.49-.994-.63a25.41 25.41 0 01-1.176-.462 2.514 2.514 0 01-.994-.756 2.016 2.016 0 01-.405-1.316c-.014-.378.07-.755.237-1.105.14-.294.364-.532.644-.7.266-.154.546-.266.84-.35.308-.07.616-.112.924-.112zm-7.167.658c.476.42.714 1.091.714 1.987v3.626c0 .91-.238 1.567-.714 1.987a3.108 3.108 0 01-3.779 0c-.462-.42-.7-1.077-.7-1.987V12.18c0-.91.238-1.567.7-1.987a3.15 3.15 0 013.78 0zm34.588-.63c.336 0 .546.112.616.35l2.478 7.978v.07a.34.34 0 01-.196.294.694.694 0 01-.448.112.35.35 0 01-.364-.224l-.532-1.763H78.78l-.531 1.763c-.042.154-.21.252-.364.238a.73.73 0 01-.406-.126.322.322 0 01-.196-.308.26.26 0 01.028-.098l2.463-7.936c.07-.238.28-.35.616-.35zm-12.486 0c.322 0 .588.21.812.644l1.89 3.625 1.904-3.625c.237-.42.503-.644.811-.644a.441.441 0 01.504.364.194.194 0 010 .126v7.936a.3.3 0 01-.154.266.721.721 0 01-.714 0 .3.3 0 01-.154-.266v-6.313l-1.82 3.416a.42.42 0 01-.391.294.437.437 0 01-.378-.294l-1.82-3.486v6.383a.3.3 0 01-.154.266.603.603 0 01-.336.112.601.601 0 01-.35-.098.256.256 0 01-.168-.266v-7.936a.441.441 0 01.364-.504.286.286 0 01.154 0zm19.569-.014c.154 0 .308.056.434.154.14.14.266.308.336.49l3.01 5.879V9.899c0-.112.055-.21.153-.252a.721.721 0 01.714 0 .295.295 0 01.154.252v8.104a.3.3 0 01-.154.266.632.632 0 01-.35.098.713.713 0 01-.63-.462l-3.163-6.06v6.158c0 .112-.056.21-.14.266a.721.721 0 01-.714 0 .3.3 0 01-.154-.266V9.9c0-.238.168-.35.504-.35zm-54.52 0h2.281a2.736 2.736 0 011.862.63c.462.42.7 1.077.7 1.973v.112c0 .896-.238 1.568-.714 1.988a2.738 2.738 0 01-1.89.63H33.57v3.121a.3.3 0 01-.154.266.721.721 0 01-.714 0 .3.3 0 01-.154-.266V9.9a.35.35 0 01.112-.252.378.378 0 01.294-.098zm30.626 0c.112 0 .21.042.266.14.07.084.098.196.098.308a.587.587 0 01-.098.336c-.056.098-.154.14-.266.14h-1.918v7.53a.3.3 0 01-.153.266.721.721 0 01-.714 0 .3.3 0 01-.154-.266v-7.53h-1.946c-.112 0-.21-.042-.266-.14a.57.57 0 01-.112-.336c0-.112.028-.224.098-.308.056-.098.154-.14.266-.14h4.9zm-19.652.91c-1.05 0-1.568.56-1.568 1.707l-.014 3.64c0 1.133.518 1.707 1.582 1.707.434.028.854-.126 1.175-.42.308-.35.448-.811.42-1.287v-3.64a1.752 1.752 0 00-.42-1.287 1.588 1.588 0 00-1.175-.42zm36.463.574l-1.358 4.507h2.702l-1.344-4.507zm-45.198-.56H33.57l-.014 3.569h1.637c.434.028.868-.126 1.176-.434.308-.35.462-.812.42-1.288v-.14a1.752 1.752 0 00-.42-1.287 1.588 1.588 0 00-1.176-.42zM.115 12.208C1.095 4.552 8.135-.865 15.792.115c7.656.98 13.073 7.992 12.094 15.663-.994 7.67-8.007 13.087-15.678 12.108C4.552 26.892-.865 19.865.115 12.208zm6.788 8.399l-1.106 1.106c-.042.028-.042.098 0 .126.014.014.028.028.056.028l2.478.168-1.428-1.428zm6.705-5.053l-2.114.474L7.1 20.411l1.442 1.428c.042.07.126.098.196.056s.098-.126.056-.196l-.238-1.008a.255.255 0 01.14-.294c2.478-1.246 4.48-2.534 5.949-3.807l-1.036-1.036zm5.87-5.12l-.02.028a1.02 1.02 0 01-.083.095l-.042.042-5.482 4.81.66.66.265.261.064.064c2.275-2.167 4.485-4.386 4.639-5.96zm-6.696 4.294l-.756.756c-.028.028-.028.056-.014.084.014.028.042.042.084.042l1.288-.28-.602-.602zm5.445-5.445c-.014.014-.028.028-.056.042l-5.179 5.193.686.686 5.487-4.815c.308-.252.336-.714.084-1.022-.252-.308-.714-.336-1.022-.084zm-6.76 4.143l-1.372 1.372c-.028.028-.042.07-.014.112.014.042.056.056.098.042l2.31-.504-1.023-1.022zm7.199-4.576c-.956-.784-1.873-.736-6.99 4.38l1.098 1.099 5.187-5.186a.992.992 0 01.705-.293zm1.94-3.612a2.106 2.106 0 00-2.113 2.127c0 1.176.952 2.128 2.128 2.114.322 0 .644-.07.938-.224l-1.47-1.456a.127.127 0 01-.042-.098c0-.042.014-.07.042-.098l1.876-1.876a2.074 2.074 0 00-1.358-.49zm1.569.685l-1.792 1.778 1.414 1.414c.112-.07.224-.168.308-.252.797-.798.84-2.1.07-2.94zm-.154 1.078c.084-.028.182.014.21.098.14.28.098.616-.112.882a.158.158 0 01-.224.028.17.17 0 01-.014-.224.522.522 0 00.056-.532l-.014-.042c-.028-.084.014-.182.098-.21z" fill="#FFF"/></svg>