<svg xmlns="http://www.w3.org/2000/svg" fill="none" viewBox="0 0 151 20" height="20" width="151">
<g clip-path="url(#clip0_638_2586)">
<path fill="#ffffff" d="M14.0262 12.1042C15.9346 12.1175 17.3931 12.4166 19.4788 13.1921C18.9839 14.6717 18.1501 15.9926 17.0728 17.0725C15.2623 18.8803 12.7636 20 10.0003 20C6.43751 20 3.30887 18.1365 1.53809 15.3308C3.47827 14.1768 7.89331 12.0513 14.0262 12.1042Z"></path>
<path fill="#ffffff" d="M20 10C20 10.4368 19.9709 10.8682 19.918 11.2891C19.0763 11.0455 17.864 10.5585 16.207 9.60828C15.2991 9.08684 14.4045 8.11807 13.5389 6.85549C13.3616 6.59874 12.9937 6.56433 12.774 6.78667L12.4749 7.08577C12.4219 7.13607 12.4061 7.21547 12.4325 7.28429L12.9698 8.67127C13.0175 8.79832 12.8507 8.89361 12.766 8.78774L11.4929 7.1943C11.2123 6.86873 10.9582 6.5458 10.7306 6.24141L10.7253 6.23347C10.3732 5.75967 10.09 5.33087 9.88885 5.0106C9.70621 4.71414 9.29594 4.67973 9.06037 4.93384C5.72262 8.5151 1.34728 12.5887 0.563791 13.3139C0.198518 12.279 0 11.162 0 10C0 7.23929 1.11964 4.73797 2.93013 2.93013C4.73797 1.11964 7.23929 0 10 0C12.7607 0 15.2621 1.11964 17.0726 2.93013C18.8804 4.73797 20 7.23929 20 10Z"></path>
<path fill="#ffffff" d="M59.6553 15.3341V4.78137H61.8699V15.3341H59.6553Z"></path>
<path fill="#ffffff" d="M69.668 15.3341V4.78137H76.6717C77.8006 4.78137 78.6847 5.03548 79.3228 5.54342C79.961 6.05136 80.2805 6.75305 80.2805 7.64744C80.2805 8.21203 80.1479 8.69403 79.8832 9.09345C79.6182 9.49313 79.2469 9.77529 78.7694 9.9402V10.0053C79.2469 10.0053 79.6182 10.1337 79.8832 10.3896C80.1481 10.6459 80.2805 11.0302 80.2805 11.5426V15.3338H78.0658V11.3211H71.8697V15.3338L69.668 15.3341ZM71.8697 9.40631H76.5285C77.0322 9.40631 77.4208 9.28906 77.6945 9.05454C77.9681 8.82002 78.1047 8.48572 78.1047 8.05136C78.1047 7.617 77.9679 7.2827 77.6945 7.04818C77.4208 6.81367 77.0322 6.69641 76.5285 6.69641H71.8697V9.40631Z"></path>
<path fill="#ffffff" d="M94.0033 15.5295C93.9575 15.5295 91.5922 15.5302 91.547 15.5295C90.5268 15.5112 89.6322 15.287 88.863 14.8585C88.0596 14.4111 87.4366 13.7772 86.9935 12.9564C86.5507 12.1356 86.3291 11.1782 86.3291 10.0837C86.3291 8.972 86.5507 8.00799 86.9935 7.19142C87.4366 6.37512 88.0596 5.7433 88.863 5.29597C89.6285 4.86982 90.5181 4.64669 91.5321 4.62657C91.5822 4.62551 93.9525 4.62657 94.0033 4.62657C94.8717 4.62657 95.6425 4.7748 96.3156 5.07443C96.9887 5.37406 97.5403 5.80206 97.9702 6.35765C98.4001 6.9135 98.6714 7.57814 98.7844 8.35103H96.4914C96.3956 7.78645 96.1266 7.35024 95.6835 7.04161C95.2407 6.73351 94.6804 6.5829 94.003 6.5829C93.9419 6.5829 91.5618 6.58052 91.5025 6.5829C90.6147 6.61916 89.9064 6.9262 89.3773 7.50429C88.8127 8.12102 88.5305 8.981 88.5305 10.084C88.5305 11.1785 88.8127 12.0361 89.3773 12.657C89.9122 13.2454 90.6303 13.5578 91.5319 13.5885C91.5819 13.5901 93.9522 13.5885 94.003 13.5885C94.6804 13.5885 95.2407 13.432 95.6835 13.1194C96.1266 12.8068 96.3956 12.3682 96.4914 11.8037H98.7844C98.6714 12.5768 98.4001 13.2433 97.9702 13.8034C97.5403 14.3635 96.9885 14.7915 96.3156 15.0866C95.6425 15.3818 94.8715 15.5295 94.0033 15.5295Z"></path>
<path fill="#ffffff" d="M45.1763 6.5829C44.2885 6.61916 43.5802 6.9262 43.0511 7.50429C42.4865 8.12102 42.2044 8.981 42.2044 10.084C42.2044 11.1785 42.4865 12.0361 43.0511 12.657C43.5861 13.2454 44.3042 13.5578 45.2057 13.5885C45.2557 13.5901 47.626 13.5885 47.6768 13.5885C48.3542 13.5885 48.9145 13.432 49.3574 13.1194C49.8005 12.8068 50.0694 12.3682 50.1652 11.8037H52.4582C52.3452 12.5768 52.0739 13.2433 51.644 13.8034C51.2142 14.3635 50.6623 14.7915 49.9894 15.0866C49.3163 15.3818 48.5453 15.5295 47.6771 15.5295C47.6313 15.5295 45.266 15.5302 45.2208 15.5295C44.2007 15.5112 43.306 15.287 42.5368 14.8585C41.7335 14.4111 41.1104 13.7772 40.6673 12.9564C40.2245 12.1356 40.0029 11.1782 40.0029 10.0837C40.0029 8.972 40.2245 8.00799 40.6673 7.19142C41.1104 6.37512 41.7335 5.7433 42.5368 5.29597C43.3023 4.86982 44.1919 4.64669 45.206 4.62657C45.256 4.62551 47.6263 4.62657 47.6771 4.62657C48.5456 4.62657 49.3163 4.7748 49.9894 5.07443C50.6626 5.37406 51.2142 5.80206 51.644 6.35765C52.0739 6.9135 52.3452 7.57814 52.4582 8.35103H50.1652C50.0694 7.78645 49.8005 7.35024 49.3574 7.04161C48.9145 6.73351 48.3542 6.5829 47.6768 6.5829H45.1763Z"></path>
<path fill="#ffffff" d="M114.79 15.3341H105.346V4.78137H114.79V6.70964H107.547V9.01034H114.017V10.8865H107.547V13.4063H114.79V15.3341Z"></path>
<path fill="#ffffff" d="M127.729 15.4905C127.686 15.4905 126.29 15.4902 126.247 15.4897C125.355 15.477 124.573 15.3317 123.901 15.0543C123.198 14.7634 122.655 14.3161 122.273 13.7123C121.89 13.1088 121.699 12.3378 121.699 11.3997V4.78137H123.953V11.0868C123.953 11.8251 124.151 12.4005 124.546 12.8132C124.922 13.2062 125.513 13.4119 126.319 13.4307C126.359 13.4317 127.688 13.432 127.729 13.432C128.615 13.432 129.251 13.215 129.638 12.7806C130.024 12.3462 130.217 11.7862 130.217 11.1001V4.78137H132.419V11.4256C132.419 12.7806 131.998 13.7967 131.155 14.4741C130.313 15.1514 129.214 15.4902 127.729 15.4902L127.729 15.4905Z"></path>
<path fill="#ffffff" d="M146.112 15.3326C146.012 15.3326 143.254 15.3358 143.157 15.3326C141.878 15.2921 140.847 14.9832 140.064 14.4057C139.221 13.7847 138.761 12.9226 138.683 11.8196H140.949C141.028 12.3929 141.286 12.8249 141.725 13.1158C142.114 13.3744 142.636 13.5181 143.29 13.5467C143.372 13.5504 146.117 13.5467 146.203 13.5467C146.889 13.5467 147.406 13.4414 147.753 13.2198C148.1 12.9983 148.274 12.6706 148.274 12.2362C148.274 11.8974 148.164 11.6285 147.942 11.4284C147.794 11.2953 147.586 11.1833 147.317 11.0925C147.085 11.0142 146.842 10.9702 146.598 10.9493L142.516 10.5708C142.008 10.5274 141.506 10.4226 141.031 10.237C140.534 10.0428 140.133 9.79474 139.829 9.49352C139.343 9.01152 139.1 8.3842 139.1 7.61104C139.1 6.62957 139.471 5.86091 140.214 5.30505C140.956 4.7492 141.966 4.47128 143.243 4.47128C143.319 4.47128 146.056 4.46916 146.13 4.47128C147.32 4.50357 148.286 4.79685 149.03 5.34423C149.82 5.92628 150.263 6.73809 150.359 7.78044H148.092C147.858 6.79553 147.177 6.26032 146.049 6.19097C145.964 6.18568 143.216 6.19097 143.125 6.19097C142.503 6.19097 142.025 6.30982 141.691 6.54778C141.416 6.74391 141.26 7.07107 141.262 7.40935C141.265 7.89823 141.555 8.24498 142.133 8.44905C142.34 8.52211 142.558 8.5626 142.776 8.58219L147.025 8.99087C147.498 9.03296 147.966 9.12613 148.412 9.2868C148.973 9.48849 149.411 9.75292 149.727 10.0801C150.2 10.5708 150.437 11.2331 150.437 12.0668C150.437 13.1005 150.061 13.9038 149.31 14.4771C148.559 15.0504 147.493 15.3323 146.112 15.3323V15.3326Z"></path>
</g>
<defs>
<clipPath id="clip0_638_2586">
<rect fill="white" height="20" width="150.437"></rect>
</clipPath>
</defs>
</svg>
