<svg xmlns="http://www.w3.org/2000/svg" fill="none" viewBox="0 0 190 43" height="43" width="190">
<g clip-path="url(#clip0_4379_33253)" id="SC_Logo">
<g id="Icon">
<path fill="#F1F8F4" d="M21.134 0.5C16.9541 0.5 12.8681 1.74408 9.39259 4.07492C5.91712 6.40576 3.20832 9.71867 1.60874 13.5947C0.00915703 17.4708 -0.409367 21.7358 0.406094 25.8506C1.22155 29.9654 3.23437 33.7451 6.19002 36.7117C9.14566 39.6783 12.9114 41.6986 17.011 42.517C21.1106 43.3355 25.3599 42.9154 29.2217 41.3099C33.0834 39.7044 36.3841 36.9856 38.7063 33.4972C41.0285 30.0089 42.268 25.9077 42.268 21.7123C42.268 16.0865 40.0414 10.691 36.078 6.71294C32.1146 2.73486 26.7391 0.5 21.134 0.5ZM25.5193 31.12C23.7995 32.8461 21.4971 33.862 19.0672 33.9671C16.6373 34.0721 14.2565 33.2587 12.3951 31.6874L16.1517 27.9169L26.0899 17.9418C27.6562 19.8111 28.4667 22.2022 28.361 24.6424C28.2554 27.0826 27.2413 29.3941 25.5193 31.12ZM26.1111 15.5183L16.1781 25.4881C14.6179 23.6171 13.8113 21.2281 13.9169 18.7906C14.0225 16.353 15.0326 14.0433 16.7487 12.3153C18.4685 10.5895 20.7703 9.57335 23.1999 9.46733C25.6294 9.3613 28.0104 10.1731 29.8729 11.7425L26.1111 15.5183Z" id="Vector"></path>
</g>
<g id="Word Mark">
<path fill="#F1F8F4" d="M53.6646 15.8773C53.6451 14.8129 53.9492 13.7677 54.5363 12.8811C55.1403 11.9958 55.9758 11.2948 56.9509 10.8553C58.0761 10.3475 59.2997 10.0975 60.5331 10.1235C61.701 10.0945 62.8604 10.3301 63.9251 10.8129C64.8455 11.2374 65.625 11.9185 66.1706 12.775C66.7279 13.6845 67.0258 14.7301 67.0318 15.7978H63.6504C63.6504 15.4274 63.5701 15.0614 63.415 14.7253C63.2599 14.3892 63.0337 14.091 62.7522 13.8515C62.1027 13.3524 61.2971 13.1023 60.4803 13.1462C59.5928 13.1007 58.715 13.3485 57.9812 13.8515C57.6828 14.0713 57.4429 14.3614 57.2826 14.6961C57.1223 15.0309 57.0465 15.4001 57.0619 15.7713C57.0198 16.3639 57.2093 16.9498 57.5902 17.4046C58.0901 17.8633 58.7093 18.1704 59.376 18.2902L62.414 18.9796C63.8001 19.1985 65.0886 19.8304 66.1125 20.7933C66.9548 21.7427 67.3913 22.9865 67.3277 24.2562C67.3579 25.362 67.0549 26.4513 66.4581 27.3814C65.8614 28.3116 64.9988 29.0392 63.9832 29.4691C62.8106 29.9733 61.5444 30.221 60.2689 30.1956C59.0438 30.2224 57.8274 29.9836 56.7026 29.4956C55.7406 29.0793 54.9122 28.4039 54.3092 27.5441C53.7238 26.6546 53.4082 25.6138 53.4004 24.5479H56.7818C56.7776 24.9224 56.8627 25.2926 57.0299 25.6275C57.1972 25.9623 57.4418 26.2522 57.7434 26.4729C58.4964 26.9767 59.3917 27.2223 60.2954 27.1729C61.2389 27.2227 62.1746 26.9782 62.9741 26.4729C63.2841 26.2708 63.5378 25.993 63.7116 25.6656C63.8853 25.3382 63.9733 24.9718 63.9674 24.6009C63.9938 24.0232 63.8055 23.4562 63.439 23.01C62.9715 22.5524 62.3692 22.2585 61.7219 22.1721L58.6469 21.4456C57.2459 21.2051 55.9537 20.5344 54.9485 19.5258C54.069 18.5206 53.6092 17.2139 53.6646 15.8773Z" id="Vector_2"></path>
<path fill="#F1F8F4" d="M72.7054 29.9267H69.4824V10.1992H72.7318V18.5304C73.1552 17.8794 73.7444 17.3539 74.4383 17.0084C75.2171 16.6052 76.0824 16.3994 76.9586 16.4091C78.5577 16.4091 79.7782 16.8952 80.62 17.8675C81.5058 18.9961 81.951 20.4102 81.8722 21.8448V29.9055H78.6493V22.6349C78.6712 22.0071 78.5539 21.3822 78.3059 20.8054C78.1038 20.3629 77.772 19.9929 77.3548 19.7448C76.9202 19.4981 76.4275 19.3736 75.9283 19.3842C75.323 19.368 74.725 19.5204 74.2006 19.8243C73.7219 20.1087 73.3363 20.527 73.0911 21.0281C72.8264 21.5726 72.6942 22.1724 72.7054 22.7781V29.9267Z" id="Vector_3"></path>
<path fill="#F1F8F4" d="M83.4801 23.3002C83.4541 22.0444 83.7643 20.8045 84.3783 19.71C84.9651 18.6845 85.825 17.8435 86.8615 17.2812C87.9753 16.7062 89.2097 16.4062 90.4622 16.4062C91.7147 16.4062 92.9491 16.7062 94.0629 17.2812C95.0921 17.8479 95.9458 18.6882 96.5303 19.71C97.1443 20.8045 97.4544 22.0444 97.4285 23.3002C97.4544 24.556 97.1443 25.7958 96.5303 26.8904C95.9396 27.9061 95.0801 28.7376 94.0471 29.2927C92.9333 29.8677 91.6988 30.1676 90.4464 30.1676C89.1939 30.1676 87.9594 29.8677 86.8456 29.2927C85.8091 28.7304 84.9492 27.8893 84.3624 26.8639C83.7585 25.7756 83.454 24.5456 83.4801 23.3002ZM86.703 23.3002C86.6864 24.0187 86.8499 24.7298 87.1785 25.3684C87.483 25.9488 87.9398 26.4348 88.4994 26.7737C89.0846 27.1267 89.7557 27.3103 90.4384 27.304C91.126 27.3091 91.8019 27.1257 92.3933 26.7737C92.9564 26.4392 93.4142 25.9521 93.7142 25.3684C94.0274 24.712 94.1899 23.9935 94.1899 23.2657C94.1899 22.5379 94.0274 21.8194 93.7142 21.163C93.4107 20.586 92.9534 20.105 92.3933 19.7736C91.8019 19.4216 91.126 19.2382 90.4384 19.2433C89.7557 19.2371 89.0846 19.4206 88.4994 19.7736C87.9408 20.1138 87.4843 20.5994 87.1785 21.179C86.8341 21.8314 86.663 22.562 86.6819 23.3002H86.703Z" id="Vector_4"></path>
<path fill="#F1F8F4" d="M98.9922 35.9227V16.7521H101.972L102.183 18.7407C102.577 17.9749 103.208 17.3573 103.98 16.9801C104.806 16.5583 105.721 16.3436 106.648 16.3544C107.79 16.3194 108.917 16.6139 109.897 17.2028C110.809 17.7856 111.541 18.612 112.011 19.5892C112.546 20.7043 112.809 21.9314 112.777 23.1688C112.8 24.4169 112.556 25.6554 112.064 26.8014C111.617 27.8496 110.862 28.736 109.9 29.3424C108.938 29.9488 107.814 30.2464 106.68 30.1954C105.771 30.2124 104.87 30.0315 104.038 29.6651C103.298 29.3424 102.669 28.8073 102.231 28.1272V35.9227H98.9922ZM102.242 23.3014C102.226 24.0167 102.38 24.7255 102.691 25.3696C102.976 25.9544 103.419 26.4469 103.969 26.7908C104.564 27.1282 105.236 27.3055 105.919 27.3055C106.602 27.3055 107.274 27.1282 107.868 26.7908C108.411 26.4481 108.842 25.9542 109.11 25.3696C109.389 24.716 109.533 24.0124 109.533 23.3014C109.533 22.5904 109.389 21.8868 109.11 21.2332C108.842 20.65 108.411 20.1579 107.868 19.8173C107.281 19.4563 106.602 19.2722 105.914 19.287C105.232 19.2717 104.559 19.4461 103.969 19.7907C103.417 20.1258 102.973 20.6138 102.691 21.1961C102.377 21.8523 102.223 22.5738 102.242 23.3014Z" id="Vector_5"></path>
<path fill="#F1F8F4" d="M130.503 30.197C128.788 30.2414 127.093 29.8161 125.6 28.9667C124.218 28.1402 123.1 26.9352 122.377 25.4932C121.576 23.8434 121.183 22.0245 121.23 20.1901C121.183 18.3527 121.586 16.5318 122.403 14.887C123.152 13.4254 124.304 12.2106 125.721 11.387C127.105 10.6421 128.638 10.2195 130.207 10.1506C131.775 10.0818 133.339 10.3684 134.783 10.9892C135.962 11.5274 136.995 12.3422 137.794 13.365C138.603 14.4176 139.122 15.6647 139.3 16.9817H135.734C135.445 15.904 134.784 14.9643 133.868 14.3302C132.92 13.7398 131.831 13.4168 130.715 13.3954C129.599 13.3739 128.498 13.6547 127.528 14.2082C126.643 14.7718 125.942 15.5828 125.51 16.5416C125.009 17.6756 124.765 18.9074 124.797 20.1477C124.771 21.3652 125.014 22.5733 125.51 23.6848C125.939 24.6519 126.641 25.4721 127.528 26.0447C128.444 26.6146 129.505 26.9057 130.582 26.8826C131.783 26.9171 132.966 26.5841 133.974 25.928C134.893 25.3271 135.564 24.4139 135.866 23.356H139.379C139.155 24.6547 138.61 25.8763 137.794 26.9091C136.967 27.9392 135.907 28.7571 134.703 29.2955C133.386 29.9005 131.952 30.2083 130.503 30.197Z" id="Vector_6"></path>
<path fill="#F1F8F4" d="M143.426 14.1275C143.168 14.131 142.912 14.0827 142.674 13.9854C142.435 13.888 142.218 13.7436 142.036 13.5607C141.853 13.3778 141.71 13.1601 141.613 12.9204C141.516 12.6807 141.468 12.424 141.471 12.1653C141.466 11.9089 141.513 11.6541 141.611 11.4168C141.708 11.1796 141.853 10.965 142.036 10.7865C142.411 10.4295 142.907 10.2305 143.423 10.2305C143.94 10.2305 144.436 10.4295 144.81 10.7865C144.996 10.964 145.142 11.1782 145.24 11.4156C145.338 11.653 145.386 11.9083 145.381 12.1653C145.383 12.4236 145.334 12.6797 145.236 12.9187C145.139 13.1577 144.995 13.3749 144.813 13.5575C144.631 13.7401 144.415 13.8846 144.177 13.9824C143.938 14.0803 143.683 14.1296 143.426 14.1275ZM141.841 29.8511V16.7525H145.064V29.8511H141.841Z" id="Vector_7"></path>
<path fill="#F1F8F4" d="M155.684 16.698V19.6942H154.495C153.481 19.6357 152.485 19.9784 151.721 20.6488C151.048 21.2745 150.714 22.2238 150.717 23.4965V29.8602H147.494V16.7775H150.532L150.796 19.4821H150.479C150.632 18.6506 151.072 17.8997 151.721 17.3608C152.441 16.7902 153.341 16.4984 154.257 16.5389C154.484 16.5389 154.711 16.5389 154.944 16.5654C155.194 16.587 155.442 16.6313 155.684 16.698Z" id="Vector_8"></path>
<path fill="#F1F8F4" d="M156.74 23.3004C156.716 22.0566 157.001 20.8264 157.569 19.7208C158.095 18.7067 158.891 17.8587 159.867 17.2708C160.891 16.6546 162.066 16.3369 163.26 16.3533C164.834 16.2884 166.381 16.7822 167.629 17.748C168.192 18.208 168.656 18.7771 168.995 19.4213C169.333 20.0655 169.539 20.7715 169.6 21.4973H166.377C166.234 20.829 165.86 20.2333 165.32 19.8162C164.753 19.4181 164.072 19.2169 163.381 19.2435C162.751 19.2327 162.131 19.4038 161.595 19.7367C161.068 20.0713 160.651 20.5546 160.396 21.1261C160.097 21.8013 159.952 22.5352 159.973 23.2738C159.959 24.0007 160.094 24.7227 160.369 25.3951C160.606 25.9633 161.005 26.4485 161.516 26.7898C162.051 27.1233 162.672 27.2929 163.302 27.2777C164.019 27.3043 164.727 27.0999 165.32 26.6943C165.864 26.2858 166.24 25.6916 166.377 25.0239H169.626C169.51 25.9979 169.146 26.9256 168.569 27.7178C167.994 28.4907 167.237 29.1084 166.366 29.5156C165.407 29.9632 164.359 30.1863 163.302 30.1679C162.092 30.1965 160.898 29.8999 159.841 29.3088C158.864 28.7406 158.07 27.9032 157.553 26.8959C157.001 25.7793 156.722 24.5467 156.74 23.3004Z" id="Vector_9"></path>
<path fill="#F1F8F4" d="M174.943 29.8524H171.746V10.125H174.943V29.8524Z" id="Vector_10"></path>
<path fill="#F1F8F4" d="M183.659 30.195C182.459 30.2173 181.275 29.9112 180.235 29.3094C179.248 28.7252 178.44 27.8794 177.9 26.8647C177.32 25.7684 177.029 24.5418 177.055 23.301C177.027 22.0496 177.309 20.8109 177.873 19.6949C178.392 18.6771 179.187 17.8276 180.167 17.2449C181.19 16.6404 182.36 16.3321 183.548 16.354C184.738 16.3219 185.915 16.6112 186.956 17.1919C187.893 17.7378 188.654 18.5421 189.148 19.5093C189.694 20.6121 189.962 21.8318 189.93 23.0624V24.0434L178.729 24.07L178.782 22.0017H186.707C186.725 21.5988 186.658 21.1967 186.509 20.8219C186.361 20.4472 186.135 20.1082 185.846 19.8275C185.215 19.2581 184.385 18.9626 183.537 19.0055C182.866 18.9832 182.202 19.1485 181.619 19.4828C181.085 19.8208 180.674 20.323 180.447 20.9146C180.163 21.6588 180.029 22.4516 180.05 23.248C180.05 24.6639 180.351 25.7298 180.959 26.4563C181.302 26.8269 181.724 27.1148 182.193 27.2985C182.663 27.4822 183.167 27.5568 183.669 27.517C184.429 27.5373 185.18 27.3543 185.846 26.9866C186.119 26.8351 186.359 26.6304 186.553 26.3845C186.746 26.1387 186.888 25.8566 186.972 25.5548H189.957C189.719 26.9118 188.96 28.1209 187.843 28.9223C186.618 29.7807 185.153 30.2264 183.659 30.195Z" id="Vector_11"></path>
</g>
</g>
<defs>
<clipPath id="clip0_4379_33253">
<rect transform="translate(0 0.5)" fill="white" height="42.4246" width="190"></rect>
</clipPath>
</defs>
</svg>
