<svg width="180" height="28" xmlns="http://www.w3.org/2000/svg"><g fill="#FFF"><path d="M45.919 16.644c-.996-.633-2.267-.934-3.388-1.202-1.67-.398-2.684-.694-2.684-1.447 0-.85 1.01-1.4 2.575-1.4.947 0 1.879.147 2.851.45l.023.006c.116.029.26.066.444.066.811 0 1.472-.661 1.472-1.475 0-.624-.43-1.198-1.047-1.398a11.422 11.422 0 00-3.927-.676c-1.715 0-3.134.445-4.103 1.286-.929.808-1.42 1.94-1.42 3.27 0 3.154 3.075 3.914 5.32 4.467 1.294.32 2.517.623 2.517 1.202 0 .353 0 1.427-2.472 1.427-1.492 0-2.506-.36-3.385-.75a1.517 1.517 0 00-.639-.138c-.798 0-1.447.66-1.447 1.474 0 .485.234.938.627 1.213l.039.025c1.506.826 3.129 1.228 4.963 1.228 1.675 0 3.077-.428 4.049-1.238a3.91 3.91 0 001.42-3.057c.006-1.458-.598-2.579-1.788-3.333m11.376-.999l3.469-3.107.017-.017c.471-.47.57-.907.57-1.191 0-.728-.413-1.578-1.578-1.578-.37 0-.728.149-1.066.445l-5.506 5.091V5.582c0-.884-.746-1.63-1.63-1.63-.885 0-1.603.731-1.603 1.63v16.957c0 .885.72 1.603 1.603 1.603.899 0 1.63-.72 1.63-1.603v-3.181l1.78-1.618 4.212 5.73.013.019c.33.403.827.653 1.299.653.96 0 1.63-.65 1.63-1.578 0-.332-.118-.656-.349-.962l-4.49-5.957zM69.674 9.57c-1.635 0-3.126.31-4.684.971-.592.245-.943.763-.943 1.39 0 .796.612 1.42 1.395 1.42.12 0 .271-.022.444-.065l.028-.009c1.022-.331 1.98-.606 3.343-.606 2.13 0 3.007.732 3.069 2.592h-2.73c-4.03 0-6.436 1.742-6.436 4.66 0 2.518 1.971 4.347 4.687 4.347 1.748 0 3.26-.495 4.504-1.472.126.76.788 1.342 1.583 1.342.898 0 1.63-.72 1.63-1.603v-7.394c-.002-2.774-1.822-5.574-5.89-5.574m2.655 8.46v1.601c-.754.809-2.103 1.695-3.595 1.695-1.575 0-2.341-.543-2.341-1.661 0-.405 0-1.637 3.517-1.637h2.42v.002zm8.213-14.077c-.899 0-1.603.716-1.603 1.63v16.957c0 .885.72 1.603 1.603 1.603.913 0 1.63-.705 1.63-1.603V5.582c0-.914-.715-1.63-1.63-1.63m17.646 12.63c0-1.878-.606-3.608-1.705-4.876-1.213-1.397-2.922-2.137-4.941-2.137-2.137 0-3.896.797-5.085 2.303-1.025 1.296-1.588 3.09-1.588 5.05 0 4.603 2.69 7.352 7.196 7.352 2.458 0 3.665-.57 4.784-1.207.569-.324.895-.813.895-1.338 0-.812-.647-1.448-1.474-1.448-.258 0-.448.044-.666.153-.771.394-1.708.76-3.331.76-2.28 0-3.681-1.036-4.073-3.01h8.358c.929.002 1.63-.689 1.63-1.602m-6.646-4.145c1.134 0 3.043.638 3.391 2.958h-6.758c.348-2.32 2.242-2.958 3.367-2.958M108.21 9.57c-2 0-3.4.85-4.43 1.793v-.032c0-.898-.732-1.63-1.63-1.63-.9 0-1.605.717-1.605 1.63V22.54c0 .885.72 1.604 1.605 1.604.898 0 1.63-.72 1.63-1.604v-7.686c1.248-1.52 2.476-2.232 3.855-2.232 1.668 0 2.444.877 2.444 2.76v7.158c0 .885.72 1.604 1.605 1.604.899 0 1.63-.72 1.63-1.604v-7.42c.001-3.267-2.098-5.55-5.104-5.55m13.69 0c-1.634 0-3.125.31-4.683.971-.592.245-.943.763-.943 1.39 0 .796.612 1.42 1.395 1.42.12 0 .271-.022.444-.065l.028-.009c1.022-.331 1.98-.606 3.343-.606 2.13 0 3.007.732 3.069 2.592h-2.73c-4.032 0-6.438 1.742-6.438 4.66 0 2.518 1.971 4.347 4.687 4.347 1.749 0 3.26-.495 4.504-1.472.126.76.788 1.342 1.583 1.342.899 0 1.63-.72 1.63-1.603v-7.394c0-2.774-1.82-5.574-5.888-5.574m2.654 8.46v1.601c-.755.809-2.104 1.695-3.596 1.695-1.575 0-2.341-.543-2.341-1.661 0-.405 0-1.637 3.517-1.637h2.42v.002zM17.484 7.463c4.512 0 8.205 3.69 8.205 8.205v3.715c0 .595-.065 1.176-.187 1.737H9.445a8.147 8.147 0 01-.187-1.737v-3.715c0-4.513 3.693-8.205 8.207-8.205zm-2.987 5.013c-.557 0-1.012.455-1.012 1.012v1.49c0 .558.455 1.013 1.012 1.013l.11-.006c.506-.055.902-.486.902-1.006v-1.491c0-.557-.455-1.012-1.012-1.012zm5.458 0c-.557 0-1.012.455-1.012 1.012v1.49c0 .558.455 1.013 1.012 1.013l.11-.006c.506-.055.902-.486.902-1.006v-1.491c0-.557-.455-1.012-1.012-1.012zM13.316 28c-.65 0-1.182-.53-1.182-1.181v-3.544c0-.65.532-1.182 1.182-1.182.65 0 1.181.53 1.181 1.182v3.544c0 .65-.53 1.181-1.181 1.181m8.831 0c-.65 0-1.181-.53-1.181-1.181v-3.544c0-.65.532-1.182 1.181-1.182.65 0 1.181.53 1.181 1.182v3.544c0 .65-.532 1.181-1.18 1.181"/><path d="M26.46 23.584H8.695a1.493 1.493 0 01-1.489-1.489c0-.82.67-1.489 1.49-1.489H26.46c.818 0 1.489.67 1.489 1.49 0 .819-.671 1.488-1.49 1.488M17.731 9.556a.787.787 0 01-.788-.788c0-3.967-3.227-7.195-7.195-7.195h-.98a7.202 7.202 0 00-7.195 7.195.787.787 0 11-1.573 0C0 3.934 3.934 0 8.768 0h.98c4.834 0 8.768 3.934 8.768 8.768a.784.784 0 01-.785.788"/></g></svg>