<?xml version="1.0" encoding="utf-8"?>
<!-- Generator: Adobe Illustrator 25.2.3, SVG Export Plug-In . SVG Version: 6.00 Build 0)  -->
<svg version="1.1" id="Layer_1" xmlns="http://www.w3.org/2000/svg" xmlns:xlink="http://www.w3.org/1999/xlink" x="0px" y="0px"
	 viewBox="0 0 841.89 595.28" style="enable-background:new 0 0 841.89 595.28;" xml:space="preserve">
<style type="text/css">
	.st0{fill:#A1DADF;}
	.st1{fill:#56C4C8;}
</style>
<path d="M313.07,313.4c-5.95-3.78-13.55-5.58-20.25-7.18c-9.98-2.38-16.04-4.15-16.04-8.65c0-5.08,6.04-8.37,15.39-8.37
	c5.66,0,11.23,0.88,17.04,2.69l0.14,0.04c0.69,0.17,1.55,0.39,2.65,0.39c4.85,0,8.8-3.95,8.8-8.81c0-3.73-2.57-7.16-6.26-8.36
	c-7.35-2.68-15.24-4.04-23.47-4.04c-10.25,0-18.73,2.66-24.52,7.69c-5.55,4.83-8.49,11.59-8.49,19.54c0,18.85,18.38,23.39,31.8,26.7
	c7.73,1.91,15.04,3.72,15.04,7.18c0,2.11,0,8.53-14.77,8.53c-8.92,0-14.98-2.15-20.23-4.48c-1.38-0.59-2.48-0.83-3.82-0.83
	c-4.77,0-8.65,3.95-8.65,8.81c0,2.9,1.4,5.61,3.75,7.25l0.23,0.15c9,4.94,18.7,7.34,29.66,7.34c10.01,0,18.39-2.56,24.2-7.4
	c5.48-4.57,8.49-11.05,8.49-18.27C323.79,324.61,320.18,317.91,313.07,313.4"/>
<path d="M381.06,307.43l20.73-18.57l0.1-0.1c2.82-2.81,3.41-5.42,3.41-7.12c0-4.35-2.47-9.43-9.43-9.43c-2.21,0-4.35,0.89-6.37,2.66
	l-32.91,30.43v-58.01c0-5.28-4.46-9.74-9.74-9.74c-5.29,0-9.58,4.37-9.58,9.74v101.34c0,5.29,4.3,9.58,9.58,9.58
	c5.37,0,9.74-4.3,9.74-9.58v-19.01l10.64-9.67l25.17,34.25l0.08,0.11c1.97,2.41,4.94,3.9,7.76,3.9c5.74,0,9.74-3.88,9.74-9.43
	c0-1.98-0.7-3.92-2.08-5.75L381.06,307.43z"/>
<path d="M455.04,271.12c-9.77,0-18.68,1.86-27.99,5.81c-3.54,1.46-5.64,4.56-5.64,8.3c0,4.76,3.66,8.49,8.34,8.49
	c0.72,0,1.62-0.13,2.65-0.39l0.17-0.05c6.11-1.98,11.83-3.62,19.98-3.62c12.73,0,17.97,4.37,18.34,15.49h-16.31
	c-24.09,0-38.47,10.41-38.47,27.85c0,15.05,11.78,25.98,28.01,25.98c10.45,0,19.48-2.96,26.92-8.8c0.75,4.54,4.71,8.02,9.46,8.02
	c5.37,0,9.74-4.3,9.74-9.58v-44.19C490.23,287.85,479.35,271.12,455.04,271.12 M470.91,321.68v9.57
	c-4.51,4.83-12.57,10.13-21.49,10.13c-9.41,0-13.99-3.25-13.99-9.93c0-2.42,0-9.78,21.02-9.78H470.91z"/>
<path d="M519.99,237.55c-5.37,0-9.58,4.28-9.58,9.74v101.34c0,5.29,4.3,9.58,9.58,9.58c5.46,0,9.74-4.21,9.74-9.58V247.29
	C529.73,241.83,525.46,237.55,519.99,237.55"/>
<path d="M625.45,313.03c0-11.22-3.62-21.56-10.19-29.14c-7.25-8.35-17.46-12.77-29.53-12.77c-12.77,0-23.28,4.76-30.39,13.76
	c-6.12,7.75-9.49,18.47-9.49,30.18c0,27.51,16.08,43.94,43.01,43.94c14.69,0,21.9-3.41,28.59-7.21c3.4-1.94,5.35-4.86,5.35-8
	c0-4.85-3.87-8.65-8.81-8.65c-1.54,0-2.68,0.26-3.98,0.91c-4.61,2.36-10.21,4.55-19.91,4.55c-13.63,0-22-6.2-24.34-17.99h49.95
	C621.26,322.62,625.45,318.49,625.45,313.03 M585.73,288.26c6.78,0,18.19,3.81,20.27,17.68h-40.39
	C567.69,292.07,579.01,288.26,585.73,288.26"/>
<path d="M685.35,271.12c-11.96,0-20.32,5.09-26.48,10.72v-0.19c0-5.37-4.37-9.74-9.74-9.74c-5.38,0-9.59,4.28-9.59,9.74v66.98
	c0,5.29,4.3,9.59,9.59,9.59c5.37,0,9.74-4.3,9.74-9.59V302.7c7.46-9.09,14.8-13.34,23.04-13.34c9.97,0,14.61,5.24,14.61,16.49v42.78
	c0,5.29,4.3,9.59,9.59,9.59c5.37,0,9.74-4.3,9.74-9.59v-44.34C715.86,284.76,703.31,271.12,685.35,271.12"/>
<path d="M767.17,271.12c-9.77,0-18.68,1.86-27.99,5.81c-3.54,1.46-5.64,4.56-5.64,8.3c0,4.76,3.66,8.49,8.34,8.49
	c0.72,0,1.62-0.13,2.65-0.39l0.17-0.05c6.11-1.98,11.83-3.62,19.98-3.62c12.73,0,17.97,4.37,18.34,15.49H766.7
	c-24.09,0-38.47,10.41-38.47,27.85c0,15.05,11.78,25.98,28.01,25.98c10.45,0,19.48-2.96,26.92-8.8c0.75,4.54,4.71,8.02,9.46,8.02
	c5.37,0,9.74-4.3,9.74-9.58v-44.19C802.36,287.85,791.48,271.12,767.17,271.12 M783.03,321.68v9.57
	c-4.51,4.83-12.57,10.13-21.49,10.13c-9.41,0-13.99-3.25-13.99-9.93c0-2.42,0-9.78,21.02-9.78H783.03z"/>
<path d="M191.05,340.15c0.73-3.35,1.12-6.82,1.12-10.38v-22.2c0-26.98-22.07-49.04-49.04-49.04h-0.11
	c-26.98,0-49.05,22.07-49.05,49.04v22.2c0,3.56,0.39,7.03,1.12,10.38H191.05z"/>
<path d="M118.22,381.27L118.22,381.27c-3.88,0-7.06-3.17-7.06-7.06v-21.18c0-3.88,3.18-7.06,7.06-7.06c3.89,0,7.06,3.17,7.06,7.06
	v21.18C125.28,378.1,122.11,381.27,118.22,381.27"/>
<path d="M171,381.27L171,381.27c-3.88,0-7.06-3.17-7.06-7.06v-21.18c0-3.88,3.18-7.06,7.06-7.06c3.88,0,7.06,3.17,7.06,7.06v21.18
	C178.06,378.1,174.88,381.27,171,381.27"/>
<path class="st0" d="M196.78,354.88H90.6c-4.89,0-8.9-4-8.9-8.9c0-4.9,4-8.9,8.9-8.9h106.18c4.89,0,8.9,4,8.9,8.9
	C205.68,350.88,201.67,354.88,196.78,354.88"/>
<path d="M144.61,271.04c-2.6,0-4.71-2.1-4.71-4.71c0-23.71-19.29-43-43-43h-5.86c-23.71,0-43,19.29-43,43c0,2.6-2.1,4.71-4.7,4.71
	c-2.6,0-4.7-2.1-4.7-4.71c0-28.89,23.51-52.4,52.4-52.4h5.86c28.89,0,52.4,23.51,52.4,52.4
	C149.31,268.93,147.21,271.04,144.61,271.04"/>
<path class="st1" d="M125.28,309.5L125.28,309.5c-3.33,0-6.05-2.72-6.05-6.05v-8.91c0-3.33,2.72-6.05,6.05-6.05
	c3.33,0,6.05,2.72,6.05,6.05v8.91C131.33,306.78,128.61,309.5,125.28,309.5"/>
<path class="st1" d="M157.9,309.5L157.9,309.5c-3.33,0-6.05-2.72-6.05-6.05v-8.91c0-3.33,2.72-6.05,6.05-6.05
	c3.33,0,6.05,2.72,6.05,6.05v8.91C163.95,306.78,161.23,309.5,157.9,309.5"/>
</svg>
