<svg width="180" height="28" xmlns="http://www.w3.org/2000/svg"><path d="M0 26.051h13.503v1.943H0v-1.943zm0-3.728h13.503v1.948H0v-1.948zm3.848-3.72h5.795v1.951H3.848v-1.951zm0-3.717h5.795v1.948H3.848v-1.948zm0-3.723h5.795v1.951H3.848v-1.951zm0-3.726h5.795v1.952H3.848V7.437zM0 3.72h13.503v1.949H0V3.72zM0 0h13.503v1.949H0V0zm15.427 24.271h20.766a7.09 7.09 0 00.772-1.948H15.43v1.948h-.003zm19.148-9.385H19.29v1.948h16.906a7.756 7.756 0 00-1.615-1.948h-.006zm-15.288-3.723v1.951h15.291a7.366 7.366 0 001.618-1.951H19.287zM36.193 3.72H15.427v1.949h21.535a8.434 8.434 0 00-.77-1.949zM29.81 0H15.427v1.949H34.77A7.276 7.276 0 0029.81 0zM19.287 7.437h5.787v1.952h-5.787V7.437zm11.576 1.952h6.053c.17-.623.26-1.28.26-1.952h-6.313v1.952zm-11.576 9.214h5.784v1.951h-5.787l.003-1.951zm11.576 0v1.951h6.313a7.4 7.4 0 00-.26-1.951h-6.053zM15.427 27.98l14.38.02c1.93 0 3.669-.747 4.968-1.949H15.427v1.929zm23.153-1.93h9.64v1.943h-9.64V26.05zm0-3.728h9.64v1.948h-9.64v-1.948zm3.85-3.72h5.787v1.951h-5.786v-1.951zm0-3.717h5.787v1.948h-5.786v-1.948zM50.906 3.72H38.58v1.949h12.99l-.665-1.949zM49.626 0H38.58v1.946h11.712L49.626 0zm10.165 26.051h9.649v1.943h-9.65v-1.943zm0-3.728h9.649v1.948h-9.65v-1.948zm0-3.72h5.786v1.951h-5.786v-1.951zm0-3.717h5.786v1.948h-5.786v-1.948zm0-1.772h5.786v-1.951H54.551l-.544 1.576-.544-1.576H42.431v1.951h5.786v-1.791l.617 1.791h10.343l.614-1.791v1.791zm5.79-5.677H55.83l-.666 1.952H65.58V7.437zM58.395 0l-.668 1.946H69.44V0H58.396zm-4.389 27.98l.665-1.929H53.34l.668 1.929zm-1.279-3.709h2.558l.688-1.948h-3.926l.68 1.948zm-1.299-3.717h5.156l.68-1.951h-6.519l.683 1.951zm-1.296-3.72h7.751l.663-1.948h-9.08l.666 1.948zM42.43 9.39h10.422l-.669-1.952H42.43V9.39zm14.018-3.72H69.44V3.72H57.109l-.66 1.949z" fill="#FFF"/></svg>