<?xml version="1.0" encoding="utf-8"?>
<svg version="1.2" baseProfile="tiny-ps" xmlns="http://www.w3.org/2000/svg" viewBox="0 0 1100 1100">
    <title>KrakenD SL</title>
    <g id="Page-1">
        <g id="Group" transform="translate(0.000000, -1.000000)">
            <g>
                <path id="Path" fill-rule="evenodd" fill="#1064EE" d="M210,520.9c-21.5-37.9-57.8-47-84.6-42.9l-1.3-8.6     c29.7-4.6,69.8,5.4,93.4,47.2L210,520.9z"/>
                <path id="Shape" fill="#1064EE"
                      d="M119.8,652.3c-56.8,0-103-46.3-103-103.2c0-27.5,10.7-53.1,30.2-72.2     c19.4-19,45.2-29.4,72.8-29.4c27.6,0,53.5,10.5,72.8,29.4c19.5,19.1,30.2,44.7,30.2,72.2C222.8,606,176.6,652.3,119.8,652.3z      M119.8,456.1c-25.3,0-49,9.6-66.8,27c-17.8,17.5-27.6,40.9-27.6,66c0,52.1,42.3,94.5,94.4,94.5s94.4-42.4,94.4-94.5     c0-25.1-9.8-48.6-27.6-66C168.8,465.7,145.1,456.1,119.8,456.1z"/>
                <path id="Path_00000008866425975588170030000011851193713388152249_" fill-rule="evenodd" fill="#1064EE"
                      d="M127,579.8     c-29.6,0-53.9-24.3-54-54.1c-0.2-30,21.7-53.2,53.2-56.5l0.9,8.6c-31.5,3.3-45.6,26.4-45.5,47.8c0.1,25.1,20.5,45.5,45.4,45.5     c12.5,0,24.1-5,32.7-13.9l6.2,6C155.6,573.9,141.8,579.8,127,579.8z"/>
                <path id="Path_00000163057826459565493350000005468597330665892239_" fill-rule="evenodd" fill="#1064EE"
                      d="M106,631.6V623     c17.5,0,32.7-5.7,42.9-16.2c8.2-8.4,12.3-19.2,12-31.3c-0.6-25.5-20.6-45.5-45.4-45.5c-12.5,0-24.1,5-32.7,13.9l-6.2-6     c10.3-10.7,24.1-16.6,39-16.6c29.5,0,53.3,23.7,54,54c0.4,14.5-4.6,27.5-14.5,37.6C143.3,625,125.8,631.6,106,631.6z"/>
                <path id="Path_00000179641283021658090050000008689092511273538432_" fill-rule="evenodd" fill="#0071CE"
                      d="M103.8,631.7     c-60.3,0-78.3-41-79.1-42.8l8-3.4c0.7,1.6,17.8,39.6,76.1,37.4l0.3,8.7C107.3,631.7,105.6,631.7,103.8,631.7z"/>
                <path id="Shape_00000172439630300366205950000003975353006744551566_" fill="#1064EE"
                      d="M124.7,516.9c-8.6,0-15.6-7-15.6-15.6     c0-8.6,7-15.6,15.6-15.6s15.6,7,15.6,15.6C140.3,509.9,133.3,516.9,124.7,516.9z M124.7,494.3c-3.8,0-6.9,3.1-6.9,7s3.1,7,6.9,7     s6.9-3.1,6.9-7C131.6,497.4,128.5,494.3,124.7,494.3z"/>
                <path id="Shape_00000027602725245066277690000009977117127548185230_" fill="#1064EE"
                      d="M54.1,531.6c-8.6,0-15.6-7-15.6-15.6     c0-8.6,7-15.6,15.6-15.6s15.6,7,15.6,15.6C69.7,524.6,62.7,531.6,54.1,531.6z M54.1,509c-3.8,0-6.9,3.1-6.9,7s3.1,7,6.9,7     s6.9-3.1,6.9-7S57.9,509,54.1,509z"/>
                <path id="Shape_00000112620157795103759220000018053419291615949753_" fill="#1064EE"
                      d="M169.2,536.3     c-11.3,0-20.5-9.2-20.5-20.6c0-11.3,9.2-20.6,20.5-20.6c11.3,0,20.5,9.2,20.5,20.6C189.8,527,180.5,536.3,169.2,536.3z      M169.2,503.8c-6.6,0-11.9,5.3-11.9,11.9c0,6.6,5.3,11.9,11.9,11.9c6.6,0,11.9-5.3,11.9-11.9     C181.1,509.1,175.8,503.8,169.2,503.8z"/>
                <path id="Shape_00000150075600201773573430000002094220325627582611_" fill="#1064EE"
                      d="M54.4,582.2c-11.3,0-20.5-9.2-20.5-20.6     S43,541,54.4,541s20.5,9.2,20.5,20.6C74.9,572.9,65.7,582.2,54.4,582.2z M54.4,549.7c-6.6,0-11.9,5.3-11.9,11.9     c0,6.6,5.3,11.9,11.9,11.9c6.6,0,11.9-5.3,11.9-11.9C66.3,555,60.9,549.7,54.4,549.7z"/>
                <path id="Shape_00000017474135796902948410000002829658142090609039_" fill="#1064EE"
                      d="M191.7,577c-9.8,0-17.8-8-17.8-17.8     c0-9.8,8-17.8,17.8-17.8c9.8,0,17.8,8,17.8,17.8C209.4,569,201.5,577,191.7,577z M191.7,550.1c-5,0-9.1,4.1-9.1,9.1     c0,5,4.1,9.1,9.1,9.1c5,0,9.1-4.1,9.1-9.1C200.8,554.2,196.7,550.1,191.7,550.1z"/>
                <path id="Shape_00000138548872005784321430000007820319568791450285_" fill="#1064EE"
                      d="M88.3,613.4c-9.8,0-17.8-8-17.8-17.8     c0-9.8,8-17.8,17.8-17.8s17.8,8,17.8,17.8C106,605.4,98.1,613.4,88.3,613.4z M88.3,586.5c-5,0-9.1,4.1-9.1,9.1     c0,5,4.1,9.1,9.1,9.1c5,0,9.1-4.1,9.1-9.1C97.4,590.6,93.3,586.5,88.3,586.5z"/>
            </g>
            <g transform="translate(277.000000, 32.000000)">
                <path id="Shape_00000026882070141111679810000002704441075461541514_" fill="#1064EE"
                      d="M709.3,447.6h23.4     c43.3,0,73.2,29.8,73.2,68.6v0.4c0,38.8-29.9,69-73.2,69H679V475L709.3,447.6z M732.7,558.2c24.8,0,41.5-16.8,41.5-41.2v-0.4     c0-24.4-16.7-41.6-41.5-41.6h-23.4v83.2H732.7z"/>
                <g>
                    <polygon id="Path_00000011744448207973945170000011430684811900912534_" fill-rule="evenodd" fill="#0F265C"
                             points="      17.3,465.9 49.6,447.6 49.6,512.9 87.5,471.4 126.2,471.4 82.8,516.3 127.6,585.6 90.7,585.6 60.9,538.9 49.6,550.9 49.6,585.6       17.3,585.6     "/>
                    <path id="Path_00000119078976625129636140000002406145735774117548_" fill-rule="evenodd" fill="#0F265C"
                          d="M134.7,471.4H167      v23c6.6-15.8,17.2-26,36.4-25.2v33.9h-1.7c-21.5,0-34.7,13-34.7,40.3v42.2h-32.3V471.4z"/>
                    <path id="Shape_00000105413566850317326010000011325395318125377414_" fill="#0F265C"
                          d="M202.9,552.8v-0.4      c0-24.9,18.9-36.4,45.9-36.4c11.5,0,19.8,1.9,27.9,4.7v-1.9c0-13.4-8.3-20.9-24.5-20.9c-12.3,0-21,2.3-31.5,6.2l-8.1-24.7      c12.5-5.5,24.9-9.2,44.2-9.2c17.6,0,30.4,4.7,38.5,12.8c8.5,8.5,12.3,21.1,12.3,36.4v66.3h-31.3v-12.4      c-7.9,8.7-18.7,14.5-34.4,14.5C220.5,587.7,202.9,575.4,202.9,552.8z M277.1,545.3v-5.8c-5.5-2.6-12.8-4.3-20.6-4.3      c-13.8,0-22.3,5.5-22.3,15.8v0.4c0,8.7,7.2,13.9,17.6,13.9C266.9,565.4,277.1,557,277.1,545.3z"/>
                    <polygon id="Path_00000010293526630882451900000005457448549851232692_" fill-rule="evenodd" fill="#0F265C"
                             points="      323.8,465.9 356.1,447.6 356.1,512.9 394,471.4 432.7,471.4 389.3,516.3 434.2,585.6 397.2,585.6 367.4,538.9 356.1,550.9       356.1,585.6 323.8,585.6     "/>
                    <path id="Shape_00000039842830539407239250000005488125299348155550_" fill="#0F265C"
                          d="M430.3,529.1v-0.4      c0-32.6,23.2-59.5,56.3-59.5c38.1,0,55.5,29.6,55.5,62c0,2.6-0.2,5.5-0.4,8.5h-79.3c3.2,14.7,13.4,22.4,27.9,22.4      c10.8,0,18.7-3.4,27.6-11.7l18.5,16.4c-10.6,13.2-25.9,21.3-46.6,21.3C455.6,588.2,430.3,564.1,430.3,529.1z M510.7,519.5      c-1.9-14.5-10.4-24.3-24-24.3c-13.4,0-22.1,9.6-24.7,24.3H510.7z"/>
                    <path id="Path_00000030468205939658390160000007643780169691098808_" fill-rule="evenodd" fill="#0F265C"
                          d="M554.5,471.4h32.3      v16.2c7.4-9.6,17-18.3,33.4-18.3c24.4,0,38.7,16.2,38.7,42.4v74h-32.3v-63.7c0-15.3-7.2-23.2-19.6-23.2      c-12.3,0-20.2,7.9-20.2,23.2v63.7h-32.3L554.5,471.4L554.5,471.4z"/>
                </g>
            </g>
        </g>
    </g>
</svg>
