<svg width="180" height="29" xmlns="http://www.w3.org/2000/svg"><path d="M1.761.852c0 .029-.108.053-.239.053s-.239.023-.239.053-.035.053-.078.053c-.284 0-.983.697-.983.98 0 .045-.024.082-.054.082-.029 0-.053.107-.053.239 0 .13-.024.239-.053.239-.101 0-.07 16.812.031 16.85.255.099 3.314.033 3.314-.07 0-.057-.023-.118-.052-.135a.779.779 0 01-.143-.229 1.354 1.354 0 00-.12-.223 1.092 1.092 0 01-.11-.186 1.104 1.104 0 00-.108-.186c-.052-.048-.529-.915-.529-.963 0-.025-.018-.046-.04-.046-.023 0-.084-.09-.135-.199a7.105 7.105 0 00-.207-.395l-.111-.197.153-.308c.085-.17.172-.316.194-.325a.072.072 0 00.04-.06c0-.049.484-.919.533-.958a.872.872 0 00.108-.2c.041-.094.093-.171.115-.171.022 0 .04-.048.04-.107 0-.058.024-.106.054-.106.029 0 .052-.036.052-.08 0-.044.019-.08.04-.08.022-.001.112-.156.2-.345.087-.189.177-.343.198-.344.022 0 .04-.022.04-.049 0-.027.135-.284.299-.57.164-.288.38-.672.478-.855.28-.521.309-.568.362-.607.047-.033-.032-.244-.145-.388-.085-.109-.41-.678-.41-.719a.072.072 0 00-.04-.06c-.021-.01-.11-.161-.198-.336a2.957 2.957 0 00-.19-.345.966.966 0 01-.106-.2c-.042-.094-.094-.172-.116-.172-.022 0-.04-.048-.04-.106 0-.058-.019-.106-.042-.106-.023 0-.112-.138-.199-.306a3.661 3.661 0 00-.183-.331c-.025-.025-.096-.145-.235-.398a.798.798 0 00-.086-.133 1.709 1.709 0 01-.127-.253c-.055-.124-.115-.225-.135-.225-.02 0-.068-.084-.108-.186-.04-.102-.092-.186-.116-.186-.024 0-.043-.048-.043-.106 0-.058-.019-.106-.042-.106-.023 0-.113-.138-.199-.306-.087-.167-.175-.313-.197-.323-.052-.022-.052-.207 0-.23.022-.01.11-.149.194-.31a5.44 5.44 0 01.252-.432.559.559 0 00.098-.2c0-.031.024-.057.053-.057.03 0 .053-.023.053-.051 0-.028.132-.27.292-.538.16-.268.292-.508.292-.533 0-.026.018-.047.04-.047.022 0 .112-.155.2-.344.087-.189.176-.343.198-.344.022-.001.04-.037.04-.081 0-.044.021-.08.047-.08s.06-.042.078-.093c.017-.05.116-.236.221-.411s.204-.36.22-.412c.017-.05.046-.093.065-.093.018 0 .067-.077.109-.172a.861.861 0 01.108-.2c.064-.05.32-.543.32-.617 0-.06-.257-.072-1.46-.072-.938 0-1.46.019-1.46.053m4.367.026a.285.285 0 00-.066.157c0 .045-.018.082-.04.082-.022 0-.084.108-.138.24-.054.13-.116.238-.136.238-.021 0-.07.083-.111.186-.04.102-.092.186-.116.186-.024 0-.043.047-.043.106 0 .058-.019.106-.04.106-.022 0-.087.102-.145.226a1.896 1.896 0 01-.133.252 1.266 1.266 0 00-.107.186 1.083 1.083 0 01-.11.185 6.85 6.85 0 00-.285.505c-.14.262-.273.49-.293.504a.755.755 0 00-.112.2c-.042.094-.094.172-.116.172-.022 0-.04.034-.04.075 0 .095-.172.402-.225.402-.022 0-.04.048-.04.107 0 .058-.02.106-.044.106-.023 0-.075.083-.116.186-.04.102-.086.186-.102.186-.017 0-.078.108-.135.239-.058.131-.124.239-.146.239-.023 0-.041.047-.041.106 0 .058.02.106.047.106.025 0 .06.042.076.093.031.096.333.637.408.73.043.053.282.483.392.703.032.065.077.12.099.12.022 0 .04.047.04.106 0 .058.023.106.053.106.029 0 .053.02.053.046 0 .065.49.88.541.9.024.01.043.064.043.12 0 .056.024.102.053.102.029 0 .053.026.053.058s.044.122.098.2c.054.077.206.343.34.592.361.674.434.795.478.796.022 0 .04.048.04.106 0 .059.023.106.053.106.029 0 .053.036.053.08 0 .044.024.08.053.08.03 0 .053.047.053.106 0 .058-.024.106-.053.106-.03 0-.053.048-.053.106 0 .059-.024.106-.053.106-.03 0-.053.036-.053.08 0 .044-.018.08-.04.08-.022.002-.112.157-.2.345-.087.19-.176.344-.198.344-.022 0-.04.046-.04.103 0 .056-.02.11-.044.119-.05.02-.54.882-.54.948a.073.073 0 01-.04.06c-.022.01-.08.102-.13.204-.105.215-.322.599-.361.638a1.266 1.266 0 00-.106.185 1.247 1.247 0 01-.107.186 3.567 3.567 0 00-.182.318c-.085.161-.202.376-.26.478-.058.103-.184.332-.281.51l-.177.323.145.287c.08.158.163.295.185.305.021.01.04.062.04.115 0 .054.019.105.042.115.06.025.329.521.329.609 0 .04.024.073.053.073.03 0 .053.026.053.058s.046.122.102.2c.056.08.179.286.273.46.094.174.217.394.274.49l.103.172h.899c.863 0 .898-.004.898-.106 0-.059-.018-.107-.04-.107-.022 0-.066-.054-.098-.12-.147-.298-.576-1.023-.615-1.039-.024-.01-.044-.063-.044-.12 0-.055-.019-.1-.042-.1-.023 0-.087-.109-.14-.24-.055-.131-.115-.239-.134-.239-.02 0-.068-.083-.108-.185-.04-.103-.093-.186-.116-.186-.024 0-.044-.046-.044-.102 0-.056-.028-.112-.063-.123-.072-.024-.078-.408-.008-.46.048-.034.1-.122.353-.59.203-.373.348-.633.588-1.053.106-.186.192-.359.192-.385 0-.027.024-.048.053-.048.03 0 .053-.036.053-.08 0-.044.024-.08.054-.08.029 0 .052-.047.052-.106 0-.058.024-.106.054-.106.029 0 .053-.024.053-.054s.06-.149.132-.264c.074-.116.133-.247.133-.291 0-.045.024-.081.053-.081.03 0 .053-.036.053-.08 0-.043.024-.08.053-.08.03 0 .054-.047.054-.105 0-.059.018-.107.04-.107.022 0 .136-.179.252-.397.117-.22.23-.398.252-.399.022 0 .04-.048.04-.106 0-.059.018-.106.04-.106.047 0 .225-.392.225-.493 0-.037-.06-.155-.133-.262-.073-.107-.132-.219-.132-.247 0-.028-.018-.06-.04-.069-.022-.01-.112-.167-.2-.349-.087-.182-.176-.331-.198-.331-.022-.001-.04-.037-.04-.081 0-.044-.024-.08-.053-.08-.03 0-.053-.047-.053-.106 0-.058-.018-.106-.04-.107-.022 0-.066-.053-.097-.119a9.89 9.89 0 00-.394-.73 1.275 1.275 0 01-.103-.159c-.339-.592-.428-.76-.428-.801 0-.027-.02-.048-.043-.048-.024 0-.076-.084-.117-.186-.04-.102-.087-.186-.104-.186s-.078-.107-.136-.238c-.057-.132-.122-.239-.144-.24-.022 0-.04-.048-.04-.106 0-.058-.024-.106-.053-.106-.03 0-.053-.034-.053-.075 0-.042-.019-.084-.04-.093-.15-.067-.338-.584-.257-.709a.51.51 0 00.084-.21c0-.045.02-.081.044-.081.025 0 .078-.066.12-.146.041-.08.088-.158.103-.173.015-.014.073-.128.128-.252.054-.124.115-.226.134-.226.02 0 .068-.083.108-.185.04-.103.09-.186.11-.186.02 0 .05-.042.067-.093a3.52 3.52 0 01.22-.412c.105-.175.205-.36.222-.411.017-.051.052-.093.078-.093.025 0 .046-.036.046-.08 0-.043.024-.08.054-.08.029 0 .053-.045.053-.101 0-.056.02-.11.044-.12.054-.021.434-.667.434-.737 0-.027.024-.05.053-.05.029 0 .053-.036.053-.08 0-.044.024-.08.053-.08.029 0 .053-.044.053-.099a.23.23 0 01.069-.157.776.776 0 00.142-.245c.04-.104.094-.189.117-.189.024 0 .044-.026.044-.058s.05-.128.11-.214c.208-.29.15-.312-.839-.31-.7.002-.905.019-.957.078m3.323.08c-.039.087-.089.16-.11.16-.023 0-.04.035-.04.079 0 .043-.025.08-.054.08-.03 0-.053.045-.053.101 0 .056-.018.11-.04.12-.022.01-.11.16-.197.336-.086.175-.17.33-.186.345a1.127 1.127 0 00-.108.186 1.039 1.039 0 01-.11.186c-.052.045-.527.91-.527.961 0 .026-.024.047-.053.047-.03 0-.053.036-.053.08 0 .044-.024.08-.053.08-.03 0-.053.047-.053.106 0 .058-.018.106-.04.106-.022 0-.087.108-.145.24-.058.13-.123.238-.146.238-.022 0-.041.047-.041.106 0 .058-.02.106-.043.106-.024 0-.076.084-.116.186-.04.102-.088.186-.106.186-.018 0-.078.101-.131.225a1.382 1.382 0 01-.13.253c-.18.15-.351.653-.257.752.036.039.102.142.146.23.044.087.098.183.121.212.09.115.41.68.41.723 0 .026.024.047.053.047.029 0 .053.048.053.106 0 .059.019.106.041.106.023 0 .088.108.146.239.058.13.123.239.145.239.022 0 .04.036.04.08 0 .044.023.08.053.08.029 0 .053.045.053.101 0 .056.018.11.04.12.053.023.438.673.438.738 0 .027.019.05.043.05.023 0 .076.083.116.185.04.102.092.186.116.186.024 0 .043.026.043.058s.044.122.098.2c.054.077.167.272.252.432.085.16.172.3.194.31.022.01.04.05.04.088 0 .04.018.079.04.089.071.031.226.35.226.464 0 .115-.261.655-.332.686-.022.01-.04.062-.04.115 0 .054-.02.106-.044.115-.025.01-.16.227-.302.482-.142.256-.278.465-.301.465-.024 0-.043.048-.043.106 0 .059-.018.107-.04.107-.022 0-.111.156-.199.345-.088.19-.177.345-.2.345-.021 0-.039.035-.039.08 0 .043-.024.079-.053.079-.03 0-.053.046-.053.102 0 .056-.02.11-.043.119-.06.026-.329.522-.329.608 0 .04-.024.073-.053.073-.03 0-.053.036-.053.08 0 .044-.021.08-.047.08s-.06.041-.076.093c-.017.05-.13.272-.253.49-.352.63-.365.661-.333.786.017.064.048.117.068.117.02 0 .07.084.11.186.04.102.087.186.104.186.018 0 .079.107.136.238.058.131.123.239.145.24.022 0 .04.047.04.106 0 .058.024.106.053.106.029 0 .053.046.053.102 0 .056.019.11.043.12.06.025.329.52.329.608 0 .04.023.073.053.073.029 0 .053.036.053.08 0 .043.024.079.053.079.03 0 .053.024.053.054s.06.15.133.266l.134.21h.899c.765 0 1.093-.04.915-.114-.023-.01-.135-.185-.247-.39a4.28 4.28 0 00-.237-.398 2.903 2.903 0 01-.19-.345c-.088-.175-.177-.326-.2-.336-.021-.01-.04-.052-.04-.093s-.023-.075-.052-.075c-.03 0-.053-.048-.053-.106 0-.059-.024-.107-.053-.107-.03 0-.053-.047-.053-.106 0-.058-.022-.106-.047-.106-.026 0-.063-.042-.082-.093a4.353 4.353 0 00-.182-.357c-.137-.246-.138-.503-.003-.505.018 0 .076-.108.13-.24.055-.13.118-.238.141-.238.024 0 .043-.048.043-.107 0-.058.02-.106.043-.106.038 0 .34-.527.511-.889.03-.065.074-.119.096-.119.022 0 .04-.036.04-.08 0-.044.024-.08.053-.08.03 0 .053-.033.053-.073 0-.087.268-.583.33-.608.022-.01.042-.064.042-.12 0-.055.023-.101.053-.101.029 0 .053-.036.053-.08 0-.044.024-.08.053-.08.03 0 .053-.047.053-.106 0-.058.018-.106.04-.106.022 0 .11-.138.196-.305.086-.168.219-.401.295-.518.077-.117.183-.308.237-.425.053-.116.14-.275.195-.353.134-.19.126-.25-.074-.61a27.694 27.694 0 01-.248-.457c-.041-.08-.095-.146-.119-.146-.024 0-.044-.048-.044-.106 0-.059-.018-.106-.04-.107-.022 0-.066-.054-.097-.12a9.89 9.89 0 00-.394-.729 1.286 1.286 0 01-.102-.159l-.26-.451a9.664 9.664 0 01-.243-.438c-.033-.065-.077-.12-.099-.12-.022 0-.04-.048-.04-.106 0-.058-.018-.106-.04-.106-.023 0-.089-.107-.147-.239-.057-.13-.122-.238-.144-.238-.022 0-.04-.049-.04-.107 0-.058-.024-.106-.053-.106-.03 0-.053-.036-.053-.08 0-.044-.024-.08-.053-.08a.052.052 0 01-.053-.051c0-.028-.108-.234-.24-.456-.13-.222-.238-.426-.238-.453 0-.026-.024-.048-.052-.048-.029 0-.008-.078.046-.173l.282-.49.258-.452a1.08 1.08 0 01.106-.16c.016-.014.07-.11.123-.212.136-.272.321-.607.352-.637a1.29 1.29 0 00.101-.16l.229-.398c.084-.146.167-.307.183-.358.017-.05.051-.093.077-.093.026 0 .047-.036.047-.08 0-.043.024-.079.053-.079.03 0 .053-.046.053-.102 0-.056.02-.11.044-.12.054-.021.434-.667.434-.736 0-.028.024-.05.053-.05.029 0 .053-.037.053-.08 0-.044.024-.08.053-.08.03 0 .053-.048.053-.106 0-.059.02-.107.043-.107.06 0 .223-.35.223-.479 0-.1-.04-.104-.898-.104h-.9l-.07.159m3.376-.04c-.056.066-.15.216-.209.332-.058.117-.12.224-.137.239a.973.973 0 00-.105.199c-.042.095-.093.172-.116.172-.022 0-.04.021-.04.047 0 .025-.135.282-.3.57a21.32 21.32 0 00-.358.644c-.032.065-.076.12-.098.12-.022 0-.04.036-.04.08 0 .045-.06.176-.133.291-.073.116-.133.235-.133.265 0 .03-.023.054-.053.054-.029 0-.053.048-.053.106 0 .059-.018.106-.04.106-.022 0-.074.078-.116.173a1.02 1.02 0 01-.146.243.247.247 0 00-.07.146c0 .041-.023.075-.053.075-.029 0-.053.046-.053.102 0 .056-.018.11-.04.12-.052.023-.185.248-.421.714l-.193.38.168.271c.092.15.168.297.168.326 0 .028.018.052.04.052.022 0 .074.077.115.172a.817.817 0 00.11.2c.02.014.128.193.241.398.113.204.224.38.248.39.023.009.042.06.042.114 0 .054.018.105.04.115.05.022.214.291.294.482.034.08.08.146.103.146.022 0 .041.048.041.106 0 .059.02.107.043.107.024 0 .096.098.16.218.207.388.3.551.332.578a.973.973 0 01.106.2c.041.094.093.172.115.172.022 0 .04.02.04.046 0 .043.311.594.41.726.168.226.245.608.121.608-.029 0-.053.022-.053.049 0 .027-.102.224-.226.438-.125.214-.26.455-.301.535-.041.08-.094.146-.119.146-.024 0-.044.048-.044.106 0 .059-.018.107-.04.107-.022 0-.084.107-.138.239-.054.131-.115.238-.136.238-.02 0-.07.084-.11.186-.04.102-.093.186-.117.186-.023 0-.043.048-.043.106 0 .059-.022.106-.048.106-.026 0-.092.108-.146.24-.054.13-.116.238-.138.238-.022 0-.04.048-.04.107 0 .058-.023.106-.053.106-.029 0-.053.033-.053.075 0 .041-.018.083-.04.093-.021.01-.109.149-.194.31a5.45 5.45 0 01-.252.432.565.565 0 00-.098.2c0 .031-.024.058-.053.058-.03 0-.053.048-.053.106 0 .058-.02.106-.043.106-.024 0-.076.084-.116.186-.04.102-.093.186-.116.186-.024 0-.044.046-.044.103 0 .12.107.374.158.374.02 0 .068.084.108.186.04.102.092.186.116.186.024 0 .043.048.043.106 0 .059.018.107.04.107.022 0 .066.054.097.12.148.308.372.704.408.72.021.01.04.064.04.12 0 .056.017.101.04.101.02 0 .134.186.25.412.272.527.179.489 1.213.49h.892l-.036-.119a1.163 1.163 0 00-.129-.252 5.83 5.83 0 01-.245-.424c-.085-.161-.172-.3-.194-.31-.022-.01-.04-.052-.04-.093 0-.042-.024-.075-.053-.075-.03 0-.053-.048-.053-.106 0-.059-.018-.107-.04-.107-.022 0-.074-.077-.115-.172a.814.814 0 00-.11-.2 2.254 2.254 0 01-.188-.318 5.968 5.968 0 00-.248-.433c-.102-.151-.13-.416-.042-.416.03 0 .053-.046.053-.102 0-.056.018-.11.04-.12.021-.01.09-.113.15-.23.33-.632.424-.798.46-.814.022-.01.04-.042.04-.071 0-.03.044-.117.098-.195a5.44 5.44 0 00.252-.433 3.5 3.5 0 01.18-.318 2.5 2.5 0 00.151-.266c.24-.462.407-.77.434-.796.015-.015.062-.098.106-.186.044-.087.092-.171.107-.186.015-.015.075-.122.133-.239.058-.116.117-.224.132-.239.014-.014.056-.08.093-.146l.133-.239a1.05 1.05 0 01.092-.145c.205-.205.155-.613-.104-.85a1.119 1.119 0 01-.108-.186 1.276 1.276 0 00-.107-.186 1.916 1.916 0 01-.132-.239 1.975 1.975 0 00-.133-.239 1.284 1.284 0 01-.106-.185 1.247 1.247 0 00-.106-.186c-.03-.03-.31-.545-.396-.73-.03-.065-.073-.119-.095-.12-.022 0-.04-.036-.04-.08 0-.043-.024-.079-.053-.079-.03 0-.053-.048-.053-.106 0-.059-.022-.106-.047-.106-.026 0-.063-.06-.08-.133-.02-.073-.058-.133-.087-.133-.028 0-.052-.048-.052-.106 0-.058-.019-.106-.043-.106-.023 0-.076-.084-.116-.186-.04-.102-.092-.186-.116-.186-.024 0-.043-.022-.043-.048 0-.027-.108-.231-.239-.453-.132-.222-.239-.428-.239-.456a.053.053 0 00-.053-.052c-.03 0-.053-.036-.053-.08 0-.043-.024-.079-.053-.079-.03 0-.053-.048-.053-.106 0-.058-.024-.106-.053-.106-.092 0-.056-.286.053-.425a.496.496 0 00.105-.199c0-.037.019-.067.04-.067.022 0 .067-.054.099-.12.032-.065.141-.262.242-.437l.26-.451c.042-.073.089-.145.103-.16.03-.03.13-.2.295-.504.063-.117.17-.308.236-.425.067-.116.181-.32.255-.45.073-.132.153-.248.178-.257.025-.01.045-.064.045-.12 0-.056.024-.102.053-.102.03 0 .053-.036.053-.08 0-.043.024-.079.053-.079.03 0 .053-.021.053-.048 0-.042.09-.21.429-.801.041-.073.089-.145.105-.16.036-.032.21-.402.21-.446 0-.11-1.79-.028-1.889.088m3.28.05a.226.226 0 00-.064.133c0 .038-.024.07-.053.07-.03 0-.053.047-.053.105 0 .059-.024.106-.054.106-.029 0-.052.035-.052.076 0 .041-.019.083-.04.093-.022.01-.133.196-.247.416a4.22 4.22 0 01-.24.424 4.308 4.308 0 00-.244.438c-.117.226-.23.412-.252.412-.021 0-.04.048-.04.106 0 .058-.019.106-.042.106-.024 0-.077.084-.117.186-.04.102-.086.186-.102.186-.017 0-.077.108-.135.24-.058.13-.124.238-.146.238-.023 0-.041.047-.041.106 0 .058-.024.106-.054.106-.029 0-.052.036-.052.08 0 .043-.024.08-.054.08-.029 0-.053.02-.053.047 0 .07-.489.931-.54.952-.024.01-.044.064-.044.12 0 .056-.024.101-.053.101-.105 0-.027.372.101.478.018.015.086.13.152.258.168.325.3.56.331.592.015.014.063.098.106.186.044.087.092.17.108.185.058.054.423.7.423.748 0 .027.024.049.053.049.03 0 .053.047.053.106 0 .058.024.106.054.106.029 0 .053.036.053.08 0 .043.02.08.047.08.026 0 .06.041.076.092.017.051.116.236.22.412.106.175.205.36.222.411.017.051.046.093.065.094.018 0 .08.108.138.238.058.132.123.239.146.239.023 0 .041.048.041.106 0 .058.024.106.053.106.03 0 .054.034.054.075 0 .042.017.084.04.093.043.02.181.241.317.51.085.169.083.183-.053.452-.188.37-.322.592-.371.614-.022.01-.04.063-.04.12 0 .055-.018.101-.04.101-.021 0-.087.108-.144.24-.058.13-.124.238-.146.238-.023 0-.041.035-.041.08 0 .043-.024.079-.053.079-.03 0-.054.048-.054.106 0 .059-.018.106-.04.106-.023 0-.089.107-.147.239-.057.13-.123.238-.144.238-.022 0-.04.049-.04.107 0 .059-.018.106-.04.106-.022 0-.074.078-.116.173a.869.869 0 01-.108.199 3.719 3.719 0 00-.24.398c-.112.205-.224.38-.248.39-.025.01-.044.063-.044.119 0 .056-.024.102-.054.102-.029 0-.053.036-.053.08 0 .043-.024.08-.053.08-.029 0-.053.047-.053.105 0 .059-.018.107-.04.107-.022 0-.087.108-.144.239-.058.131-.124.238-.146.238-.023 0-.042.048-.042.107 0 .058-.024.106-.053.106-.029 0-.053.071-.053.159 0 .088.024.16.053.16.03 0 .053.033.053.074 0 .042.019.084.04.093.022.01.111.161.197.336.087.176.172.331.19.346a.888.888 0 01.108.199c.042.095.094.172.116.172.021 0 .04.048.04.107 0 .058.017.106.04.106.021 0 .065.054.096.12.148.309.372.704.408.72.022.01.04.042.04.072 0 .03.049.123.11.208l.11.154h2.86l-.014-8.64-.013-8.642-.13-.262c-.167-.335-.508-.704-.746-.808a5.286 5.286 0 01-.279-.129c-.131-.07-.485-.06-.56.015m62.385.042a.66.66 0 00-.066.289c0 .101-.024.198-.053.216-.03.018-.053.134-.053.258s-.022.248-.048.276c-.026.028-.06.158-.075.29-.014.13-.066.43-.114.663a10.23 10.23 0 00-.119.678c-.016.139-.05.266-.076.282-.025.015-.046.121-.046.235 0 .113-.024.22-.053.238-.03.018-.053.108-.053.199 0 .091-.022.239-.05.329-.027.09-.092.396-.143.68-.11.613-.095.607-.52.186a2.761 2.761 0 00-.753-.537c-.23-.112-.46-.226-.511-.252a.59.59 0 00-.226-.047c-.073 0-.133-.02-.133-.046 0-.17-2.581-.17-2.686 0-.015.025-.097.046-.181.046-.084 0-.168.024-.186.053-.018.03-.09.053-.16.053-.069 0-.14.024-.159.053-.018.03-.066.053-.107.053-.096 0-.683.274-.707.33-.01.023-.063.042-.119.042-.056 0-.102.024-.102.053 0 .029-.034.053-.075.053-.042 0-.083.02-.093.043-.01.023-.137.124-.283.224-.287.196-.945.84-1.181 1.157a5.42 5.42 0 01-.226.284c-.044.049-.151.228-.239.398s-.177.318-.2.327c-.021.01-.039.064-.039.12 0 .056-.024.102-.053.102-.03 0-.053.057-.053.128 0 .07-.018.136-.04.146-.054.024-.226.535-.226.672 0 .06-.024.124-.053.142-.029.018-.053.125-.053.238 0 .112-.028.214-.062.225-.092.031-.095 2.4-.003 2.492.036.036.065.133.065.215 0 .083.021.191.047.242.026.05.076.188.112.304.082.269.328.791.383.815.023.01.042.04.042.067 0 .253 1.23 1.481 1.483 1.481.031 0 .057.02.057.046 0 .093 1.1.538 1.33.538.074 0 .16.025.191.056.163.163 1.979.005 2.527-.22l.425-.174c.08-.033.146-.073.146-.09 0-.016.084-.063.186-.103.102-.04.186-.086.187-.103 0-.016.108-.101.239-.189.13-.087.237-.177.237-.199 0-.022.024-.04.054-.04.065 0 .07.278.006.348-.025.028-.061.188-.08.356l-.034.306 1.82-.014 1.818-.014.017-.199c.009-.11.038-.199.066-.199.028 0 .05-.107.05-.239 0-.131.022-.239.048-.239.026 0 .06-.113.075-.252.014-.138.067-.467.116-.73.05-.262.102-.591.117-.73.014-.138.047-.252.074-.252.026 0 .048-.107.048-.239 0-.131.021-.239.048-.239.026 0 .06-.113.076-.252.015-.139.052-.372.08-.518.176-.897.23-1.188.254-1.353.014-.103.047-.234.073-.293a1.47 1.47 0 00.073-.318 6.29 6.29 0 01.085-.478c.032-.146.08-.373.106-.504.09-.46.217-1.09.273-1.354.03-.146.068-.38.083-.518.015-.139.049-.252.075-.252.026 0 .048-.106.048-.236s.024-.25.053-.268c.03-.018.053-.14.053-.27 0-.129.022-.235.048-.235.027 0 .06-.125.075-.279a8.8 8.8 0 01.116-.73c.156-.792.19-.977.22-1.194.017-.117.051-.235.077-.263.027-.027.048-.14.048-.25 0-.11.022-.254.047-.32.026-.068.088-.35.137-.627a24 24 0 01.135-.717c.026-.117.06-.29.075-.385l.028-.172h-1.897c-1.835 0-1.9.003-1.963.105m5.88-.01a.247.247 0 01-.047.146c-.027.028-.06.146-.076.263a15.03 15.03 0 01-.113.637c-.047.234-.1.55-.117.704-.017.153-.052.278-.078.278-.026 0-.047.106-.047.236s-.023.25-.052.269c-.03.018-.054.137-.054.265s-.02.246-.046.262c-.025.015-.06.142-.079.281-.017.14-.069.445-.115.678-.045.234-.096.539-.113.678-.018.14-.053.267-.078.282-.026.016-.046.13-.046.254s-.022.248-.048.276c-.026.027-.06.145-.076.262a8.507 8.507 0 01-.083.478 23.916 23.916 0 00-.257 1.38c-.014.117-.047.236-.073.263-.026.028-.047.149-.047.269 0 .12-.022.24-.048.268-.026.027-.061.146-.078.263-.073.522-.096.643-.14.743a1.454 1.454 0 00-.073.318c-.014.117-.063.404-.11.637-.046.234-.099.54-.117.678-.018.14-.053.267-.079.282-.025.016-.046.122-.046.235 0 .113-.024.22-.053.239-.029.018-.053.138-.053.265 0 .128-.02.246-.046.262-.026.015-.06.154-.078.308a8.68 8.68 0 01-.114.678c-.046.22-.098.512-.116.651-.017.14-.052.267-.077.282-.026.016-.047.13-.047.254s-.027.252-.06.285c-.21.211-.08.227 1.908.227h1.905l.06-.279a8.51 8.51 0 00.152-.81c.016-.116.05-.234.076-.262.026-.028.047-.153.047-.279 0-.125.021-.228.047-.228.025 0 .06-.126.074-.279.026-.253.123-.787.26-1.42a6.34 6.34 0 00.077-.451c.014-.117.047-.26.073-.319.026-.058.06-.19.074-.292.035-.23.154-.844.355-1.832.127-.618.162-.808.19-1.008.016-.117.05-.235.077-.263.026-.028.048-.152.048-.276 0-.124.02-.238.046-.254.025-.015.06-.142.078-.282.017-.139.069-.432.114-.651.046-.219.098-.512.115-.651.018-.14.053-.267.078-.282.026-.016.046-.133.046-.262 0-.128.024-.247.054-.265.029-.018.052-.138.052-.266 0-.127.022-.245.047-.26.025-.016.06-.143.076-.283.016-.139.069-.456.117-.704.048-.248.1-.547.115-.664.016-.116.05-.235.076-.263.026-.027.047-.148.047-.268 0-.12.022-.24.048-.268.026-.028.06-.146.077-.263.03-.218.103-.623.186-1.022l.047-.225h-1.931c-1.824 0-1.93.005-1.93.095m32.917.008c0 .057-.024.118-.054.136-.029.018-.053.106-.053.196 0 .09-.022.25-.05.355a11.62 11.62 0 00-.105.484c-.03.16-.108.543-.17.85-.064.306-.125.64-.137.743a1.293 1.293 0 01-.069.292c-.044.1-.058.172-.134.69-.018.117-.052.26-.077.319a1.66 1.66 0 00-.076.345 9.827 9.827 0 01-.111.637c-.046.219-.097.512-.115.651-.017.14-.052.266-.077.282-.026.016-.047.121-.047.235 0 .113-.024.22-.053.239-.03.018-.053.15-.053.291 0 .143-.02.273-.046.288-.026.016-.06.143-.076.282-.017.14-.07.445-.117.678-.166.811-.193.957-.22 1.208-.016.139-.05.252-.077.252-.026 0-.048.088-.048.196 0 .107-.023.268-.052.358-.028.09-.113.497-.188.906-.076.41-.159.827-.185.93a4.637 4.637 0 00-.143.756c-.014.139-.046.252-.07.252-.023 0-.054.114-.07.252a6.314 6.314 0 01-.082.518c-.031.146-.092.457-.135.69-.043.234-.095.49-.114.571l-.035.146h3.888v-.156c0-.086.024-.171.053-.19.03-.017.053-.133.053-.257s.022-.248.048-.276c.026-.027.058-.146.071-.262.032-.28.241-1.337.307-1.544a1.36 1.36 0 00.052-.348c0-.101.021-.207.047-.235.027-.028.063-.152.08-.276l.064-.451c.018-.124.054-.249.08-.276.026-.028.048-.128.048-.223 0-.096.02-.228.047-.295a6.38 6.38 0 00.142-.642c.052-.287.115-.533.139-.548.024-.015.043-.085.043-.156s.024-.13.053-.13c.03 0 .053-.048.053-.106 0-.058.024-.106.053-.106.03 0 .053-.034.053-.075 0-.095.173-.402.226-.403.022 0 .04-.028.04-.062 0-.072.455-.522.527-.522a.08.08 0 00.066-.042c.122-.292 1.474-.462 2.11-.265.658.203.932 1.246.646 2.457a15.13 15.13 0 00-.108.505l-.133.69a35.01 35.01 0 01-.14.69c-.03.131-.066.334-.081.451a1.47 1.47 0 01-.073.319c-.026.058-.059.19-.074.292-.035.232-.176.963-.356 1.832-.03.145-.068.343-.084.438l-.029.172h3.888v-.175c0-.097.021-.198.047-.226.027-.028.061-.158.076-.29.016-.13.053-.346.082-.477.087-.382.116-.525.23-1.115.06-.307.13-.665.158-.796.028-.132.064-.335.08-.452.015-.117.05-.235.075-.262.026-.028.048-.149.048-.269 0-.12.021-.24.048-.268.026-.027.06-.158.074-.29.025-.219.113-.683.257-1.353.031-.146.068-.427.082-.624.014-.197.048-.358.074-.358.027 0 .049-.215.049-.478 0-.283-.022-.478-.053-.478-.03 0-.053-.118-.053-.263a1.41 1.41 0 00-.047-.385 7.105 7.105 0 01-.111-.334c-.09-.293-.323-.77-.376-.77-.024 0-.057-.042-.075-.093-.089-.265-.95-.971-1.287-1.056-.067-.017-.122-.052-.122-.078 0-.026-.058-.047-.13-.047-.07 0-.144-.024-.162-.053-.018-.03-.09-.053-.159-.053-.07 0-.14-.02-.155-.046-.105-.171-2.451-.171-2.557 0-.016.025-.11.046-.211.046-.1 0-.183.024-.183.053 0 .03-.06.053-.133.053-.073 0-.132.024-.132.053 0 .03-.035.053-.078.053-.096 0-.473.171-.497.226-.01.022-.064.04-.12.04-.056 0-.102.024-.102.053 0 .029-.035.053-.08.053-.043 0-.08.019-.08.042 0 .022-.074.085-.165.14l-.167.098.03-.286a8.06 8.06 0 01.117-.684c.047-.22.11-.518.138-.664.233-1.16.264-1.32.293-1.513.015-.102.048-.234.073-.292.026-.059.058-.19.07-.292.038-.287.183-1.025.224-1.128.034-.088-.078-.093-1.907-.093-1.888 0-1.943.003-1.943.103m-84.417.532c-.044.03-.186.054-.315.054s-.308.023-.398.05c-.09.027-.354.09-.588.138-.437.09-.756.18-.85.241a1.923 1.923 0 01-.305.107c-.138.04-.252.09-.252.113 0 .023-.032.042-.071.042a.757.757 0 00-.226.073 9.61 9.61 0 01-.327.146c-.095.04-.172.086-.172.103 0 .016-.084.063-.186.103-.102.04-.186.09-.186.11 0 .02-.041.051-.093.069-.115.04-.427.229-.518.314a7.06 7.06 0 01-.265.224c-.332.268-1.354 1.314-1.354 1.385 0 .02-.044.074-.098.121a1.745 1.745 0 00-.25.365c-.083.153-.17.279-.193.279-.023 0-.042.048-.042.106 0 .059-.024.106-.054.106-.029 0-.053.021-.053.047s-.107.276-.239.555c-.131.28-.239.557-.239.617 0 .06-.024.108-.053.108-.029 0-.053.059-.053.13 0 .071-.024.144-.053.163-.029.018-.053.103-.053.189a.63.63 0 01-.05.25c-.275.504-.273 3.539.001 4.06.027.05.05.128.05.173 0 .044.021.122.048.173.1.19.27.597.27.649 0 .03.024.054.053.054.029 0 .053.025.053.057 0 .273 1.025 1.484 1.571 1.856.143.097.272.19.287.207.03.033.244.155.591.335.128.066.24.137.25.16.01.021.052.04.093.04.042 0 .118.02.168.046.465.236 1.314.47 1.884.52.168.015.306.048.306.075 0 .068 2.586.064 2.628-.005.018-.029.173-.053.345-.053s.327-.024.345-.053c.018-.029.091-.053.163-.053.071 0 .362-.06.647-.134.485-.127.65-.183.875-.297a.462.462 0 01.172-.047c.045 0 .081-.024.081-.053 0-.029.036-.053.08-.053a.464.464 0 00.173-.047l.304-.156c.117-.06.296-.151.399-.202.102-.052.197-.11.212-.129a.944.944 0 01.186-.121c.355-.192.371-.228.486-1.07.016-.117.05-.236.077-.263.026-.028.047-.149.047-.268 0-.12.022-.24.048-.268.026-.028.059-.147.073-.263.023-.191.101-.612.257-1.38.03-.147.066-.35.08-.452.015-.102.048-.234.073-.292.026-.058.06-.19.074-.292.015-.102.053-.311.083-.465.054-.273.108-.558.188-1.008l.04-.226h-3.5l-.062.135a.906.906 0 00-.062.316c0 .099-.023.195-.052.213-.03.018-.054.134-.054.258s-.021.247-.047.275c-.027.028-.061.146-.078.263-.072.515-.096.643-.137.744a3.793 3.793 0 00-.11.504c-.035.219-.087.505-.115.637a13.38 13.38 0 00-.08.425c-.036.226-.104.318-.235.318-.055 0-.1.024-.1.053 0 .03-.084.053-.186.053s-.186.02-.186.046c0 .025-.161.066-.358.09-.706.09-2.19.028-2.19-.09 0-.025-.06-.046-.134-.046a.578.578 0 01-.225-.048c-.05-.027-.2-.098-.332-.158a5.142 5.142 0 01-.396-.204c-.216-.129-.771-.697-.771-.79 0-.04-.019-.074-.04-.074-.057 0-.253-.398-.366-.743-.117-.357-.133-1.712-.026-2.177.105-.454.231-.87.28-.926a.258.258 0 00.045-.146c0-.053.024-.096.053-.096.03 0 .054-.048.054-.106 0-.058.024-.106.053-.106.029 0 .053-.036.053-.08 0-.044.018-.08.04-.08.022 0 .069-.065.105-.146.278-.628 1.494-1.614 2.212-1.795.076-.02.152-.056.168-.082.016-.026.112-.047.212-.047.1 0 .183-.024.183-.053 0-.03.126-.053.281-.053.155 0 .307-.026.338-.057.1-.1 1.835.002 1.953.115.028.026.1.048.16.049.202.001.885.29.984.417a.858.858 0 00.177.11c.082.043.327.255.545.471l.396.394.098-.113c.054-.062.114-.112.133-.112.02 0 .092-.054.16-.12.068-.065.19-.167.272-.225.081-.059.174-.13.206-.16.031-.03.248-.196.482-.372a8.43 8.43 0 00.504-.398c.044-.044.176-.15.292-.236.117-.086.251-.2.299-.252.047-.052.105-.095.129-.095.024 0 .097-.05.162-.112l.118-.11-.115-.14c-.209-.255-1.05-1.072-1.102-1.072-.03 0-.104-.048-.166-.106-.063-.059-.146-.106-.184-.106-.038 0-.07-.022-.07-.048 0-.026-.107-.092-.239-.146-.13-.054-.238-.116-.238-.138 0-.022-.048-.04-.107-.04-.058 0-.106-.024-.106-.053 0-.03-.046-.053-.103-.053-.057 0-.118-.024-.136-.053-.018-.03-.08-.053-.136-.053-.056 0-.103-.024-.103-.053 0-.03-.041-.054-.093-.054a1.37 1.37 0 01-.305-.075c-.244-.085-.915-.236-1.38-.31-.46-.073-2.849-.106-2.947-.04m29.36 3.293a1.73 1.73 0 01-.382.047c-.137.003-.264.03-.282.059-.018.029-.101.053-.185.053-.085 0-.168.024-.186.053-.018.03-.067.053-.108.053-.11 0-.928.382-.928.434 0 .024-.037.044-.083.044a.251.251 0 00-.15.066 2.322 2.322 0 01-.215.173 2.647 2.647 0 00-.218.172c-.038.037-.083.067-.1.067-.053 0-.032-.364.023-.399.03-.018.053-.128.053-.245a.85.85 0 01.055-.316c.054-.1.018-.102-1.805-.102h-1.86v.175c0 .096-.022.198-.048.226-.026.027-.06.146-.076.262-.035.255-.107.647-.224 1.221a11.35 11.35 0 00-.113.638c-.015.116-.05.235-.075.262-.027.028-.048.149-.048.269 0 .12-.022.24-.048.268-.026.028-.06.158-.074.29-.015.13-.066.43-.115.663a9.87 9.87 0 00-.115.663 1.62 1.62 0 01-.073.345 1.58 1.58 0 00-.076.306l-.06.398c-.016.11-.05.247-.076.305-.026.059-.058.19-.07.292a25.36 25.36 0 01-.258 1.328 5.906 5.906 0 00-.08.477c-.015.132-.049.262-.075.29-.027.027-.048.152-.048.275 0 .124-.024.24-.053.258-.03.018-.053.108-.053.199 0 .09-.022.239-.049.328a5.814 5.814 0 00-.2.993l-.032.312h1.886c2.075 0 1.972.017 2.022-.345.016-.117.052-.32.08-.452.029-.13.092-.441.142-.69l.142-.716c.03-.146.076-.373.105-.505a7.01 7.01 0 00.08-.45c.016-.118.05-.236.076-.264.027-.027.048-.152.048-.275 0-.124.024-.24.053-.258.03-.018.054-.097.054-.176 0-.079.05-.37.11-.647.06-.278.122-.607.139-.731.016-.125.05-.24.076-.256.025-.016.046-.099.046-.184 0-.086.024-.157.053-.157.03 0 .053-.06.053-.132 0-.073.024-.133.053-.133.03 0 .053-.038.053-.084 0-.228.562-.932.906-1.134.852-.501 2.045-.482 2.546.042.087.091.159.19.159.22s.018.053.041.053c.193 0 .199 1.678.006 1.882-.026.028-.047.152-.047.276 0 .124-.024.24-.054.258-.029.018-.052.106-.052.196 0 .09-.022.25-.05.355a13.68 13.68 0 00-.137.723 6.12 6.12 0 01-.137.653.973.973 0 00-.048.295c0 .095-.022.195-.048.223-.026.028-.06.146-.077.263-.027.198-.048.309-.189 1.009-.132.657-.2 1.088-.174 1.113.015.015.869.028 1.897.028 2.057 0 1.956.017 2.007-.345.016-.117.052-.332.08-.478.116-.615.218-1.132.273-1.38a6.79 6.79 0 00.09-.52c.016-.138.051-.265.076-.281.026-.016.047-.121.047-.235 0-.113.024-.22.053-.238.029-.019.053-.138.053-.266s.02-.246.046-.261c.026-.016.06-.155.076-.309s.069-.47.118-.704c.048-.234.1-.52.115-.637.015-.117.049-.236.075-.263.026-.028.048-.164.048-.302 0-.139.023-.267.053-.285.032-.02.053-.389.053-.929s-.021-.91-.053-.93c-.03-.017-.053-.126-.053-.241 0-.115-.024-.21-.053-.21-.03 0-.053-.043-.053-.095 0-.054-.06-.22-.133-.372a1.99 1.99 0 01-.133-.317c0-.023-.048-.076-.106-.118-.059-.042-.106-.103-.106-.135 0-.075-.556-.608-.633-.608-.032 0-.058-.022-.058-.048 0-.065-.725-.43-.853-.43-.056 0-.102-.024-.102-.053 0-.03-.068-.053-.15-.053-.083 0-.169-.018-.19-.04-.124-.123-1.588-.216-1.89-.12m31.314-.025c-.015.015-.18.05-.367.078-.499.073-.705.116-.764.157-.03.02-.16.07-.292.11a1.72 1.72 0 00-.344.142.438.438 0 01-.199.07c-.052 0-.094.019-.094.043 0 .023-.084.075-.186.116-.103.04-.186.086-.186.103 0 .016-.066.06-.146.096-.167.076-.369.23-.627.478-.099.094-.198.173-.22.173-.023.001-.114.086-.202.19a14.5 14.5 0 01-.358.41c-.11.123-.199.247-.199.277 0 .03-.048.089-.106.131-.059.042-.106.096-.106.119 0 .023-.06.137-.133.252-.073.116-.133.247-.133.292 0 .044-.024.08-.053.08-.029 0-.053.048-.053.106 0 .059-.024.107-.053.107-.03 0-.053.043-.053.095 0 .053-.02.118-.046.146-.044.049-.279.786-.354 1.113-.02.087-.049.326-.062.53-.013.205-.046.395-.073.422-.066.069-.063 1.024.004 1.065.029.018.053.155.053.305s.022.345.049.435c.027.09.09.306.138.481.097.341.39.997.46 1.027.024.01.043.04.043.067 0 .184.81 1.092 1.157 1.297.093.055.17.12.17.142 0 .023.021.042.047.042.025 0 .163.066.305.146.328.185.63.297 1.347.499.226.063 1.685.029 2.018-.048.455-.105 1.083-.35 1.208-.472a.517.517 0 01.173-.098c.058-.019.105-.056.105-.084 0-.027.03-.05.067-.05.036 0 .147-.072.245-.159.098-.086.2-.144.226-.128.063.039.06.22-.006.261-.03.018-.054.11-.054.205 0 .095-.027.2-.06.232-.209.21-.07.227 1.77.226 1.92 0 1.873.006 1.917-.264.017-.103.055-.306.084-.452.156-.768.234-1.189.257-1.38.014-.117.046-.235.073-.263.026-.028.047-.153.047-.279 0-.125.024-.228.053-.228.03 0 .054-.107.054-.239 0-.131.021-.239.047-.239.027 0 .061-.113.077-.252.015-.139.051-.372.08-.518l.141-.716c.05-.249.101-.565.116-.704s.048-.252.075-.252c.026 0 .048-.106.048-.236s.023-.25.053-.269c.029-.017.053-.125.053-.24 0-.113.021-.26.047-.328.026-.067.077-.3.112-.52.036-.219.088-.506.115-.637.138-.668.16-.789.186-1.022.015-.139.047-.252.07-.252.024 0 .055-.114.07-.252.014-.139.065-.444.113-.677.049-.234.102-.515.12-.624l.03-.2h-3.889v.21c0 .115-.023.224-.052.242-.03.018-.054.138-.054.266 0 .127-.024.247-.053.265-.029.018-.053.091-.053.162 0 .17-.062.165-.173-.016-.226-.365-.938-.916-1.184-.916-.042 0-.076-.024-.076-.053 0-.03-.059-.053-.13-.053-.071 0-.144-.024-.162-.053-.018-.03-.092-.053-.163-.053a.583.583 0 01-.223-.048c-.231-.119-1.785-.232-1.88-.137m14.795.026a2.623 2.623 0 01-.435.05c-.122.001-.237.026-.255.056-.018.029-.125.053-.239.053-.113 0-.22.024-.239.053-.018.03-.087.053-.155.053-.067 0-.24.046-.382.102l-.51.199c-.14.053-.253.115-.253.137 0 .022-.048.04-.107.04-.058 0-.106.024-.106.053 0 .029-.047.053-.106.053-.058 0-.106.024-.106.053 0 .03-.023.053-.05.053-.048 0-.297.154-.573.353-.377.272-1.057.95-1.285 1.28a1.09 1.09 0 01-.176.217c-.022.01-.04.051-.04.093 0 .04-.024.075-.053.075-.03 0-.053.036-.053.08 0 .043-.024.079-.053.079-.03 0-.053.036-.053.08 0 .043-.024.08-.053.08-.03 0-.053.031-.053.07 0 .067-.1.312-.216.526a.441.441 0 00-.05.172c0 .045-.024.08-.053.08-.029 0-.053.084-.053.187 0 .102-.024.185-.053.185-.03 0-.053.08-.053.175 0 .097-.028.203-.061.237-.085.085-.129 2.076-.054 2.429l.09.424c.032.157.098.337.19.517a.464.464 0 01.047.173c0 .044.018.08.04.08.022 0 .084.108.138.24.054.13.12.238.146.238.026 0 .048.03.049.066.002.13.596.78.917 1.005.093.065.182.134.197.152.038.049.587.387.743.458.693.316 1.01.417 1.752.56.41.078 2.497.115 2.568.044.03-.03.14-.055.243-.056.104 0 .428-.074.72-.163.292-.09.584-.176.65-.191.066-.016.12-.05.12-.076 0-.026.034-.047.076-.047.085 0 .646-.293.777-.405.046-.04.107-.073.134-.073.028 0 .085-.047.127-.106.043-.058.103-.106.135-.106.074 0 .76-.669.96-.936.083-.113.166-.218.182-.232.016-.015.08-.1.143-.19l.113-.162-.125-.094c-.16-.12-.556-.345-.677-.385-.052-.017-.093-.052-.093-.078 0-.026-.036-.047-.08-.047-.044 0-.08-.023-.08-.053a.055.055 0 00-.055-.053c-.031 0-.187-.083-.346-.186-.16-.102-.314-.185-.343-.185a.053.053 0 01-.052-.054c0-.029-.021-.053-.047-.053-.05 0-.63-.333-.734-.422-.11-.095-.26-.06-.334.077-.04.073-.09.133-.115.133-.025 0-.044.036-.044.08 0 .043-.024.08-.053.08-.03 0-.054.029-.056.066 0 .036-.11.15-.244.252a6.38 6.38 0 00-.313.252.262.262 0 01-.153.066c-.046 0-.084.024-.084.053 0 .03-.043.054-.095.054a.236.236 0 00-.147.05c-.233.233-2.147.135-2.147-.11 0-.026-.036-.047-.08-.047-.043 0-.08-.023-.08-.053 0-.029-.026-.053-.057-.053-.055 0-.228-.168-.42-.407-.132-.163-.266-.49-.266-.646 0-.08-.025-.172-.057-.204-.11-.11.006-1.315.17-1.742.138-.364.18-.452.219-.452.022 0 .04-.036.04-.08 0-.043.024-.08.053-.08.03 0 .054-.029.055-.065.004-.184.864-.89 1.084-.89.045 0 .082-.024.082-.053 0-.029.07-.053.156-.053s.171-.024.19-.053c.018-.03.29-.053.636-.053.346 0 .619.023.638.053.018.03.103.053.189.053.085 0 .156.024.156.053 0 .03.028.053.063.053.213 0 .658.421.927.876.104.175.197.328.208.34.01.01.08-.02.152-.067a.523.523 0 01.214-.087c.045 0 .081-.024.081-.053 0-.03.048-.053.107-.053.058 0 .106-.024.106-.053 0-.03.026-.053.057-.053.054 0 .19-.061 1.35-.609.263-.124.555-.258.65-.299.095-.04.173-.092.173-.114 0-.022.042-.04.093-.042.204-.004.287-.128.2-.296a.704.704 0 01-.08-.22c0-.036-.019-.066-.04-.066-.023 0-.07-.066-.107-.146-.06-.132-.166-.272-.53-.697a.596.596 0 01-.12-.18c0-.021-.03-.04-.067-.04-.036-.001-.168-.095-.292-.21-.125-.114-.274-.222-.332-.24-.058-.02-.105-.056-.105-.083 0-.028-.035-.05-.076-.05-.041 0-.083-.02-.093-.046-.024-.061-.803-.432-.91-.432-.045 0-.098-.024-.116-.053-.018-.03-.103-.053-.19-.053-.085 0-.155-.024-.155-.053 0-.03-.091-.053-.202-.053-.11 0-.225-.022-.252-.049-.11-.104-1.963-.192-2.334-.11m-66.152.252c-.045.112-.13.584-.169.929-.015.138-.05.252-.075.252-.027 0-.048.106-.048.236s-.021.248-.046.264c-.026.016-.06.143-.077.282-.027.237-.141.848-.259 1.395a5.723 5.723 0 00-.079.491c-.015.139-.049.252-.075.252-.027 0-.048.088-.048.196 0 .107-.023.268-.052.358-.057.179-.253 1.146-.335 1.65-.179 1.103.062 2.857.434 3.159a.908.908 0 01.112.18c.104.201.628.726.827.828.085.044.167.093.182.11.11.121.943.42 1.178.42.079 0 .158.025.175.054.043.068 1.686.071 1.908.004.09-.027.27-.078.402-.112.38-.099 1.009-.337 1.009-.382 0-.022.046-.04.101-.04.056 0 .11-.02.12-.044.024-.057.721-.54.78-.54.056 0 .014.463-.053.593a.675.675 0 00-.046.252v.163h1.772c2.059 0 1.841.081 1.995-.743.062-.336.135-.694.162-.797.055-.21.101-.432.139-.663.014-.088.046-.255.072-.372l.104-.504c.032-.161.107-.531.168-.823a12.4 12.4 0 00.138-.784c.017-.14.05-.267.076-.282.026-.016.046-.135.046-.265s.024-.235.054-.235c.029 0 .053-.103.053-.229 0-.125.021-.25.048-.279.026-.027.06-.158.076-.289.015-.131.067-.442.114-.69.048-.248.1-.547.115-.664.016-.117.05-.235.077-.262.026-.028.047-.149.047-.269 0-.12.022-.24.048-.268.027-.028.06-.158.075-.29.014-.13.066-.43.113-.663.048-.233.111-.556.14-.716l.097-.531c.024-.132.061-.281.083-.332.038-.088-.073-.093-1.904-.093h-1.943v.13c0 .07-.024.144-.053.162-.03.018-.053.125-.053.239 0 .113-.024.22-.053.239-.03.018-.054.138-.054.268s-.021.236-.047.236c-.027 0-.06.114-.075.252-.026.242-.137.86-.255 1.42-.031.146-.069.38-.084.518-.014.139-.048.252-.074.252-.027 0-.049.106-.049.236s-.023.25-.053.269c-.029.018-.053.097-.054.175 0 .079-.049.37-.108.648-.06.277-.123.594-.14.704-.017.11-.051.214-.077.23-.025.015-.045.086-.045.157 0 .071-.024.13-.054.13-.029 0-.053.06-.053.132 0 .073-.023.133-.053.133a.054.054 0 00-.053.054c0 .179-.641.915-.856.984-.055.017-.1.053-.1.08 0 .028-.047.05-.106.05-.058 0-.106.024-.106.053 0 .03-.07.053-.156.053s-.17.024-.189.053c-.043.07-1.23.07-1.274 0-.018-.029-.08-.053-.136-.053-.057 0-.103-.023-.103-.053 0-.029-.04-.053-.087-.053-.399 0-.681-1.053-.506-1.884.037-.176.088-.427.112-.558.025-.132.087-.442.138-.69a9.49 9.49 0 00.117-.704c.013-.139.046-.252.072-.252.026 0 .048-.106.048-.236s.024-.25.053-.268c.029-.018.053-.138.053-.266s.02-.245.046-.261c.026-.016.06-.142.079-.282.018-.14.07-.444.117-.678.047-.233.097-.532.112-.663.015-.132.05-.262.076-.29.026-.028.048-.152.048-.276 0-.123.024-.24.053-.258.183-.113-.094-.132-1.88-.132-1.79 0-1.934.007-1.969.093M75.293 7.98c.482.17 1.063.62 1.063.822 0 .037.023.066.052.066.03 0 .054.048.054.107 0 .058.024.106.053.106.029 0 .053.067.053.149 0 .081.025.174.056.205.108.108.024 1.423-.113 1.756-.326.792-.363.855-.715 1.207-.289.289-.435.4-.53.4-.043 0-.079.023-.079.052 0 .03-.046.054-.102.054-.057 0-.117.021-.134.048-.174.282-1.719.154-2.184-.181-.259-.187-.606-.567-.606-.665a.435.435 0 00-.046-.146c-.218-.43-.212-1.948.007-2.167.022-.022.04-.095.04-.164 0-.068.023-.123.052-.123.03 0 .053-.033.053-.072 0-.103.137-.362.263-.498a.502.502 0 00.109-.147c0-.16.93-.77 1.175-.77.051 0 .108-.024.126-.053.047-.076 1.13-.065 1.353.014m20.057-.018c.05.026.234.112.407.19.306.136.72.51.72.65 0 .037.024.066.053.066.03 0 .054.048.054.107 0 .058.024.106.053.106.029 0 .053.067.053.149 0 .081.025.174.056.205.106.106.003 1.674-.115 1.747-.026.016-.047.074-.047.13 0 .332-.732 1.271-1.128 1.446-.08.036-.147.083-.147.105 0 .022-.043.04-.095.04a.238.238 0 00-.148.052c-.283.284-2.199.092-2.199-.22 0-.024-.033-.044-.074-.044-.151 0-.616-.64-.616-.849 0-.058-.024-.107-.053-.107-.074 0-.069-1.456.006-1.695.033-.104.08-.23.106-.282a.521.521 0 00.047-.199c0-.058.02-.106.043-.106.023 0 .07-.078.104-.173.094-.258.627-.89.751-.89.032 0 .058-.019.058-.043 0-.055.585-.328.703-.328.048 0 .101-.024.12-.053.041-.067 1.162-.07 1.288-.004m-30.967 11.43c-.878.508-.258 1.954.645 1.503.358-.178.669-.924.444-1.063-.03-.018-.054-.071-.054-.118 0-.291-.707-.511-1.035-.322m51.898-.011a.055.055 0 01-.056.053c-.084 0-.316.25-.316.34 0 .043-.024.093-.053.111-.03.018-.053.163-.053.322s.024.289.053.289c.029 0 .053.042.053.094s.05.13.113.173a1.9 1.9 0 01.182.144c.173.166.739.042.955-.21.197-.23.315-.784.183-.865-.029-.018-.052-.067-.052-.109 0-.1-.165-.29-.251-.29-.038 0-.068-.023-.068-.052 0-.03-.15-.053-.345-.053-.195 0-.345.023-.345.053m-35.634.664a1.802 1.802 0 01-.34.084c-.31.056-.988.34-1.023.428a.077.077 0 01-.066.045c-.122 0-.898.776-.898.898 0 .027-.018.057-.04.066-.07.031-.332.57-.332.681 0 .059-.024.107-.053.107-.03 0-.053.058-.053.13 0 .07-.024.144-.053.162-.03.018-.053.114-.053.212 0 .1-.024.195-.053.213-.032.02-.053.38-.053.902 0 .523.02.883.053.903.029.018.053.115.053.215 0 .1.024.183.053.183.029 0 .053.034.053.075 0 .44 1.048 1.465 1.497 1.465.05 0 .104.024.122.053.018.029.126.053.24.053.113 0 .22.024.238.053.018.03.21.053.425.053.216 0 .407-.024.425-.053.018-.03.127-.053.242-.053a.821.821 0 00.303-.05c.05-.028.205-.09.344-.14.138-.05.252-.11.252-.136 0-.025.025-.046.055-.046.093 0 .742-.61.742-.697 0-.046-.08-.15-.319-.418a5.054 5.054 0 01-.384-.497c-.026-.039-.123.03-.273.192-.13.139-.272.252-.32.252-.046 0-.085.022-.085.048 0 .197-1.163.292-1.525.125-.39-.18-.811-.664-.811-.93 0-.069-.025-.15-.057-.181-.1-.1-.021-1.168.11-1.478.025-.058.086-.22.136-.358.05-.139.111-.252.137-.252.025 0 .046-.034.046-.076 0-.042.122-.195.272-.34.857-.83 1.992-.785 2.615.104.115.164 1.065-.758.966-.938-.092-.167-.667-.714-.75-.714-.043 0-.077-.02-.077-.045 0-.025-.15-.086-.332-.136-.182-.05-.405-.114-.495-.142-.17-.051-.888-.069-.934-.022m-52.021.159c0 .043-.024.08-.053.08-.03 0-.053.047-.053.106 0 .058-.02.106-.043.106-.023 0-.086.107-.14.239-.055.131-.12.238-.144.238-.025 0-.045.046-.045.102 0 .056-.018.11-.04.12-.022.01-.159.25-.305.535-.146.285-.283.518-.305.518-.022 0-.04.047-.04.106 0 .058-.018.106-.04.106-.023 0-.074.078-.116.173a.983.983 0 01-.105.199 2.983 2.983 0 00-.19.357c-.088.182-.178.332-.2.332-.022 0-.04.047-.04.103 0 .056-.018.11-.04.12-.023.009-.118.172-.213.362-.094.19-.25.488-.347.664-.209.378-.554 1.016-.848 1.566-.117.219-.233.42-.258.448-.105.116-.013.136.631.136h.677l.1-.173c.262-.453.298-.526.298-.599 0-.042.019-.078.042-.078.022 0 .088-.121.146-.27.149-.384.09-.37 1.518-.354l1.294.014.042.239c.077.44.138.768.182.982l.043.212.623.015c.48.012.623 0 .623-.053 0-.037-.038-.27-.086-.519a13.187 13.187 0 01-.111-.664c-.014-.116-.047-.235-.074-.263-.026-.027-.047-.14-.047-.248 0-.11-.024-.214-.053-.232-.03-.018-.054-.127-.054-.243a.842.842 0 00-.048-.302c-.026-.05-.087-.32-.135-.596-.106-.618-.18-.984-.245-1.199a1.514 1.514 0 01-.05-.358c0-.108-.023-.195-.052-.195-.03 0-.053-.107-.053-.236 0-.13-.024-.25-.054-.27-.029-.017-.053-.096-.053-.175-.001-.17-.188-1.095-.237-1.175-.06-.097-1.302-.073-1.302.024m9.751.597c-.016.11-.044.33-.062.491-.054.472-.103.531-.432.531-.328 0-.361.039-.407.478-.017.16-.047.37-.067.464l-.036.173h.292c.36 0 .362.006.269.61-.04.263-.088.616-.105.785-.017.168-.052.318-.078.334-.026.016-.047.182-.047.368s-.022.353-.049.37c-.03.018-.03.096 0 .201.027.094.05.233.05.308 0 .33.28.722.644.897.242.117 1.118.158 1.307.062a8.52 8.52 0 01.238-.115c.153-.072.22-.476.093-.555-.029-.018-.053-.15-.053-.295 0-.244-.009-.262-.132-.262-.073 0-.133.024-.133.053 0 .241-.65-.002-.716-.268-.041-.165.154-1.608.32-2.374.025-.114.05-.119.555-.119.506 0 .53-.005.554-.12.028-.133.073-.431.118-.77l.029-.225h-.47c-.504-.002-.663-.049-.564-.168.031-.04.07-.214.085-.39.015-.175.044-.396.064-.49l.037-.173h-1.275l-.029.2m22.244.105c-.08.866-.106.916-.452.917-.376 0-.369-.011-.464.809l-.035.305h.599v.262c0 .144-.024.277-.054.295-.029.019-.053.162-.053.319s-.024.3-.053.319c-.029.018-.053.14-.053.272a.944.944 0 01-.056.344c-.142.266-.042 1.587.12 1.587.023 0 .042.034.042.076 0 .099.37.402.49.402.052 0 .094.024.094.053 0 .032.23.053.584.053s.584-.021.584-.053c0-.03.042-.054.093-.055a.289.289 0 00.279-.286c0-.585-.2-1.063-.345-.827-.051.083-.468.062-.599-.03-.124-.087-.188-1.085-.07-1.085.027 0 .06-.138.076-.306.015-.167.042-.389.06-.49l.09-.518.057-.332h.518c.604 0 .588.016.674-.68.058-.47.096-.435-.467-.435-.576 0-.546.075-.388-.995l.033-.226H60.65l-.029.305m51.919-.239c-.026.08-.07.383-.116.783-.04.345-.068.37-.424.371-.307.001-.354.062-.414.532a8.118 8.118 0 01-.063.411l-.033.173h.293c.311 0 .36.04.328.269-.135.969-.2 1.378-.24 1.513-.067.22-.064 1.335.003 1.377.03.018.053.078.053.134 0 .123.436.583.553.583.046 0 .084.024.084.053 0 .066 1.08.072 1.209.006a7.34 7.34 0 01.238-.115c.153-.072.218-.487.096-.61-.028-.028-.057-.164-.066-.303l-.017-.252-.152.08c-.227.118-.58.103-.7-.03-.146-.162-.063-1.378.14-2.045.026-.09.048-.248.048-.352 0-.266.073-.302.64-.32l.502-.014.016-.28c.009-.153.039-.278.066-.278.028 0 .05-.12.05-.266v-.265h-.474c-.591 0-.556.085-.398-.969l.038-.252h-.62c-.449 0-.625.018-.64.066M.075 20.956c-.084.034-.097 4.186-.013 4.238.03.018.053.11.053.206 0 .323.524 1.148.729 1.148.032 0 .067.018.076.04.08.178.947.316.947.15 0-.04.02-.083.044-.092.024-.01.128-.173.23-.363.238-.443.33-.604.364-.637.015-.015.074-.122.133-.24.058-.116.119-.224.136-.238.017-.015.087-.128.156-.252.068-.124.144-.226.168-.226.024 0 .043-.048.043-.106 0-.059.019-.107.04-.107.022 0 .087-.102.145-.226A1.91 1.91 0 013.46 24c.015-.015.063-.098.107-.186s.092-.171.106-.186c.028-.028.135-.216.329-.578.064-.12.135-.218.16-.218.023 0 .042-.048.042-.107 0-.058.024-.106.053-.106.03 0 .054-.033.054-.075 0-.041.02-.083.043-.093.084-.034.443-.758.385-.777-.031-.01-.057-.065-.057-.12 0-.057-.018-.103-.04-.103-.022 0-.087-.102-.145-.226a1.055 1.055 0 00-.16-.264c-.059-.043-4.154-.048-4.26-.005m5.75.084c.02.066.058.127.083.137.026.01.046.064.046.12 0 .056.024.101.053.101.03 0 .054.036.054.08 0 .044.023.08.053.08.105 0 .029.342-.107.478-.028.028-.134.216-.327.578-.064.12-.136.218-.16.218-.024 0-.043.048-.043.106 0 .058-.019.106-.04.106-.023 0-.065.046-.094.103l-.21.411c-.086.17-.176.317-.199.327-.023.01-.042.036-.042.06 0 .022-.135.277-.3.566-.165.288-.326.578-.358.643-.032.066-.076.12-.098.12-.022 0-.04.034-.04.074 0 .042-.083.223-.186.404-.102.18-.185.348-.185.372 0 .024-.02.052-.043.061-.034.015-.167.26-.32.59-.05.109 1.81.015 1.87-.094a.895.895 0 01.085-.133c.034-.033.127-.197.364-.637.102-.19.205-.353.23-.363.024-.01.043-.051.043-.093 0-.04.024-.075.053-.075.03 0 .054-.047.054-.106 0-.058.023-.106.053-.106a.052.052 0 00.053-.051c0-.028.131-.27.292-.538.16-.267.292-.507.292-.533 0-.025.02-.046.047-.046.025 0 .06-.042.076-.093.017-.051.1-.212.184-.358l.228-.399c.041-.073.087-.144.102-.159.05-.05.272-.45.301-.544.017-.051.051-.093.077-.093.026 0 .047-.048.047-.106 0-.059.017-.107.04-.107.021 0 .083-.092.136-.203.097-.201.003-.646-.136-.646-.022 0-.04-.039-.04-.087 0-.24-.177-.284-1.127-.284H5.79l.037.119m3.355 0a.362.362 0 00.064.146c.21.163.288.85.097.85-.023 0-.042.047-.042.106 0 .058-.02.106-.044.106-.024 0-.077.066-.118.146a6.84 6.84 0 01-.248.425c-.096.154-.174.304-.174.332a.053.053 0 01-.053.052c-.03 0-.053.021-.053.047 0 .025-.132.278-.292.562-.16.283-.292.537-.292.564 0 .027-.024.049-.053.049-.03 0-.053.035-.053.08 0 .043-.024.079-.053.079-.03 0-.053.045-.053.102 0 .056-.018.11-.04.119-.022.01-.112.167-.2.349-.087.182-.176.331-.198.331-.022.001-.04.047-.04.103 0 .056-.019.11-.041.12-.023.01-.134.197-.248.415-.113.22-.22.41-.237.425a.807.807 0 00-.099.146l-.066.12.757.005c1.086.008 1.208-.013 1.208-.214 0-.031.018-.057.04-.057.022 0 .133-.18.247-.398.114-.219.227-.398.252-.398.025 0 .045-.048.045-.106 0-.059.018-.107.04-.107.022 0 .084-.107.138-.239.054-.13.12-.238.146-.238.026 0 .048-.036.048-.08 0-.044.024-.08.053-.08.029 0 .053-.045.053-.101 0-.056.02-.11.044-.12.025-.01.136-.185.25-.39a4.77 4.77 0 01.234-.397c.016-.015.065-.098.109-.186s.091-.171.106-.186c.028-.028.135-.216.328-.578.064-.12.136-.219.16-.219.023 0 .043-.047.043-.106 0-.058.024-.106.053-.106.03 0 .053-.036.053-.08 0-.043.019-.079.041-.079.023 0 .089-.107.146-.239.058-.13.123-.238.145-.238.022 0 .04-.072.04-.16 0-.088-.019-.16-.041-.16-.023 0-.089-.107-.146-.238-.058-.13-.123-.239-.145-.239-.022 0-.04-.036-.04-.08 0-.068-.14-.08-.95-.08H9.15l.03.12m3.388.132c.077.139.165.283.196.321.064.079.066.384.003.431-.024.018-.1.14-.17.27-.07.132-.16.277-.2.323a.293.293 0 00-.071.146c0 .034-.022.062-.048.062-.025 0-.06.043-.077.094a3.755 3.755 0 01-.219.411 9.154 9.154 0 00-.278.504 1.27 1.27 0 01-.12.213c-.028.026-.394.71-.503.942-.031.065-.074.119-.096.12-.022 0-.04.035-.04.08 0 .043-.024.079-.053.079-.03 0-.053.036-.053.08 0 .045-.06.176-.133.292-.073.115-.133.234-.133.264s-.023.054-.053.054c-.029 0-.053.048-.053.106 0 .059-.024.106-.053.106-.03 0-.053.036-.053.08 0 .044-.024.08-.053.08-.03 0-.053.047-.053.106 0 .058-.02.106-.043.106-.024 0-.084.084-.132.186l-.089.186h1.858l.089-.186c.049-.102.108-.186.132-.186.024 0 .043-.048.043-.106 0-.059.024-.106.053-.106.03 0 .053-.033.053-.073 0-.04.03-.099.068-.13.037-.03.126-.176.199-.324.072-.147.15-.269.171-.269.022 0 .04-.036.04-.08 0-.044.024-.08.053-.08.03 0 .053-.046.053-.102 0-.056.018-.11.04-.12.048-.02.274-.404.315-.535.016-.05.05-.092.076-.092.026 0 .047-.046.047-.102 0-.056.018-.11.04-.12.053-.022.438-.673.438-.738 0-.027.024-.05.053-.05.03 0 .053-.047.053-.105 0-.059.024-.107.053-.107.03 0 .053-.035.053-.08 0-.043.024-.079.053-.079.03 0 .054-.025.054-.055 0-.031.083-.187.185-.347.103-.16.186-.313.186-.342 0-.029.024-.052.053-.052.03 0 .053-.048.053-.106 0-.059.024-.106.053-.106.03 0 .053-.036.053-.08 0-.044.024-.08.054-.08.029 0 .053-.071.053-.159 0-.088-.024-.16-.053-.16-.03 0-.054-.033-.054-.075 0-.04-.017-.083-.04-.093a.96.96 0 01-.156-.23l-.116-.212-.961-.014-.961-.015.14.254m3.263-.205c0 .028.084.207.188.399l.189.349-.147.253c-.081.14-.166.261-.189.271-.023.01-.041.063-.041.12 0 .055-.024.101-.054.101-.029 0-.053.036-.053.08 0 .043-.018.08-.041.08-.023 0-.113.142-.2.317-.086.175-.175.318-.197.319-.021 0-.04.036-.04.08 0 .044-.024.08-.052.08-.03 0-.054.046-.054.101 0 .056-.018.11-.04.12-.021.01-.11.161-.197.336-.086.175-.17.33-.185.345a1.151 1.151 0 00-.109.186 1.191 1.191 0 01-.107.186 1.664 1.664 0 00-.128.252c-.055.124-.12.226-.144.226-.025 0-.045.048-.045.106 0 .059-.024.106-.054.106-.029 0-.052.036-.052.08 0 .044-.024.08-.054.08-.029 0-.053.047-.053.106 0 .058-.018.106-.04.107-.021 0-.111.15-.199.332a3.87 3.87 0 01-.185.357c-.053.053-.16.265-.16.318 0 .035.554.054 1.596.054h1.596l.302-.142c.166-.078.345-.192.398-.252.263-.302.303-.354.303-.403 0-.03.017-.053.04-.053.217-.002.283-.741.267-2.973l-.016-2.044-1.021-.014c-.605-.009-1.022.005-1.022.034m16.743.76c-.021.036-.071.28-.11.545-.04.264-.097.624-.128.799a9.46 9.46 0 00-.082.624c-.015.167-.047.305-.071.305-.099 0-.162 1.425-.082 1.845.024.124.063.225.089.225.025 0 .046.048.046.107 0 .058.024.106.053.106.03 0 .053.023.053.052 0 .292.623.585 1.242.585.47 0 1.094-.187 1.094-.328 0-.024.036-.044.08-.044.044 0 .08-.024.08-.053 0-.03.026-.053.06-.053.037 0 .05.064.033.173-.045.296-.028.305.573.305.53 0 .553-.005.575-.12l.081-.402c.032-.155.058-.375.058-.488 0-.113.024-.22.053-.238.03-.018.053-.163.053-.322 0-.158.024-.288.053-.288.03 0 .053-.112.053-.249 0-.136.022-.321.05-.411a8.89 8.89 0 00.136-.774c.047-.336.098-.67.113-.743.064-.315.134-.735.16-.969l.03-.252h-.587c-.681 0-.641-.032-.731.581-.037.25-.093.597-.127.773-.032.175-.082.462-.111.637-.028.175-.07.438-.095.584-.195 1.2-1.152 1.828-1.784 1.17-.154-.16-.253-.83-.133-.905.029-.018.053-.161.053-.318 0-.158.024-.301.053-.319.03-.018.053-.127.053-.241 0-.115.024-.31.053-.435.088-.38.213-1.172.213-1.355v-.172h-.581c-.396 0-.594.02-.62.064m10.04-.011c-.018.029-.076.053-.13.053-.094 0-.478.178-.63.292-.415.308-1.018 1.17-1.018 1.454 0 .05-.022.114-.048.141-.102.107-.159 1.11-.087 1.537.106.635.602 1.329 1.095 1.533.129.054.276.119.327.145.122.063 1.29.062 1.408-.002.05-.028.206-.09.344-.14.14-.05.253-.11.253-.136 0-.025.034-.046.076-.046.088 0 .528-.436.656-.65.048-.08.106-.146.129-.146.023 0 .041-.048.041-.106 0-.059.02-.106.045-.106.024 0 .087-.15.138-.332.051-.183.115-.387.141-.454.062-.158.062-1.402 0-1.561-.164-.425-.254-.612-.336-.703-.052-.057-.094-.124-.094-.15 0-.087-.517-.464-.636-.464a.054.054 0 01-.054-.053c0-.03-.059-.053-.13-.053-.071 0-.144-.024-.162-.053-.02-.03-.3-.053-.664-.053-.363 0-.645.022-.664.053m4.101-.013c-.054.106-.143.506-.198.889-.033.233-.085.568-.115.743-.094.544-.154.945-.184 1.221-.017.146-.051.288-.078.316-.026.028-.048.164-.048.302 0 .139-.024.267-.053.285-.03.018-.053.149-.053.291 0 .143-.02.315-.046.382a2.705 2.705 0 00-.082.455l-.037.332h.61c.547 0 .613-.01.64-.099.044-.135.138-.765.171-1.136.015-.167.047-.305.071-.305.024 0 .056-.137.071-.305.073-.8.288-1.66.416-1.66.024 0 .044-.036.044-.08 0-.258.79-.495 1.132-.339.272.124.51 1.061.302 1.19-.03.018-.054.16-.054.318 0 .157-.02.299-.046.315-.026.016-.06.166-.077.335a13.91 13.91 0 01-.113.784c-.045.263-.098.591-.116.73l-.034.252h1.222l.036-.2c.041-.228.124-.704.197-1.128.028-.16.072-.435.099-.61.235-1.567.524-2.044 1.237-2.044.298 0 .622.197.622.379 0 .043.026.104.058.136.077.077.03.54-.164 1.609-.029.16-.075.435-.103.61-.028.175-.076.462-.106.637a3.77 3.77 0 00-.057.465v.146h1.204l.06-.358.092-.545c.05-.31.128-.779.182-1.101.158-.944.18-1.142.177-1.553-.004-.468-.055-.85-.115-.85-.019 0-.069-.077-.11-.172-.237-.537-1.361-.91-1.902-.63-.051.027-.206.104-.346.173a2.02 2.02 0 00-.471.353l-.218.227-.071-.137c-.106-.205-.421-.492-.639-.583-.22-.092-1.109-.112-1.161-.027-.018.029-.07.053-.113.053-.045 0-.18.068-.303.15-.356.242-.344.243-.314-.018l.027-.238h-.561c-.31 0-.57.018-.582.04m9.48.034a.879.879 0 00-.208.1c-.02.021-.081.038-.135.038-.054 0-.097.023-.097.05 0 .027-.047.064-.104.082-.236.075-.958.913-.958 1.112 0 .046-.021.083-.047.083s-.06.054-.075.12l-.114.46c-.146.581-.096 1.682.085 1.887a.257.257 0 01.045.145c0 .053.023.096.053.096s.053.036.053.08c0 .044.024.08.053.08.03 0 .053.024.053.054 0 .084.327.423.407.423.039 0 .07.018.071.04 0 .067.32.226.455.226.071 0 .129.024.129.053 0 .074 1.178.068 1.364-.007l.282-.112c.073-.03.168-.074.212-.1a2.66 2.66 0 01.155-.083c.275-.129.907-.9.907-1.106 0-.043.019-.079.041-.079.023 0 .073-.113.11-.252a4.54 4.54 0 01.118-.374c.07-.174.061-1.32-.012-1.547-.249-.77-.863-1.437-1.324-1.437-.056 0-.101-.024-.101-.053 0-.075-1.205-.056-1.418.021m7.654.017c-.022.052-.06.226-.084.387-.024.16-.067.423-.096.583-.03.161-.075.436-.103.611a280.88 280.88 0 01-.282 1.726c-.027.16-.062.411-.078.557-.015.146-.05.288-.076.316-.027.028-.049.177-.049.332 0 .155-.023.281-.053.281-.029 0-.053.085-.053.188v.187l.624-.015.624-.015.015-.186c.008-.102.037-.233.063-.291.027-.059.062-.214.077-.346.034-.294.104-.764.218-1.46l.139-.85c.028-.174.064-.455.08-.623.015-.168.047-.305.072-.305.041 0 .093-.391.12-.903l.012-.239-.564-.015c-.5-.013-.57-.004-.606.08m1.798.161c.015.139.052.371.082.518.03.146.082.408.114.584l.136.743c.043.234.091.532.107.664.016.13.05.286.076.345.025.058.058.201.073.318.015.117.051.344.08.504.03.161.078.445.109.63.03.187.075.414.098.505l.043.166.648.015c.552.013.647.003.647-.066 0-.045.024-.081.053-.081.029 0 .053-.048.053-.106 0-.06.024-.107.053-.107.03 0 .053-.045.053-.101 0-.057.018-.11.04-.12.054-.024.44-.797.439-.88 0-.037.017-.067.039-.068.021 0 .111-.15.199-.332.088-.181.177-.339.199-.348.022-.01.04-.062.04-.115 0-.054.018-.106.04-.115.021-.01.183-.305.358-.655.175-.35.336-.645.358-.655.022-.01.04-.063.04-.12 0-.055.018-.101.04-.102.022 0 .112-.155.2-.345.087-.19.176-.344.198-.344.022 0 .04-.048.04-.106 0-.059.024-.106.053-.106.03 0 .053-.043.053-.096 0-.053.028-.124.062-.158.1-.1-.043-.124-.64-.107-.543.015-.544.016-.633.174a.633.633 0 01-.13.178c-.021.01-.04.053-.04.097 0 .105-.378.814-.434.814-.024 0-.043.031-.043.07 0 .068-.205.526-.349.78-.041.072-.2.388-.354.701-.321.654-.436.73-.485.32-.082-.681-.1-.786-.144-.833-.027-.028-.049-.145-.049-.262 0-.116-.022-.285-.049-.374-.067-.223-.216-1.096-.216-1.267 0-.371-.066-.41-.704-.41h-.58l.027.253m6.38-.199c-.018.029-.078.053-.134.053-.152 0-.719.34-.927.555-.216.224-.558.78-.558.907 0 .042-.021.078-.047.078s-.06.077-.076.172l-.09.491c-.105.541.016 1.779.173 1.779.022 0 .04.048.04.106 0 .058.024.106.053.106.03 0 .053.03.053.066 0 .195.76.784 1.013.784.053 0 .11.024.129.053.019.03.319.053.72.053.422 0 .687-.02.687-.053 0-.03.047-.053.104-.053.377 0 1.156-.594.918-.7-.022-.009-.134-.202-.25-.429-.234-.46-.222-.45-.347-.305-.294.339-1.174.484-1.579.26-.324-.178-.545-.5-.545-.792v-.158h3.29l.031-.124c.136-.538-.078-1.763-.374-2.149a1.874 1.874 0 00-.639-.536l-.355-.173c-.131-.063-1.249-.056-1.289.009m13.063-.003c-.02.03-.077.056-.127.056-.525 0-1.653 1.214-1.653 1.778 0 .068-.03.134-.064.146-.096.032-.092 1.621.004 1.825.34.722.61 1.04 1.028 1.212.124.052.267.115.318.141.122.063 1.29.062 1.409-.001a4.38 4.38 0 01.344-.146c.138-.054.252-.115.252-.137 0-.022.035-.04.077-.04.086 0 .613-.525.613-.61 0-.031.048-.091.106-.133.06-.042.107-.118.107-.168 0-.05.022-.105.048-.121.026-.017.088-.167.138-.335.049-.168.11-.36.137-.427.068-.172.06-1.32-.01-1.547-.188-.6-.532-1.115-.804-1.202-.051-.016-.093-.052-.093-.08 0-.026-.048-.049-.106-.049-.059 0-.107-.021-.107-.047 0-.117-1.548-.228-1.617-.115m4.084.03l-.055.172c-.017.051-.066.32-.11.597a174.43 174.43 0 01-.437 2.655c-.028.16-.076.46-.106.663-.03.205-.08.5-.11.658-.09.46-.127.43.544.43h.6l.063-.239c.036-.132.064-.347.064-.478 0-.13.024-.238.054-.238.029 0 .053-.127.053-.281 0-.155.021-.304.048-.332.026-.028.06-.17.076-.316.155-1.465.712-2.19 1.555-2.03.156.03.26-.166.305-.571.016-.147.045-.38.065-.518l.035-.252h-.352c-.2 0-.352.023-.352.053 0 .029-.05.053-.11.053-.107 0-.487.233-.657.403-.077.077-.082.06-.05-.212l.035-.297h-.566c-.457 0-.572.015-.592.08m3.4.013c-.033.085-.057.211-.186.995l-.106.637c-.034.205-.082.491-.108.637-.069.394-.1.584-.187 1.142-.071.453-.103.642-.211 1.274a9.921 9.921 0 00-.06.425c-.016.131-.05.262-.076.29-.026.027-.048.175-.048.328 0 .153-.024.293-.053.31-.03.02-.053.153-.053.3 0 .146-.025.313-.056.37-.14.261-.04.313.611.313h.601l.035-.226c.02-.124.048-.363.064-.53.015-.168.05-.306.077-.306.026 0 .048-.131.048-.292 0-.16.024-.292.053-.292.03 0 .054-.125.056-.278a1.42 1.42 0 01.07-.438l.068-.16.071.132c.199.37.605.532 1.338.532.347 0 .574-.021.574-.053 0-.03.035-.053.078-.053.315 0 1.302-.923 1.302-1.218 0-.03.024-.056.053-.056.03 0 .054-.06.054-.133 0-.073.02-.133.047-.133.026 0 .059-.077.073-.172.014-.095.055-.316.091-.492.12-.585-.074-2.044-.272-2.044-.025 0-.046-.034-.046-.076 0-.091-.458-.548-.594-.59-.053-.017-.096-.053-.096-.08 0-.028-.046-.05-.103-.05-.057 0-.118-.024-.136-.053-.018-.03-.265-.053-.557-.053-.293 0-.54.023-.558.053-.018.029-.07.053-.115.053s-.19.073-.321.162c-.272.183-.31.172-.288-.085l.016-.183h-.556c-.48 0-.561.012-.593.093m6.609-.03c-.759.319-1.308.816-1.574 1.423-.151.344-.184.467-.258.96-.08.536-.003 1.414.137 1.56a.22.22 0 01.05.136c0 .047.047.136.105.199a.496.496 0 01.106.145c0 .053.366.398.423.398.03 0 .055.02.055.043 0 .06.352.223.48.223.057 0 .104.024.104.053 0 .068 1.243.071 1.368.003a3.52 3.52 0 01.345-.14c.138-.05.252-.11.252-.136 0-.025.027-.046.06-.046.123 0 .713-.672.862-.983.083-.174.173-.359.199-.41a.583.583 0 00.047-.222c0-.072.024-.145.053-.163.031-.02.053-.345.053-.797 0-.451-.022-.777-.053-.796-.03-.018-.053-.078-.053-.134 0-.275-.56-.97-.902-1.122-.088-.039-.16-.089-.16-.111 0-.022-.058-.04-.13-.04-.07 0-.144-.024-.162-.053-.044-.07-1.235-.062-1.407.01m4.117.11a5.34 5.34 0 00-.064.437c-.015.146-.05.288-.076.316-.026.028-.048.176-.048.329 0 .153-.021.291-.047.307-.025.016-.06.167-.076.335s-.068.533-.115.81c-.047.278-.1.654-.116.837-.017.182-.051.332-.077.332-.026 0-.047.126-.047.28 0 .156-.022.305-.05.333-.04.042-.077.46-.06.7.003.05.156.067.575.067h.571l.066-.212c.036-.116.066-.306.066-.421 0-.116.024-.225.053-.243.03-.018.053-.13.053-.25 0-.118.023-.302.05-.408.027-.105.09-.455.14-.776.05-.32.11-.606.136-.634a.25.25 0 00.046-.146c0-.053.024-.096.053-.096.03 0 .053-.036.053-.08 0-.278.517-.609.994-.637.438-.025.425-.008.514-.639.042-.29.092-.57.112-.621.042-.106-.68-.145-.744-.04-.018.029-.068.053-.11.053-.082 0-.515.264-.545.332-.052.118-.115.01-.115-.2v-.238h-1.156l-.036.172m4.378-.122a11 11 0 01-.342.17c-.254.12-.878.697-.88.812a.524.524 0 01-.106.189.493.493 0 00-.104.226c-.001.05-.026.092-.055.092s-.053.059-.053.13c0 .071-.02.142-.044.157-.175.108-.187 1.858-.015 2.197.026.05.08.163.12.25.072.16.17.289.417.555.117.125.254.213.596.382.132.065 1.156.058 1.156-.007 0-.03.037-.053.082-.053.092 0 .311-.128.489-.285l.119-.105v.5l.57-.016.57-.015.046-.212a5.09 5.09 0 00.071-.518c.015-.168.047-.305.07-.305.024 0 .057-.137.072-.305a8.2 8.2 0 01.079-.598c.028-.16.091-.554.14-.876.108-.7.177-1.121.248-1.513.029-.16.065-.43.08-.597l.028-.305h-1.167l-.058.167a1.262 1.262 0 00-.059.347v.18l-.203-.201c-.286-.283-.423-.387-.51-.387-.043 0-.092-.024-.11-.053-.039-.064-1.133-.066-1.247-.003m8.044.043c-.02.05-.06.224-.088.385l-.102.583a9.776 9.776 0 00-.08.585c-.017.16-.05.34-.077.398a1.592 1.592 0 00-.073.345c-.015.131-.05.37-.078.53l-.133.797c-.11.674-.18 1.1-.224 1.34l-.036.2h.617c.704 0 .625.066.73-.61.032-.205.08-.504.107-.664.027-.16.063-.442.081-.624.017-.183.05-.332.074-.332.022 0 .054-.137.07-.305.015-.168.05-.437.078-.597.25-1.439.334-2.018.298-2.076-.06-.099-1.123-.058-1.164.045m3.556-.04c-.018.029-.073.053-.122.052-.281-.002-1.285.77-1.285.99 0 .04-.023.073-.053.073-.029 0-.053.036-.053.08 0 .043-.024.08-.053.08-.03 0-.053.047-.053.105 0 .059-.024.106-.053.106-.03 0-.053.033-.053.074 0 .04-.034.19-.075.332-.156.538-.195 1.027-.115 1.453.105.556.267 1.007.363 1.008.021 0 .04.025.04.055 0 .072.35.423.422.423.03 0 .055.02.055.045 0 .025.101.087.226.138.124.052.267.115.318.141.19.099 1.215.056 1.527-.063.16-.06.334-.123.385-.139.05-.015.093-.049.093-.075 0-.026.025-.047.056-.047.032 0 .089-.031.127-.07.039-.038.139-.128.223-.199.267-.226.582-.747.703-1.164.038-.132.09-.294.117-.361.066-.169.061-1.483-.005-1.524-.03-.018-.054-.077-.054-.13 0-.309-.545-1.021-.901-1.18-.088-.038-.16-.088-.16-.11 0-.022-.059-.04-.13-.04-.071 0-.144-.024-.162-.053-.02-.03-.3-.053-.664-.053-.363 0-.645.022-.664.053m4.062.094c0 .082-.022.173-.048.2-.027.028-.062.182-.077.343a8.35 8.35 0 01-.082.584c-.076.413-.106.592-.197 1.195-.044.292-.103.617-.13.722-.028.106-.05.29-.05.409s-.024.231-.053.249c-.03.018-.053.158-.053.311s-.022.301-.049.329c-.041.043-.084.503-.064.7.014.144 1.174.089 1.174-.055 0-.067.022-.145.049-.173.026-.027.06-.17.076-.316.029-.273.074-.571.224-1.486l.112-.69c.042-.274.21-.637.389-.843.369-.425 1.23-.472 1.416-.078.12.256.19.571.152.69a3.76 3.76 0 00-.084.416 98.227 98.227 0 01-.268 1.673 8.92 8.92 0 00-.083.624l-.028.305h.566c.663 0 .697-.02.732-.429.013-.158.065-.527.116-.819.17-.993.197-1.168.224-1.473.015-.168.05-.305.076-.305.026 0 .048-.215.048-.478 0-.283-.022-.478-.053-.478-.03 0-.053-.07-.053-.156 0-.353-.344-.807-.756-1-.384-.18-1.58-.139-1.58.054 0 .022-.03.04-.067.04-.037 0-.131.06-.21.133-.198.183-.237.168-.232-.093l.004-.226-.57-.015-.571-.015v.15m-94.22.159c.04.263.123.725.184 1.022.098.474.185.985.19 1.115l.006.133-.837.014-.836.015v-.134c0-.074.024-.134.053-.134.03 0 .054-.048.054-.106 0-.059.023-.106.052-.106.03 0 .054-.03.054-.066 0-.084.278-.645.332-.669.021-.01.04-.063.04-.12 0-.056.023-.101.052-.101.03 0 .054-.046.054-.102 0-.056.017-.11.04-.12.021-.01.131-.202.243-.429.231-.464.277-.495.32-.212m43.728.81c0 .029.057.053.127.053.134 0 .457.288.457.408 0 .038.026.07.056.07.034 0 .05.097.04.24l-.016.242h-.902c-.497 0-.957 0-1.023-.002-.15-.003-.155-.14-.013-.321a.537.537 0 00.105-.183c.003-.103.438-.454.563-.454.07 0 .129-.024.129-.053 0-.03.107-.054.239-.054.13 0 .238.024.238.054m-29.44.106c.019.03.077.053.13.053.143 0 .365.196.483.427.187.367.093 1.697-.12 1.697-.023 0-.04.03-.041.066 0 .217-.626.62-.967.623-.359.003-.89-.426-.89-.719a.271.271 0 00-.06-.166c-.099-.1-.011-.821.144-1.166.04-.092.074-.185.074-.207 0-.087.555-.555.659-.556a.42.42 0 00.19-.052c.105-.068.357-.068.399 0m13.644 0c.019.03.08.053.138.053.165 0 .36.154.502.397.14.238.203 1.355.077 1.355-.029 0-.053.06-.053.133 0 .073-.024.132-.053.132-.03 0-.053.038-.053.084 0 .046-.101.185-.226.309-.542.54-1.263.489-1.617-.115-.154-.263-.199-1.103-.074-1.373.033-.07.088-.191.123-.272.103-.23.492-.594.675-.63.091-.019.178-.054.194-.08.04-.064.327-.058.367.007m28.843-.006c.051.026.162.079.246.119.367.173.54.675.459 1.331-.046.374-.156.733-.225.733-.023 0-.042.03-.042.066 0 .086-.203.312-.372.416-1.096.669-1.982-.555-1.376-1.901.138-.307.546-.704.724-.706.052 0 .13-.024.174-.052.1-.065.292-.068.412-.006m8.906.006c.018.03.08.053.14.053.058 0 .138.03.176.066.038.037.12.102.182.145s.112.118.112.168c0 .05.03.1.067.112.048.016.066.193.066.639 0 .423-.02.638-.066.683a.25.25 0 00-.067.152c0 .047-.047.137-.106.2-.058.062-.106.133-.106.157 0 .107-.372.342-.683.432-.402.117-1.069-.223-1.069-.545 0-.044-.024-.094-.053-.112-.03-.018-.053-.257-.053-.534 0-.299.021-.501.053-.501.03 0 .053-.057.053-.126 0-.521 1.132-1.348 1.354-.99m5.335.032c.51.178.638.416.638 1.189 0 .355-.021.585-.053.585-.03 0-.053.048-.053.107 0 .136-.089.297-.313.57-.103.126-.637.385-.79.384-.256-.002-.756-.274-.756-.41 0-.037-.022-.067-.049-.067-.088 0-.183-.39-.18-.745.002-.365.113-.9.186-.9.024 0 .043-.037.043-.08 0-.383.863-.794 1.327-.633m8.549-.013c.346.128.465.206.538.346a.65.65 0 00.125.178c.122.087.063 1.172-.08 1.453-.136.27-.147.286-.312.487-.106.129-.637.385-.8.385-.293 0-.852-.4-.852-.61 0-.044-.024-.08-.053-.08-.074 0-.068-.968.007-1.152.171-.419.231-.52.424-.707.318-.308.686-.418 1.003-.3m11.414-.003c.568.206.69.42.69 1.205 0 .355-.02.585-.053.585-.029 0-.053.048-.053.107s-.03.159-.066.222c-.648 1.129-2.01.843-2.022-.425-.003-.406.105-.966.187-.966.024 0 .043-.038.043-.085 0-.12.53-.605.662-.606.06 0 .144-.024.188-.052.105-.069.201-.065.424.015" fill="#FFF" fill-rule="evenodd"/></svg>