<svg width="180" height="29" xmlns="http://www.w3.org/2000/svg"><g fill="none"><path d="M6.49 10.092h8.647a.39.39 0 01.276.12l5.867-5.97a1.163 1.163 0 00-.839-.353H1.173c-.31.001-.608.128-.827.352l5.867 5.97a.39.39 0 01.276-.119z" fill="#058EDE"/><path d="M6.096 19.292v-8.8a.403.403 0 01.117-.28L.346 4.241c-.22.222-.345.525-.346.841v19.606c0 .318.124.623.346.848l5.867-5.97a.403.403 0 01-.117-.275z" fill="#7ECEF4"/><path d="M15.137 19.692H6.49a.39.39 0 01-.276-.12l-5.867 5.97c.22.223.518.347.827.347h19.268c.313 0 .613-.127.833-.352l-5.867-5.97a.39.39 0 01-.27.125z" fill="#00B543"/><path d="M21.62 24.689V5.083a1.205 1.205 0 00-.346-.842l-5.867 5.97a.403.403 0 01.118.281v8.8a.403.403 0 01-.118.28l5.867 5.97c.224-.225.348-.533.347-.853z" fill="#FFA610"/><path d="M36.729 22.396h-.798c-3.82 0-5.51-1.749-5.51-5.57v-2.788c0-3.922 1.76-5.588 5.51-5.588h.798c3.755.024 5.515 1.791 5.515 5.588v2.752c0 3.815-1.696 5.606-5.515 5.606zm4.072-8.358c0-2.985-1.438-4.09-4.072-4.09h-.798c-2.652 0-4.107 1.105-4.107 4.09v2.752c0 2.986 1.437 4.108 4.107 4.108h.798c2.634 0 4.072-1.122 4.072-4.108v-2.752zm9.387 8.305h-.698a4.039 4.039 0 01-3.186-1.373v3.582h-1.455v-12.68h1.45v1.372a4.074 4.074 0 013.185-1.39h.698c2.687 0 4.453 1.307 4.453 4.005v2.442c.006 2.734-1.66 4.042-4.447 4.042zm2.969-6.227c0-1.97-1.174-2.782-3.069-2.782h-.669c-1.76 0-3.15 1.05-3.15 2.836v1.886c0 1.791 1.402 2.836 3.15 2.836h.67c1.836 0 3.068-.8 3.068-2.764v-2.012zm5.005 1.54v.478c0 2.071 1.173 2.836 3.103 2.836h1.174c2 0 2.716-.49 2.969-1.529h1.478c-.317 1.833-1.484 2.902-4.436 2.902h-1.173c-3.168 0-4.553-1.666-4.553-4.245V16.08c0-2.716 1.837-4.179 4.553-4.179h1.132c2.97 0 4.553 1.355 4.553 4.28v1.493l-8.8-.018zm7.34-1.492c0-2.156-1.133-2.884-3.104-2.884h-1.133c-1.8 0-3.103.764-3.103 2.8v.424h7.34v-.34zm11.858 6.179v-6.448c0-1.869-1.051-2.55-2.57-2.55h-.922c-1.854 0-2.986 1.052-2.986 2.21v6.788h-1.467V11.87h1.467v1.134a4.847 4.847 0 013.168-1.134h.85c2.518 0 3.908 1.373 3.908 3.767v6.705H77.36zm19.977-.018l-6.037-5.97V15.04h3.12c2.184 0 3.187-.561 3.187-2.137v-.657c0-1.474-.67-2.31-2.787-2.31h-5.638v12.406h-1.467V8.51h7.105c3.274 0 4.236 1.355 4.236 3.72v.746c0 2.579-1.52 3.444-4.535 3.444h-1.174l5.92 5.91-1.93-.005zm9.623.018h-1.104c-2.851 0-4.441-1.373-4.441-4.06v-2.388c0-2.597 1.637-4.072 4.441-4.072h1.103c2.588 0 4.406 1.356 4.406 4.072v2.388c0 2.687-1.684 4.06-4.406 4.06zm2.933-6.28c0-1.935-1.174-2.735-3.086-2.735h-.798c-2.083 0-3.14.865-3.14 2.734v2.108c0 1.934 1.174 2.716 3.14 2.716h.774c1.936 0 3.086-.764 3.086-2.716l.024-2.108zm9.077 6.28h-1.098c-2.851 0-4.441-1.373-4.441-4.06v-2.388c0-2.597 1.637-4.072 4.441-4.072h1.103c2.588 0 4.406 1.356 4.406 4.072v2.388c-.005 2.687-1.69 4.06-4.412 4.06zm2.933-6.28c0-1.935-1.173-2.735-3.086-2.735h-.798c-2.083 0-3.14.865-3.14 2.734v2.108c0 1.934 1.174 2.716 3.14 2.716h.798c1.936 0 3.086-.764 3.086-2.716v-2.108zm15.865 6.28v-7.027a1.811 1.811 0 00-.461-1.419 1.745 1.745 0 00-1.358-.57h-.751c-1.584 0-2.018.986-2.018 2.037v6.979h-1.403v-7.01c0-1.462-.65-2.005-1.76-2.005h-.651c-1.32 0-2.036.71-2.036 2.018v6.997h-1.45v-10.49h1.438v.92a2.984 2.984 0 012.183-.92h.698a2.727 2.727 0 012.488 1.135 2.831 2.831 0 012.47-1.135h1.103c1.701 0 2.969.985 2.969 3.206v7.284h-1.461zm10.637 0V8.51h1.45v13.833zm12.609 0v-6.448c0-1.869-1.05-2.55-2.57-2.55h-.915c-1.854 0-2.987 1.052-2.987 2.21v6.788h-1.467V11.87h1.467v1.134a4.847 4.847 0 013.168-1.134h.851c2.517 0 3.908 1.373 3.908 3.767v6.705h-1.455zm9.293.017h-1.114c-3.104 0-4.489-1.426-4.489-4.178v-2.09c0-2.597 1.52-4.18 4.489-4.18h1.114c3.104 0 4.307 1.255 4.436 3.786h-1.484c-.165-1.791-1.174-2.328-2.934-2.328h-1.068c-1.971 0-3.086 1.02-3.086 2.818v1.91c0 1.791 1.033 2.818 3.086 2.818h1.068c2.1 0 2.851-.884 2.934-2.34h1.484c-.082 2.626-1.367 3.785-4.436 3.785zm7.305-.017v-1.88H180v1.886z" fill="#FFF"/></g></svg>