<svg width="180" height="28" xmlns="http://www.w3.org/2000/svg"><path d="M2.995 4v6.045c.979-1.177 2.14-1.781 3.515-1.781.703 0 1.315.127 1.896.413.55.255.978.605 1.283 1.05.275.414.49.891.581 1.4.092.51.153 1.305.153 2.387v7H7.397V14.15c0-1.24-.061-2.036-.184-2.386-.122-.35-.305-.605-.61-.796-.307-.19-.643-.286-1.101-.286-.49 0-.948.127-1.345.382-.397.254-.673.636-.856 1.145-.183.51-.275 1.273-.275 2.291v5.982H0V4h2.995zm17.117 12.664l3.026.54c-.397 1.146-1.009 2.037-1.834 2.641-.825.605-1.895.891-3.148.891-1.987 0-3.485-.668-4.432-2.036-.764-1.082-1.131-2.45-1.131-4.105 0-1.972.489-3.531 1.498-4.645.978-1.114 2.262-1.686 3.76-1.686 1.71 0 3.056.572 4.034 1.75.978 1.177 1.467 2.959 1.406 5.377h-7.58c.03.923.275 1.654.733 2.195.459.51 1.04.796 1.742.796.49 0 .887-.127 1.193-.414.305-.286.58-.7.733-1.304zm.183-3.182c-.03-.923-.244-1.623-.672-2.1-.428-.477-.948-.7-1.59-.7-.672 0-1.222.254-1.65.763-.428.51-.642 1.178-.642 2.037h4.554zm5.411-4.964h2.842v1.75a4.223 4.223 0 011.498-1.463c.611-.382 1.314-.573 2.078-.573 1.345 0 2.476.54 3.393 1.623.917 1.081 1.406 2.609 1.406 4.55 0 2.004-.458 3.531-1.406 4.645-.947 1.114-2.078 1.655-3.393 1.655-.642 0-1.222-.128-1.711-.382-.52-.255-1.07-.7-1.62-1.337V25h-3.026V8.518h-.061zM28.7 14.31c0 1.336.244 2.323.764 2.96.52.636 1.131.954 1.865.954.703 0 1.283-.287 1.772-.891.459-.573.703-1.56.703-2.896 0-1.24-.244-2.195-.733-2.8-.49-.604-1.07-.922-1.804-.922-.733 0-1.344.286-1.833.89-.49.637-.734 1.528-.734 2.705zm9.537 2.735l3.057-.477c.122.605.397 1.082.795 1.4.397.318.947.477 1.65.477.795 0 1.376-.159 1.773-.445.275-.223.397-.477.397-.86 0-.254-.06-.445-.214-.604-.152-.159-.489-.286-1.008-.413-2.446-.573-4.004-1.082-4.646-1.528-.917-.636-1.376-1.527-1.376-2.672 0-1.05.398-1.91 1.192-2.61.795-.7 1.987-1.05 3.638-1.05 1.558 0 2.72.255 3.484.796.764.541 1.284 1.305 1.59 2.355l-2.874.54a1.898 1.898 0 00-.703-1.081c-.336-.255-.825-.382-1.467-.382-.794 0-1.375.127-1.711.35a.71.71 0 00-.337.636c0 .223.092.414.306.573.275.223 1.223.51 2.843.89 1.62.383 2.75.86 3.392 1.4.642.574.948 1.337.948 2.355 0 1.082-.428 2.037-1.314 2.832-.887.796-2.17 1.178-3.913 1.178-1.559 0-2.812-.319-3.698-.987-.948-.636-1.529-1.527-1.804-2.673zM51.594 6.927V4h3.026v2.927h-3.026zm0 13.555V8.518h3.026V20.45h-3.026v.032zm6.022 0V4h3.026v5.95c.947-1.114 2.048-1.655 3.332-1.655 1.406 0 2.536.541 3.453 1.591.917 1.05 1.376 2.578 1.376 4.55 0 2.037-.459 3.596-1.406 4.71-.917 1.113-2.079 1.654-3.393 1.654-.642 0-1.314-.16-1.926-.51-.641-.35-1.192-.858-1.65-1.526v1.75h-2.812v-.032zm2.995-6.237c0 1.241.184 2.164.55 2.737.52.827 1.223 1.273 2.11 1.273.672 0 1.253-.287 1.711-.891.459-.605.703-1.528.703-2.8 0-1.369-.244-2.355-.703-2.96-.489-.604-1.07-.89-1.834-.89-.733 0-1.345.286-1.803.89-.49.541-.734 1.432-.734 2.641zm18.187 6.237V18.7a4.464 4.464 0 01-1.65 1.495 4.29 4.29 0 01-2.14.541c-.764 0-1.468-.19-2.079-.54-.611-.35-1.07-.86-1.314-1.496-.275-.636-.397-1.527-.397-2.64V8.517h3.026v5.505c0 1.686.06 2.704.152 3.086.123.382.306.668.612.891.305.223.672.318 1.13.318.52 0 .979-.159 1.407-.445.397-.287.703-.668.855-1.114.153-.445.214-1.527.214-3.214V8.518h3.026V20.45h-2.842v.032zm8.864 0h-3.026V8.518h2.812v1.687c.489-.796.917-1.337 1.314-1.591a2.363 2.363 0 011.314-.382c.703 0 1.345.19 1.987.604l-.947 2.769c-.52-.35-.978-.51-1.437-.51-.428 0-.795.128-1.07.35-.305.255-.52.669-.703 1.337-.183.636-.244 1.973-.244 4.009v3.69zm7.947-8.305l-2.751-.509c.306-1.145.856-2.004 1.59-2.577.763-.541 1.864-.827 3.361-.827 1.345 0 2.354.159 3.026.509.673.318 1.131.763 1.406 1.272.276.51.398 1.464.398 2.832l-.03 3.691c0 1.05.06 1.814.152 2.323.092.509.275 1.018.55 1.59h-2.995a9.94 9.94 0 01-.306-.922c-.06-.19-.092-.318-.122-.382-.52.51-1.07.923-1.65 1.178a4.703 4.703 0 01-1.896.381c-1.192 0-2.109-.318-2.781-.986-.673-.668-1.009-1.495-1.009-2.514 0-.668.153-1.272.459-1.813.305-.541.733-.923 1.314-1.21.55-.286 1.375-.54 2.415-.731 1.406-.287 2.414-.541 2.934-.764V12.4c0-.605-.153-1.05-.428-1.305-.275-.254-.825-.381-1.62-.381-.55 0-.947.095-1.253.318-.336.19-.58.573-.764 1.145zm4.065 2.546a25.39 25.39 0 01-1.834.477c-.856.19-1.406.382-1.65.54-.398.287-.581.67-.581 1.115 0 .445.153.827.489 1.145.305.318.733.477 1.222.477.55 0 1.07-.19 1.56-.572.366-.287.61-.637.733-1.05.092-.255.122-.796.122-1.528v-.604h-.061zm16.506 5.759h-2.813v-1.75c-.458.668-1.008 1.177-1.65 1.527-.642.318-1.284.51-1.926.51-1.314 0-2.445-.542-3.393-1.655-.947-1.114-1.406-2.641-1.406-4.614 0-2.036.459-3.564 1.376-4.614.917-1.05 2.078-1.59 3.454-1.59 1.283 0 2.384.54 3.331 1.654V4h3.026v16.482zm-8.1-6.237c0 1.273.183 2.196.52 2.769.488.827 1.16 1.24 2.047 1.24.703 0 1.284-.318 1.773-.922.489-.605.733-1.527.733-2.768 0-1.369-.244-2.355-.703-2.96-.489-.604-1.07-.89-1.834-.89-.733 0-1.314.286-1.803.89-.489.573-.734 1.464-.734 2.641zm13.357-2.068l-2.751-.509c.305-1.145.856-2.004 1.59-2.577.763-.541 1.864-.827 3.361-.827 1.345 0 2.354.159 3.026.509.673.318 1.131.763 1.406 1.272.275.51.398 1.464.398 2.832l-.03 3.691c0 1.05.06 1.814.152 2.323.092.509.275 1.018.55 1.59h-2.995a9.94 9.94 0 01-.306-.922c-.061-.19-.092-.318-.122-.382-.52.51-1.07.923-1.65 1.178a4.703 4.703 0 01-1.896.381c-1.192 0-2.109-.318-2.781-.986-.673-.668-1.009-1.495-1.009-2.514 0-.668.153-1.272.459-1.813.305-.541.733-.923 1.314-1.21.55-.286 1.375-.54 2.414-.731 1.407-.287 2.415-.541 2.935-.764V12.4c0-.605-.153-1.05-.428-1.305-.275-.254-.825-.381-1.62-.381-.55 0-.948.095-1.253.318-.306.223-.581.573-.764 1.145zm4.034 2.546c-.397.127-1.008.286-1.834.477-.825.19-1.406.382-1.65.54-.398.287-.581.67-.581 1.115 0 .445.153.827.49 1.145.305.318.733.477 1.222.477.55 0 1.07-.19 1.559-.572.366-.287.61-.637.733-1.05.092-.255.122-.796.122-1.528v-.604h-.06zm5.991 5.759v-3.15h3.026v3.15zM147.6 12.05l-2.995.573c-.091-.637-.336-1.082-.672-1.4-.367-.318-.826-.478-1.376-.478-.764 0-1.345.287-1.803.828-.459.54-.672 1.463-.672 2.736 0 1.432.213 2.418.672 2.991.458.573 1.07.89 1.834.89.58 0 1.04-.158 1.406-.508.367-.35.611-.923.764-1.75l2.965.54c-.306 1.433-.917 2.514-1.773 3.214-.886.732-2.048 1.082-3.546 1.082-1.68 0-3.025-.54-4.004-1.654-1.008-1.114-1.497-2.641-1.497-4.582 0-1.973.489-3.5 1.497-4.614 1.01-1.082 2.354-1.654 4.066-1.654 1.406 0 2.506.318 3.331.922.856.637 1.437 1.591 1.804 2.864zm1.59 2.29a6.8 6.8 0 01.734-3.054 5.277 5.277 0 012.109-2.259c.917-.509 1.925-.763 3.056-.763 1.742 0 3.148.572 4.28 1.75 1.1 1.177 1.65 2.64 1.65 4.454 0 1.814-.55 3.31-1.681 4.487s-2.537 1.781-4.218 1.781a6.62 6.62 0 01-2.996-.731c-.947-.51-1.68-1.21-2.17-2.164-.52-.986-.764-2.132-.764-3.5zm3.118.16c0 1.177.275 2.1.794 2.705.52.604 1.192.954 1.987.954.795 0 1.467-.318 1.987-.954.55-.637.795-1.56.795-2.737s-.275-2.068-.795-2.704c-.55-.637-1.192-.955-1.987-.955-.795 0-1.467.318-1.987.955-.52.636-.794 1.559-.794 2.736zm10.85-5.982h2.782v1.623c1.009-1.273 2.2-1.91 3.576-1.91.734 0 1.375.16 1.926.478.55.318.978.796 1.314 1.432.489-.636 1.04-1.114 1.62-1.432a3.792 3.792 0 011.864-.477c.856 0 1.56.19 2.14.54.58.35 1.009.892 1.314 1.56.214.509.306 1.336.306 2.482v7.636h-3.026v-6.81c0-1.176-.092-1.94-.306-2.29-.275-.445-.703-.668-1.283-.668a1.88 1.88 0 00-1.192.413c-.367.255-.642.669-.795 1.178-.153.509-.245 1.336-.245 2.482v5.727h-3.056v-6.555c0-1.177-.061-1.909-.153-2.259-.122-.35-.275-.573-.49-.763-.213-.16-.519-.255-.916-.255-.459 0-.886.127-1.253.382-.367.254-.642.636-.795 1.145-.153.51-.244 1.305-.244 2.45v5.791h-3.026v-11.9h-.062z" fill="#FFF"/></svg>