<?xml version="1.0" encoding="utf-8"?>
<!-- Generator: Adobe Illustrator 21.1.0, SVG Export Plug-In . SVG Version: 6.00 Build 0)  -->
<svg version="1.1" id="Layer_1" xmlns="http://www.w3.org/2000/svg" xmlns:xlink="http://www.w3.org/1999/xlink" x="0px" y="0px"
	 viewBox="0 0 646.9 111.9" style="enable-background:new 0 0 646.9 111.9;" xml:space="preserve">
<style type="text/css">
	.st0{fill:#F5921D;}
	.st1{fill:#5C5E5F;}
</style>
<title>Asset 1</title>
<path class="st0" d="M43.3,30.5v19c3.2-3.7,7-5.6,11.5-5.6c2.3,0,4.3,0.4,6.2,1.3c1.8,0.8,3.2,1.9,4.2,3.3c0.9,1.3,1.6,2.8,1.9,4.4
	c0.3,1.6,0.5,4.1,0.5,7.5v22h-9.9V62.4c0-3.9-0.2-6.4-0.6-7.5c-0.4-1.1-1-1.9-2-2.5c-1-0.6-2.1-0.9-3.6-0.9c-1.6,0-3.1,0.4-4.4,1.2
	c-1.3,0.8-2.2,2-2.8,3.6s-0.9,4-0.9,7.2v18.8h-9.9V30.5H43.3z"/>
<path class="st0" d="M99.3,70.3l9.9,1.7c-1.3,3.6-3.3,6.4-6,8.3c-2.7,1.9-6.2,2.8-10.3,2.8c-6.5,0-11.4-2.1-14.5-6.4
	c-2.5-3.4-3.7-7.7-3.7-12.9c0-6.2,1.6-11.1,4.9-14.6c3.2-3.5,7.4-5.3,12.3-5.3c5.6,0,10,1.8,13.2,5.5c3.2,3.7,4.8,9.3,4.6,16.9H84.9
	c0.1,2.9,0.9,5.2,2.4,6.9c1.5,1.6,3.4,2.5,5.7,2.5c1.6,0,2.9-0.4,3.9-1.3S98.8,72.2,99.3,70.3z M99.9,60.3c-0.1-2.9-0.8-5.1-2.2-6.6
	c-1.4-1.5-3.1-2.2-5.2-2.2c-2.2,0-4,0.8-5.4,2.4c-1.4,1.6-2.1,3.7-2.1,6.4H99.9z"/>
<path class="st0" d="M117.6,44.7h9.3v5.5c1.2-1.9,2.8-3.4,4.9-4.6c2-1.2,4.3-1.8,6.8-1.8c4.4,0,8.1,1.7,11.1,5.1
	c3,3.4,4.6,8.2,4.6,14.3c0,6.3-1.5,11.1-4.6,14.6c-3.1,3.5-6.8,5.2-11.1,5.2c-2.1,0-4-0.4-5.6-1.2c-1.7-0.8-3.5-2.2-5.3-4.2v18.9
	h-9.9V44.7z M127.4,62.9c0,4.2,0.8,7.3,2.5,9.3c1.7,2,3.7,3,6.1,3c2.3,0,4.2-0.9,5.8-2.8c1.5-1.8,2.3-4.9,2.3-9.1
	c0-3.9-0.8-6.9-2.4-8.8c-1.6-1.9-3.5-2.9-5.9-2.9c-2.4,0-4.4,0.9-6,2.8C128.2,56.4,127.4,59.2,127.4,62.9z"/>
<path class="st0" d="M158.6,71.5l10-1.5c0.4,1.9,1.3,3.4,2.6,4.4c1.3,1,3.1,1.5,5.4,1.5c2.6,0,4.5-0.5,5.8-1.4
	c0.9-0.7,1.3-1.5,1.3-2.7c0-0.8-0.2-1.4-0.7-1.9c-0.5-0.5-1.6-0.9-3.3-1.3c-8-1.8-13.1-3.4-15.2-4.8c-3-2-4.5-4.8-4.5-8.4
	c0-3.3,1.3-6,3.9-8.2c2.6-2.2,6.5-3.3,11.9-3.3c5.1,0,8.9,0.8,11.4,2.5c2.5,1.7,4.2,4.1,5.2,7.4l-9.4,1.7c-0.4-1.5-1.2-2.6-2.3-3.4
	c-1.1-0.8-2.7-1.2-4.8-1.2c-2.6,0-4.5,0.4-5.6,1.1c-0.8,0.5-1.1,1.2-1.1,2c0,0.7,0.3,1.3,1,1.8c0.9,0.7,4,1.6,9.3,2.8
	c5.3,1.2,9,2.7,11.1,4.4c2.1,1.8,3.1,4.2,3.1,7.4c0,3.4-1.4,6.4-4.3,8.9c-2.9,2.5-7.1,3.7-12.8,3.7c-5.1,0-9.2-1-12.1-3.1
	C161.4,77.9,159.5,75.1,158.6,71.5z"/>
<path class="st0" d="M202.3,39.7v-9.2h9.9v9.2H202.3z M202.3,82.3V44.7h9.9v37.5H202.3z"/>
<path class="st0" d="M222,82.3V30.5h9.9v18.7c3.1-3.5,6.7-5.2,10.9-5.2c4.6,0,8.3,1.7,11.3,5c3,3.3,4.5,8.1,4.5,14.3
	c0,6.4-1.5,11.3-4.6,14.8c-3,3.5-6.8,5.2-11.1,5.2c-2.1,0-4.3-0.5-6.3-1.6c-2.1-1.1-3.9-2.7-5.4-4.8v5.5H222z M231.8,62.7
	c0,3.9,0.6,6.8,1.8,8.6c1.7,2.6,4,4,6.9,4c2.2,0,4.1-0.9,5.6-2.8c1.5-1.9,2.3-4.8,2.3-8.8c0-4.3-0.8-7.4-2.3-9.3
	c-1.6-1.9-3.5-2.8-6-2.8c-2.4,0-4.4,0.9-5.9,2.8C232.6,56.1,231.8,58.9,231.8,62.7z"/>
<path class="st0" d="M291.3,82.3v-5.6c-1.4,2-3.2,3.6-5.4,4.7c-2.2,1.2-4.6,1.7-7,1.7c-2.5,0-4.8-0.6-6.8-1.7
	c-2-1.1-3.5-2.7-4.3-4.7c-0.9-2-1.3-4.8-1.3-8.3V44.7h9.9V62c0,5.3,0.2,8.5,0.5,9.7c0.4,1.2,1,2.1,2,2.8c1,0.7,2.2,1,3.7,1
	c1.7,0,3.2-0.5,4.6-1.4c1.3-0.9,2.3-2.1,2.8-3.5c0.5-1.4,0.7-4.8,0.7-10.1V44.7h9.9v37.5H291.3z"/>
<path class="st0" d="M320.3,82.3h-9.9V44.7h9.2v5.3c1.6-2.5,3-4.2,4.3-5c1.3-0.8,2.7-1.2,4.3-1.2c2.3,0,4.4,0.6,6.5,1.9l-3.1,8.7
	c-1.7-1.1-3.2-1.6-4.7-1.6c-1.4,0-2.6,0.4-3.5,1.1c-1,0.8-1.7,2.1-2.3,4.2c-0.6,2-0.8,6.2-0.8,12.6V82.3z"/>
<path class="st0" d="M346.3,56.2l-9-1.6c1-3.6,2.8-6.3,5.2-8.1c2.5-1.7,6.1-2.6,11-2.6c4.4,0,7.7,0.5,9.9,1.6c2.2,1,3.7,2.4,4.6,4
	c0.9,1.6,1.3,4.6,1.3,8.9l-0.1,11.6c0,3.3,0.2,5.7,0.5,7.3c0.3,1.6,0.9,3.2,1.8,5h-9.8c-0.3-0.7-0.6-1.6-1-2.9
	c-0.2-0.6-0.3-1-0.4-1.2c-1.7,1.6-3.5,2.9-5.4,3.7c-1.9,0.8-4,1.2-6.2,1.2c-3.9,0-6.9-1-9.1-3.1c-2.2-2.1-3.3-4.7-3.3-7.9
	c0-2.1,0.5-4,1.5-5.7c1-1.7,2.4-2.9,4.3-3.8c1.8-0.9,4.5-1.7,7.9-2.3c4.6-0.9,7.9-1.7,9.6-2.4v-1c0-1.9-0.5-3.3-1.4-4.1
	c-0.9-0.8-2.7-1.2-5.3-1.2c-1.8,0-3.1,0.3-4.1,1C347.7,53.2,346.9,54.4,346.3,56.2z M359.6,64.2c-1.3,0.4-3.3,0.9-6,1.5
	c-2.8,0.6-4.6,1.2-5.4,1.7c-1.3,0.9-1.9,2.1-1.9,3.5c0,1.4,0.5,2.6,1.6,3.6c1,1,2.4,1.5,4,1.5c1.8,0,3.5-0.6,5.1-1.8
	c1.2-0.9,2-2,2.4-3.3c0.3-0.8,0.4-2.5,0.4-4.8V64.2z"/>
<path class="st0" d="M413.6,82.3h-9.2v-5.5c-1.5,2.1-3.3,3.7-5.4,4.8c-2.1,1-4.2,1.6-6.3,1.6c-4.3,0-8-1.7-11.1-5.2
	c-3.1-3.5-4.6-8.3-4.6-14.5c0-6.4,1.5-11.2,4.5-14.5c3-3.3,6.8-5,11.3-5c4.2,0,7.8,1.7,10.9,5.2V30.5h9.9V82.3z M387.1,62.7
	c0,4,0.6,6.9,1.7,8.7c1.6,2.6,3.8,3.9,6.7,3.9c2.3,0,4.2-1,5.8-2.9c1.6-1.9,2.4-4.8,2.4-8.7c0-4.3-0.8-7.4-2.3-9.3
	c-1.6-1.9-3.5-2.8-6-2.8c-2.4,0-4.3,0.9-5.9,2.8C387.9,56.2,387.1,59,387.1,62.7z"/>
<path class="st0" d="M430.8,56.2l-9-1.6c1-3.6,2.8-6.3,5.2-8.1c2.5-1.7,6.1-2.6,11-2.6c4.4,0,7.7,0.5,9.9,1.6c2.2,1,3.7,2.4,4.6,4
	c0.9,1.6,1.3,4.6,1.3,8.9l-0.1,11.6c0,3.3,0.2,5.7,0.5,7.3c0.3,1.6,0.9,3.2,1.8,5h-9.8c-0.3-0.7-0.6-1.6-1-2.9
	c-0.2-0.6-0.3-1-0.4-1.2c-1.7,1.6-3.5,2.9-5.4,3.7c-1.9,0.8-4,1.2-6.2,1.2c-3.9,0-6.9-1-9.1-3.1c-2.2-2.1-3.3-4.7-3.3-7.9
	c0-2.1,0.5-4,1.5-5.7c1-1.7,2.4-2.9,4.3-3.8c1.8-0.9,4.5-1.7,7.9-2.3c4.6-0.9,7.9-1.7,9.6-2.4v-1c0-1.9-0.5-3.3-1.4-4.1
	c-0.9-0.8-2.7-1.2-5.3-1.2c-1.8,0-3.1,0.3-4.1,1S431.4,54.4,430.8,56.2z M444,64.2c-1.3,0.4-3.3,0.9-6,1.5s-4.6,1.2-5.4,1.7
	c-1.3,0.9-1.9,2.1-1.9,3.5c0,1.4,0.5,2.6,1.6,3.6c1,1,2.4,1.5,4,1.5c1.8,0,3.5-0.6,5.1-1.8c1.2-0.9,2-2,2.4-3.3
	c0.3-0.8,0.4-2.5,0.4-4.8V64.2z"/>
<path class="st1" d="M463.6,82.3v-9.9h9.9v9.9H463.6z"/>
<path class="st1" d="M516.4,55.8l-9.8,1.8c-0.3-2-1.1-3.4-2.2-4.4c-1.2-1-2.7-1.5-4.5-1.5c-2.5,0-4.4,0.9-5.9,2.6
	c-1.5,1.7-2.2,4.6-2.2,8.6c0,4.5,0.7,7.6,2.2,9.4c1.5,1.8,3.5,2.8,6,2.8c1.9,0,3.4-0.5,4.6-1.6c1.2-1.1,2-2.9,2.5-5.5l9.7,1.7
	c-1,4.5-3,7.9-5.8,10.1c-2.9,2.3-6.7,3.4-11.6,3.4c-5.5,0-9.9-1.7-13.1-5.2c-3.3-3.5-4.9-8.3-4.9-14.4c0-6.2,1.6-11,4.9-14.5
	c3.3-3.4,7.7-5.2,13.3-5.2c4.6,0,8.2,1,10.9,2.9C513.3,48.8,515.2,51.8,516.4,55.8z"/>
<path class="st1" d="M521.6,63c0-3.3,0.8-6.5,2.4-9.6c1.6-3.1,3.9-5.4,6.9-7.1c3-1.6,6.3-2.4,10-2.4c5.7,0,10.3,1.8,14,5.5
	c3.6,3.7,5.4,8.3,5.4,14c0,5.7-1.8,10.4-5.5,14.1c-3.7,3.7-8.3,5.6-13.8,5.6c-3.4,0-6.7-0.8-9.8-2.3c-3.1-1.6-5.5-3.8-7.1-6.8
	C522.4,70.9,521.6,67.3,521.6,63z M531.8,63.5c0,3.7,0.9,6.6,2.6,8.5s3.9,3,6.5,3c2.6,0,4.8-1,6.5-3c1.8-2,2.6-4.9,2.6-8.6
	c0-3.7-0.9-6.5-2.6-8.5c-1.8-2-3.9-3-6.5-3c-2.6,0-4.8,1-6.5,3C532.7,56.9,531.8,59.8,531.8,63.5z"/>
<path class="st1" d="M567.3,44.7h9.1v5.1c3.3-4,7.2-6,11.7-6c2.4,0,4.5,0.5,6.3,1.5s3.2,2.5,4.3,4.5c1.6-2,3.4-3.5,5.3-4.5
	c1.9-1,3.9-1.5,6.1-1.5c2.8,0,5.1,0.6,7,1.7c1.9,1.1,3.3,2.8,4.3,4.9c0.7,1.6,1,4.2,1,7.8v24h-9.9V60.8c0-3.7-0.3-6.1-1-7.2
	c-0.9-1.4-2.3-2.1-4.2-2.1c-1.4,0-2.7,0.4-3.9,1.3c-1.2,0.8-2.1,2.1-2.6,3.7c-0.5,1.6-0.8,4.2-0.8,7.8v18H590V61.7
	c0-3.7-0.2-6-0.5-7.1c-0.4-1.1-0.9-1.8-1.6-2.4c-0.7-0.5-1.7-0.8-3-0.8c-1.5,0-2.9,0.4-4.1,1.2c-1.2,0.8-2.1,2-2.6,3.6
	c-0.5,1.6-0.8,4.1-0.8,7.7v18.2h-9.9V44.7z"/>
</svg>
