<svg width="91" height="28" viewBox="0 0 91 28" fill="none" xmlns="http://www.w3.org/2000/svg">
<path fill-rule="evenodd" clip-rule="evenodd" d="M14.8974 0H18.8469H22.8843C24.82 0 26.2949 0.146383 27.3091 0.444982C28.6697 0.846223 29.8413 1.56181 30.8118 2.59232C31.7875 3.61701 32.5252 4.87497 33.0349 6.36621C33.5394 7.85162 33.7943 9.68987 33.7943 11.8699C33.7943 13.7892 33.5557 15.4385 33.0781 16.8259C32.4978 18.523 31.6685 19.8947 30.589 20.9415C29.7754 21.7388 28.6749 22.3576 27.2928 22.8014C26.257 23.1315 24.8696 23.2948 23.1392 23.2948H19.0224L14.3066 27.1491V18.6385H18.8469H19.7671H22.5216C23.828 18.6408 24.7722 18.5598 25.3519 18.4151C28.437 17.6453 28.9467 14.408 28.9467 11.6523C28.9467 8.57421 28.5536 4.93212 24.9728 4.1588C24.3214 4.01242 23.0366 3.9366 21.1277 3.9366H19.0241V14.7415H18.8469H14.3066V0.630439V0.0011664V0H14.8974Z" fill="#0098DA"/>
<path fill-rule="evenodd" clip-rule="evenodd" d="M59.6006 23.2936V3.93956H55.7655H53.2688L51.7402 0.00354004H61.92H72.1009L70.5723 3.93956H68.0757H64.24V23.2936H61.92H59.6006Z" fill="#0098DA"/>
<path fill-rule="evenodd" clip-rule="evenodd" d="M9.99777 14.7416V6.82056L4.69531 14.7416H9.99777Z" fill="#0098DA"/>
<path fill-rule="evenodd" clip-rule="evenodd" d="M9.9978 23.293L0 18.5813H9.9978V23.293Z" fill="#96989A"/>
<path d="M5.93028e-06 14.7439L9.86775 0.0023328C9.86775 0.0023328 6.98907 0 4.68135 0C2.10011 0 -0.00407647 2.54392 5.93028e-06 4.43465C0.00642113 7.45388 5.93028e-06 14.7439 5.93028e-06 14.7439Z" fill="#96989A"/>
<path fill-rule="evenodd" clip-rule="evenodd" d="M83.5682 18.642H77.2101L78.4687 14.7416H82.1469C81.2074 12.1638 80.2095 9.42397 78.7538 5.43546C74.9654 15.8217 75.2867 14.9556 72.243 23.2936H67.2549L74.7251 4.05561L76.298 0.00354004H78.7538H81.2109L82.7837 4.05561L90.254 23.2936H85.2658C84.6243 21.5388 84.0773 20.0382 83.5682 18.642Z" fill="#0098DA"/>
<path fill-rule="evenodd" clip-rule="evenodd" d="M40.2721 18.642H46.6302L45.3716 14.7416H41.6934C42.6329 12.1638 43.6308 9.42397 45.0859 5.43546C48.8738 15.8217 48.5524 14.9556 51.5973 23.2936H56.5842L49.1158 4.05561L47.5417 0.00354004H45.0865H42.6306L41.0571 4.05561L33.5869 23.2936H38.5744C39.216 21.5388 39.763 20.0382 40.2721 18.642Z" fill="#0098DA"/>
</svg>
