<svg id="Grupo_1" data-name="Grupo 1" xmlns="http://www.w3.org/2000/svg" width="207.024" height="40.493" viewBox="0 0 1135 222">
  <defs>
    <style>
      .cls-1 {
        fill: #4f46e5;
      }

      .cls-2 {
        fill: #fff;
      }

      .cls-2, .cls-3 {
        fill-rule: evenodd;
      }

      .cls-3 {
        fill: #282828;
      }
    </style>
  </defs>
  <ellipse id="Elipse_5" data-name="Elipse 5" class="cls-1" cx="110.281" cy="110.719" rx="110.156" ry="110.469"/>
  <path id="Vectorial_final" data-name="Vectorial final" class="cls-2" d="M91.215,110.845a18.957,18.957,0,1,1,18.956,19.008A18.983,18.983,0,0,1,91.215,110.845Zm19.066,111.342a110.722,110.722,0,0,1-15.3-1.084v-38.19a73.7,73.7,0,0,1,0-144.135V0.334A108.277,108.277,0,0,1,125.357.306V37.2h29.6V66.136H110.654v0.007c-0.09,0-.178-0.007-0.267-0.007a44.709,44.709,0,1,0,35.788,71.375l23.361,16.7a73.465,73.465,0,0,1-44.179,28.7v38.219A110.58,110.58,0,0,1,110.281,222.187Z"/>
  <path id="cryptoadvisor.club" class="cls-3" d="M275.928,95.141a23.452,23.452,0,0,1,11.75,3.46,18.628,18.628,0,0,1,1.542,1.331l5.849-11.179-0.85-.745a15.027,15.027,0,0,0-2.553-1.863,38.909,38.909,0,0,0-4.253-2.236,28.505,28.505,0,0,0-6.221-1.863,40.941,40.941,0,0,0-7.923-.745q-12.76,0-21.269,8.517t-8.507,21.294q0,12.777,8.507,21.294t21.269,8.517a33.276,33.276,0,0,0,11.006-1.757,29.1,29.1,0,0,0,6.487-2.821,20.053,20.053,0,0,0,2.18-1.81V121.226h-1.6l-1.808,1.49a18.463,18.463,0,0,1-5.529,2.928,22.817,22.817,0,0,1-8.082,1.437q-7.658,0-12.07-4.2t-4.414-11.765q0-7.558,4.414-11.765t12.07-4.206h0Zm64.868,3.3,3.19-12.35-1.17-1.171a13.178,13.178,0,0,0-4.094-2.4,16.518,16.518,0,0,0-6.433-1.224,14.393,14.393,0,0,0-5.637,1.118,15.8,15.8,0,0,0-4.2,2.449,21.29,21.29,0,0,0-2.871,3.034,15.378,15.378,0,0,0-1.649,2.4c-0.212.462-.39,0.835-0.531,1.118h-0.532L316.337,82.9H301.449v56.428h15.42v-34.07l0.532-1.064a19.818,19.818,0,0,1,1.914-2.556,35.966,35.966,0,0,1,2.818-2.927,14.353,14.353,0,0,1,3.881-2.5,11.228,11.228,0,0,1,4.679-1.065q6.912,0,10.1,3.3h0ZM387.055,82.9L373.23,119.1H372.7L357.279,82.9H340.8l24.459,55.9-9.571,23.955h15.952l31.9-79.851H387.055Zm49.979,12.244a14.887,14.887,0,0,1,10.954,4.472,15.577,15.577,0,0,1,4.466,11.5,15.577,15.577,0,0,1-4.466,11.5,14.887,14.887,0,0,1-10.954,4.471,14.166,14.166,0,0,1-10.528-4.471,15.776,15.776,0,0,1-4.36-11.5,15.776,15.776,0,0,1,4.36-11.5,14.166,14.166,0,0,1,10.528-4.472h0Zm-14.356,36.2,0.638,0.958a11.916,11.916,0,0,0,2.127,2.449,30.046,30.046,0,0,0,3.509,2.768,19.609,19.609,0,0,0,5.317,2.4,23.837,23.837,0,0,0,7.019,1.011,25.349,25.349,0,0,0,19.248-8.411q7.869-8.409,7.869-21.4t-7.869-21.4A25.355,25.355,0,0,0,441.288,81.3a23.81,23.81,0,0,0-7.019,1.011,21.208,21.208,0,0,0-5.264,2.289,22.1,22.1,0,0,0-3.615,2.928,19.507,19.507,0,0,0-2.074,2.289,10.309,10.309,0,0,0-.638,1.065h-0.532L421.614,82.9H406.726v79.851h15.42V131.34h0.532Zm59.074,3.886q5.368,5.7,14.3,5.7a22.9,22.9,0,0,0,7.763-1.331,23.418,23.418,0,0,0,4.839-2.129q1.116-.8,1.754-1.331V123.355h-1.6l-0.957.958a9.729,9.729,0,0,1-3.243,1.863,13.023,13.023,0,0,1-4.839.905,7.889,7.889,0,0,1-5.849-2.129q-2.128-2.129-2.127-6.388V96.738h17.015V82.9H491.8v-16.5h-0.532L466.811,92.479v4.259h9.57v22.891Q476.381,129.531,481.752,135.226ZM543.91,95.141a14.885,14.885,0,0,1,10.953,4.472,15.573,15.573,0,0,1,4.467,11.5,15.574,15.574,0,0,1-4.467,11.5,15.652,15.652,0,0,1-21.906,0,15.574,15.574,0,0,1-4.467-11.5,15.573,15.573,0,0,1,4.467-11.5A14.882,14.882,0,0,1,543.91,95.141Zm0-13.841q-14.145,0-22.757,8.411t-8.614,21.4q0,12.992,8.614,21.4t22.757,8.411q14.142,0,22.757-8.411t8.614-21.4q0-12.989-8.614-21.4T543.91,81.3Zm48.385,48.869a7.753,7.753,0,0,1-2.658-6.282q0-9.048,12.229-9.05a33.274,33.274,0,0,1,8.773,1.172,30.156,30.156,0,0,1,5.637,1.916q1.327,0.746,2.073,1.171l-0.638,1.384a14.507,14.507,0,0,1-1.967,3.3,33.788,33.788,0,0,1-3.456,3.886,16.752,16.752,0,0,1-5.371,3.354,18.6,18.6,0,0,1-7.178,1.384Q594.954,132.405,592.295,130.169Zm0.638-45.728a42.085,42.085,0,0,0-7.816,3.3q-1.861,1.225-2.924,2.076v9.05h1.6l0.957-.852a29.073,29.073,0,0,1,2.658-1.97,37.037,37.037,0,0,1,4.148-2.4,26.506,26.506,0,0,1,5.689-1.97,29.015,29.015,0,0,1,6.753-.8q14.356,0,14.356,13.309v6.388l-1.914-1.065A27.278,27.278,0,0,0,610,107.385a42.42,42.42,0,0,0-9.73-1.065q-9.147,0-14.41,4.791T580.6,123.887a15.921,15.921,0,0,0,5.157,12.3q5.157,4.737,13.559,4.738a21.617,21.617,0,0,0,7.178-1.171,20.768,20.768,0,0,0,5.264-2.555A21.258,21.258,0,0,0,615.265,134a15.343,15.343,0,0,0,1.968-2.556q0.371-.743.585-1.171h0.531l0.532,9.05h8.507V104.191q0-10.007-6.008-15.917t-16.324-5.909A36.583,36.583,0,0,0,592.933,84.441Zm71.143,47.964a17.982,17.982,0,0,1-13.612-5.856q-5.53-5.855-5.53-14.906t5.53-14.905a18.749,18.749,0,0,1,27.224,0q5.528,5.856,5.53,14.905t-5.53,14.906A17.988,17.988,0,0,1,664.076,132.405Zm-1.064,8.517a25.108,25.108,0,0,0,13.134-3.726A21.684,21.684,0,0,0,679.921,134a17.387,17.387,0,0,0,2.127-2.556q0.423-.743.638-1.171h0.532l0.531,9.05h8.508V58.409h-9.039v34.6h-0.532l-0.638-1.171a14.845,14.845,0,0,0-2.18-2.609,30.822,30.822,0,0,0-3.669-3.088,19.943,19.943,0,0,0-5.636-2.662,24.747,24.747,0,0,0-7.551-1.118,25.475,25.475,0,0,0-19.195,8.358q-7.923,8.36-7.922,20.921t7.922,20.921a25.469,25.469,0,0,0,19.195,8.358h0Zm34.561-56.96L721.5,139.325h9.039l23.927-55.363H744.9l-18.61,43.119h-0.532l-18.61-43.119h-9.571Zm66.464,0a17.4,17.4,0,0,1-4.254-.532v55.9h9.04v-55.9Zm0.532-25.02a5.836,5.836,0,0,0-4.148,1.6,6.182,6.182,0,0,0,0,8.518,6.184,6.184,0,0,0,8.295,0,6.179,6.179,0,0,0,0-8.518A5.838,5.838,0,0,0,764.569,58.942Zm51.363,55.576a19.528,19.528,0,0,0-8.241-5.377q-4.841-1.648-9.677-2.927a36.715,36.715,0,0,1-8.242-3.141q-3.405-1.861-3.4-4.738a6.613,6.613,0,0,1,2.552-5.377q2.553-2.076,7.551-2.076a27.237,27.237,0,0,1,15.1,5,24.4,24.4,0,0,1,1.915,1.916l3.722-7.453-0.851-.852a17.693,17.693,0,0,0-2.5-1.916,45.519,45.519,0,0,0-4.094-2.4,24.367,24.367,0,0,0-5.9-2.023,33.7,33.7,0,0,0-7.39-.8q-8.934,0-14.038,4.418a13.983,13.983,0,0,0-5.1,11.019,12.97,12.97,0,0,0,3.4,9.262,19.944,19.944,0,0,0,8.241,5.27q4.839,1.653,9.678,2.928a28.885,28.885,0,0,1,8.241,3.461,6.548,6.548,0,0,1,3.4,5.7q0,7.984-12.229,7.985a36.183,36.183,0,0,1-12.23-2.236,34.872,34.872,0,0,1-4.041-1.917,20.047,20.047,0,0,1-2.5-1.543c-0.39-.32-0.691-0.549-0.9-0.692L776.266,134l2.34,1.7a29.29,29.29,0,0,0,7.657,3.46,35.67,35.67,0,0,0,11.272,1.757q10.846,0,16.324-4.578t5.476-12.457A13.369,13.369,0,0,0,815.932,114.518Zm36.9-23.636a19.46,19.46,0,0,1,14.516,5.8q5.688,5.8,5.69,14.958t-5.69,14.959a21.056,21.056,0,0,1-29.031,0q-5.691-5.8-5.69-14.959t5.69-14.958A19.453,19.453,0,0,1,852.832,90.882Zm0-8.517q-12.76,0-21,8.251t-8.242,21.027q0,12.777,8.242,21.028t21,8.251q12.762,0,21-8.251t8.242-21.028q0-12.775-8.242-21.027T852.832,82.365Zm69.707,9.689a12.832,12.832,0,0,1,3.669,1.916,12.428,12.428,0,0,1,1.063,1.171l2.659-7.985-1.17-1.171a13.077,13.077,0,0,0-4.36-2.4,20.092,20.092,0,0,0-7.231-1.224,15.638,15.638,0,0,0-5.956,1.171,19.245,19.245,0,0,0-4.625,2.555,23.262,23.262,0,0,0-3.3,3.194,20.786,20.786,0,0,0-1.967,2.555q-0.427.746-.638,1.171h-0.532l-0.532-9.05h-8.507v55.363h9.039V103.658l0.744-1.384a24.609,24.609,0,0,1,2.287-3.141q1.539-1.862,3.4-3.726A17.849,17.849,0,0,1,911,92.213a10.959,10.959,0,0,1,5.1-1.331A17.171,17.171,0,0,1,922.539,92.053Zm7.391,36.625a5.838,5.838,0,0,0-4.148,1.6,6.182,6.182,0,0,0,0,8.518,6.184,6.184,0,0,0,8.295,0,6.18,6.18,0,0,0,0-8.518A5.841,5.841,0,0,0,929.93,128.678Zm39.346-37.8a24.244,24.244,0,0,1,5.8.692,23.666,23.666,0,0,1,4.573,1.544,28.489,28.489,0,0,1,3.35,1.916,16.09,16.09,0,0,1,2.074,1.544c0.319,0.319.548,0.551,0.691,0.692l3.722-7.453-2.021-1.81q-2.02-1.916-7.337-3.78a35.892,35.892,0,0,0-11.911-1.863q-12.441,0-20.577,8.251T939.5,111.643q0,12.777,8.135,21.028t20.577,8.251a34.924,34.924,0,0,0,7.072-.692,29.637,29.637,0,0,0,5.37-1.544,28.88,28.88,0,0,0,3.776-1.916,14.093,14.093,0,0,0,2.233-1.544l0.691-.692v-9.05h-1.6l-1.808,1.7a18.932,18.932,0,0,1-5.849,3.46,22.4,22.4,0,0,1-8.826,1.757q-9.147,0-14.941-5.8t-5.8-14.959q0-9.154,5.8-14.958t14.941-5.8h0Zm28.179-32.473v80.916h9.035V58.409h-9.035Zm20.735,59.623q0,10.753,5.96,16.821t16.37,6.069a20.853,20.853,0,0,0,7.02-1.171,19.624,19.624,0,0,0,8.88-5.749,18.833,18.833,0,0,0,2.08-2.556q0.42-.743.63-1.171h0.54l0.53,9.05h8.5V83.962h-9.03v30.343a17.994,17.994,0,0,1-18.08,18.1q-14.355,0-14.36-14.373V83.962h-9.04v34.07Zm71.78-14.693a16.1,16.1,0,0,1,1.92-3.513,33.521,33.521,0,0,1,3.29-4.046,15.842,15.842,0,0,1,5.21-3.46,17.671,17.671,0,0,1,7.13-1.437,17.109,17.109,0,0,1,13.08,5.323q5,5.325,5,14.373,0,9.9-5.85,15.863t-15.42,5.963q-9.57,0-14.89-2.662v-25.02Zm37.28-13.149a24.587,24.587,0,0,0-18.67-7.825,27.393,27.393,0,0,0-7.44.958,20.307,20.307,0,0,0-5.32,2.183,18.87,18.87,0,0,0-3.4,2.768,13.8,13.8,0,0,0-1.86,2.183c-0.25.426-.45,0.745-0.59,0.958h-0.53V58.409h-9.04v78.254l2.98,1.065a73.218,73.218,0,0,0,20.42,3.194q13.92,0,22.38-8.358t8.46-21.985Q1134.64,98.017,1127.25,90.19Z"/>
</svg>
