<?xml version="1.0" encoding="UTF-8" standalone="no"?>
<!-- Created with Inkscape (http://www.inkscape.org/) -->
<svg xmlns:dc="http://purl.org/dc/elements/1.1/" xmlns:cc="http://creativecommons.org/ns#" xmlns:rdf="http://www.w3.org/1999/02/22-rdf-syntax-ns#" xmlns:svg="http://www.w3.org/2000/svg" xmlns="http://www.w3.org/2000/svg" xmlns:sodipodi="http://sodipodi.sourceforge.net/DTD/sodipodi-0.dtd" xmlns:inkscape="http://www.inkscape.org/namespaces/inkscape" width="130.22665" height="46.585339" viewBox="0 0 34.455802 12.325704" version="1.1" id="svg168098" inkscape:version="0.92.0 r15299" sodipodi:docname="digiturk.svg">
  <defs id="defs168092"/>
  <sodipodi:namedview id="base" pagecolor="#ffffff" bordercolor="#666666" borderopacity="1.0" inkscape:pageopacity="0.0" inkscape:pageshadow="2" inkscape:zoom="6.2061495" inkscape:cx="64.613331" inkscape:cy="22.792659" inkscape:document-units="mm" inkscape:current-layer="layer1" showgrid="false" fit-margin-top="0" fit-margin-left="0" fit-margin-right="0" fit-margin-bottom="0" units="px" inkscape:window-width="1280" inkscape:window-height="744" inkscape:window-x="-4" inkscape:window-y="-4" inkscape:window-maximized="1"/>
  <metadata id="metadata168095">
    <rdf:RDF>
      <cc:Work rdf:about="">
        <dc:format>image/svg+xml</dc:format>
        <dc:type rdf:resource="http://purl.org/dc/dcmitype/StillImage"/>
        <dc:title/>
      </cc:Work>
    </rdf:RDF>
  </metadata>
  <g inkscape:label="Layer 1" inkscape:groupmode="layer" id="layer1" transform="translate(-64.547247,-155.38937)">
    <g id="g168116" transform="translate(0.13229061,-0.13229866)">
      <path inkscape:connector-curvature="0" id="path34754" style="fill:#e51635;fill-opacity:1;fill-rule:nonzero;stroke:none;stroke-width:0.35277778" d="m 92.695385,157.57766 v 1.61643 c 0,0 -0.155222,0 -0.321028,0 -0.557389,0 -1.037166,0.45332 -1.037166,1.03152 v 2.81728 h -1.61925 v -2.81869 c 0.0071,-1.56563 1.280583,-2.64654 2.656416,-2.64654 z m -23.943027,1.83515 c 0,2.07574 -1.68275,3.7592 -3.760611,3.7592 h -0.4445 v -1.65523 c 0,0 0.437444,0 0.4445,0 1.164166,0 2.106083,-0.94192 2.106083,-2.10397 0,-1.16205 -0.941917,-2.10397 -2.106083,-2.10397 h -0.4445 v -1.65488 h 0.4445 c 2.077861,0 3.760611,1.6824 3.760611,3.75885 z m 17.663583,3.76626 c -1.425222,0 -2.557639,-1.16276 -2.557639,-2.55659 l -0.0035,-2.67546 h 1.566333 v 2.72909 c 0,0.59619 0.451556,1.03716 0.998361,1.03716 0.585612,0 0.998362,-0.45473 0.998362,-1.03716 v -2.72909 h 1.559277 v 2.67546 c 0,1.39383 -1.132416,2.55659 -2.561166,2.55659 z m 10.121194,-2.56964 2.137833,2.43346 h -1.926166 l -1.675695,-2.08068 v 2.08068 h -1.61925 v -7.33354 h 1.61925 v 4.54448 l 1.848556,-2.30681 h 1.816805 z M 80.65508,156.59588 h 1.615722 v 1.35149 h 0.927805 v 1.20615 h -0.927805 v 3.88937 H 80.65508 Z m -2.7305,1.35114 h 1.61925 v 5.09587 h -1.61925 z m 0.807861,-2.29129 c 0.522111,0 0.941917,0.41239 0.941917,0.94015 0,0.52917 -0.433917,0.95074 -0.941917,0.95074 -0.525639,0 -0.938389,-0.4498 -0.938389,-0.95074 0,-0.50906 0.419806,-0.94015 0.938389,-0.94015 z m -9.214555,2.29129 h 1.615757 v 5.09587 h -1.615757 z m 0.807861,-2.29129 c 0.518583,0 0.941916,0.41239 0.941916,0.94015 0,0.52917 -0.433916,0.95074 -0.941916,0.95074 -0.525639,0 -0.938389,-0.4498 -0.938389,-0.95074 0,-0.50906 0.419805,-0.94015 0.938389,-0.94015 z m 4.205111,10.83486 c -0.469195,0 -0.853723,-0.38417 -0.853723,-0.85866 0,-0.47237 0.384528,-0.86043 0.853723,-0.86043 0.47625,0 0.860777,0.38806 0.860777,0.86043 0,0.47449 -0.384527,0.85866 -0.860777,0.85866 z m 0,-2.94464 c -1.146528,0 -2.081389,0.93522 -2.081389,2.08598 0,1.1497 0.934861,2.08315 2.081389,2.08315 1.153583,0 2.088444,-0.93345 2.088444,-2.08315 0,-1.15076 -0.934861,-2.08598 -2.088444,-2.08598 z m 0,-4.21252 c 0.663222,0 1.195916,0.53446 1.195916,1.19063 0,0.65793 -0.532694,1.19133 -1.195916,1.19133 -0.652639,0 -1.185334,-0.5334 -1.185334,-1.19133 0,-0.65617 0.532695,-1.19063 1.185334,-1.19063 z m 0,3.84564 c 1.464027,0 2.652888,-1.18887 2.652888,-2.65501 0,-1.4665 -1.188861,-2.65536 -2.652888,-2.65536 -1.418167,0 -2.656417,1.14124 -2.656417,2.65536 0,1.46614 1.188861,2.65501 2.656417,2.65501"/>
      <path inkscape:connector-curvature="0" id="path34758" style="fill:#000000;fill-opacity:1;fill-rule:nonzero;stroke:none;stroke-width:0.35277778" d="m 98.106987,165.74482 c 0.239889,0 0.395111,-0.12771 0.395111,-0.31715 v -0.004 c 0,-0.20532 -0.151694,-0.31186 -0.384528,-0.31186 h -0.363361 v 0.63324 z m -0.518583,-0.78387 h 0.53975 c 0.324555,0 0.53975,0.17251 0.53975,0.45649 v 0.004 c 0,0.31044 -0.261056,0.47095 -0.564445,0.47095 h -0.34925 v 0.508 h -0.165805 z m -1.580445,0.83749 v -0.83749 h 0.162278 v 0.82691 c 0,0.31044 0.162278,0.48542 0.437444,0.48542 0.264584,0 0.433917,-0.16051 0.433917,-0.47484 v -0.83749 h 0.162278 v 0.82479 c 0,0.41945 -0.239889,0.63747 -0.599722,0.63747 -0.356306,0 -0.596195,-0.21802 -0.596195,-0.62477 z m -0.490361,-0.11359 v -0.004 c 0,-0.32703 -0.239889,-0.59479 -0.567972,-0.59479 -0.331611,0 -0.564444,0.26318 -0.564444,0.59055 v 0.004 c 0,0.32702 0.239888,0.59407 0.567972,0.59407 0.328083,0 0.564444,-0.26281 0.564444,-0.59019 z m -1.30175,0 v -0.004 c 0,-0.39723 0.299861,-0.74472 0.737306,-0.74472 0.437444,0 0.733777,0.34361 0.733777,0.74048 v 0.004 c 0,0.39687 -0.299861,0.74436 -0.737305,0.74436 -0.437444,0 -0.733778,-0.34325 -0.733778,-0.74048 z m -0.818444,0.0102 c 0.215194,0 0.370416,-0.11113 0.370416,-0.29598 v -0.004 c 0,-0.17674 -0.134055,-0.28328 -0.366888,-0.28328 h -0.4445 v 0.5835 z m -0.60325,-0.73413 h 0.617361 c 0.176389,0 0.321028,0.0536 0.409222,0.14393 0.07056,0.0699 0.112889,0.17075 0.112889,0.28399 v 0.004 c 0,0.23883 -0.165806,0.37853 -0.391583,0.42016 l 0.4445,0.58772 h -0.201084 l -0.416277,-0.5595 h -0.41275 v 0.5595 h -0.162278 z m -1.675695,0.7239 v -0.004 c 0,-0.39476 0.289278,-0.74472 0.719667,-0.74472 0.243417,0 0.395111,0.0699 0.536222,0.19121 l -0.102305,0.12312 c -0.112889,-0.096 -0.236361,-0.1644 -0.437445,-0.1644 -0.321028,0 -0.546805,0.26988 -0.546805,0.59055 v 0.004 c 0,0.3436 0.218722,0.59831 0.567972,0.59831 0.165805,0 0.3175,-0.0635 0.416278,-0.14394 v -0.35771 h -0.437445 v -0.14605 h 0.592667 v 0.57361 c -0.134056,0.1196 -0.335139,0.22014 -0.578556,0.22014 -0.451555,0 -0.73025,-0.32844 -0.73025,-0.74048 z m -1.245305,0.18944 -0.328083,-0.73448 -0.328084,0.73448 z m -0.402167,-0.92322 h 0.151695 l 0.656166,1.44956 h -0.172861 l -0.169333,-0.38029 h -0.783167 l -0.172861,0.38029 h -0.165805 z m -1.114778,0.01 h 0.162306 v 1.43972 h -0.162306 z m -1.125361,1.28975 c 0.366889,0 0.596195,-0.24659 0.596195,-0.56585 v -0.004 c 0,-0.31856 -0.229306,-0.56939 -0.596195,-0.56939 h -0.335139 v 1.13912 z m -0.497416,-1.28975 h 0.497416 c 0.451556,0 0.765528,0.31044 0.765528,0.71578 v 0.004 c 0,0.40463 -0.313972,0.71966 -0.765528,0.71966 h -0.497416 z m -1.379361,0 h 1.040694 v 0.14816 h -0.878417 v 0.49142 h 0.786695 v 0.14817 h -0.786695 v 0.50377 h 0.889 v 0.14816 h -1.051277 z m -1.785056,0 h 0.165806 l 0.522111,0.78563 0.525639,-0.78563 h 0.162277 v 1.43968 h -0.15875 v -1.16628 l -0.525638,0.77153 h -0.0071 l -0.525639,-0.76941 v 1.16416 h -0.15875 z m -2.434167,0 h 0.151695 l 0.906639,1.15358 v -1.15358 h 0.15875 v 1.43968 h -0.130528 l -0.927806,-1.18039 v 1.18039 h -0.15875 z m -0.585611,0 h 0.162264 v 1.43972 h -0.162264 z m -0.479777,0.84561 c -0.01764,-0.19333 -0.130528,-0.35772 -0.338667,-0.35772 -0.183444,0 -0.321028,0.15169 -0.345722,0.35772 z m -0.310445,0.48118 c 0.148167,0 0.250472,-0.06 0.335139,-0.15028 l 0.09878,0.0885 c -0.105833,0.11959 -0.236361,0.19932 -0.437445,0.19932 -0.292805,0 -0.529166,-0.22402 -0.529166,-0.55527 0,-0.30798 0.215194,-0.55528 0.508,-0.55528 0.3175,0 0.497416,0.25118 0.497416,0.56339 0,0.0145 0,0.031 -0.0035,0.0561 H 79.3851 c 0.02469,0.22366 0.186972,0.35348 0.373944,0.35348 z m -0.924278,-0.41557 v -0.004 c 0,-0.25083 -0.169333,-0.41134 -0.373944,-0.41134 -0.197556,0 -0.384528,0.16686 -0.384528,0.40922 v 0.004 c 0,0.24659 0.186972,0.41169 0.384528,0.41169 0.208139,0 0.373944,-0.15276 0.373944,-0.40958 z m -0.751416,0.32491 v 0.20355 h -0.15875 v -1.50142 h 0.15875 v 0.65229 c 0.08819,-0.12806 0.211666,-0.23672 0.409222,-0.23672 0.254,0 0.508,0.20109 0.508,0.55104 v 0.004 c 0,0.34748 -0.254,0.55315 -0.508,0.55315 -0.201083,0 -0.324556,-0.10654 -0.409222,-0.22613 z m 20.023666,-0.45226 c 0.239889,0 0.395111,-0.12771 0.395111,-0.31715 v -0.004 c 0,-0.20532 -0.151694,-0.31186 -0.384528,-0.31186 h -0.363361 v 0.63324 z m -0.518583,-0.78387 h 0.53975 c 0.324555,0 0.53975,0.17251 0.53975,0.45649 v 0.004 c 0,0.31044 -0.261056,0.47095 -0.564445,0.47095 h -0.34925 v 0.508 h -0.165805 z m -1.580445,0.83749 v -0.83749 h 0.162278 v 0.82691 c 0,0.31044 0.162278,0.48542 0.437444,0.48542 0.264584,0 0.433917,-0.16051 0.433917,-0.47484 v -0.83749 h 0.162278 v 0.82479 c 0,0.41945 -0.239889,0.63747 -0.599722,0.63747 -0.356306,0 -0.596195,-0.21802 -0.596195,-0.62477 z m -0.490361,-0.11359 v -0.004 c 0,-0.32703 -0.239889,-0.59479 -0.567972,-0.59479 -0.331611,0 -0.564444,0.26318 -0.564444,0.59055 v 0.004 c 0,0.32702 0.239888,0.59407 0.567972,0.59407 0.328083,0 0.564444,-0.26281 0.564444,-0.59019 z m -1.30175,0 v -0.004 c 0,-0.39723 0.299861,-0.74472 0.737306,-0.74472 0.437444,0 0.733777,0.34361 0.733777,0.74048 v 0.004 c 0,0.39687 -0.299861,0.74436 -0.737305,0.74436 -0.437444,0 -0.733778,-0.34325 -0.733778,-0.74048 z m -0.818444,0.0102 c 0.215194,0 0.370416,-0.11113 0.370416,-0.29598 v -0.004 c 0,-0.17674 -0.134055,-0.28328 -0.366888,-0.28328 h -0.4445 v 0.5835 z m -0.60325,-0.73413 h 0.617361 c 0.176389,0 0.321028,0.0536 0.409222,0.14393 0.07056,0.0699 0.112889,0.17075 0.112889,0.28399 v 0.004 c 0,0.23883 -0.165806,0.37853 -0.391583,0.42016 l 0.4445,0.58772 h -0.201084 l -0.416277,-0.5595 h -0.41275 v 0.5595 h -0.162278 z m -1.675695,0.7239 v -0.004 c 0,-0.39476 0.289278,-0.74472 0.719667,-0.74472 0.243417,0 0.395111,0.0699 0.536222,0.19121 l -0.102305,0.12312 c -0.112889,-0.096 -0.236361,-0.1644 -0.437445,-0.1644 -0.321028,0 -0.546805,0.26988 -0.546805,0.59055 v 0.004 c 0,0.3436 0.218722,0.59831 0.567972,0.59831 0.165805,0 0.3175,-0.0635 0.416278,-0.14394 v -0.35771 h -0.437445 v -0.14605 h 0.592667 v 0.57361 c -0.134056,0.1196 -0.335139,0.22014 -0.578556,0.22014 -0.451555,0 -0.73025,-0.32844 -0.73025,-0.74048 z m -1.245305,0.18944 -0.328083,-0.73448 -0.328084,0.73448 z m -0.402167,-0.92322 h 0.151695 l 0.656166,1.44956 h -0.172861 l -0.169333,-0.38029 h -0.783167 l -0.172861,0.38029 h -0.165805 z m -1.114778,0.01 h 0.162306 v 1.43972 h -0.162306 z m -1.125361,1.28975 c 0.366889,0 0.596195,-0.24659 0.596195,-0.56585 v -0.004 c 0,-0.31856 -0.229306,-0.56939 -0.596195,-0.56939 h -0.335139 v 1.13912 z m -0.497416,-1.28975 h 0.497416 c 0.451556,0 0.765528,0.31044 0.765528,0.71578 v 0.004 c 0,0.40463 -0.313972,0.71966 -0.765528,0.71966 h -0.497416 z m -1.379361,0 h 1.040694 v 0.14816 h -0.878417 v 0.49142 h 0.786695 v 0.14817 h -0.786695 v 0.50377 h 0.889 v 0.14816 h -1.051277 z m -1.785056,0 h 0.165806 l 0.522111,0.78563 0.525639,-0.78563 h 0.162277 v 1.43968 h -0.15875 v -1.16628 l -0.525638,0.77153 h -0.0071 l -0.525639,-0.76941 v 1.16416 h -0.15875 z m -2.434167,0 h 0.151695 l 0.906639,1.15358 v -1.15358 h 0.15875 v 1.43968 h -0.130528 l -0.927806,-1.18039 v 1.18039 h -0.15875 z m -0.585611,0 h 0.162264 v 1.43972 h -0.162264 z m -0.479777,0.84561 c -0.01764,-0.19333 -0.130528,-0.35772 -0.338667,-0.35772 -0.183444,0 -0.321028,0.15169 -0.345722,0.35772 z m -0.310445,0.48118 c 0.148167,0 0.250472,-0.06 0.335139,-0.15028 l 0.09878,0.0885 c -0.105833,0.11959 -0.236361,0.19932 -0.437445,0.19932 -0.292805,0 -0.529166,-0.22402 -0.529166,-0.55527 0,-0.30798 0.215194,-0.55528 0.508,-0.55528 0.3175,0 0.497416,0.25118 0.497416,0.56339 0,0.0145 0,0.031 -0.0035,0.0561 H 79.3851 c 0.02469,0.22366 0.186972,0.35348 0.373944,0.35348 z m -0.924278,-0.41557 v -0.004 c 0,-0.25083 -0.169333,-0.41134 -0.373944,-0.41134 -0.197556,0 -0.384528,0.16686 -0.384528,0.40922 v 0.004 c 0,0.24659 0.186972,0.41169 0.384528,0.41169 0.208139,0 0.373944,-0.15276 0.373944,-0.40958 z m -0.751416,0.32491 v 0.20355 h -0.15875 v -1.50142 h 0.15875 v 0.65229 c 0.08819,-0.12806 0.211666,-0.23672 0.409222,-0.23672 0.254,0 0.508,0.20109 0.508,0.55104 v 0.004 c 0,0.34748 -0.254,0.55315 -0.508,0.55315 -0.201083,0 -0.324556,-0.10654 -0.409222,-0.22613 z M 98.106987,165.745 c 0.239889,0 0.395111,-0.12771 0.395111,-0.31715 v -0.004 c 0,-0.20532 -0.151694,-0.31186 -0.384528,-0.31186 h -0.363361 v 0.63324 z m -0.518583,-0.78387 h 0.53975 c 0.324555,0 0.53975,0.17251 0.53975,0.45649 v 0.004 c 0,0.31044 -0.261056,0.47095 -0.564445,0.47095 h -0.34925 v 0.508 h -0.165805 z m -1.580445,0.83749 v -0.83749 h 0.162278 v 0.82691 c 0,0.31044 0.162278,0.48542 0.437444,0.48542 0.264584,0 0.433917,-0.16051 0.433917,-0.47484 v -0.83749 h 0.162278 v 0.82479 c 0,0.41945 -0.239889,0.63747 -0.599722,0.63747 -0.356306,0 -0.596195,-0.21802 -0.596195,-0.62477 z m -0.490361,-0.11359 v -0.004 c 0,-0.32703 -0.239889,-0.59479 -0.567972,-0.59479 -0.331611,0 -0.564444,0.26318 -0.564444,0.59055 v 0.004 c 0,0.32702 0.239888,0.59407 0.567972,0.59407 0.328083,0 0.564444,-0.26281 0.564444,-0.59019 z m -1.30175,0 v -0.004 c 0,-0.39723 0.299861,-0.74472 0.737306,-0.74472 0.437444,0 0.733777,0.34361 0.733777,0.74048 v 0.004 c 0,0.39687 -0.299861,0.74436 -0.737305,0.74436 -0.437444,0 -0.733778,-0.34325 -0.733778,-0.74048 z m -0.818444,0.0102 c 0.215194,0 0.370416,-0.11113 0.370416,-0.29598 v -0.004 c 0,-0.17674 -0.134055,-0.28328 -0.366888,-0.28328 h -0.4445 v 0.5835 z m -0.60325,-0.73413 h 0.617361 c 0.176389,0 0.321028,0.0536 0.409222,0.14393 0.07056,0.0699 0.112889,0.17075 0.112889,0.28399 v 0.004 c 0,0.23883 -0.165806,0.37853 -0.391583,0.42016 l 0.4445,0.58772 h -0.201084 l -0.416277,-0.5595 h -0.41275 v 0.5595 h -0.162278 z m -1.675695,0.7239 v -0.004 c 0,-0.39476 0.289278,-0.74472 0.719667,-0.74472 0.243417,0 0.395111,0.0699 0.536222,0.19121 l -0.102305,0.12312 c -0.112889,-0.096 -0.236361,-0.1644 -0.437445,-0.1644 -0.321028,0 -0.546805,0.26988 -0.546805,0.59055 v 0.004 c 0,0.3436 0.218722,0.59831 0.567972,0.59831 0.165805,0 0.3175,-0.0635 0.416278,-0.14394 v -0.35771 h -0.437445 v -0.14605 h 0.592667 v 0.57361 c -0.134056,0.1196 -0.335139,0.22014 -0.578556,0.22014 -0.451555,0 -0.73025,-0.32844 -0.73025,-0.74048 z m -1.245305,0.18944 -0.328083,-0.73448 -0.328084,0.73448 z m -0.402167,-0.92322 h 0.151695 l 0.656166,1.44956 h -0.172861 l -0.169333,-0.38029 h -0.783167 l -0.172861,0.38029 h -0.165805 z m -1.114778,0.01 h 0.162306 v 1.43972 h -0.162306 z m -1.125361,1.28975 c 0.366889,0 0.596195,-0.24659 0.596195,-0.56585 v -0.004 c 0,-0.31856 -0.229306,-0.56939 -0.596195,-0.56939 h -0.335139 v 1.13912 z m -0.497416,-1.28975 h 0.497416 c 0.451556,0 0.765528,0.31044 0.765528,0.71578 v 0.004 c 0,0.40463 -0.313972,0.71966 -0.765528,0.71966 h -0.497416 z m -1.379361,0 h 1.040694 v 0.14816 h -0.878417 v 0.49142 h 0.786695 v 0.14817 h -0.786695 v 0.50377 h 0.889 v 0.14816 h -1.051277 z m -1.785056,0 h 0.165806 l 0.522111,0.78563 0.525639,-0.78563 h 0.162277 v 1.43968 h -0.15875 v -1.16628 l -0.525638,0.77153 h -0.0071 l -0.525639,-0.76941 v 1.16416 h -0.15875 z m -2.434167,0 h 0.151695 l 0.906639,1.15358 v -1.15358 h 0.15875 v 1.43968 h -0.130528 l -0.927806,-1.18039 v 1.18039 h -0.15875 z m -0.585611,0 h 0.162264 v 1.43972 h -0.162264 z m -0.479777,0.84561 c -0.01764,-0.19333 -0.130528,-0.35772 -0.338667,-0.35772 -0.183444,0 -0.321028,0.15169 -0.345722,0.35772 z m -0.310445,0.48118 c 0.148167,0 0.250472,-0.06 0.335139,-0.15028 l 0.09878,0.0885 c -0.105833,0.11959 -0.236361,0.19932 -0.437445,0.19932 -0.292805,0 -0.529166,-0.22402 -0.529166,-0.55527 0,-0.30798 0.215194,-0.55528 0.508,-0.55528 0.3175,0 0.497416,0.25118 0.497416,0.56339 0,0.0145 0,0.031 -0.0035,0.0561 H 79.3851 c 0.02469,0.22366 0.186972,0.35348 0.373944,0.35348 z m -0.924278,-0.41557 v -0.004 c 0,-0.25083 -0.169333,-0.41134 -0.373944,-0.41134 -0.197556,0 -0.384528,0.16686 -0.384528,0.40922 v 0.004 c 0,0.24659 0.186972,0.41169 0.384528,0.41169 0.208139,0 0.373944,-0.15276 0.373944,-0.40958 z m -0.751416,0.32491 v 0.20355 h -0.15875 v -1.50142 h 0.15875 v 0.65229 c 0.08819,-0.12806 0.211666,-0.23672 0.409222,-0.23672 0.254,0 0.508,0.20109 0.508,0.55104 v 0.004 c 0,0.34748 -0.254,0.55315 -0.508,0.55315 -0.201083,0 -0.324556,-0.10654 -0.409222,-0.22613 z m 20.023666,-0.45226 c 0.239889,0 0.395111,-0.12771 0.395111,-0.31715 v -0.004 c 0,-0.20532 -0.151694,-0.31186 -0.384528,-0.31186 h -0.363361 v 0.63324 z m -0.518583,-0.78387 h 0.53975 c 0.324555,0 0.53975,0.17251 0.53975,0.45649 v 0.004 c 0,0.31044 -0.261056,0.47095 -0.564445,0.47095 h -0.34925 v 0.508 h -0.165805 z m -1.580445,0.83749 v -0.83749 h 0.162278 v 0.82691 c 0,0.31044 0.162278,0.48542 0.437444,0.48542 0.264584,0 0.433917,-0.16051 0.433917,-0.47484 v -0.83749 h 0.162278 v 0.82479 c 0,0.41945 -0.239889,0.63747 -0.599722,0.63747 -0.356306,0 -0.596195,-0.21802 -0.596195,-0.62477 z m -0.490361,-0.11359 v -0.004 c 0,-0.32703 -0.239889,-0.59479 -0.567972,-0.59479 -0.331611,0 -0.564444,0.26318 -0.564444,0.59055 v 0.004 c 0,0.32702 0.239888,0.59407 0.567972,0.59407 0.328083,0 0.564444,-0.26281 0.564444,-0.59019 z m -1.30175,0 v -0.004 c 0,-0.39723 0.299861,-0.74472 0.737306,-0.74472 0.437444,0 0.733777,0.34361 0.733777,0.74048 v 0.004 c 0,0.39687 -0.299861,0.74436 -0.737305,0.74436 -0.437444,0 -0.733778,-0.34325 -0.733778,-0.74048 z m -0.818444,0.0102 c 0.215194,0 0.370416,-0.11113 0.370416,-0.29598 v -0.004 c 0,-0.17674 -0.134055,-0.28328 -0.366888,-0.28328 h -0.4445 v 0.5835 z m -0.60325,-0.73413 h 0.617361 c 0.176389,0 0.321028,0.0536 0.409222,0.14393 0.07056,0.0699 0.112889,0.17075 0.112889,0.28399 v 0.004 c 0,0.23883 -0.165806,0.37853 -0.391583,0.42016 l 0.4445,0.58772 h -0.201084 l -0.416277,-0.5595 h -0.41275 v 0.5595 h -0.162278 z m -1.675695,0.7239 v -0.004 c 0,-0.39476 0.289278,-0.74472 0.719667,-0.74472 0.243417,0 0.395111,0.0699 0.536222,0.19121 l -0.102305,0.12312 c -0.112889,-0.096 -0.236361,-0.1644 -0.437445,-0.1644 -0.321028,0 -0.546805,0.26988 -0.546805,0.59055 v 0.004 c 0,0.3436 0.218722,0.59831 0.567972,0.59831 0.165805,0 0.3175,-0.0635 0.416278,-0.14394 v -0.35771 h -0.437445 v -0.14605 h 0.592667 v 0.57361 c -0.134056,0.1196 -0.335139,0.22014 -0.578556,0.22014 -0.451555,0 -0.73025,-0.32844 -0.73025,-0.74048 z m -1.245305,0.18944 -0.328083,-0.73448 -0.328084,0.73448 z m -0.402167,-0.92322 h 0.151695 l 0.656166,1.44956 h -0.172861 l -0.169333,-0.38029 h -0.783167 l -0.172861,0.38029 h -0.165805 z m -1.114778,0.01 h 0.162306 v 1.43972 h -0.162306 z m -1.125361,1.28975 c 0.366889,0 0.596195,-0.24659 0.596195,-0.56585 v -0.004 c 0,-0.31856 -0.229306,-0.56939 -0.596195,-0.56939 h -0.335139 v 1.13912 z m -0.497416,-1.28975 h 0.497416 c 0.451556,0 0.765528,0.31044 0.765528,0.71578 v 0.004 c 0,0.40463 -0.313972,0.71966 -0.765528,0.71966 h -0.497416 z m -1.379361,0 h 1.040694 v 0.14816 h -0.878417 v 0.49142 h 0.786695 v 0.14817 h -0.786695 v 0.50377 h 0.889 v 0.14816 h -1.051277 z m -1.785056,0 h 0.165806 l 0.522111,0.78563 0.525639,-0.78563 h 0.162277 v 1.43968 h -0.15875 v -1.16628 l -0.525638,0.77153 h -0.0071 l -0.525639,-0.76941 v 1.16416 h -0.15875 z m -2.434167,0 h 0.151695 l 0.906639,1.15358 v -1.15358 h 0.15875 v 1.43968 h -0.130528 l -0.927806,-1.18039 v 1.18039 h -0.15875 z m -0.585611,0 h 0.162264 v 1.43972 h -0.162264 z m -0.479777,0.84561 c -0.01764,-0.19333 -0.130528,-0.35772 -0.338667,-0.35772 -0.183444,0 -0.321028,0.15169 -0.345722,0.35772 z m -0.310445,0.48118 c 0.148167,0 0.250472,-0.06 0.335139,-0.15028 l 0.09878,0.0885 c -0.105833,0.11959 -0.236361,0.19932 -0.437445,0.19932 -0.292805,0 -0.529166,-0.22402 -0.529166,-0.55527 0,-0.30798 0.215194,-0.55528 0.508,-0.55528 0.3175,0 0.497416,0.25118 0.497416,0.56339 0,0.0145 0,0.031 -0.0035,0.0561 H 79.3851 c 0.02469,0.22366 0.186972,0.35348 0.373944,0.35348 z m -0.924278,-0.41557 v -0.004 c 0,-0.25083 -0.169333,-0.41134 -0.373944,-0.41134 -0.197556,0 -0.384528,0.16686 -0.384528,0.40922 v 0.004 c 0,0.24659 0.186972,0.41169 0.384528,0.41169 0.208139,0 0.373944,-0.15276 0.373944,-0.40958 z m -0.751416,0.32491 v 0.20355 h -0.15875 v -1.50142 h 0.15875 v 0.65229 c 0.08819,-0.12806 0.211666,-0.23672 0.409222,-0.23672 0.254,0 0.508,0.20109 0.508,0.55104 v 0.004 c 0,0.34748 -0.254,0.55315 -0.508,0.55315 -0.201083,0 -0.324556,-0.10654 -0.409222,-0.22613"/>
    </g>
  </g>
</svg>