<svg width="120" height="50" viewBox="0 0 141 24" fill="none" xmlns="http://www.w3.org/2000/svg">
				<path d="M20.3439 0.130615H22.6083V2.71481H20.3439V0.130615ZM20.2838 7.96395C20.3239 7.6813 20.1636 7.41885 19.883 7.37847C19.8229 7.35828 19.7628 7.35828 19.7027 7.37847H18.6406V5.25862H21.1054C22.2677 5.25862 22.7687 5.74316 22.7687 6.91412V15.555C22.7286 15.8377 22.8889 16.1001 23.1694 16.1405C23.2296 16.1405 23.2897 16.1405 23.3498 16.1405H24.4119V18.2603H21.9471C20.7848 18.2603 20.2838 17.7758 20.2838 16.625V7.96395Z" fill="white"></path>
				<path d="M35.2727 11.4768C35.2727 8.08508 33.5895 7.116 31.5655 7.116C29.2811 7.116 27.9785 8.75131 27.9785 11.3961C27.9785 14.0408 29.4013 15.9386 31.7659 15.9386C33.5895 15.9386 35.2727 14.8484 35.2727 11.4768ZM31.1848 4.95578C34.4511 4.95578 35.393 6.97468 35.393 6.97468H35.4531V6.59109C35.4531 5.82391 35.8739 5.2788 36.8959 5.2788H39.3407V7.41884H38.2986C37.958 7.41884 37.7175 7.60054 37.7175 7.92356V17.695C37.7375 21.9751 34.4311 23.6306 31.1046 23.6306C29.5416 23.6104 28.0186 23.247 26.6159 22.5606L27.4776 20.5619C28.5998 21.107 29.8221 21.4098 31.0646 21.43C33.349 21.43 35.2327 20.4206 35.2327 17.8162V16.948C35.2327 16.6654 35.2527 16.4029 35.2928 16.1203H35.2327C34.4511 17.372 33.2288 18.0988 31.305 18.0988C27.678 18.0988 25.4336 15.1916 25.4336 11.4566C25.4336 7.72167 27.5377 4.99616 31.2048 4.99616" fill="white"></path>
				<path d="M42.1872 0.130615H44.4516V2.71481H42.1872V0.130615ZM42.107 7.96395C42.1671 7.6813 41.9868 7.41885 41.7062 7.37847C41.6461 7.35828 41.586 7.35828 41.5259 7.37847H40.5039V5.25862H42.9687C44.131 5.25862 44.6319 5.74316 44.6319 6.91412V15.555C44.5919 15.8377 44.7522 16.1001 45.0327 16.1405C45.0928 16.1405 45.153 16.1405 45.2131 16.1405H46.2751V18.2603H43.7903C42.628 18.2402 42.107 17.7556 42.107 16.5847V7.96395Z" fill="white"></path>
				<path d="M48.3386 7.25735H46.6152V5.25864H48.3586V1.68518H50.8435V5.25864H53.9896V7.25735H50.8435V13.2131C50.8435 15.7973 52.667 16.1607 53.6289 16.1607C53.8293 16.1607 54.0297 16.1405 54.21 16.1001V18.3007C53.9094 18.3411 53.6289 18.3613 53.3283 18.3613C51.6651 18.3613 48.3185 17.8364 48.3185 13.5159L48.3386 7.25735Z" fill="white"></path>
				<path d="M60.6044 16.5847C62.7286 16.5847 64.1113 14.384 64.1113 12.4661V12.0219H63.47C61.5663 12.0219 58.1396 12.1229 58.1396 14.5052C58.1196 15.5752 58.9212 16.6048 60.6044 16.5847ZM63.5101 10.2049H64.0912V10.0838C64.0912 7.80243 63.2295 6.97468 61.1856 6.97468C60.5644 6.97468 59.0414 7.13619 59.0414 7.96394V8.71094H56.6568V7.39865C56.6568 5.25862 59.9431 4.95578 61.2056 4.95578C65.4739 4.95578 66.6161 7.15638 66.6161 10.0434V15.5348C66.5761 15.8175 66.7564 16.0799 67.037 16.1203C67.0971 16.1203 67.1572 16.1203 67.1973 16.1203H68.2593V18.2401H65.8947C64.7325 18.2401 64.2716 17.6547 64.2716 16.7462C64.2515 16.4837 64.2716 16.2212 64.2916 15.9588C63.5301 17.5739 61.8869 18.5834 60.1035 18.5228C57.8391 18.5228 55.6348 17.1701 55.6348 14.5658C55.6348 10.3866 61.3459 10.1242 63.5702 10.1242" fill="white"></path>
				<path d="M70.1569 2.83594C70.197 2.5533 70.0166 2.29084 69.7361 2.25046C69.6759 2.23027 69.6359 2.23027 69.5757 2.25046H68.5137V0.130615H71.0186C72.1808 0.130615 72.6818 0.615151 72.6818 1.76592V15.5348C72.6417 15.8175 72.802 16.0799 73.0826 16.1203C73.1427 16.1203 73.2028 16.1203 73.2629 16.1203H74.325V18.2402H71.8402C70.6779 18.2402 70.1769 17.7556 70.1769 16.6048L70.1569 2.83594Z" fill="white"></path>
				<path d="M97.1324 16.3828C99.6172 16.4029 101.641 14.384 101.661 11.9008C101.661 11.8402 101.661 11.7797 101.661 11.7393C101.661 9.23585 99.6372 7.19676 97.1524 7.19676C94.6676 7.19676 92.6436 9.21566 92.6436 11.7191C92.5635 14.2225 94.5072 16.302 96.972 16.3828H97.1324ZM97.1324 4.95578C101.06 4.95578 104.226 7.80243 104.226 11.7393C104.226 15.6761 101.06 18.5632 97.1324 18.5632C93.2047 18.5632 90.0586 15.6761 90.0586 11.7191C90.0586 7.76205 93.2047 4.95578 97.1324 4.95578Z" fill="white"></path>
				<path d="M105.868 7.96398V5.60187H108.393V13.0112C108.393 14.8081 108.753 16.2415 110.837 16.2415C113.543 16.2415 115.126 13.8995 115.126 11.3355V5.62206H117.651V15.555C117.611 15.8377 117.771 16.1001 118.051 16.1405C118.112 16.1405 118.172 16.1405 118.232 16.1405H119.294V18.2604H116.889C115.767 18.2604 115.226 17.7556 115.226 16.827V15.5954H115.166C114.264 17.4528 112.38 18.6036 110.316 18.543C107.351 18.543 105.848 17.0087 105.848 13.5563L105.868 7.96398Z" fill="white"></path>
				<path d="M121.342 7.25735H119.639V5.25864H121.382V1.68518H123.847V5.25864H126.993V7.25735H123.847V13.2131C123.847 15.7973 125.67 16.1607 126.632 16.1607C126.833 16.1607 127.033 16.1405 127.213 16.1001V18.3007C126.913 18.3411 126.632 18.3613 126.332 18.3613C124.668 18.3613 121.322 17.8364 121.322 13.5159L121.342 7.25735Z" fill="white"></path>
				<path d="M137.67 10.2453C137.569 8.08508 136.207 6.9343 134.564 6.9343C132.62 6.87374 130.936 8.30715 130.696 10.2453H137.67ZM134.584 4.95578C138.271 4.95578 140.235 7.6813 140.235 11.0327C140.235 11.3759 140.154 12.0623 140.154 12.0623H130.556C130.596 14.485 132.58 16.4433 134.984 16.4029H135.085C136.507 16.3626 137.87 15.8377 138.932 14.8888L140.034 16.6452C138.631 17.8767 136.828 18.543 134.964 18.543C130.796 18.543 127.971 15.5954 127.971 11.7393C127.991 7.64092 130.836 4.95578 134.584 4.95578Z" fill="white"></path>
				<path d="M82.4249 8.83208H79.0383V2.37159H82.465C84.3888 2.37159 85.551 3.54256 85.551 5.58165C85.551 7.62074 84.3888 8.85227 82.4049 8.85227L82.4249 8.83208ZM89.5789 18.2402V16.0396H89.2382C88.617 16.0396 88.1962 15.979 87.9357 15.4541L85.7314 11.1134C85.551 10.7702 85.2905 10.4876 84.9498 10.2857V10.2251C86.2524 9.94247 88.2563 8.46867 88.2563 5.42013C88.2563 2.10914 85.9919 0.130615 82.7656 0.130615H74.75V2.31103H75.8521C76.1327 2.27065 76.3932 2.47254 76.4333 2.75519C76.4333 2.79556 76.4333 2.85613 76.4333 2.89651V18.22H79.0383V11.0327H81.423C82.445 11.0327 82.7856 11.1538 83.2465 12.0017L85.7514 16.8875C86.3325 18.0585 86.8736 18.2402 88.2964 18.2402H89.5789Z" fill="white"></path>
				<path d="M14.6923 9.1551C14.6923 13.6169 12.0271 16.0396 7.93916 16.0396H5.55452C5.27397 16.0799 5.01346 15.878 4.97339 15.5954C4.97339 15.5348 4.97339 15.4945 4.97339 15.4339V2.33122H7.93916C12.0271 2.33122 14.6923 4.71352 14.6923 9.1551ZM17.3976 9.1551C17.4176 3.44161 13.7304 0.130615 8.13955 0.130615H0.705078V2.33122H1.80722C2.08777 2.29084 2.34828 2.49273 2.38835 2.77538C2.38835 2.81575 2.38835 2.87632 2.38835 2.9167V16.5847C2.38835 17.7556 2.86929 18.22 4.05159 18.22H8.11951C13.7104 18.22 17.3976 14.8888 17.3976 9.13491" fill="white"></path>
			</svg>