<?xml version="1.0" encoding="UTF-8"?>
<svg width="635px" height="146px" viewBox="0 0 635 146" version="1.1" xmlns="http://www.w3.org/2000/svg" xmlns:xlink="http://www.w3.org/1999/xlink">
    <!-- Generator: Sketch 49 (51002) - http://www.bohemiancoding.com/sketch -->
    <title>fluxorm_outline_b</title>
    <desc>Created with Sketch.</desc>
    <defs></defs>
    <g id="Page-1" stroke="none" stroke-width="1" fill="none" fill-rule="evenodd">
        <g id="fluxorm_outline_b" transform="translate(-95.000000, -81.000000)">
            <path d="M439.395,223.709 L397.943,175.491 L404.395,168.06 L452.583,223.729 L439.395,223.709 Z M317.978,223.729 L378.671,153.078 L319.529,84.076 L332.374,84.076 L391.562,153.078 L330.895,223.729 L317.978,223.729 Z M355.443,81.024 L312.661,81.024 L374.64,153.078 L311.406,226.744 L353.937,226.744 L395.91,177.898 L437.89,226.744 L480.666,226.744 L355.443,81.024 Z" id="Fill-3" fill="#3D90C2"></path>
            <path d="M437.969,84.076 L450.911,84.044 L413.01,128.172 L406.51,120.672 L437.969,84.076 Z M423.791,145.437 L479.207,81.024 L436.52,81.024 L402.51,120.682 L423.791,145.437 Z" id="Fill-4" fill="#3D90C2"></path>
            <path d="M192.596,131.517 L192.596,165.148 L226.227,165.148 L226.227,175.849 L188.01,175.849 C181.896,175.849 178.839,172.791 178.839,166.677 L178.839,131.517 L192.596,131.517" id="Fill-5" fill="#FFFFFE"></path>
            <g id="Group-10" transform="translate(479.000000, 131.000000)" stroke="#FFFFFE" stroke-width="2">
                <path d="M14.66,15.805 L14.66,29.562 C14.66,32.599 16.698,34.128 20.775,34.148 L39.118,34.148 C43.196,34.148 45.234,32.619 45.234,29.562 L45.234,15.805 C45.234,12.747 43.196,11.219 39.118,11.219 L20.775,11.219 C16.698,11.219 14.66,12.747 14.66,15.805 Z" id="Stroke-6"></path>
                <path d="M14.66,0.517 L45.234,0.517 C54.406,0.517 58.991,4.595 58.991,12.747 L58.991,32.619 C58.991,40.772 54.406,44.849 45.234,44.849 L14.66,44.849 C5.489,44.849 0.903,40.772 0.903,32.619 L0.903,12.747 C0.903,4.595 5.489,0.517 14.66,0.517 Z" id="Stroke-7"></path>
                <path d="M213.988,26.505 L227.745,5.103 C229.783,2.047 232.84,0.517 236.917,0.517 L249.147,0.517 L249.147,44.849 L235.389,44.849 L235.389,15.805 L217.044,44.849 L210.93,44.849 L192.586,15.805 L192.586,44.849 L178.828,44.849 L178.828,0.517 L191.058,0.517 C195.134,0.517 198.191,2.047 200.23,5.103 L213.988,26.505 Z" id="Stroke-8"></path>
                <path d="M146.426,21.919 L146.426,12.747 C146.426,4.595 141.84,0.517 132.668,0.517 L91.395,0.517 L91.395,44.849 L105.153,44.849 L105.153,11.219 L126.554,11.219 C130.63,11.219 132.668,12.747 132.668,15.805 L132.668,17.333 C132.668,20.391 130.63,21.919 126.554,21.919 L112.089,21.919 L121.231,32.619 L126.554,32.619 C130.63,32.619 132.668,34.148 132.668,37.205 L132.668,44.849 L146.426,44.849 L146.426,34.148 C146.426,31.07 145.397,29.032 143.338,28.033 C145.397,27.015 146.426,24.976 146.426,21.919 Z" id="Stroke-9"></path>
            </g>
            <polyline id="Fill-11" fill="#FFFFFE" points="113.552 153 122.666 163.7 137.842 163.7 137.842 153 113.552 153"></polyline>
            <path d="M104.976,131.517 C98.861,131.517 95.804,134.575 95.804,140.689 L95.804,175.849 L109.562,175.849 L109.562,142.219 L143.192,142.219 L143.192,131.517 L104.976,131.517" id="Fill-12" fill="#FFFFFE"></path>
            <path d="M298.619,131.851 L312.377,131.851 L312.377,163.953 C312.377,172.106 307.791,176.182 298.619,176.182 L272.632,176.182 C263.46,176.182 258.874,172.106 258.874,163.953 L258.874,131.851 L272.632,131.851 L272.632,160.896 C272.632,163.933 274.67,165.462 278.746,165.482 L292.504,165.482 C296.58,165.482 298.619,163.953 298.619,160.896 L298.619,131.851" id="Fill-13" fill="#FFFFFE"></path>
        </g>
    </g>
</svg>