<svg width="90" height="17" viewBox="0 0 90 17" fill="none" xmlns="http://www.w3.org/2000/svg">
<path d="M3.62029 5.72692H9.12874C9.25748 5.72692 9.36281 5.62166 9.36281 5.49301V0.732948C9.36281 0.475648 9.57347 0.265129 9.83095 0.265129H12.2809C12.5384 0.265129 12.749 0.475648 12.749 0.732948V13.9878C12.749 14.2451 12.5384 14.4557 12.2809 14.4557H9.83095C9.57347 14.4557 9.36281 14.2451 9.36281 13.9878V9.09132C9.36281 8.96267 9.25748 8.85741 9.12874 8.85741H3.62029C3.49155 8.85741 3.38622 8.96267 3.38622 9.09132V13.9839C3.38622 14.2412 3.17555 14.4518 2.91808 14.4518H0.468141C0.210663 14.4518 0 14.2412 0 13.9839V0.72905C0 0.471749 0.210663 0.26123 0.468141 0.26123H2.91808C3.17555 0.26123 3.38622 0.471749 3.38622 0.72905V5.48911C3.38622 5.62166 3.49155 5.72692 3.62029 5.72692Z" fill="#FF2773"/>
<path d="M73.3693 3.65679L71.1925 4.90431C70.9896 5.02126 70.7321 4.97448 70.5917 4.78735C69.8505 3.78934 68.7698 3.24355 67.4395 3.24355C65.1964 3.24355 63.5345 4.9277 63.5345 7.36036C63.5345 9.99574 65.3485 11.4772 67.4513 11.4772C68.7464 11.4772 69.831 10.9431 70.6268 9.95676C70.779 9.76573 71.0559 9.73454 71.2549 9.87489L73.2757 11.3056C73.4981 11.4616 73.5371 11.7696 73.3693 11.984C72.0507 13.6837 70.0065 14.7207 67.4825 14.7207C63.1014 14.7207 60.0078 11.6604 60.0078 7.36036C60.0039 3.06032 63.0975 0 67.4825 0C70.0026 0 72.2497 1.09548 73.5254 2.98235C73.6775 3.20846 73.6073 3.52034 73.3693 3.65679Z" fill="#FF2773"/>
<path d="M57.8231 3.40732H54.3277C54.199 3.40732 54.0936 3.51258 54.0936 3.64123V13.9878C54.0936 14.2451 53.883 14.4557 53.6255 14.4557H51.1755C50.9181 14.4557 50.7074 14.2451 50.7074 13.9878V3.64123C50.7074 3.51258 50.6021 3.40732 50.4733 3.40732H46.9662C46.7087 3.40732 46.498 3.19681 46.498 2.9395V0.732956C46.498 0.475655 46.7087 0.265137 46.9662 0.265137H57.827C58.0845 0.265137 58.2952 0.475655 58.2952 0.732956V2.9395C58.2913 3.19681 58.0806 3.40732 57.8231 3.40732Z" fill="#FF2773"/>
<path d="M27.6632 14.4557H17.723C17.4655 14.4557 17.2549 14.2451 17.2549 13.9878V0.732956C17.2549 0.475655 17.4655 0.265137 17.723 0.265137H27.6203C27.8778 0.265137 28.0884 0.475655 28.0884 0.732956V2.84594C28.0884 3.10324 27.8778 3.31376 27.6203 3.31376H20.8791C20.7503 3.31376 20.645 3.41902 20.645 3.54767V5.532C20.645 5.66065 20.7503 5.76591 20.8791 5.76591H27.1873C27.4447 5.76591 27.6554 5.97643 27.6554 6.23373V8.33892C27.6554 8.59622 27.4447 8.80674 27.1873 8.80674H20.8791C20.7503 8.80674 20.645 8.912 20.645 9.04065V11.1692C20.645 11.2979 20.7503 11.4031 20.8791 11.4031H27.6632C27.9207 11.4031 28.1313 11.6137 28.1313 11.871V13.9878C28.1313 14.2451 27.9207 14.4557 27.6632 14.4557Z" fill="#FF2773"/>
<path d="M42.948 14.4557H33.0117C32.7542 14.4557 32.5436 14.2451 32.5436 13.9878V0.732956C32.5436 0.475655 32.7542 0.265137 33.0117 0.265137H42.909C43.1665 0.265137 43.3771 0.475655 43.3771 0.732956V2.84594C43.3771 3.10324 43.1665 3.31376 42.909 3.31376H36.1639C36.0351 3.31376 35.9298 3.41902 35.9298 3.54767V5.532C35.9298 5.66065 36.0351 5.76591 36.1639 5.76591H42.4721C42.7295 5.76591 42.9402 5.97643 42.9402 6.23373V8.33892C42.9402 8.59622 42.7295 8.80674 42.4721 8.80674H36.1639C36.0351 8.80674 35.9298 8.912 35.9298 9.04065V11.1692C35.9298 11.2979 36.0351 11.4031 36.1639 11.4031H42.948C43.2055 11.4031 43.4161 11.6137 43.4161 11.871V13.9878C43.4161 14.2451 43.2055 14.4557 42.948 14.4557Z" fill="#FF2773"/>
<path d="M80.4189 5.71911H85.9234C86.0522 5.71911 86.1575 5.61385 86.1575 5.4852V0.721237C86.1575 0.463937 86.3682 0.253418 86.6256 0.253418H89.0756C89.333 0.253418 89.5437 0.463937 89.5437 0.721237V8.38178C89.5437 8.63908 89.333 8.8496 89.0756 8.8496H86.1575H80.4189C80.2901 8.8496 80.1848 8.95486 80.1848 9.08351V13.9761C80.1848 14.2334 79.9741 14.4439 79.7167 14.4439H77.2667C77.0092 14.4439 76.7986 14.2334 76.7986 13.9761V0.721237C76.7986 0.463937 77.0092 0.253418 77.2667 0.253418H79.7167C79.9741 0.253418 80.1848 0.463937 80.1848 0.721237V5.4813C80.1848 5.61385 80.2901 5.71911 80.4189 5.71911Z" fill="#FF2773"/>
<path d="M90 14.4244C90 15.6018 88.9974 16.6154 87.8387 16.6154C86.6723 16.6154 85.658 15.6018 85.658 14.4244C85.658 13.2705 86.6723 12.2764 87.8387 12.2764C88.9974 12.2764 90 13.2705 90 14.4244Z" fill="#FF2773"/>
</svg>
