<svg viewBox="0 0 1069 224" fill="none" xmlns="http://www.w3.org/2000/svg" style="width:158px" data-testid="colour-logomark-black-type"><path d="M930.65 137.881H913.42V155.111H930.65V137.881Z" fill="#1A1A1A"></path><path d="M999.12 68.9894V68.9395H965.13V86.1695H982.36V120.639H947.89V103.409H965.13V86.1695H947.89V103.409H930.66V137.879H938.29H947.89H982.36V155.109H999.6V68.9894H999.12Z" fill="#1A1A1A"></path><path d="M1068.53 86.1695V68.9395H1016.83V86.1695H1034.06V137.879H1016.83V155.109H1068.53V137.879H1051.3V86.1695H1068.53Z" fill="#1A1A1A"></path><path d="M499.8 103.409V86.1695H551.5V68.9395H499.8H482.57V120.639H499.8H551.5V137.879H568.74V103.409H551.5H499.8Z" fill="#1A1A1A"></path><path d="M551.08 137.881H482.57V155.111H551.08V137.881Z" fill="#1A1A1A"></path><path d="M310.22 86.1695H327.46V137.879H310.22V155.109H361.93V137.879H344.69V86.1695H361.93V68.9395H310.22V86.1695Z" fill="#1A1A1A"></path><path d="M568.74 86.1695H603.21V155.109H620.44V86.1695H655.31V68.9395H568.74V86.1695Z" fill="#1A1A1A"></path><path d="M672.35 86.1695H689.48V137.879H672.35V155.109H723.85V137.879H706.71V86.1695H723.85V68.9395H672.35V86.1695Z" fill="#1A1A1A"></path><path d="M758.32 68.9395H741.08V137.879V154.689V155.109H792.78V137.879H758.32V68.9395Z" fill="#1A1A1A"></path><path d="M827.25 68.9395H810.02V137.879V154.689V155.109H861.72V137.879H827.25V68.9395Z" fill="#1A1A1A"></path><path d="M396.4 86.1695V68.9395H379.16V86.1695V103.409V155.109H396.4V103.409H413.63V86.1695H396.4Z" fill="#1A1A1A"></path><path d="M430.86 103.41H413.63V120.64H430.86V103.41Z" fill="#1A1A1A"></path><path d="M448.1 120.639H430.86V137.879H448.1V155.109H465.33V137.879V120.639V68.9395H448.1V120.639Z" fill="#1A1A1A"></path><g clip-path="url(#clip0_387_1359)"><path d="M224.008 206.847V224.087H0V0H224.008V206.847ZM206.775 206.847V154.948H189.535V206.847H206.775ZM206.775 137.709V86.1884H154.873V137.709H206.775ZM206.775 68.9491V51.7099H154.873V68.9491H206.775ZM206.775 34.4785V17.2393H154.873V34.4785H206.775ZM172.31 206.847V154.948H154.873V206.847H172.31ZM137.64 189.608V154.925H120.612V172.266H103.585V189.608H137.64ZM137.64 137.709V86.1884H120.612V137.709H137.64ZM137.64 51.5995V17.2393H103.388V34.2972L103.285 34.5967H86.155V68.9491H120.612V51.6074L137.64 51.5995ZM103.388 171.99V154.948H86.155V171.99H103.388ZM103.388 137.709V86.1884H86.155V137.709H103.388ZM68.9224 206.847V154.948H17.2326V206.847H68.9224ZM68.9224 137.709V86.1884H51.6899V137.709H68.9224ZM68.9224 68.9491V34.5967H68.7806V17.255H51.6899V68.9649L68.9224 68.9491ZM34.4652 137.709V86.1884H17.2326V137.709H34.4652ZM34.4652 68.9491V17.2393H17.2326V68.9491H34.4652Z" fill="#1A1A1A"></path><path d="M206.767 154.949H189.535V206.848H206.767V154.949Z" fill="#40A8F5"></path><path d="M206.767 86.1875H154.873V137.708H206.767V86.1875Z" fill="#40A8F5"></path><path d="M206.767 51.709H154.873V68.9482H206.767V51.709Z" fill="#FF5353"></path><path d="M206.767 17.2383H154.873V34.4775H206.767V17.2383Z" fill="#FFDF3A"></path><path d="M172.302 154.949H154.873V206.848H172.302V154.949Z" fill="#FFDF3A"></path><path d="M137.648 154.949V189.609H103.585V172.275H120.612V154.949H137.648Z" fill="#FF5353"></path><path d="M137.64 86.1875H120.612V137.708H137.64V86.1875Z" fill="#FFDF3A"></path><path d="M137.648 17.2383V51.5985H120.612H120.51V34.2962H103.38V17.2383H137.648Z" fill="#40A8F5"></path><path d="M120.612 51.6004V68.95H86.1551V34.5977H103.277V51.6004H120.51H120.612Z" fill="#FFDF3A"></path><path d="M120.51 34.2969V51.5992H103.277V34.5964L103.38 34.2969H120.51Z" fill="#1A1A1A"></path><path d="M103.388 154.949H86.1551V171.991H103.388V154.949Z" fill="#28F77E"></path><path d="M103.388 86.1875H86.1551V137.708H103.388V86.1875Z" fill="#FF5353"></path><path d="M68.9225 154.949V206.848H17.2326V154.949H34.4573H51.6899H68.9225Z" fill="#40A8F5"></path><path d="M68.9225 86.1875H51.6899V137.708H68.9225V86.1875Z" fill="#40A8F5"></path><path d="M68.9225 34.5958V68.9481H51.6899V17.2383H68.8043V34.5958H68.9225Z" fill="#FFDF3A"></path><path d="M34.4652 86.1875H17.2326V137.708H34.4652V86.1875Z" fill="#FFDF3A"></path><path d="M34.4652 17.2383H17.2326V68.9481H34.4652V17.2383Z" fill="#FF5353"></path></g><defs><clipPath id="clip0_387_1359"><rect width="224" height="224" fill="white"></rect></clipPath></defs></svg>