<svg width="96" height="24" viewBox="0 0 96 24" fill="none" xmlns="http://www.w3.org/2000/svg">
<path fill-rule="evenodd" clip-rule="evenodd" d="M0 14.5334C0 19.2468 2.63427 24 8.53324 24C14.4269 24 17.0664 19.2468 17.0664 14.5334C17.0664 11.3139 15.984 7.6064 14.1773 4.61182C12.4203 1.72004 10.3093 0 8.53324 0C6.75213 0 4.64015 1.72004 2.89843 4.61182C1.08321 7.6064 0 11.3139 0 14.5334Z" fill="#E30611"/>
<path fill-rule="evenodd" clip-rule="evenodd" d="M60.5845 7.07169H54.6113V1.28613H72.9577V7.07169H66.9845V22.7146H60.5845V7.07169Z" fill="#E30611"/>
<path fill-rule="evenodd" clip-rule="evenodd" d="M86.6104 7.07194H95.9975V1.28613H86.6112C77.9863 1.28613 73.3818 5.5933 73.3818 12.0005C73.3818 18.4077 77.9863 22.7148 86.6112 22.7148H95.9975V16.929H86.6104C82.6197 16.929 79.995 15.496 79.995 12.0005C79.995 8.50498 82.6197 7.07194 86.6104 7.07194Z" fill="#E30611"/>
<path fill-rule="evenodd" clip-rule="evenodd" d="M38.1841 14.0766L41.596 1.28613H52.9054V22.7148H46.5052V5.27379L41.853 22.7148H34.515L29.8658 5.28488L29.8655 22.7148H23.4658V1.28613H34.772L38.1841 14.0766Z" fill="#E30611"/>
</svg>