<svg width="144" height="32" viewBox="0 0 144 32" fill="none" xmlns="http://www.w3.org/2000/svg">
<g clip-path="url(#clip0_711_11875)">
<path d="M37.4603 5.2196V26.7789C37.4603 29.5129 35.243 31.7289 32.5075 31.7289H4.95284C2.21731 31.7289 0 29.5129 0 26.7789V5.2196C0 2.4856 2.21731 0.269531 4.95284 0.269531H32.5075C35.243 0.269531 37.4603 2.4856 37.4603 5.2196Z" fill="#F88532"/>
<path d="M31.8999 20.0937L31.7292 16.8859C31.5895 14.1567 28.7346 13.3094 27.7316 13.3106C27.7005 13.2951 27.716 13.2641 27.716 13.2641L27.7005 13.2175L27.6695 13.1245C27.0366 11.8452 26.079 10.8272 24.8599 10.1029C24.8289 10.0873 24.8134 10.0408 24.7668 10.0563C24.288 9.77946 23.8259 9.54794 23.285 9.394C22.5292 9.13265 21.8498 9.02406 21.3256 8.99422L21.3101 8.1004H20.6151L17.1131 8.08727L5.57156 7.95361L5.56201 20.7071L7.59903 20.799C7.73873 22.6033 9.23604 24.0055 11.0414 24.0198C12.8468 24.0342 14.3584 22.6308 14.5113 20.8562L21.6086 20.8682C21.7566 22.6558 23.2372 24.0437 25.0677 24.0437C26.996 24.0437 28.5387 22.4995 28.5375 20.5722C28.5375 20.4183 28.522 20.2942 28.522 20.1402L31.9011 20.0925L31.8999 20.0937ZM12.6438 20.966C12.2092 21.8348 11.1525 22.188 10.2832 21.7536C9.41395 21.3193 9.06052 20.2631 9.49515 19.3944C9.92977 18.5256 10.9865 18.1724 11.8557 18.6068C12.725 19.0411 13.0784 20.0973 12.6438 20.966ZM22.6223 11.6471C24.7059 11.6471 25.4474 14.0207 25.4474 14.0207L22.608 13.9908L22.6223 11.6471ZM26.608 21.114C26.1734 21.9828 25.1166 22.336 24.2474 21.9016C23.3781 21.4672 23.0247 20.4111 23.4593 19.5423C23.894 18.6736 24.9507 18.3203 25.8199 18.7547C26.6892 19.1891 27.0426 20.2452 26.608 21.114Z" fill="white"/>
<path d="M39.938 1.71207C40.1398 1.71207 40.1398 1.39941 39.938 1.39941C39.7362 1.39941 39.7362 1.71207 39.938 1.71207Z" fill="url(#paint0_linear_711_11875)"/>
<path d="M49.4589 14.4243H49.3682L48.0177 0.29248H42.2983V31.7507H46.0357V14.2882H46.1252L47.8363 31.7507H51.0339L52.8345 14.2882H52.9252V31.7507H56.6171V0.29248H50.8977L49.4565 14.4243H49.4589ZM63.0136 10.374H62.8786L61.7527 0.29248H57.25L60.7174 20.4997V31.7519H65.1759L65.2213 20.4997L68.6422 0.29248H64.1395L63.0136 10.374Z" fill="#F88532"/>
<path d="M74.2972 32C73.6966 32 73.1187 31.9105 72.5635 31.7303C72.0071 31.5501 71.5128 31.2661 71.0781 30.8747C70.6423 30.4844 70.2901 29.982 70.0202 29.3663C69.7504 28.7517 69.6143 28.0237 69.6143 27.1836V4.81522C69.6143 3.97509 69.7492 3.24833 70.0202 2.63256C70.2901 2.01798 70.6435 1.51557 71.0781 1.12534C71.5128 0.735111 72.0083 0.449897 72.5635 0.2697C73.1187 0.0895021 73.6966 0 74.2972 0H75.1975C75.7671 0 76.3378 0.0895021 76.9086 0.2697C77.4781 0.449897 77.982 0.735111 78.4178 1.12534C78.8525 1.51557 79.2059 2.01798 79.4757 2.63256C79.7456 3.24833 79.8805 3.97628 79.8805 4.81522V12.9169H75.422V5.44531C75.422 4.81522 75.3766 4.37248 75.2871 4.1171C75.1975 3.86291 75.0316 3.73403 74.7916 3.73403H74.702C74.4608 3.73403 74.2972 3.86172 74.2065 4.1171C74.1169 4.37248 74.0716 4.82954 74.0716 5.48946V26.5082C74.0716 27.1382 74.1169 27.5881 74.2065 27.8578C74.2972 28.1275 74.4608 28.2624 74.702 28.2624H74.7916C75.0316 28.2624 75.1975 28.1275 75.2871 27.8578C75.3778 27.5881 75.422 27.1371 75.422 26.5082V18.9924H79.8805V27.1836C79.8805 28.0237 79.7456 28.7517 79.4757 29.3663C79.2059 29.982 78.8525 30.4844 78.4178 30.8747C77.982 31.2649 77.4793 31.5501 76.9086 31.7303C76.3378 31.9105 75.7671 32 75.1975 32H74.2972Z" fill="white"/>
<path d="M86.8167 23.8086H84.9253L84.3403 31.7301H80.5122L83.1689 0.269531H88.8883L91.7253 31.7289H87.4471L86.8167 23.8074V23.8086ZM85.1952 20.4779H86.5456L85.9606 12.4669H85.8256L85.1952 20.4779Z" fill="white"/>
<path d="M102.622 12.9621C102.622 13.9228 102.473 14.6352 102.175 15.0994C101.878 15.5649 101.507 15.8727 101.06 16.0219C101.507 16.1424 101.878 16.4348 102.175 16.899C102.473 17.3644 102.622 18.0769 102.622 19.0363V25.5616C102.622 26.7323 102.651 27.7073 102.712 28.4866C102.771 29.267 102.839 29.89 102.914 30.3542C102.989 30.8196 103.057 31.1573 103.117 31.3673C103.177 31.5774 103.223 31.6979 103.252 31.7277H98.7879C98.5503 31.3673 98.3855 30.7003 98.2972 29.7253C98.2076 28.7503 98.1635 27.3624 98.1635 25.5616V19.4409C98.1635 18.8406 98.1252 18.3991 98.0512 18.1127C97.976 17.8275 97.8184 17.6855 97.5784 17.6855H96.813V31.7277H92.3545V0.269531H97.9832C99.3205 0.269531 100.429 0.689595 101.305 1.52972C102.181 2.36985 102.621 3.54054 102.621 5.04059V12.9621H102.622ZM97.5784 14.3572C97.8184 14.3572 97.976 14.2223 98.0512 13.9514C98.1252 13.6817 98.1635 13.2617 98.1635 12.6912V5.71604C98.1635 4.57638 97.9533 4.00595 97.533 4.00595H96.8118V14.3572H97.5772H97.5784Z" fill="white"/>
<path d="M114.284 12.9621C114.284 13.9228 114.135 14.6352 113.837 15.0994C113.54 15.5649 113.169 15.8727 112.722 16.0219C113.169 16.1424 113.54 16.4348 113.837 16.899C114.135 17.3644 114.284 18.0769 114.284 19.0363V25.5616C114.284 26.7323 114.314 27.7073 114.374 28.4866C114.433 29.267 114.501 29.89 114.577 30.3542C114.651 30.8196 114.719 31.1573 114.78 31.3673C114.839 31.5774 114.885 31.6979 114.915 31.7277H110.45C110.212 31.3673 110.049 30.7003 109.959 29.7253C109.87 28.7503 109.826 27.3624 109.826 25.5616V19.4409C109.826 18.8406 109.787 18.3991 109.713 18.1127C109.638 17.8275 109.48 17.6855 109.24 17.6855H108.475V31.7277H104.017V0.269531H109.645C110.983 0.269531 112.091 0.689595 112.967 1.52972C113.843 2.36985 114.283 3.54054 114.283 5.04059V12.9621H114.284ZM109.24 14.3572C109.48 14.3572 109.638 14.2223 109.713 13.9514C109.787 13.6817 109.826 13.2617 109.826 12.6912V5.71604C109.826 4.57638 109.615 4.00595 109.195 4.00595H108.474V14.3572H109.239H109.24Z" fill="white"/>
<path d="M120.138 0.269531V31.7289H115.68V0.269531H120.138Z" fill="white"/>
<path d="M125.676 4.00475V14.3572H128.648V17.6878H125.676V27.9937H129.774V31.7289H121.218V0.269531H129.414V4.00475H125.676Z" fill="white"/>
<path d="M140.851 12.9621C140.851 13.9228 140.702 14.6352 140.405 15.0994C140.108 15.5649 139.736 15.8727 139.29 16.0219C139.736 16.1424 140.108 16.4348 140.405 16.899C140.702 17.3644 140.851 18.0769 140.851 19.0363V25.5616C140.851 26.7323 140.881 27.7073 140.941 28.4866C141.001 29.267 141.069 29.89 141.144 30.3542C141.218 30.8196 141.286 31.1573 141.347 31.3673C141.407 31.5774 141.452 31.6979 141.482 31.7277H137.017C136.78 31.3673 136.616 30.7003 136.527 29.7253C136.437 28.7503 136.393 27.3624 136.393 25.5616V19.4409C136.393 18.8406 136.355 18.3991 136.281 18.1127C136.205 17.8275 136.048 17.6855 135.808 17.6855H135.042V31.7277H130.584V0.269531H136.213C137.55 0.269531 138.658 0.689595 139.534 1.52972C140.411 2.36985 140.85 3.54054 140.85 5.04059V12.9621H140.851ZM135.808 14.3572C136.048 14.3572 136.205 14.2223 136.281 13.9514C136.355 13.6817 136.393 13.2617 136.393 12.6912V5.71604C136.393 4.57638 136.183 4.00595 135.762 4.00595H135.041V14.3572H135.807H135.808Z" fill="white"/>
<path d="M142.597 30.3184C142.987 30.3184 143.283 30.6143 143.283 31.0236C143.283 31.433 142.987 31.7289 142.597 31.7289C142.206 31.7289 141.91 31.433 141.91 31.0236C141.91 30.6143 142.206 30.3184 142.597 30.3184ZM142.597 31.5917C142.908 31.5917 143.141 31.353 143.141 31.0236C143.141 30.6943 142.908 30.4556 142.597 30.4556C142.285 30.4556 142.052 30.6943 142.052 31.0236C142.052 31.353 142.285 31.5917 142.597 31.5917ZM142.696 31.4461C142.686 31.421 142.681 31.4067 142.681 31.3279V31.2372C142.681 31.1466 142.65 31.1155 142.581 31.1155H142.53V31.4461H142.379V30.6024H142.609C142.763 30.6024 142.832 30.6752 142.832 30.8232V30.8411C142.832 30.9413 142.801 31.0045 142.729 31.0368C142.806 31.0678 142.832 31.1394 142.832 31.2396V31.3303C142.832 31.3757 142.834 31.4115 142.85 31.4461H142.696ZM142.53 30.7408V30.9771H142.591C142.646 30.9771 142.681 30.9532 142.681 30.8769V30.8411C142.681 30.7718 142.658 30.7408 142.6 30.7408H142.53Z" fill="white"/>
</g>
<defs>
<linearGradient id="paint0_linear_711_11875" x1="40.0168" y1="1.69298" x2="39.8593" y2="1.41963" gradientUnits="userSpaceOnUse">
<stop offset="0.23" stop-color="white" stop-opacity="0"/>
<stop offset="0.44" stop-color="#FEFDFC" stop-opacity="0.02"/>
<stop offset="0.63" stop-color="#FCF9F4" stop-opacity="0.06"/>
<stop offset="0.81" stop-color="#F8F2E6" stop-opacity="0.14"/>
<stop offset="0.99" stop-color="#F4E9D3" stop-opacity="0.25"/>
<stop offset="1" stop-color="#F4E9D3" stop-opacity="0.25"/>
</linearGradient>
<clipPath id="clip0_711_11875">
<rect width="143.284" height="32" fill="white"/>
</clipPath>
</defs>
</svg>

