<?xml version="1.0" encoding="utf-8"?>
<!-- Generator: Adobe Illustrator 21.0.0, SVG Export Plug-In . SVG Version: 6.00 Build 0)  -->
<svg version="1.1" id="Layer_1" xmlns="http://www.w3.org/2000/svg" xmlns:xlink="http://www.w3.org/1999/xlink" x="0px" y="0px"
	 viewBox="0 0 424.3 153" style="enable-background:new 0 0 424.3 153;" xml:space="preserve">
<style type="text/css">
	.st0{clip-path:url(#SVGID_2_);}
	.st1{clip-path:url(#SVGID_2_);fill:#0094C9;}
</style>
<g>
	<defs>
		<rect id="SVGID_1_" width="424.3" height="153"/>
	</defs>
	<clipPath id="SVGID_2_">
		<use xlink:href="#SVGID_1_"  style="overflow:visible;"/>
	</clipPath>
	<path class="st0" d="M129.3,60.9L129.3,60.9v36.3c0,21.5,0,34.5-4.6,39.1c-4.6,4.6-16.8,4.6-39,4.6H54.9c-22.2,0-34.5,0-39-4.6
		c-4.6-4.6-4.6-17.6-4.6-39.1V66.7c0-21.5,0-34.5,4.6-39.1c4.6-4.6,16.8-4.6,39-4.6h36.3h0V12.4H54.9c-51.6,0-54.2,2.5-54.2,54.3
		v30.6c0,51.7,2.5,54.3,54.2,54.3h30.7c51.6,0,54.2-2.5,54.2-54.3V61c0,0,0-0.1,0-0.1H129.3z"/>
	<polygon class="st1" points="149.3,1.9 139.8,1.9 101.8,1.9 101.8,12.4 139.8,12.4 139.8,50.5 150.4,50.5 150.4,1.9 	"/>
	<path class="st0" d="M169.3,26.7c0-3.5,0.3-6.1,0.8-7.8c1.5-4.5,5.3-6.9,10.4-6.9c5.1,0,9,2.4,10.4,6.9c0.5,1.7,0.8,4.3,0.8,7.8
		c0,3.5-0.3,6.1-0.8,7.8c-1.5,4.5-5.3,6.9-10.4,6.9c-5.1,0-9-2.4-10.4-6.9C169.6,32.9,169.3,30.3,169.3,26.7 M185.5,26.7
		c0-3.2-0.2-5.2-0.5-6.1c-0.7-2.1-2.2-3.2-4.5-3.2c-2.3,0-3.8,1.1-4.5,3.2c-0.3,0.9-0.5,3-0.5,6.1c0,3.2,0.2,5.2,0.5,6.1
		c0.7,2.1,2.2,3.2,4.5,3.2c2.3,0,3.8-1.1,4.5-3.2C185.4,31.9,185.5,29.9,185.5,26.7"/>
	<path class="st0" d="M203,41c-0.3,0-0.4-0.1-0.4-0.4V18.2c0-0.2-0.1-0.3-0.3-0.3h-7.2c-0.3,0-0.4-0.1-0.4-0.4v-4.7
		c0-0.3,0.1-0.4,0.4-0.4h21.2c0.3,0,0.4,0.1,0.4,0.4v4.7c0,0.3-0.1,0.4-0.4,0.4h-7.2c-0.2,0-0.3,0.1-0.3,0.3v22.4
		c0,0.3-0.1,0.4-0.4,0.4H203z"/>
	<path class="st0" d="M221.6,41c-0.3,0-0.4-0.1-0.4-0.4V12.8c0-0.3,0.1-0.4,0.4-0.4h5.3c0.3,0,0.4,0.1,0.4,0.4v10.7
		c0,0.2,0.1,0.3,0.3,0.3h2c1.6,0,2.7-0.8,3.4-2.5l1.8-4.5c1.3-3.4,3.2-4.6,6.6-4.6h1.8c0.3,0,0.4,0.1,0.4,0.4v4.5
		c0,0.3-0.1,0.4-0.4,0.4h-0.4c-1.5,0-2.1,0.5-2.8,1.9l-1.4,3.5c-0.6,1.6-1.4,2.6-2.4,3v0.2c1.3,0.4,2.2,1.3,2.8,2.9l1.7,4.6
		c0.5,1.5,1.2,1.9,2.7,1.9h0.5c0.3,0,0.4,0.1,0.4,0.4v4.7c0,0.3-0.1,0.4-0.4,0.4h-2c-3.4,0-5.3-1.3-6.6-4.6l-1.8-4.7
		c-0.6-1.7-1.9-2.6-3.7-2.6h-2c-0.2,0-0.3,0.1-0.3,0.3v11.1c0,0.3-0.1,0.4-0.4,0.4H221.6z"/>
	<path class="st0" d="M249.8,41c-0.3,0-0.4-0.1-0.4-0.4V12.8c0-0.3,0.1-0.4,0.4-0.4H261c3.1,0,5.5,0.8,7.3,2.5
		c1.8,1.7,2.7,3.9,2.7,6.7c0,2.7-0.9,4.9-2.7,6.6c-1.8,1.7-4.2,2.5-7.3,2.5h-5.1c-0.2,0-0.3,0.1-0.3,0.3v9.5c0,0.3-0.1,0.4-0.4,0.4
		H249.8z M260.6,25.5c2.6,0,4.2-1.5,4.2-3.8s-1.6-3.9-4.2-3.9h-4.7c-0.2,0-0.3,0.1-0.3,0.3v7.2c0,0.2,0.1,0.3,0.3,0.3H260.6z"/>
	<path class="st0" d="M276.4,41c-0.3,0-0.4-0.1-0.4-0.4V12.8c0-0.3,0.1-0.4,0.4-0.4h5.3c0.3,0,0.4,0.1,0.4,0.4v9.6
		c0,0.2,0.1,0.3,0.3,0.3h5.1c6.4,0,10.1,3.6,10.1,9.1c0,5.6-3.7,9.2-10.1,9.2H276.4z M287.1,35.7c2.7,0,4.3-1.4,4.3-3.9
		c0-2.4-1.6-3.8-4.3-3.8h-4.8c-0.2,0-0.3,0.1-0.3,0.3v7.2c0,0.2,0.1,0.3,0.3,0.3H287.1z M301.1,41c-0.3,0-0.4-0.1-0.4-0.4V12.8
		c0-0.3,0.1-0.4,0.4-0.4h5.3c0.3,0,0.4,0.1,0.4,0.4v27.8c0,0.3-0.1,0.4-0.4,0.4H301.1z"/>
	<path class="st0" d="M319.8,41c-0.3,0-0.4-0.1-0.4-0.4V18.2c0-0.2-0.1-0.3-0.3-0.3h-7.2c-0.3,0-0.4-0.1-0.4-0.4v-4.7
		c0-0.3,0.1-0.4,0.4-0.4H333c0.3,0,0.4,0.1,0.4,0.4v4.7c0,0.3-0.1,0.4-0.4,0.4h-7.2c-0.2,0-0.3,0.1-0.3,0.3v22.4
		c0,0.3-0.1,0.4-0.4,0.4H319.8z"/>
	<path class="st0" d="M343.2,12.8c0.1-0.3,0.3-0.4,0.5-0.4h5.3c0.3,0,0.5,0.1,0.5,0.4l9.7,27.8c0.1,0.3,0,0.4-0.3,0.4h-5.5
		c-0.3,0-0.5-0.1-0.5-0.4l-1.6-5h-10l-1.6,5c-0.1,0.3-0.3,0.4-0.5,0.4h-5.5c-0.3,0-0.4-0.1-0.3-0.4L343.2,12.8z M343.1,30.3h6.6
		l-3.2-10h-0.1L343.1,30.3z"/>
	<path class="st0" d="M362.4,41.2c-0.3,0-0.4-0.1-0.4-0.4v-4.7c0-0.3,0.1-0.4,0.4-0.4h0.6c1.3,0,2.1-0.5,2.5-1.6l1.2-2.8
		c0.5-1.1,1.1-1.9,1.9-2.4v-0.2c-3.4-0.8-5.8-3.3-5.8-7.7c0-2.5,0.8-4.5,2.5-6.1c1.7-1.6,4-2.5,6.9-2.5h11.8c0.3,0,0.4,0.1,0.4,0.4
		v27.8c0,0.3-0.1,0.4-0.4,0.4h-5.4c-0.3,0-0.4-0.1-0.4-0.4v-10c0-0.2-0.1-0.3-0.3-0.3h-2.1c-1.6,0-2.5,0.3-3.3,2.2l-1.6,4
		c-1.3,3.4-3.2,4.6-6.6,4.6H362.4z M378,25.1c0.2,0,0.3-0.1,0.3-0.3v-6.8c0-0.2-0.1-0.3-0.3-0.3h-5.1c-2.3,0-3.8,1.3-3.8,3.7
		c0,2.4,1.5,3.7,3.8,3.7H378z"/>
	<path class="st0" d="M170.5,78.9c-0.3,0-0.4-0.1-0.4-0.4V50.7c0-0.3,0.1-0.4,0.4-0.4h5c0.3,0,0.5,0.1,0.7,0.4l7.2,16.3h0.2
		l7.1-16.3c0.1-0.3,0.3-0.4,0.7-0.4h4.9c0.3,0,0.4,0.1,0.4,0.4v27.8c0,0.3-0.1,0.4-0.4,0.4h-4.8c-0.3,0-0.4-0.1-0.4-0.4V62.4H191
		l-5.3,12.1c-0.2,0.4-0.4,0.5-0.8,0.5h-2.9c-0.4,0-0.6-0.2-0.8-0.5l-5.3-12.1h-0.2v16.1c0,0.3-0.1,0.4-0.4,0.4H170.5z"/>
	<path class="st0" d="M202.5,64.6c0-3.5,0.3-6.1,0.8-7.8c1.5-4.5,5.3-6.9,10.4-6.9c5.1,0,9,2.4,10.4,6.9c0.5,1.7,0.8,4.3,0.8,7.8
		c0,3.5-0.3,6.1-0.8,7.8c-1.5,4.5-5.3,6.9-10.4,6.9c-5.1,0-9-2.4-10.4-6.9C202.8,70.8,202.5,68.1,202.5,64.6 M218.7,64.6
		c0-3.2-0.2-5.2-0.5-6.1c-0.7-2.1-2.2-3.2-4.5-3.2c-2.3,0-3.8,1.1-4.5,3.2c-0.3,0.9-0.5,3-0.5,6.1c0,3.2,0.2,5.2,0.5,6.1
		c0.7,2.1,2.2,3.2,4.5,3.2c2.3,0,3.8-1.1,4.5-3.2C218.5,69.8,218.7,67.8,218.7,64.6"/>
	<path class="st0" d="M231.1,78.9c-0.3,0-0.4-0.1-0.4-0.4V50.7c0-0.3,0.1-0.4,0.4-0.4h18.8c0.3,0,0.4,0.1,0.4,0.4v4.6
		c0,0.3-0.1,0.4-0.4,0.4h-12.7c-0.2,0-0.3,0.1-0.3,0.3V61c0,0.2,0.1,0.3,0.3,0.3h5.6c2.8,0,5.1,0.8,6.8,2.4c1.7,1.6,2.5,3.7,2.5,6.4
		c0,2.7-0.8,4.8-2.5,6.4c-1.7,1.6-4,2.4-6.8,2.4H231.1z M242.2,73.7c2.3,0,3.7-1.4,3.7-3.6c0-2.2-1.4-3.5-3.7-3.5h-5
		c-0.2,0-0.3,0.1-0.3,0.3v6.6c0,0.2,0.1,0.3,0.3,0.3H242.2z"/>
	<path class="st0" d="M257.9,78.9c-0.3,0-0.4-0.1-0.4-0.4V50.7c0-0.3,0.1-0.4,0.4-0.4h5.4c0.3,0,0.4,0.1,0.4,0.4v17.6h0.1l10.4-17.6
		c0.1-0.2,0.3-0.3,0.6-0.3h4.9c0.3,0,0.4,0.1,0.4,0.4v27.8c0,0.3-0.1,0.4-0.4,0.4h-5.4c-0.3,0-0.4-0.1-0.4-0.4V60.9h-0.1l-10.4,17.7
		c-0.1,0.2-0.3,0.3-0.6,0.3H257.9z"/>
	<path class="st0" d="M284.8,79.1c-0.3,0-0.4-0.1-0.4-0.4V74c0-0.3,0.1-0.4,0.4-0.4h0.5c1.5,0,2.6-0.7,3.5-2c0.8-1.4,1.3-4,1.3-7.7
		V50.7c0-0.3,0.1-0.4,0.4-0.4h18.8c0.3,0,0.4,0.1,0.4,0.4v27.8c0,0.3-0.1,0.4-0.3,0.4h-5.5c-0.3,0-0.4-0.1-0.4-0.4V56.1
		c0-0.2-0.1-0.3-0.3-0.3h-6.8c-0.2,0-0.3,0.1-0.3,0.3v8.1c0,5.4-0.8,9.3-2.3,11.5c-1.5,2.2-3.8,3.4-7,3.4H284.8z"/>
	<path class="st0" d="M316.6,78.9c-0.3,0-0.4-0.1-0.4-0.4V50.7c0-0.3,0.1-0.4,0.4-0.4h5.3c0.3,0,0.4,0.1,0.4,0.4v9.6
		c0,0.2,0.1,0.3,0.3,0.3h5.1c6.4,0,10.1,3.6,10.1,9.1c0,5.6-3.7,9.2-10.1,9.2H316.6z M327.3,73.6c2.7,0,4.3-1.5,4.3-4
		c0-2.4-1.6-3.7-4.3-3.7h-4.8c-0.2,0-0.3,0.1-0.3,0.3v7.2c0,0.2,0.1,0.3,0.3,0.3H327.3z"/>
	<path class="st0" d="M343.3,78.9c-0.3,0-0.4-0.1-0.4-0.4V50.7c0-0.3,0.1-0.4,0.4-0.4h5.3c0.3,0,0.4,0.1,0.4,0.4v10.7
		c0,0.2,0.1,0.3,0.3,0.3h9.3c0.2,0,0.3-0.1,0.3-0.3V50.7c0-0.3,0.1-0.4,0.4-0.4h5.3c0.3,0,0.4,0.1,0.4,0.4v27.8
		c0,0.3-0.1,0.4-0.4,0.4h-5.3c-0.3,0-0.4-0.1-0.4-0.4v-11c0-0.2-0.1-0.3-0.3-0.3h-9.3c-0.2,0-0.3,0.1-0.3,0.3v11
		c0,0.3-0.1,0.4-0.4,0.4H343.3z"/>
	<path class="st0" d="M379.5,50.7c0.1-0.3,0.3-0.4,0.5-0.4h5.3c0.3,0,0.5,0.1,0.5,0.4l9.7,27.8c0.1,0.3,0,0.4-0.3,0.4h-5.5
		c-0.3,0-0.5-0.1-0.5-0.4l-1.6-5h-10l-1.6,5c-0.1,0.3-0.3,0.4-0.5,0.4h-5.5c-0.3,0-0.4-0.1-0.3-0.4L379.5,50.7z M379.3,68.2h6.6
		l-3.2-10h-0.1L379.3,68.2z"/>
	<path class="st0" d="M398.7,79.1c-0.3,0-0.4-0.1-0.4-0.4V74c0-0.3,0.1-0.4,0.4-0.4h0.6c1.3,0,2.1-0.5,2.5-1.6l1.2-2.8
		c0.5-1.1,1.1-1.9,1.9-2.4v-0.2c-3.4-0.8-5.8-3.3-5.8-7.7c0-2.5,0.8-4.5,2.5-6.1c1.7-1.6,4-2.5,6.9-2.5h11.8c0.3,0,0.4,0.1,0.4,0.4
		v27.8c0,0.3-0.1,0.4-0.4,0.4h-5.4c-0.3,0-0.4-0.1-0.4-0.4v-10c0-0.2-0.1-0.3-0.3-0.3h-2.1c-1.6,0-2.5,0.3-3.3,2.2l-1.6,4
		c-1.3,3.4-3.2,4.6-6.6,4.6H398.7z M414.2,63c0.2,0,0.3-0.1,0.3-0.3v-6.8c0-0.2-0.1-0.3-0.3-0.3h-5.1c-2.3,0-3.8,1.3-3.8,3.7
		c0,2.4,1.5,3.7,3.8,3.7H414.2z"/>
	<path class="st0" d="M170.5,116.8c-0.3,0-0.4-0.1-0.4-0.4V88.6c0-0.3,0.1-0.4,0.4-0.4h21.1c0.3,0,0.4,0.1,0.4,0.4v27.8
		c0,0.3-0.1,0.4-0.4,0.4h-5.4c-0.3,0-0.4-0.1-0.4-0.4V94c0-0.2-0.1-0.3-0.3-0.3h-9c-0.2,0-0.3,0.1-0.3,0.3v22.4
		c0,0.3-0.1,0.4-0.4,0.4H170.5z"/>
	<path class="st0" d="M196.6,117c-0.3,0-0.4-0.1-0.4-0.4v-4.7c0-0.3,0.1-0.4,0.4-0.4h0.5c1.5,0,2.6-0.7,3.5-2c0.8-1.4,1.3-4,1.3-7.7
		V88.6c0-0.3,0.1-0.4,0.4-0.4H221c0.3,0,0.4,0.1,0.4,0.4v27.8c0,0.3-0.1,0.4-0.3,0.4h-5.5c-0.3,0-0.4-0.1-0.4-0.4V94
		c0-0.2-0.1-0.3-0.3-0.3h-6.8c-0.2,0-0.3,0.1-0.3,0.3v8.1c0,5.4-0.8,9.3-2.3,11.5c-1.5,2.2-3.8,3.4-7,3.4H196.6z"/>
	<path class="st0" d="M235.8,88.6c0.1-0.3,0.3-0.4,0.5-0.4h5.3c0.3,0,0.5,0.1,0.5,0.4l9.7,27.8c0.1,0.3,0,0.4-0.3,0.4h-5.5
		c-0.3,0-0.5-0.1-0.5-0.4l-1.6-5h-10l-1.6,5c-0.1,0.3-0.3,0.4-0.5,0.4h-5.5c-0.3,0-0.4-0.1-0.3-0.4L235.8,88.6z M235.6,106.1h6.6
		l-3.2-10h-0.1L235.6,106.1z"/>
	<path class="st0" d="M259.9,116.8c-0.3,0-0.4-0.1-0.4-0.4V94c0-0.2-0.1-0.3-0.3-0.3H252c-0.3,0-0.4-0.1-0.4-0.4v-4.7
		c0-0.3,0.1-0.4,0.4-0.4h21.2c0.3,0,0.4,0.1,0.4,0.4v4.7c0,0.3-0.1,0.4-0.4,0.4h-7.2c-0.2,0-0.3,0.1-0.3,0.3v22.4
		c0,0.3-0.1,0.4-0.4,0.4H259.9z"/>
	<path class="st0" d="M288.6,117.3c-0.3,0-0.4-0.1-0.4-0.4v-3.1c0-0.2-0.1-0.3-0.3-0.3c-8.4-0.5-12.2-4.4-12.2-11.7
		c0-7,4-10.8,12.2-11.1c0.2,0,0.3-0.1,0.3-0.3v-2.4c0-0.3,0.1-0.4,0.4-0.4h5.4c0.3,0,0.4,0.1,0.4,0.4v2.4c0,0.2,0.1,0.3,0.3,0.3
		c8.1,0.4,12.2,4.1,12.2,11.1c0,7.4-3.7,11.1-12.2,11.7c-0.2,0-0.3,0.1-0.3,0.3v3.1c0,0.3-0.1,0.4-0.4,0.4H288.6z M288.2,107.9V96.3
		c0-0.1-0.1-0.2-0.3-0.2c-4.1,0.2-6,1.9-6,6.1c0,3.9,1.9,5.8,6,6.1C288.1,108.2,288.2,108.1,288.2,107.9 M300.7,102.1
		c0-4.2-1.9-5.9-6-6.1c-0.2,0-0.3,0.1-0.3,0.2v11.7c0,0.2,0.1,0.3,0.3,0.3C298.8,107.9,300.7,106,300.7,102.1"/>
	<path class="st0" d="M311.2,102.5c0-3.5,0.3-6.1,0.8-7.8c1.5-4.5,5.3-6.9,10.4-6.9c5.1,0,9,2.4,10.4,6.9c0.5,1.7,0.8,4.3,0.8,7.8
		c0,3.5-0.3,6.1-0.8,7.8c-1.5,4.5-5.3,6.9-10.4,6.9c-5.1,0-9-2.4-10.4-6.9C311.5,108.6,311.2,106,311.2,102.5 M327.4,102.5
		c0-3.2-0.2-5.2-0.5-6.1c-0.7-2.1-2.2-3.2-4.5-3.2c-2.3,0-3.8,1.1-4.5,3.2c-0.3,0.9-0.5,3-0.5,6.1c0,3.2,0.2,5.2,0.5,6.1
		c0.7,2.1,2.2,3.2,4.5,3.2c2.3,0,3.8-1.1,4.5-3.2C327.2,107.7,327.4,105.6,327.4,102.5"/>
	<path class="st0" d="M339.9,116.8c-0.3,0-0.4-0.1-0.4-0.4V88.6c0-0.3,0.1-0.4,0.4-0.4H351c3.1,0,5.5,0.8,7.3,2.5
		c1.8,1.7,2.7,3.9,2.7,6.7c0,2.7-0.9,4.9-2.7,6.6c-1.8,1.7-4.2,2.5-7.3,2.5h-5.1c-0.2,0-0.3,0.1-0.3,0.3v9.5c0,0.3-0.1,0.4-0.4,0.4
		H339.9z M350.6,101.2c2.6,0,4.2-1.5,4.2-3.8s-1.6-3.9-4.2-3.9h-4.7c-0.2,0-0.3,0.1-0.3,0.3v7.2c0,0.2,0.1,0.3,0.3,0.3H350.6z"/>
	<path class="st0" d="M366.4,116.8c-0.3,0-0.4-0.1-0.4-0.4V88.6c0-0.3,0.1-0.4,0.4-0.4h5c0.3,0,0.5,0.1,0.7,0.4l7.2,16.3h0.2
		l7.1-16.3c0.1-0.3,0.3-0.4,0.7-0.4h4.9c0.3,0,0.4,0.1,0.4,0.4v27.8c0,0.3-0.1,0.4-0.4,0.4h-4.8c-0.3,0-0.4-0.1-0.4-0.4v-16.1h-0.2
		l-5.3,12.1c-0.2,0.4-0.4,0.5-0.8,0.5h-2.9c-0.4,0-0.6-0.2-0.8-0.5l-5.3-12.1h-0.2v16.1c0,0.3-0.1,0.4-0.4,0.4H366.4z"/>
	<path class="st0" d="M407,88.6c0.1-0.3,0.3-0.4,0.5-0.4h5.3c0.3,0,0.5,0.1,0.5,0.4l9.7,27.8c0.1,0.3,0,0.4-0.3,0.4h-5.5
		c-0.3,0-0.5-0.1-0.5-0.4l-1.6-5h-10l-1.6,5c-0.1,0.3-0.3,0.4-0.5,0.4h-5.5c-0.3,0-0.4-0.1-0.3-0.4L407,88.6z M406.8,106.1h6.6
		l-3.2-10H410L406.8,106.1z"/>
</g>
</svg>
