<svg xmlns="http://www.w3.org/2000/svg" width="307" height="37" viewBox="0 0 307 37">
    <g fill="none" fill-rule="nonzero">
        <path fill="#0081CC" d="M11.06 10.39H25.8a.67.67 0 0 1 .47.2l10-10A2 2 0 0 0 34.84 0H2A2 2 0 0 0 .59.59l10 10a.67.67 0 0 1 .47-.2z"/>
        <path fill="#7ECEF4" d="M10.39 25.8V11.06a.67.67 0 0 1 .2-.47l-10-10A2 2 0 0 0 0 2v32.84a2 2 0 0 0 .59 1.42l10-10a.67.67 0 0 1-.2-.46z"/>
        <path fill="#009E3B" d="M25.8 26.47H11.06a.67.67 0 0 1-.47-.2l-10 10a2 2 0 0 0 1.41.58h32.84a2 2 0 0 0 1.42-.59l-10-10a.67.67 0 0 1-.46.21z"/>
        <path fill="#F39800" d="M36.85 34.84V2a2 2 0 0 0-.59-1.41l-10 10a.67.67 0 0 1 .2.47V25.8a.67.67 0 0 1-.2.47l10 10a2 2 0 0 0 .59-1.43z"/>
        <path fill="#3B3D3D" d="M62.6 31h-1.36c-6.51 0-9.39-2.93-9.39-9.33V17c0-6.57 3-9.36 9.39-9.36h1.36c6.4.04 9.4 3 9.4 9.36v4.61C72 28 69.11 31 62.6 31zm6.94-14c0-5-2.45-6.85-6.94-6.85h-1.36c-4.52 0-7 1.85-7 6.85v4.61c0 5 2.45 6.88 7 6.88h1.36c4.49 0 6.94-1.88 6.94-6.88V17zM85.54 30.91h-1.19a6.94 6.94 0 0 1-5.43-2.3v6h-2.48V13.37h2.47v2.3a7 7 0 0 1 5.43-2.33h1.19c4.58 0 7.59 2.19 7.59 6.71v4.09c.01 4.58-2.83 6.77-7.58 6.77zm5.06-10.43c0-3.3-2-4.66-5.23-4.66h-1.14c-3 0-5.37 1.76-5.37 4.75v3.16c0 3 2.39 4.75 5.37 4.75h1.14c3.13 0 5.23-1.34 5.23-4.63v-3.37zM99.13 23.06v.8c0 3.47 2 4.75 5.29 4.75h2c3.41 0 4.63-.82 5.06-2.56H114c-.54 3.07-2.53 4.86-7.56 4.86h-2c-5.4 0-7.76-2.79-7.76-7.11v-3.38c0-4.55 3.13-7 7.76-7h1.93c5.06 0 7.76 2.27 7.76 7.17v2.5l-15-.03zm12.51-2.5c0-3.61-1.93-4.83-5.29-4.83h-1.93c-3.07 0-5.29 1.28-5.29 4.69v.71h12.51v-.57zM131.85 30.91v-10.8c0-3.13-1.79-4.27-4.38-4.27h-1.57c-3.16 0-5.09 1.76-5.09 3.7v11.37h-2.5V13.37h2.5v1.9a8.35 8.35 0 0 1 5.4-1.9h1.45c4.29 0 6.66 2.3 6.66 6.31v11.23h-2.47zM165.9 30.88l-10.29-10v-2.2h5.32c3.72 0 5.43-.94 5.43-3.58V14c0-2.47-1.14-3.87-4.75-3.87H152v20.78h-2.5V7.74h12.11c5.58 0 7.22 2.27 7.22 6.23v1.25c0 4.32-2.59 5.77-7.73 5.77h-2l10.09 9.9-3.29-.01zM182.3 30.91h-1.88c-4.86 0-7.57-2.3-7.57-6.8v-4c0-4.35 2.79-6.82 7.57-6.82h1.88c4.41 0 7.51 2.27 7.51 6.82v4c0 4.5-2.87 6.8-7.51 6.8zm5-10.52c0-3.24-2-4.58-5.26-4.58h-1.36c-3.55 0-5.35 1.45-5.35 4.58v3.53c0 3.24 2 4.55 5.35 4.55H182c3.3 0 5.26-1.28 5.26-4.55l.04-3.53zM202.77 30.91h-1.87c-4.86 0-7.57-2.3-7.57-6.8v-4c0-4.35 2.79-6.82 7.57-6.82h1.88c4.41 0 7.51 2.27 7.51 6.82v4c-.01 4.5-2.88 6.8-7.52 6.8zm5-10.52c0-3.24-2-4.58-5.26-4.58h-1.36c-3.55 0-5.35 1.45-5.35 4.58v3.53c0 3.24 2 4.55 5.35 4.55h1.36c3.3 0 5.26-1.28 5.26-4.55v-3.53zM234.81 30.91V19.14a3 3 0 0 0-3.1-3.33h-1.28c-2.7 0-3.44 1.65-3.44 3.41v11.69h-2.39V19.17c0-2.45-1.11-3.36-3-3.36h-1.11c-2.25 0-3.47 1.19-3.47 3.38v11.72h-2.47V13.34H217v1.54a5.13 5.13 0 0 1 3.72-1.54h1.19a4.68 4.68 0 0 1 4.24 1.9 4.86 4.86 0 0 1 4.21-1.9h1.88c2.9 0 5.06 1.65 5.06 5.37v12.2h-2.49zM252.94 30.91V7.74h2.47v23.17zM274.43 30.91v-10.8c0-3.13-1.79-4.27-4.38-4.27h-1.56c-3.16 0-5.09 1.76-5.09 3.7v11.37h-2.5V13.37h2.5v1.9a8.35 8.35 0 0 1 5.4-1.9h1.45c4.29 0 6.66 2.3 6.66 6.31v11.23h-2.48zM290.27 30.94h-1.9c-5.29 0-7.65-2.39-7.65-7v-3.5c0-4.35 2.59-7 7.65-7h1.9c5.29 0 7.34 2.1 7.56 6.34h-2.53c-.28-3-2-3.9-5-3.9h-1.82c-3.36 0-5.26 1.71-5.26 4.72v3.2c0 3 1.76 4.72 5.26 4.72h1.82c3.58 0 4.86-1.48 5-3.92h2.53c-.14 4.4-2.33 6.34-7.56 6.34zM302.72 30.91v-3.15h4.07v3.16z"/>
    </g>
</svg>
