<?xml version="1.0" encoding="UTF-8"?>
<!-- Generator: Adobe Illustrator 23.1.0, SVG Export Plug-In . SVG Version: 6.00 Build 0)  -->
<svg version="1.1" xmlns="http://www.w3.org/2000/svg" xmlns:xlink="http://www.w3.org/1999/xlink" x="0px" y="0px" viewBox="0 0 455 117" style="enable-background:new 0 0 455 117;" xml:space="preserve">
<style type="text/css">
	.st0{display:none;}
	.st1{display:inline;}
	.st2{fill:#F2B705;}
	.st3{fill:#F2421B;}
	.st4{display:inline;fill:#F2421B;}
	.st5{font-family:'RoundedMplus1c-Medium';}
	.st6{font-size:48.8849px;}
	.st7{letter-spacing:-2;}
	.st8{display:inline;fill:#FFFFFF;}
	.st9{font-family:'RoundedMplus1c-Light';}
	.st10{fill:#252326;}
	.st11{display:inline;fill:#252326;}
</style>
<g id="For_Black" class="st0">
	<g class="st1">
		<path class="st2" d="M101.7,53.7l-7.6-7.6L78.2,62L62.2,78L46.3,62L30.3,78l15.9,15.9l7.6,7.6c4.6,4.6,12,4.6,16.6,0l7.6-7.6    L94.1,78l7.6-7.6C106.3,65.8,106.3,58.3,101.7,53.7z"/>
		<path class="st3" d="M78.2,30.1L62.2,14.2l-9.3-9.3c-3.7-3.7-9.7-3.7-13.3,0L37,7.5c-3.7,3.7-3.7,9.7,0,13.3l9.3,9.3L30.3,46.1    L14.4,62l-9.3,9.3C1.4,75,1.4,81,5.1,84.7l2.6,2.6c3.7,3.7,9.7,3.7,13.3,0l9.3-9.3L46.3,62l15.9-15.9L78.2,62l15.9-15.9L78.2,30.1    z"/>
	</g>
	<text transform="matrix(1 0 0 1 126.0074 72.0039)" class="st4 st5 st6 st7">pretty</text>
	<text transform="matrix(1 0 0 1 265.1661 72.0039)" class="st8 st9 st6 st7">technical</text>
</g>
<g id="For_White">
	<g>
		<path class="st2" d="M101.7,53.7l-7.6-7.6L78.2,62L62.2,78L46.3,62L30.3,78l15.9,15.9l7.6,7.6c4.6,4.6,12,4.6,16.6,0l7.6-7.6    L94.1,78l7.6-7.6C106.3,65.8,106.3,58.3,101.7,53.7z"/>
		<path class="st3" d="M78.2,30.1L62.2,14.2l-9.3-9.3c-3.7-3.7-9.7-3.7-13.3,0L37,7.5c-3.7,3.7-3.7,9.7,0,13.3l9.3,9.3L30.3,46.1    L14.4,62l-9.3,9.3C1.4,75,1.4,81,5.1,84.7l2.6,2.6c3.7,3.7,9.7,3.7,13.3,0l9.3-9.3L46.3,62l15.9-15.9L78.2,62l15.9-15.9L78.2,30.1    z"/>
	</g>
	<g>
		<path class="st3" d="M133.9,82c-0.5,0.5-1.1,0.7-1.8,0.7s-1.3-0.2-1.8-0.7c-0.5-0.5-0.7-1.1-0.7-1.8V49c0-0.7,0.2-1.2,0.7-1.7    c0.5-0.5,1-0.7,1.7-0.7c0.7,0,1.2,0.2,1.7,0.7s0.7,1,0.8,1.7v0.7c0,0,0,0,0,0c0,0,0.1,0,0.1,0c1.2-1.3,2.4-2.3,3.6-2.8    c1.2-0.5,2.5-0.8,4.1-0.8c3.1,0,5.6,1.2,7.5,3.5c1.9,2.3,2.8,5.6,2.8,9.7c0,4-1,7.3-2.9,9.6c-1.9,2.4-4.4,3.6-7.4,3.6    c-2.9,0-5.4-1-7.4-3.1c0,0-0.1,0-0.1,0c0,0,0,0,0,0v10.9C134.7,80.9,134.4,81.5,133.9,82z M134.7,55.6V63c0,1.5,0.6,2.8,1.9,3.9    c1.3,1.1,2.7,1.7,4.5,1.7c2,0,3.5-0.8,4.6-2.3c1.1-1.6,1.7-3.9,1.7-6.9c0-6.2-2.1-9.3-6.4-9.3c-1.7,0-3.2,0.6-4.5,1.7    C135.3,52.8,134.7,54.1,134.7,55.6z"/>
		<path class="st3" d="M160.2,71.2c-0.5,0.5-1.2,0.8-1.9,0.8c-0.8,0-1.4-0.3-1.9-0.8c-0.5-0.5-0.8-1.2-0.8-1.9V49.1    c0-0.7,0.2-1.3,0.7-1.8c0.5-0.5,1.1-0.7,1.8-0.7s1.3,0.2,1.8,0.7c0.5,0.5,0.8,1.1,0.8,1.8v2.3c0,0,0,0,0,0c0.1,0,0.1,0,0.1,0    c1-1.3,2.3-2.4,3.9-3.3c1.6-0.9,3.4-1.4,5.3-1.5c0.6,0,1.1,0.1,1.5,0.5c0.4,0.4,0.6,0.9,0.6,1.5c0,0.6-0.2,1.1-0.6,1.5    c-0.4,0.4-0.9,0.6-1.5,0.7c-3.1,0.1-5.4,0.9-6.9,2.4s-2.2,3.7-2.2,6.6v9.5C161,70.1,160.7,70.7,160.2,71.2z"/>
		<path class="st3" d="M185.9,72.5c-4.1,0-7.2-1.1-9.4-3.3s-3.3-5.5-3.3-9.9s1-7.7,3-9.9c2-2.2,4.8-3.3,8.5-3.3    c6.8,0,10.3,4,10.5,11.9c0,0.8-0.2,1.4-0.8,2c-0.6,0.5-1.3,0.8-2.1,0.8h-13.5c-0.3,0-0.4,0.1-0.4,0.4c0.4,5,3.1,7.5,8,7.5    c1.7,0,3.4-0.3,5.1-0.8c0.5-0.2,0.9-0.1,1.4,0.2c0.4,0.3,0.6,0.7,0.6,1.2c0,0.6-0.2,1.2-0.6,1.7c-0.4,0.5-0.9,0.8-1.5,1    C189.6,72.3,187.7,72.5,185.9,72.5z M184.7,49.9c-3.7,0-5.8,2.2-6.3,6.6c-0.1,0.3,0.1,0.4,0.4,0.4h11c0.3,0,0.4-0.1,0.4-0.4    C189.9,52.1,188.1,49.9,184.7,49.9z"/>
		<path class="st3" d="M198.6,51.5c-0.6,0-1-0.2-1.4-0.6c-0.4-0.4-0.6-0.8-0.6-1.4c0-0.5,0.2-1,0.6-1.4c0.4-0.4,0.8-0.6,1.4-0.6h2.7    c0.3,0,0.4-0.1,0.4-0.4v-6.3c0-0.7,0.2-1.3,0.7-1.8c0.5-0.5,1.1-0.7,1.8-0.7c0.7,0,1.3,0.2,1.8,0.7c0.5,0.5,0.8,1.1,0.8,1.8v6.3    c0,0.3,0.1,0.4,0.4,0.4h6.4c0.6,0,1,0.2,1.4,0.6c0.4,0.4,0.6,0.8,0.6,1.4c0,0.5-0.2,1-0.6,1.4c-0.4,0.4-0.8,0.6-1.4,0.6h-6.4    c-0.3,0-0.4,0.1-0.4,0.4v11.3c0,2.2,0.3,3.7,0.8,4.4c0.5,0.7,1.6,1,3.1,1c0.7,0,1.5,0,2.2-0.1c0.5-0.1,1,0,1.4,0.3    c0.4,0.3,0.6,0.7,0.6,1.2c0,0.6-0.2,1.1-0.6,1.6c-0.4,0.5-0.9,0.7-1.5,0.8c-1.4,0.1-2.4,0.2-3.1,0.2c-3,0-5.1-0.6-6.3-1.9    c-1.2-1.3-1.8-3.6-1.8-6.9V51.9c0-0.3-0.1-0.4-0.4-0.4H198.6z"/>
		<path class="st3" d="M220,51.5c-0.6,0-1-0.2-1.4-0.6c-0.4-0.4-0.6-0.8-0.6-1.4c0-0.5,0.2-1,0.6-1.4c0.4-0.4,0.8-0.6,1.4-0.6h2.7    c0.3,0,0.4-0.1,0.4-0.4v-6.3c0-0.7,0.2-1.3,0.7-1.8c0.5-0.5,1.1-0.7,1.8-0.7c0.7,0,1.3,0.2,1.8,0.7c0.5,0.5,0.8,1.1,0.8,1.8v6.3    c0,0.3,0.1,0.4,0.4,0.4h6.4c0.6,0,1,0.2,1.4,0.6c0.4,0.4,0.6,0.8,0.6,1.4c0,0.5-0.2,1-0.6,1.4c-0.4,0.4-0.8,0.6-1.4,0.6h-6.4    c-0.3,0-0.4,0.1-0.4,0.4v11.3c0,2.2,0.3,3.7,0.8,4.4c0.5,0.7,1.6,1,3.1,1c0.7,0,1.5,0,2.2-0.1c0.5-0.1,1,0,1.4,0.3    c0.4,0.3,0.6,0.7,0.6,1.2c0,0.6-0.2,1.1-0.6,1.6c-0.4,0.5-0.9,0.7-1.5,0.8c-1.4,0.1-2.4,0.2-3.1,0.2c-3,0-5.1-0.6-6.3-1.9    c-1.2-1.3-1.8-3.6-1.8-6.9V51.9c0-0.3-0.1-0.4-0.4-0.4H220z"/>
		<path class="st3" d="M248.2,71.6l-8-22.5c-0.2-0.6-0.1-1.2,0.2-1.7c0.4-0.5,0.9-0.8,1.6-0.8c0.8,0,1.5,0.2,2.2,0.7    c0.7,0.5,1.1,1.1,1.3,1.8l5.5,17c0,0,0,0,0,0c0,0,0,0,0,0l6.1-17.1c0.3-0.8,0.7-1.3,1.4-1.8c0.6-0.4,1.3-0.7,2.1-0.7    c0.6,0,1.1,0.3,1.4,0.8s0.4,1.1,0.2,1.6l-12.5,31.4c-0.3,0.7-0.8,1.3-1.4,1.7c-0.7,0.4-1.4,0.7-2.2,0.7c-0.6,0-1.1-0.3-1.4-0.8    c-0.3-0.5-0.4-1.1-0.2-1.6l3.5-8c0.1-0.1,0.1-0.3,0.1-0.4S248.3,71.7,248.2,71.6z"/>
	</g>
	<g>
		<path class="st10" d="M268.7,49.5c-0.3,0-0.5-0.1-0.7-0.3c-0.2-0.2-0.3-0.4-0.3-0.7c0-0.3,0.1-0.5,0.3-0.7    c0.2-0.2,0.4-0.3,0.7-0.3h4.4c0.3,0,0.4-0.1,0.4-0.4v-7.7c0-0.3,0.1-0.6,0.4-0.8c0.2-0.2,0.5-0.3,0.9-0.3c0.3,0,0.6,0.1,0.8,0.3    c0.2,0.2,0.3,0.5,0.3,0.8v7.7c0,0.3,0.1,0.4,0.4,0.4h8.2c0.3,0,0.5,0.1,0.7,0.3c0.2,0.2,0.3,0.4,0.3,0.7c0,0.3-0.1,0.5-0.3,0.7    c-0.2,0.2-0.4,0.3-0.7,0.3h-8.2c-0.3,0-0.4,0.1-0.4,0.4v14.6c0,2.5,0.3,4.1,1.1,4.9c0.7,0.8,2,1.1,4,1.1c1,0,2.1-0.1,3-0.4    c0.2-0.1,0.4,0,0.7,0.1c0.2,0.1,0.3,0.4,0.3,0.6c0,0.7-0.3,1.1-1,1.3c-1.1,0.3-2.2,0.4-3.3,0.4c-2.7,0-4.6-0.6-5.6-1.7    c-1-1.1-1.5-3.2-1.5-6.1V50c0-0.3-0.1-0.4-0.4-0.4H268.7z"/>
		<path class="st10" d="M300.4,72.5c-3.9,0-6.9-1.1-8.9-3.3c-2-2.2-3-5.5-3-9.9c0-4.7,1-8.1,3.1-10.1c2.1-2,4.7-3.1,7.9-3.1    c6.2,0,9.5,3.7,10,11c0,0.8-0.2,1.4-0.8,1.9c-0.5,0.5-1.2,0.8-2,0.8h-15.4c-0.3,0-0.4,0.1-0.4,0.4c0.2,6.9,3.4,10.4,9.7,10.4    c2.2,0,4.3-0.4,6.5-1.2c0.2-0.1,0.4-0.1,0.7,0.1c0.2,0.1,0.3,0.4,0.3,0.6c0,0.7-0.3,1.1-1,1.4C304.7,72.2,302.5,72.5,300.4,72.5z     M299.5,48c-5.3,0-8.1,3.1-8.6,9.4c0,0.3,0.1,0.5,0.4,0.5h15.3c0.3,0,0.4-0.2,0.4-0.5C306.9,51.1,304.4,48,299.5,48z"/>
		<path class="st10" d="M323.7,72.5c-3.8,0-6.7-1.1-8.7-3.3c-2-2.2-3-5.5-3-9.9c0-4.3,1-7.6,2.9-9.8c2-2.2,4.7-3.4,8.3-3.4    c1.9,0,3.9,0.2,5.8,0.7c0.3,0.1,0.6,0.2,0.8,0.5c0.2,0.3,0.3,0.6,0.3,0.9c0,0.3-0.1,0.5-0.3,0.6c-0.2,0.1-0.5,0.2-0.7,0.1    c-1.9-0.6-3.8-0.9-5.8-0.9c-5.9,0-8.9,3.7-8.9,11.2s3.1,11.2,9.4,11.2c2,0,3.8-0.3,5.6-0.9c0.2-0.1,0.5-0.1,0.7,0.1    c0.2,0.2,0.3,0.4,0.3,0.6c0,0.7-0.4,1.2-1.1,1.4C327.5,72.2,325.6,72.5,323.7,72.5z"/>
		<path class="st10" d="M337.6,71.7c-0.2,0.2-0.5,0.3-0.8,0.3c-0.3,0-0.6-0.1-0.8-0.3s-0.3-0.5-0.3-0.8V36.5c0-0.3,0.1-0.6,0.3-0.8    c0.2-0.2,0.5-0.3,0.8-0.3c0.3,0,0.6,0.1,0.8,0.3c0.2,0.2,0.3,0.5,0.3,0.8v14.6c0,0,0,0,0,0l0.1-0.1c2.3-3.3,5.2-5,8.7-5    c2.9,0,5.1,0.8,6.4,2.5c1.3,1.6,2,4.4,2,8.3v14c0,0.3-0.1,0.6-0.3,0.8c-0.2,0.2-0.5,0.3-0.8,0.3c-0.3,0-0.6-0.1-0.8-0.3    s-0.3-0.5-0.3-0.8V57.2c0-3.6-0.5-6-1.5-7.2c-1-1.2-2.7-1.8-5-1.8c-1.9,0-3.7,0.9-5.5,2.7c-1.8,1.8-2.8,3.6-2.8,5.4v14.6    C337.9,71.2,337.8,71.4,337.6,71.7z"/>
		<path class="st10" d="M362.1,71.7c-0.2,0.2-0.5,0.3-0.8,0.3c-0.3,0-0.6-0.1-0.8-0.3c-0.2-0.2-0.3-0.5-0.3-0.8V47.7    c0-0.3,0.1-0.6,0.3-0.8c0.2-0.2,0.5-0.3,0.8-0.3c0.3,0,0.6,0.1,0.8,0.3c0.2,0.2,0.3,0.5,0.3,0.8l0,3.3c0,0,0,0,0,0l0.1-0.1    c2.3-3.3,5.2-4.9,8.7-4.9c3,0,5.1,0.8,6.4,2.4c1.3,1.6,2,4.4,2,8.3v14c0,0.3-0.1,0.6-0.3,0.8c-0.2,0.2-0.5,0.3-0.8,0.3    c-0.3,0-0.6-0.1-0.8-0.3c-0.2-0.2-0.3-0.5-0.3-0.8V57.1c0-3.5-0.5-5.9-1.6-7.2s-2.7-1.9-5-1.9c-1.9,0-3.7,0.9-5.5,2.7    c-1.8,1.8-2.8,3.6-2.8,5.4v14.7C362.4,71.2,362.3,71.4,362.1,71.7z"/>
		<path class="st10" d="M388.8,40c-0.2,0.2-0.5,0.4-0.9,0.4c-0.3,0-0.6-0.1-0.9-0.4c-0.2-0.2-0.4-0.5-0.4-0.9v-2.6    c0-0.4,0.1-0.7,0.4-0.9c0.2-0.2,0.5-0.3,0.9-0.3c0.3,0,0.6,0.1,0.9,0.3c0.2,0.2,0.4,0.5,0.4,0.9v2.6    C389.2,39.5,389.1,39.8,388.8,40z M388.8,71.7c-0.2,0.2-0.5,0.3-0.9,0.3c-0.3,0-0.6-0.1-0.9-0.3c-0.2-0.2-0.4-0.5-0.4-0.9v-23    c0-0.4,0.1-0.7,0.4-0.9c0.2-0.2,0.5-0.3,0.9-0.3c0.3,0,0.6,0.1,0.9,0.3c0.2,0.2,0.4,0.5,0.4,0.9v23    C389.2,71.1,389.1,71.4,388.8,71.7z"/>
		<path class="st10" d="M406.6,72.5c-3.8,0-6.7-1.1-8.7-3.3c-2-2.2-3-5.5-3-9.9c0-4.3,1-7.6,2.9-9.8c2-2.2,4.7-3.4,8.3-3.4    c1.9,0,3.9,0.2,5.8,0.7c0.3,0.1,0.6,0.2,0.8,0.5c0.2,0.3,0.3,0.6,0.3,0.9c0,0.3-0.1,0.5-0.3,0.6c-0.2,0.1-0.5,0.2-0.7,0.1    c-1.9-0.6-3.8-0.9-5.8-0.9c-5.9,0-8.9,3.7-8.9,11.2s3.1,11.2,9.4,11.2c2,0,3.8-0.3,5.6-0.9c0.2-0.1,0.5-0.1,0.7,0.1    c0.2,0.2,0.3,0.4,0.3,0.6c0,0.7-0.4,1.2-1.1,1.4C410.4,72.2,408.5,72.5,406.6,72.5z"/>
		<path class="st10" d="M424.4,72.5c-2.2,0-4-0.7-5.4-2c-1.3-1.4-2-3.2-2-5.5c0-1.2,0.2-2.3,0.7-3.3s1.2-1.9,2.2-2.8    c1-0.9,2.4-1.6,4.3-2.1c1.9-0.5,4.1-0.7,6.7-0.7h2.7c0.3,0,0.4-0.1,0.4-0.4v-1.4c0-2.2-0.5-3.8-1.5-4.7c-1-0.9-2.7-1.4-5.3-1.4    c-2.7,0-5.3,0.5-7.9,1.4c-0.3,0.1-0.5,0.1-0.7-0.1c-0.2-0.1-0.3-0.3-0.3-0.6c0-0.7,0.4-1.2,1.1-1.5c2.6-0.8,5.2-1.3,7.9-1.3    c3.4,0,5.7,0.6,7.1,1.9c1.4,1.3,2,3.5,2,6.7v16.1c0,0.3-0.1,0.6-0.3,0.8s-0.5,0.3-0.8,0.3c-0.3,0-0.6-0.1-0.8-0.3    c-0.2-0.2-0.3-0.5-0.3-0.8v-3.8c0,0,0,0,0,0c-0.1,0-0.1,0-0.1,0c-0.9,1.7-2.2,3-3.9,4S426.5,72.5,424.4,72.5z M430.8,57.9    c-7.7,0-11.5,2.3-11.5,6.9c0,1.7,0.5,3.1,1.5,4.1c1,1,2.3,1.5,4,1.5c2.5,0,4.7-0.9,6.5-2.7c1.8-1.8,2.7-4.1,2.7-6.9v-2.5    c0-0.3-0.1-0.4-0.4-0.4H430.8z"/>
		<path class="st10" d="M445.6,71.7c-0.2,0.2-0.5,0.3-0.9,0.3c-0.3,0-0.6-0.1-0.9-0.3c-0.2-0.2-0.4-0.5-0.4-0.9V36.6    c0-0.4,0.1-0.7,0.4-0.9c0.2-0.2,0.5-0.3,0.9-0.3c0.3,0,0.6,0.1,0.9,0.3c0.2,0.2,0.4,0.5,0.4,0.9v34.2    C445.9,71.1,445.8,71.4,445.6,71.7z"/>
	</g>
</g>
<g id="For_Orange" class="st0">
	<g class="st1">
		<path class="st2" d="M101.7,53.7l-7.6-7.6L78.2,62L62.2,78L46.3,62L30.3,78l15.9,15.9l7.6,7.6c4.6,4.6,12,4.6,16.6,0l7.6-7.6    L94.1,78l7.6-7.6C106.3,65.8,106.3,58.3,101.7,53.7z"/>
		<path class="st10" d="M78.2,30.1L62.2,14.2l-9.3-9.3c-3.7-3.7-9.7-3.7-13.3,0L37,7.5c-3.7,3.7-3.7,9.7,0,13.3l9.3,9.3L30.3,46.1    L14.4,62l-9.3,9.3C1.4,75,1.4,81,5.1,84.7l2.6,2.6c3.7,3.7,9.7,3.7,13.3,0l9.3-9.3L46.3,62l15.9-15.9L78.2,62l15.9-15.9L78.2,30.1    z"/>
	</g>
	<text transform="matrix(1 0 0 1 126.0074 72.0039)" class="st11 st5 st6 st7">pretty</text>
	<text transform="matrix(1 0 0 1 265.1661 72.0039)" class="st8 st9 st6 st7">technical</text>
</g>
<g id="For_Yellow" class="st0">
	<g class="st1">
		<path class="st10" d="M101.7,53.7l-7.6-7.6L78.2,62L62.2,78L46.3,62L30.3,78l15.9,15.9l7.6,7.6c4.6,4.6,12,4.6,16.6,0l7.6-7.6    L94.1,78l7.6-7.6C106.3,65.8,106.3,58.3,101.7,53.7z"/>
		<path class="st3" d="M78.2,30.1L62.2,14.2l-9.3-9.3c-3.7-3.7-9.7-3.7-13.3,0L37,7.5c-3.7,3.7-3.7,9.7,0,13.3l9.3,9.3L30.3,46.1    L14.4,62l-9.3,9.3C1.4,75,1.4,81,5.1,84.7l2.6,2.6c3.7,3.7,9.7,3.7,13.3,0l9.3-9.3L46.3,62l15.9-15.9L78.2,62l15.9-15.9L78.2,30.1    z"/>
	</g>
	<text transform="matrix(1 0 0 1 126.0074 72.0039)" class="st4 st5 st6 st7">pretty</text>
	<text transform="matrix(1 0 0 1 265.1661 72.0039)" class="st8 st9 st6 st7">technical</text>
</g>
</svg>