<svg xmlns="http://www.w3.org/2000/svg" fill="none" viewBox="0 0 72 31" class="sc-fdt2fy-4 kiINvO"><path fill="#FF441F" d="M58.554 7.052c.7-.017 1.382.228 1.91.688.543.5.918 1.154 1.077 1.874a7.91 7.91 0 01.121 2.786 15.485 15.485 0 01-.915 3.6 17.584 17.584 0 01-1.577 3.266 17.1 17.1 0 01-.868 1.256.059.059 0 00.003.071c.017.02.046.026.07.014a7.27 7.27 0 00.503-.306c.387-.252.76-.524 1.117-.816a6.154 6.154 0 002.012-3.08c.206-.729.43-1.45.681-2.16a37.497 37.497 0 011.292-3.25 22.49 22.49 0 011.107-2.185c.29-.508.785-.869 1.358-.99a3.227 3.227 0 011.529.023 2.31 2.31 0 011.177.721c.32.337.4.836.201 1.256-.058.153-.194.492-.445 1.028-.252.535-.516 1.183-.815 1.904-.3.72-.608 1.502-.915 2.319a19.306 19.306 0 00-.7 2.228 5.32 5.32 0 00-.185 1.623c.032.402.186.402.266.402.244-.031.47-.144.641-.32.341-.286.664-.594.966-.921.34-.364.66-.746.956-1.146.271-.367.505-.69.694-.965a.862.862 0 01.719-.374c.301 0 .583.149.754.397l-.045.015a.692.692 0 01-.012.771c-.202.317-.554.85-1.077 1.628a22.941 22.941 0 01-1.843 2.36 14.835 14.835 0 01-2.326 2.132 4.435 4.435 0 01-2.618.962c-.782 0-1.363-.271-1.733-.811a3.456 3.456 0 01-.503-1.965v-.128a.113.113 0 00-.063-.106.113.113 0 00-.123.016c-.167.132-.335.264-.503.394a14.946 14.946 0 01-3.483 1.922c-1.21.47-2.497.704-3.794.693-.181 0-.367-.012-.553-.012-.926-.003-1.613-.297-2.043-.872a3.16 3.16 0 01-.208-.314.113.113 0 00-.209.025c-.143.467-.272.922-.395 1.354-.266.932-.5 1.746-.689 2.465-.188.718-.367 1.414-.503 1.974s-.231 1.018-.281 1.354v.013c-.066.472-.425.85-.893.942-.154.034-.31.05-.468.05a2.71 2.71 0 01-.9-.166 3.106 3.106 0 01-1.258-.864 2.262 2.262 0 01-.57-1.565c.047-.477.14-.948.276-1.407.181-.753.425-1.68.73-2.763.196-.734.447-1.533.699-2.387a.112.112 0 00-.04-.127.111.111 0 00-.134 0 15.276 15.276 0 01-3.018 1.594c-1.209.47-2.497.705-3.794.694-.181 0-.367-.013-.553-.013-.926-.002-1.612-.296-2.042-.872a3.178 3.178 0 01-.21-.314.113.113 0 00-.208.025c-.143.47-.272.922-.395 1.355-.266.934-.49 1.743-.689 2.464-.198.721-.38 1.414-.515 1.977a16.543 16.543 0 00-.282 1.354v.013c-.066.472-.425.85-.893.942a2.13 2.13 0 01-.465.05 2.71 2.71 0 01-.9-.166 3.106 3.106 0 01-1.258-.864 2.262 2.262 0 01-.57-1.565c.047-.477.14-.948.276-1.407a105.411 105.411 0 011.328-4.821.114.114 0 00-.048-.13.115.115 0 00-.138.015c-.373.344-.764.669-1.172.972a4.353 4.353 0 01-2.59.972c-.78 0-1.363-.271-1.733-.811a2.697 2.697 0 01-.35-.754.34.34 0 00-.247-.235.34.34 0 00-.328.097c-.255.267-.534.51-.835.723a5.872 5.872 0 01-1.298.694c-.5.188-1.03.283-1.564.279a2.963 2.963 0 01-1.944-.681 3.806 3.806 0 01-1.182-1.837 7.887 7.887 0 01-.251-2.786c.096-1.221.341-2.427.73-3.59.88-2.705 1.998-4.68 3.407-5.96 1.408-1.282 2.839-1.933 4.25-1.933a2.886 2.886 0 011.508.36c.379.22.69.541.898.926.137.258.237.534.297.82a.058.058 0 00.048.042.06.06 0 00.058-.027c.07-.129.138-.244.203-.35a2.047 2.047 0 011.338-.987 3.227 3.227 0 011.529.02c.465.112.884.365 1.2.724.32.337.4.836.2 1.256-.057.15-.208.497-.444 1.027a74.712 74.712 0 00-1.736 4.226 19.24 19.24 0 00-.699 2.228 5.324 5.324 0 00-.186 1.623c.033.402.186.402.267.402.244-.031.47-.144.641-.32.176-.155.36-.32.546-.502a5.913 5.913 0 001.536-2.434c.43-1.269.885-2.522 1.35-3.73a58.142 58.142 0 011.444-3.432c.211-.487.621-.86 1.127-1.025.464-.155.96-.189 1.44-.098a2.73 2.73 0 011.245.57 1.7 1.7 0 01.37.41c.025.027.053.032.088 0 .419-.39.872-.74 1.353-1.048a4.382 4.382 0 012.412-.688 2.81 2.81 0 011.91.688c.541.5.915 1.155 1.072 1.874.205.914.246 1.858.12 2.786a15.435 15.435 0 01-.915 3.6 17.58 17.58 0 01-1.576 3.266c-.282.45-.57.87-.865 1.256a.056.056 0 00.003.071c.017.02.046.026.07.014.167-.093.335-.195.502-.306.279-.183.541-.372.788-.568a6.149 6.149 0 002.09-2.934 93.879 93.879 0 011.589-4.449 56.96 56.96 0 011.443-3.432c.211-.487.621-.86 1.127-1.025.464-.155.96-.189 1.44-.098a2.74 2.74 0 011.245.57c.15.12.28.262.383.423.025.027.053.032.088 0a9.46 9.46 0 011.353-1.048 4.378 4.378 0 012.409-.688zM11.72.62a13.83 13.83 0 013.198.371 9.902 9.902 0 012.834 1.126 6.61 6.61 0 012.047 1.881c.535.776.813 1.7.797 2.64a6.473 6.473 0 01-.699 2.985 8.661 8.661 0 01-1.88 2.447 12.348 12.348 0 01-2.752 1.88c-.878.442-1.79.813-2.728 1.107a.099.099 0 00-.081.113c.02.475.056.94.1 1.392.054.517.127 1.022.212 1.507a15.156 15.156 0 00.609 2.334 10.768 10.768 0 001.259 2.508c.186.263.388.515.607.753.202.22.42.427.651.618.216.178.446.34.686.485a4.836 4.836 0 001.472.584c.255.058.515.095.777.111.27.02.54.02.81 0 .284-.024.566-.07.844-.135.298-.07.59-.16.875-.269.31-.117.611-.253.903-.407.116-.06.229-.123.345-.188a.836.836 0 01.97 1.354 18.983 18.983 0 01-1.622 1.271 13.54 13.54 0 01-1.078.68 9.547 9.547 0 01-.559.302c-.36.183-.73.347-1.109.49a9.34 9.34 0 01-1.099.334 7.634 7.634 0 01-1.825.224h-.297a6.804 6.804 0 01-1.494-.236 5.663 5.663 0 01-.473-.154 6.76 6.76 0 01-1.727-.944 7.5 7.5 0 01-1.323-1.282 8.937 8.937 0 01-.623-.849 11.449 11.449 0 01-1.029-1.987 16.294 16.294 0 01-.732-2.338c-.098-.42-.18-.855-.251-1.292a19.164 19.164 0 01-.156-1.198.115.115 0 00-.103-.11.114.114 0 00-.121.09H7.95c-.151.532-.292 1.05-.402 1.542-.168.63-.311 1.196-.43 1.698-.126.503-.214.895-.252 1.186-.082.498-.48.883-.98.95a2.943 2.943 0 01-1.497-.126 3.477 3.477 0 01-1.368-.849 2.145 2.145 0 01-.639-1.578c.047-.829.177-1.65.388-2.454.251-1.115.623-2.442 1.096-3.937a97.723 97.723 0 011.69-4.86c.56-1.508 1.19-3 1.87-4.485.224-.486.686-.82 1.218-.882a9.185 9.185 0 013.133.103.872.872 0 01.596 1.204 70.726 70.726 0 00-1.566 3.783c-.38 1.005-.755 1.995-1.09 2.957a.116.116 0 00.031.123c.034.03.084.038.126.018.468-.22.921-.472 1.355-.754a9.934 9.934 0 001.967-1.656 8.205 8.205 0 001.393-2.102 5.883 5.883 0 00.533-2.467c0-1.128-.312-1.96-.928-2.475-.616-.515-1.504-.791-2.623-.791a6.288 6.288 0 00-3.209.831 9.588 9.588 0 00-2.502 2.07A10.083 10.083 0 004.24 8.45a6.164 6.164 0 00-.57 2.326.94.94 0 01-.694.95 1.9 1.9 0 01-1.258-.058 2.71 2.71 0 01-1.176-.932 2.982 2.982 0 01-.539-1.854c0-.673.252-1.467.78-2.424a10.146 10.146 0 012.238-2.703 13.34 13.34 0 013.67-2.211 13 13 0 015.028-.923zm30.728 9.42l-.024.003a.7.7 0 00-.367.168 5.014 5.014 0 00-.933.942 13.83 13.83 0 00-1.086 1.62 18.56 18.56 0 00-1.056 2.123c-.309.732-.577 1.48-.803 2.241a17.134 17.134 0 00-.47 1.934c-.092.45-.117.91-.075 1.367.05.384.168.465.203.48a.106.106 0 00.05 0 .7.7 0 00.368-.166c.353-.273.666-.594.93-.954.395-.52.752-1.066 1.07-1.636.364-.646.726-1.364 1.078-2.133.31-.729.58-1.475.81-2.233.192-.63.349-1.271.47-1.92l-.01-.004c.092-.444.117-.898.075-1.35-.052-.381-.17-.464-.206-.48a.13.13 0 00-.048 0l.024-.002zm14.276-.002l-.024.002a.72.72 0 00-.367.168c-.349.27-.66.584-.925.935-.4.513-.764 1.055-1.087 1.62a18.82 18.82 0 00-1.053 2.143 21.389 21.389 0 00-.812 2.231c-.195.635-.352 1.28-.47 1.934a4.58 4.58 0 00-.076 1.367c.05.384.168.465.204.48a.106.106 0 00.05 0 .698.698 0 00.367-.166c.353-.274.666-.595.93-.954.395-.52.75-1.066 1.067-1.636.367-.646.729-1.364 1.081-2.133.307-.73.574-1.478.8-2.238.192-.63.35-1.271.47-1.92.09-.445.116-.9.073-1.351-.05-.382-.169-.465-.204-.48a.13.13 0 00-.048 0l.024-.002zM26.878 9.97l-.022.002a.643.643 0 00-.345.164c-.336.272-.63.593-.872.952-.366.518-.69 1.064-.971 1.633a24.735 24.735 0 00-.946 2.133 17.684 17.684 0 00-.716 2.225 12.88 12.88 0 00-.337 1.91c-.05.453-.045.912.017 1.364.066.387.189.472.224.487a.13.13 0 00.048 0 .635.635 0 00.344-.163c.335-.27.63-.585.875-.937.368-.51.692-1.05.971-1.613.33-.653.646-1.38.946-2.133.286-.726.526-1.47.716-2.226.16-.632.277-1.274.352-1.922a4.469 4.469 0 00-.01-1.371c-.085-.4-.213-.485-.251-.503a.114.114 0 00-.045 0l.022-.002zM68.811 0A3.187 3.187 0 0172 3.185a3.187 3.187 0 01-3.189 3.186A3.186 3.186 0 1168.81 0z"></path></svg>