<svg xmlns="http://www.w3.org/2000/svg" viewBox="0 0 116 40"><path d="M7.08,7.309a1.851,1.851,0,0,1,.7.148,14.612,14.612,0,0,1,9.961,13.852A14.685,14.685,0,0,1,4.124,12.222,1.718,1.718,0,0,1,4,11.605v-.222a1.906,1.906,0,0,1,.273-.766A17.3,17.3,0,0,1,6.112,7.852a1.255,1.255,0,0,1,.7-.494,1.047,1.047,0,0,1,.273-.049m20.2,28.37A3.218,3.218,0,0,0,28.37,36h.124a3.327,3.327,0,0,0,1.292-.37,17.208,17.208,0,0,0,2.161-1.284,1.923,1.923,0,0,0,.745-1.136,2.476,2.476,0,0,0-.124-1.333A14.422,14.422,0,0,0,18.83,22.469a14.316,14.316,0,0,0,8.447,13.21M6.087,28.1a2.314,2.314,0,0,0-.6,1.407,1.922,1.922,0,0,0,.372,1.334,17.8,17.8,0,0,0,3.428,3.382,2,2,0,0,0,1.193.42,1.8,1.8,0,0,0,1.192-.444,14.551,14.551,0,0,0,5.962-11.754A14.823,14.823,0,0,0,6.087,28.1M28.37,4.568a19.463,19.463,0,0,0-9.49,16.691A19.643,19.643,0,0,0,35.8,11.63a3.183,3.183,0,0,0,.472-2.1,2.747,2.747,0,0,0-.72-1.556,18.479,18.479,0,0,0-3.577-3.506A3.152,3.152,0,0,0,30.208,4h-.1a3.86,3.86,0,0,0-1.739.568m23.748,17.9,3.006,8.79H51.9l-2.683-8.074c-.124,0-.224.025-.373.025H47.7v8.049H44.591V11.951h4.373c2.136,0,3.527.419,4.5,1.358a5.478,5.478,0,0,1,1.441,3.95c0,2.371-.9,4.148-2.559,5.087-.075.049-.149.074-.224.123m-3.005-7.926c-.274,0-1.044,0-1.416-.024v6.148h1.465a2.48,2.48,0,0,0,1.789-.692,3.4,3.4,0,0,0,.8-2.494c-.025-2.024-.82-2.913-2.633-2.938m13.414,8.272h4.894V20.049H62.527V14.765h6.111V11.951H59.422V31.259h9.564V28.444H62.527Zm26.357,0h4.894V20.049H88.884V14.765H95.02V11.951H85.8V31.259h9.564V28.444H88.909V22.815ZM76.091,11.951H72.985V31.259H82.4V28.494H76.091Zm29.76,9.407,4.074-9.407H106.82l-1.888,4.493c-.224.568-.447,1.112-.7,1.778-.273-.642-.5-1.185-.77-1.7l-1.888-4.445-.049-.1h-3.18l3.95,9.457-4.273,9.605-.124.247h3.3l1.987-4.667c.3-.666.571-1.382.845-2.074.3.741.546,1.358.844,2.025l2.037,4.617.05.1h3.354Z" style="fill:#005073"></path></svg>