<svg width="180" height="28" xmlns="http://www.w3.org/2000/svg"><path d="M0 16.157V14.97h3.074v1.426c0 1.486.65 2.02 1.684 2.02 1.034 0 1.684-.534 1.684-2.08 0-1.721-.65-2.821-2.778-4.693C.946 9.237.06 7.544.06 5.17.06 1.9 1.743 0 4.906 0 8.07 0 9.634 1.9 9.634 5.227v.863H6.56V5.02c0-1.486-.59-2.05-1.625-2.05-1.035 0-1.625.564-1.625 1.99 0 1.515.679 2.613 2.807 4.485 2.72 2.405 3.577 4.068 3.577 6.652 0 3.386-1.715 5.287-4.906 5.287-3.192 0-4.788-1.9-4.788-5.227zM11.553.298h3.251v20.79h-3.251zm5.672 0h4.08l3.161 12.444h.06V.298h2.896v20.79h-3.34l-3.9-15.178h-.06v15.178h-2.897zm12.381 15.859V5.227C29.606 1.9 31.261 0 34.453 0S39.3 1.9 39.3 5.227V7.01h-3.074V5.02c0-1.486-.65-2.05-1.684-2.05-1.034 0-1.684.564-1.684 2.05v11.375c0 1.486.65 2.02 1.684 2.02 1.035 0 1.684-.534 1.684-2.02v-4.07h-1.625v-2.97H39.3v6.802c0 3.326-1.655 5.227-4.847 5.227s-4.847-1.9-4.847-5.227zM41.396.298h3.251v17.82h5.349v2.97h-8.6zm10.164 0h8.866v2.97h-5.614v5.494h4.46v2.97h-4.46v6.387h5.613v2.97H51.56zM63.983 18.13h2.944v2.957h-2.944zM70.83.152h8.867v2.97h-5.614v5.494h4.462v2.97h-4.462v6.386h5.614v2.97H70.83zm22.574 0h4.819c3.369 0 4.817 1.574 4.817 4.781v1.279c0 2.138-.68 3.505-2.128 4.098v.06c1.625.504 2.157 2.049 2.157 4.396v3.653c0 1.01.029 1.753.355 2.525h-3.31c-.177-.534-.297-.861-.297-2.555v-3.803c0-1.93-.56-2.553-2.038-2.553h-1.123v8.91h-3.252V.152zm4.434 8.91c1.212 0 1.95-.534 1.95-2.197V5.26c0-1.485-.502-2.139-1.654-2.139h-1.478v5.94h1.182zm9.957-5.94h-3.398V.152h10.048v2.97h-3.4v17.82h-3.25zm8.215-2.97h3.252v12.521h3.487V.152H126v20.79h-3.251v-5.299h-3.487v5.3h-3.252zM92.052 20.808l-2.075-5.11h1.28l-2.397-5.9h1.6L86.483 0l-3.98 9.798h1.601l-2.396 5.9h1.28l-2.076 5.11h5.113V28h.916v-7.192z" fill="#FFF"/></svg>