<svg width="74" height="58" viewBox="0 0 74 58" fill="none" xmlns="http://www.w3.org/2000/svg">
<path d="M0 17.673V16.3733H3.37288V17.9328C3.37288 19.558 4.08576 20.1426 5.22057 20.1426C6.35538 20.1426 7.06918 19.558 7.06918 17.8682C7.06918 15.9848 6.35556 14.7814 4.02044 12.7345C1.03777 10.1037 0.0653123 8.25162 0.0653123 5.65356C0.0653123 2.07871 1.913 0 5.38366 0C8.85433 0 10.5719 2.07852 10.5719 5.7175V6.66085H7.1985V5.49092C7.1985 3.86576 6.5502 3.24956 5.41465 3.24956C4.2791 3.24956 3.63246 3.86576 3.63246 5.42437C3.63246 7.08187 4.37688 8.2834 6.71255 10.3305C9.69597 12.962 10.6374 14.7807 10.6374 17.6075C10.6374 21.3105 8.7558 23.3897 5.25359 23.3897C1.75138 23.3897 0 21.311 0 17.673Z" fill="#C4C4C4"/>
<path d="M0 17.673V16.3733H3.37288V17.9328C3.37288 19.558 4.08576 20.1426 5.22057 20.1426C6.35538 20.1426 7.06918 19.558 7.06918 17.8682C7.06918 15.9848 6.35556 14.7814 4.02044 12.7345C1.03777 10.1037 0.0653123 8.25162 0.0653123 5.65356C0.0653123 2.07871 1.913 0 5.38366 0C8.85433 0 10.5719 2.07852 10.5719 5.7175V6.66085H7.1985V5.49092C7.1985 3.86576 6.5502 3.24956 5.41465 3.24956C4.2791 3.24956 3.63246 3.86576 3.63246 5.42437C3.63246 7.08187 4.37688 8.2834 6.71255 10.3305C9.69597 12.962 10.6374 14.7807 10.6374 17.6075C10.6374 21.3105 8.7558 23.3897 5.25359 23.3897C1.75138 23.3897 0 21.311 0 17.673Z" fill="black" fill-opacity="0.2"/>
<path d="M12.677 0.325439H16.2447V23.0665H12.677V0.325439Z" fill="#C4C4C4"/>
<path d="M12.677 0.325439H16.2447V23.0665H12.677V0.325439Z" fill="black" fill-opacity="0.2"/>
<path d="M18.9009 0.325439H23.3771L26.8468 13.9377H26.9123V0.325439H30.0904V23.0665H26.425L22.1452 6.4647H22.0805V23.0665H18.9009V0.325439Z" fill="#C4C4C4"/>
<path d="M18.9009 0.325439H23.3771L26.8468 13.9377H26.9123V0.325439H30.0904V23.0665H26.425L22.1452 6.4647H22.0805V23.0665H18.9009V0.325439Z" fill="black" fill-opacity="0.2"/>
<path d="M32.4868 17.673V5.7175C32.4868 2.0787 34.3029 0 37.8051 0C41.3073 0 43.1235 2.07852 43.1235 5.7175V7.66813H39.7508V5.49073C39.7508 3.86557 39.0379 3.24938 37.9031 3.24938C36.7683 3.24938 36.0545 3.86557 36.0545 5.49073V17.933C36.0545 19.5582 36.7674 20.1428 37.9031 20.1428C39.0388 20.1428 39.7508 19.5582 39.7508 17.933V13.4819H37.9677V10.2333H43.1237V17.673C43.1237 21.311 41.3075 23.3905 37.8053 23.3905C34.3031 23.3905 32.4868 21.311 32.4868 17.673Z" fill="#C4C4C4"/>
<path d="M32.4868 17.673V5.7175C32.4868 2.0787 34.3029 0 37.8051 0C41.3073 0 43.1235 2.07852 43.1235 5.7175V7.66813H39.7508V5.49073C39.7508 3.86557 39.0379 3.24938 37.9031 3.24938C36.7683 3.24938 36.0545 3.86557 36.0545 5.49073V17.933C36.0545 19.5582 36.7674 20.1428 37.9031 20.1428C39.0388 20.1428 39.7508 19.5582 39.7508 17.933V13.4819H37.9677V10.2333H43.1237V17.673C43.1237 21.311 41.3075 23.3905 37.8053 23.3905C34.3031 23.3905 32.4868 21.311 32.4868 17.673Z" fill="black" fill-opacity="0.2"/>
<path d="M45.4234 0.325439H48.9911V19.8178H54.86V23.0665H45.4234V0.325439Z" fill="#C4C4C4"/>
<path d="M45.4234 0.325439H48.9911V19.8178H54.86V23.0665H45.4234V0.325439Z" fill="black" fill-opacity="0.2"/>
<path d="M56.5768 0.325439H66.3052V3.57463H60.145V9.58434H65.0396V12.833H60.1445V19.8184H66.3047V23.067H56.5768V0.325439Z" fill="#C4C4C4"/>
<path d="M56.5768 0.325439H66.3052V3.57463H60.145V9.58434H65.0396V12.833H60.1445V19.8184H66.3047V23.067H56.5768V0.325439Z" fill="black" fill-opacity="0.2"/>
<path d="M70.2088 19.8313H73.439V23.0656H70.2088V19.8313Z" fill="#C4C4C4"/>
<path d="M70.2088 19.8313H73.439V23.0656H70.2088V19.8313Z" fill="black" fill-opacity="0.2"/>
<path d="M12.9159 26.8081H22.6451V30.0567H16.4849V36.0664H21.3815V39.3151H16.4849V46.3005H22.6451V49.5491H12.9159V26.8081Z" fill="#C4C4C4"/>
<path d="M12.9159 26.8081H22.6451V30.0567H16.4849V36.0664H21.3815V39.3151H16.4849V46.3005H22.6451V49.5491H12.9159V26.8081Z" fill="black" fill-opacity="0.2"/>
<path d="M37.6864 26.8081H42.9732C46.6702 26.8081 48.2593 28.5295 48.2593 32.038V33.4364C48.2593 35.775 47.5132 37.2704 45.9242 37.9191V37.9847C47.708 38.5362 48.2916 40.2261 48.2916 42.7929V46.7893C48.2916 47.8931 48.3231 48.7067 48.6812 49.5504H45.0482C44.8541 48.9666 44.7233 48.6087 44.7233 46.7561V42.5961C44.7233 40.485 44.1082 39.8034 42.486 39.8034H41.2541V49.5493H37.6864V26.8081ZM42.5515 36.554C43.8811 36.554 44.6917 35.9702 44.6917 34.1508V32.3955C44.6917 30.7711 44.1405 30.0562 42.8756 30.0562H41.2543V36.5535L42.5515 36.554Z" fill="#C4C4C4"/>
<path d="M37.6864 26.8081H42.9732C46.6702 26.8081 48.2593 28.5295 48.2593 32.038V33.4364C48.2593 35.775 47.5132 37.2704 45.9242 37.9191V37.9847C47.708 38.5362 48.2916 40.2261 48.2916 42.7929V46.7893C48.2916 47.8931 48.3231 48.7067 48.6812 49.5504H45.0482C44.8541 48.9666 44.7233 48.6087 44.7233 46.7561V42.5961C44.7233 40.485 44.1082 39.8034 42.486 39.8034H41.2541V49.5493H37.6864V26.8081ZM42.5515 36.554C43.8811 36.554 44.6917 35.9702 44.6917 34.1508V32.3955C44.6917 30.7711 44.1405 30.0562 42.8756 30.0562H41.2543V36.5535L42.5515 36.554Z" fill="black" fill-opacity="0.2"/>
<path d="M53.4775 30.0567H49.748V26.8081H60.7736V30.0567H57.0441V49.5491H53.4775V30.0567Z" fill="#C4C4C4"/>
<path d="M53.4775 30.0567H49.748V26.8081H60.7736V30.0567H57.0441V49.5491H53.4775V30.0567Z" fill="black" fill-opacity="0.2"/>
<path d="M62.4916 26.8081H66.0593V40.5042H69.8857V26.8081H73.4534V49.5491H69.8857V43.7528H66.0593V49.5493H62.4916V26.8081Z" fill="#C4C4C4"/>
<path d="M62.4916 26.8081H66.0593V40.5042H69.8857V26.8081H73.4534V49.5491H69.8857V43.7528H66.0593V49.5493H62.4916V26.8081Z" fill="black" fill-opacity="0.2"/>
<path d="M36.2026 49.4017L33.9259 43.8132H35.3292L32.7 37.3594H34.456L30.0904 26.6421L25.7241 37.3596H27.4801L24.8509 43.8134H26.2544L23.9778 49.4019H29.5874V57.2687H30.5934V49.4017H36.2026Z" fill="#C4C4C4"/>
<path d="M36.2026 49.4017L33.9259 43.8132H35.3292L32.7 37.3594H34.456L30.0904 26.6421L25.7241 37.3596H27.4801L24.8509 43.8134H26.2544L23.9778 49.4019H29.5874V57.2687H30.5934V49.4017H36.2026Z" fill="black" fill-opacity="0.2"/>
</svg>