<svg version="1.1" id="Layer_1" xmlns="http://www.w3.org/2000/svg" xmlns:xlink="http://www.w3.org/1999/xlink" x="0px" y="0px"
	 width="100%" viewBox="0 0 449 112" enable-background="new 0 0 449 112" xml:space="preserve">
<path fill="#3E3386" opacity="1.000000" stroke="none" 
	d="
M1.000000,75.250000 
	C11.912339,64.304230 22.824726,53.608505 33.736958,42.912621 
	C35.044785,41.630722 36.351768,40.347965 38.149033,39.036186 
	C38.889580,39.210812 39.052685,39.469952 39.079994,40.268105 
	C39.035305,64.532089 39.038864,88.312157 38.986618,112.317062 
	C38.930813,112.541885 39.000000,113.000000 39.000000,113.000000 
	C39.000000,113.000000 38.500000,113.000000 38.135025,112.686111 
	C25.513367,100.248146 13.256684,88.124069 1.000000,76.000000 
	C1.000000,76.000000 1.000000,75.500000 1.000000,75.250000 
z"/>
<path fill="#FB0E54" opacity="1.000000" stroke="none" 
	d="
M114.032501,112.043594 
	C114.032501,112.043594 113.995949,112.521111 113.997971,112.760559 
	C114.000000,113.000000 113.500000,113.000000 113.130142,112.687828 
	C100.545914,100.255371 88.331551,88.135078 76.288757,75.736732 
	C88.846848,63.199963 101.233376,50.941257 113.619904,38.682549 
	C113.796028,38.789970 113.956024,38.917610 114.085716,39.728920 
	C114.058517,64.276115 114.045509,88.159851 114.032501,112.043594 
z"/>
<path fill="#047ABB" opacity="1.000000" stroke="none" 
	d="
M39.088509,38.023605 
	C49.839420,27.231243 60.593006,16.441538 71.337723,5.643014 
	C72.622047,4.352256 73.858124,3.013489 75.058281,1.348486 
	C75.444443,1.000000 75.888893,1.000000 76.666672,1.000000 
	C78.787392,3.074154 80.452682,5.270309 82.382736,7.201915 
	C92.133446,16.960430 101.953064,26.650099 111.599625,36.974110 
	C109.642792,37.725452 107.835030,37.986771 106.026871,37.989471 
	C83.714119,38.022770 61.401306,38.018318 39.088509,38.023605 
z"/>
<path fill="#FFFFFF" opacity="1.000000" stroke="none" 
	d="
M450.000000,84.531342 
	C447.518433,84.896133 444.999969,85.015923 442.567474,84.614548 
	C440.762665,84.316742 439.069519,83.342216 436.700775,82.427414 
	C429.155640,87.618423 416.557800,86.526436 409.730560,78.017929 
	C403.014008,69.647362 402.958130,55.950035 409.844299,47.967571 
	C416.874084,39.818600 426.968048,38.652340 437.747314,44.743450 
	C440.466278,39.551132 445.272339,42.718002 449.543304,41.956253 
	C450.000000,56.020893 450.000000,70.041786 450.000000,84.531342 
M427.498077,51.976173 
	C419.778320,53.115635 416.042297,57.579967 416.834259,64.718880 
	C417.535614,71.040787 422.500793,74.870728 429.117859,74.193947 
	C434.337311,73.660110 438.470459,69.169586 438.702057,63.781071 
	C438.967438,57.605267 435.285889,53.437332 427.498077,51.976173 
z"/>
<path fill="#FFFFFF" opacity="1.000000" stroke="none" 
	d="
M317.851959,62.999939 
	C317.851929,67.824661 317.665192,72.158974 317.884308,76.472664 
	C318.839722,95.280342 305.546112,104.270760 288.087494,101.490166 
	C283.363342,100.737755 278.906860,98.304466 273.859222,96.472755 
	C275.823456,92.561813 277.209167,89.802711 278.751465,86.731834 
	C286.418793,90.658783 294.046082,94.171959 301.934357,89.117989 
	C304.159119,87.692604 305.097656,84.259705 306.125366,81.478867 
	C293.769379,86.830261 283.188599,84.988487 276.539062,76.104919 
	C270.699493,68.303474 271.425171,55.331551 278.116760,47.902679 
	C285.398163,39.819000 295.898193,38.506893 305.603088,44.467941 
	C308.632904,39.535007 313.239899,42.747601 317.851990,41.683247 
	C317.851990,48.977097 317.851990,55.738567 317.851959,62.999939 
M306.243011,62.560593 
	C305.385834,55.251816 301.227539,51.422890 294.623535,51.861477 
	C288.780365,52.249531 284.815491,56.654919 284.759369,62.821629 
	C284.703674,68.938484 288.660919,73.472046 294.470856,73.947487 
	C300.984680,74.480530 305.367126,70.558891 306.243011,62.560593 
z"/>
<path fill="#0298D2" opacity="1.000000" stroke="none" 
	d="
M38.896866,38.067520 
	C61.401306,38.018318 83.714119,38.022770 106.026871,37.989471 
	C107.835030,37.986771 109.642792,37.725452 111.739319,37.276943 
	C112.458275,37.363819 112.888664,37.758060 113.469475,38.417423 
	C101.233376,50.941257 88.846848,63.199963 76.288757,75.736732 
	C76.117180,76.014793 75.758873,76.088806 75.379333,75.785431 
	C63.042614,63.582767 51.085430,51.683479 39.128246,39.784191 
	C39.052685,39.469952 38.889580,39.210812 38.459900,38.857723 
	C38.282681,38.410572 38.424133,38.211494 38.896866,38.067520 
z"/>
<path fill="#FFFFFF" opacity="1.000000" stroke="none" 
	d="
M217.183975,44.204140 
	C217.204742,57.795231 217.204742,70.905655 217.204742,84.785828 
	C212.907501,83.727760 208.324905,86.904922 204.917465,81.546799 
	C199.974564,85.689148 193.500671,86.703781 187.209015,84.506233 
	C183.217545,83.112091 179.258881,80.218033 176.505737,76.964165 
	C169.852325,69.100632 170.387344,55.945717 176.916367,48.321449 
	C184.257919,39.748348 193.931793,38.511753 205.128250,44.715183 
	C207.034744,41.141773 213.835922,40.581337 217.183975,44.204140 
M205.611404,60.255772 
	C203.016647,53.990055 198.703140,51.183521 193.067108,52.093979 
	C188.128876,52.891712 184.434769,56.921291 184.016388,61.966587 
	C183.443298,68.877998 188.032593,74.180489 194.647110,74.249374 
	C201.999588,74.325943 206.145859,69.421707 205.611404,60.255772 
z"/>
<path fill="#D81150" opacity="1.000000" stroke="none" 
	d="
M114.337341,111.908310 
	C114.045509,88.159851 114.058517,64.276115 114.120667,39.879055 
	C125.959084,51.750927 137.748367,64.136124 149.503525,76.485466 
	C138.612473,87.509666 126.627327,99.641342 114.337341,111.908310 
z"/>
<path fill="#FFFFFF" opacity="1.000000" stroke="none" 
	d="
M255.061264,83.015381 
	C254.984589,75.874260 255.061142,68.727287 254.788406,61.593666 
	C254.511963,54.363106 249.719543,50.414219 243.873337,52.403053 
	C239.740402,53.809048 237.939774,56.971931 237.926910,61.236797 
	C237.908371,67.386169 237.673019,73.546989 237.976547,79.680847 
	C238.169937,83.589043 237.036591,85.246849 232.995331,84.740715 
	C230.897095,84.477921 228.738846,84.694450 226.207428,84.694450 
	C226.207428,64.930031 226.207428,45.614281 226.207428,25.660273 
	C229.192291,25.660273 232.123352,25.660273 235.632660,26.022224 
	C236.516647,26.602930 236.822357,26.821680 237.128067,27.040436 
	C237.128067,32.786926 237.128067,38.533413 237.128067,43.870884 
	C242.290390,42.728222 246.540222,41.140568 250.843826,40.978115 
	C258.345703,40.694946 264.974274,45.605850 265.801697,52.984341 
	C266.889587,62.685738 266.601318,72.548981 266.658081,82.344063 
	C266.662537,83.119949 264.804840,84.458267 263.707458,84.578835 
	C261.087799,84.866638 258.405334,84.582581 255.625244,84.117561 
	C255.616547,83.349770 255.469543,83.119682 255.061264,83.015381 
z"/>
<path fill="#FFFFFF" opacity="1.000000" stroke="none" 
	d="
M362.140015,80.197449 
	C348.079346,90.324020 330.526184,85.523697 325.343842,70.446663 
	C321.871338,60.344017 326.036682,49.025181 335.185638,43.702721 
	C344.380890,38.353340 357.196503,40.283337 363.992096,48.040886 
	C371.256317,56.333473 371.728485,68.408257 365.092224,77.004059 
	C364.282471,78.052917 363.313202,78.978645 362.140015,80.197449 
M336.498901,66.621597 
	C338.421295,71.687080 342.010193,74.407501 347.508850,74.217751 
	C352.422821,74.048180 355.434021,71.167259 357.164673,66.836838 
	C358.979095,62.296909 357.706024,58.275902 354.356842,55.019619 
	C350.937988,51.695564 346.805450,51.063801 342.407318,52.977345 
	C337.716858,55.018089 335.826202,59.070827 336.498901,66.621597 
z"/>
<path fill="#FFFFFF" opacity="1.000000" stroke="none" 
	d="
M387.027710,42.166153 
	C387.606018,42.983208 387.831848,43.603607 387.859619,43.679920 
	C391.722412,42.720299 395.466614,41.517231 399.305023,40.918720 
	C402.671570,40.393784 404.717529,41.795635 403.974304,45.746319 
	C403.549469,48.004742 403.479828,50.329994 403.233459,52.793159 
	C402.130554,52.793159 401.324768,52.865910 400.535675,52.781925 
	C392.487885,51.925343 388.642914,55.038181 388.244629,63.194782 
	C387.977600,68.663742 388.164154,74.154877 388.149719,79.636093 
	C388.145874,81.097534 388.149139,82.558983 388.149139,84.696449 
	C384.920776,84.696449 382.094269,85.019814 379.406006,84.550766 
	C378.186127,84.337929 376.327545,82.569473 376.309357,81.480782 
	C376.093323,68.552635 376.170197,55.619591 376.170197,41.969498 
	C379.878113,41.969498 383.276672,41.969498 387.027710,42.166153 
z"/>
<path fill="#585574" opacity="1.000000" stroke="none" 
	d="
M237.110748,26.707758 
	C236.822357,26.821680 236.516647,26.602930 236.083557,26.128084 
	C236.335266,26.039688 236.714340,26.207386 237.110748,26.707758 
z"/>
<path fill="#535070" opacity="1.000000" stroke="none" 
	d="
M255.025238,83.261780 
	C255.469543,83.119682 255.616547,83.349770 255.379593,83.816902 
	C255.256943,83.928146 254.989212,83.508186 255.025238,83.261780 
z"/>
<path fill="#5F408C" opacity="1.000000" stroke="none" 
	d="
M39.079994,40.268105 
	C51.085430,51.683479 63.042614,63.582767 75.196495,75.779526 
	C63.489147,88.008606 51.585106,99.940208 39.361744,111.982025 
	C39.038864,88.312157 39.035305,64.532089 39.079994,40.268105 
z"/>
</svg>